<svg width="849" height="189" viewBox="0 0 849 189" fill="none" xmlns="http://www.w3.org/2000/svg">
<g filter="url(#filter0_d_62_675)">
<path d="M4 25C4 11.1929 15.1929 0 29 0H820C833.807 0 845 11.1929 845 25V181H4V25Z" fill="#2C2C2C"/>
<path d="M29 0.5H820C833.531 0.5 844.5 11.469 844.5 25V180.5H4.5V25C4.5 11.469 15.469 0.5 29 0.5Z" stroke="black"/>
</g>
<path d="M775 102.5C791.292 102.5 804.5 115.708 804.5 132C804.5 148.292 791.292 161.5 775 161.5C758.708 161.5 745.5 148.292 745.5 132C745.5 115.708 758.708 102.5 775 102.5Z" fill="#3B82F6" stroke="#2C2C2C"/>
<path d="M770 126.5L775 121.5M775 121.5L780 126.5M775 121.5V146.5" stroke="#2C2C2C" stroke-width="2.5" stroke-linecap="round" stroke-linejoin="round"/>
<path d="M425 152V158M425 152C428.713 152 432.274 150.525 434.899 147.899C437.525 145.274 439 141.713 439 138V134M425 152C421.287 152 417.726 150.525 415.101 147.899C412.475 145.274 411 141.713 411 138V134M425 118C428.314 118 431 120.686 431 124V138C431 141.314 428.314 144 425 144C421.686 144 419 141.314 419 138V124C419 120.686 421.686 118 425 118Z" stroke="#EF0054" stroke-width="4" stroke-linecap="round" stroke-linejoin="round"/>
<path d="M78.5 136.75V144.25M83.5 136.75V144.25M89.75 130.5V148C89.75 148.663 89.4866 149.299 89.0178 149.768C88.5489 150.237 87.913 150.5 87.25 150.5H74.75C74.087 150.5 73.4511 150.237 72.9822 149.768C72.5134 149.299 72.25 148.663 72.25 148V130.5M69.75 130.5H92.25M76 130.5V128C76 127.337 76.2634 126.701 76.7322 126.232C77.2011 125.763 77.837 125.5 78.5 125.5H83.5C84.163 125.5 84.7989 125.763 85.2678 126.232C85.7366 126.701 86 127.337 86 128V130.5" stroke="#B0AFBD" stroke-width="2.5" stroke-linecap="round" stroke-linejoin="round"/>
<path d="M72.25 38.25C72.2499 37.8101 72.3658 37.378 72.5861 36.9972C72.8064 36.6165 73.1233 36.3006 73.5047 36.0815C73.8861 35.8624 74.3186 35.7478 74.7585 35.7493C75.1984 35.7508 75.6301 35.8683 76.01 36.09L91.0062 44.8375C91.3847 45.0571 91.6989 45.3722 91.9174 45.7513C92.136 46.1303 92.2512 46.5601 92.2515 46.9977C92.2519 47.4352 92.1375 47.8652 91.9196 48.2447C91.7017 48.6241 91.3881 48.9398 91.01 49.16L76.01 57.91C75.6301 58.1317 75.1984 58.2492 74.7585 58.2507C74.3186 58.2522 73.8861 58.1376 73.5047 57.9185C73.1233 57.6994 72.8064 57.3835 72.5861 57.0028C72.3658 56.622 72.2499 56.1899 72.25 55.75V38.25Z" fill="white"/>
<path d="M697.812 56.2486C696.475 56.2486 695.336 55.8846 694.395 55.1566C693.453 54.4227 692.734 53.3603 692.237 51.9695C691.74 50.5727 691.491 48.8859 691.491 46.9091C691.491 44.9441 691.74 43.2662 692.237 41.8754C692.74 40.4786 693.462 39.4132 694.403 38.6793C695.35 37.9395 696.487 37.5696 697.812 37.5696C699.138 37.5696 700.272 37.9395 701.213 38.6793C702.16 39.4132 702.882 40.4786 703.379 41.8754C703.882 43.2662 704.134 44.9441 704.134 46.9091C704.134 48.8859 703.885 50.5727 703.388 51.9695C702.891 53.3603 702.172 54.4227 701.23 55.1566C700.289 55.8846 699.15 56.2486 697.812 56.2486ZM697.812 54.2955C699.138 54.2955 700.168 53.6562 700.902 52.3778C701.636 51.0994 702.003 49.2765 702.003 46.9091C702.003 45.3348 701.834 43.9942 701.497 42.8874C701.165 41.7807 700.686 40.9373 700.059 40.3572C699.437 39.7772 698.688 39.4872 697.812 39.4872C696.499 39.4872 695.472 40.1353 694.732 41.4315C693.992 42.7217 693.622 44.5476 693.622 46.9091C693.622 48.4834 693.788 49.821 694.119 50.9219C694.451 52.0227 694.927 52.8602 695.549 53.4343C696.176 54.0084 696.931 54.2955 697.812 54.2955ZM709.07 53.674C708.632 53.674 708.256 53.5172 707.942 53.2035C707.628 52.8898 707.472 52.514 707.472 52.076C707.472 51.638 707.628 51.2622 707.942 50.9485C708.256 50.6348 708.632 50.478 709.07 50.478C709.508 50.478 709.883 50.6348 710.197 50.9485C710.511 51.2622 710.668 51.638 710.668 52.076C710.668 52.366 710.594 52.6323 710.446 52.875C710.304 53.1177 710.111 53.313 709.869 53.4609C709.632 53.603 709.366 53.674 709.07 53.674ZM709.07 44.4766C708.632 44.4766 708.256 44.3197 707.942 44.006C707.628 43.6924 707.472 43.3165 707.472 42.8786C707.472 42.4406 707.628 42.0647 707.942 41.7511C708.256 41.4374 708.632 41.2805 709.07 41.2805C709.508 41.2805 709.883 41.4374 710.197 41.7511C710.511 42.0647 710.668 42.4406 710.668 42.8786C710.668 43.1686 710.594 43.4349 710.446 43.6776C710.304 43.9202 710.111 44.1155 709.869 44.2635C709.632 44.4055 709.366 44.4766 709.07 44.4766ZM720.322 56.2486C718.985 56.2486 717.845 55.8846 716.904 55.1566C715.963 54.4227 715.244 53.3603 714.747 51.9695C714.25 50.5727 714.001 48.8859 714.001 46.9091C714.001 44.9441 714.25 43.2662 714.747 41.8754C715.25 40.4786 715.972 39.4132 716.913 38.6793C717.86 37.9395 718.997 37.5696 720.322 37.5696C721.648 37.5696 722.781 37.9395 723.722 38.6793C724.669 39.4132 725.392 40.4786 725.889 41.8754C726.392 43.2662 726.643 44.9441 726.643 46.9091C726.643 48.8859 726.395 50.5727 725.898 51.9695C725.4 53.3603 724.681 54.4227 723.74 55.1566C722.799 55.8846 721.66 56.2486 720.322 56.2486ZM720.322 54.2955C721.648 54.2955 722.678 53.6562 723.412 52.3778C724.146 51.0994 724.513 49.2765 724.513 46.9091C724.513 45.3348 724.344 43.9942 724.007 42.8874C723.675 41.7807 723.196 40.9373 722.568 40.3572C721.947 39.7772 721.198 39.4872 720.322 39.4872C719.008 39.4872 717.981 40.1353 717.242 41.4315C716.502 42.7217 716.132 44.5476 716.132 46.9091C716.132 48.4834 716.298 49.821 716.629 50.9219C716.961 52.0227 717.437 52.8602 718.058 53.4343C718.686 54.0084 719.44 54.2955 720.322 54.2955ZM736.16 56.2486C734.988 56.2486 733.944 56.0473 733.026 55.6449C732.115 55.2424 731.39 54.6831 730.851 53.967C730.319 53.2449 730.029 52.4074 729.981 51.4545H732.219C732.266 52.0405 732.467 52.5465 732.822 52.9727C733.177 53.3929 733.642 53.7184 734.216 53.9492C734.79 54.18 735.426 54.2955 736.125 54.2955C736.906 54.2955 737.599 54.1593 738.202 53.8871C738.806 53.6148 739.279 53.236 739.623 52.7507C739.966 52.2654 740.138 51.7031 740.138 51.0639C740.138 50.3951 739.972 49.8062 739.64 49.2972C739.309 48.7823 738.824 48.3799 738.184 48.0898C737.545 47.7998 736.764 47.6548 735.841 47.6548H734.385V45.7017H735.841C736.563 45.7017 737.196 45.5715 737.741 45.3111C738.291 45.0507 738.72 44.6837 739.028 44.2102C739.342 43.7367 739.498 43.1804 739.498 42.5412C739.498 41.9257 739.362 41.39 739.09 40.9343C738.818 40.4786 738.433 40.1235 737.936 39.869C737.445 39.6145 736.865 39.4872 736.196 39.4872C735.568 39.4872 734.977 39.6026 734.42 39.8335C733.87 40.0584 733.42 40.3868 733.071 40.8189C732.722 41.245 732.532 41.7599 732.503 42.3636H730.372C730.407 41.4107 730.695 40.5762 731.233 39.8601C731.772 39.138 732.476 38.5758 733.346 38.1733C734.222 37.7708 735.184 37.5696 736.231 37.5696C737.356 37.5696 738.321 37.7975 739.126 38.2532C739.93 38.703 740.549 39.2978 740.981 40.0376C741.413 40.7775 741.629 41.5765 741.629 42.4347C741.629 43.4586 741.36 44.3316 740.821 45.0536C740.289 45.7757 739.564 46.2758 738.646 46.554V46.696C739.794 46.8854 740.691 47.3737 741.336 48.1609C741.981 48.9421 742.304 49.9098 742.304 51.0639C742.304 52.0523 742.035 52.9401 741.496 53.7273C740.963 54.5085 740.235 55.1241 739.312 55.5739C738.389 56.0237 737.338 56.2486 736.16 56.2486Z" fill="#FEFEFF"/>
<path d="M117.5 44.5V48.25M122.5 39.5V53.25M127.5 35.75V58.25M132.5 42V50.75M137.5 38.25V54.5M142.5 44.5V48.25" stroke="#B0AFBD" stroke-width="2.5" stroke-linecap="round" stroke-linejoin="round"/>
<path d="M295.5 44.5V48.25M300.5 39.5V53.25M305.5 35.75V58.25M310.5 42V50.75M315.5 38.25V54.5M320.5 44.5V48.25" stroke="#B0AFBD" stroke-width="2.5" stroke-linecap="round" stroke-linejoin="round"/>
<path d="M471.5 44.5V48.25M476.5 39.5V53.25M481.5 35.75V58.25M486.5 42V50.75M491.5 38.25V54.5M496.5 44.5V48.25" stroke="#B0AFBD" stroke-width="2.5" stroke-linecap="round" stroke-linejoin="round"/>
<path d="M177.5 44.5V48.25M182.5 39.5V53.25M187.5 35.75V58.25M192.5 42V50.75M197.5 38.25V54.5M202.5 44.5V48.25" stroke="#B0AFBD" stroke-width="2.5" stroke-linecap="round" stroke-linejoin="round"/>
<path d="M355.5 44.5V48.25M360.5 39.5V53.25M365.5 35.75V58.25M370.5 42V50.75M375.5 38.25V54.5M380.5 44.5V48.25" stroke="#B0AFBD" stroke-width="2.5" stroke-linecap="round" stroke-linejoin="round"/>
<path d="M531.5 44.5V48.25M536.5 39.5V53.25M541.5 35.75V58.25M546.5 42V50.75M551.5 38.25V54.5M556.5 44.5V48.25" stroke="#B0AFBD" stroke-width="2.5" stroke-linecap="round" stroke-linejoin="round"/>
<path d="M235.5 44.5V48.25M240.5 39.5V53.25M245.5 35.75V58.25M250.5 42V50.75M255.5 38.25V54.5M260.5 44.5V48.25" stroke="#B0AFBD" stroke-width="2.5" stroke-linecap="round" stroke-linejoin="round"/>
<path d="M413.5 44.5V48.25M418.5 39.5V53.25M423.5 35.75V58.25M428.5 42V50.75M433.5 38.25V54.5M438.5 44.5V48.25" stroke="#B0AFBD" stroke-width="2.5" stroke-linecap="round" stroke-linejoin="round"/>
<path d="M589.5 44.5V48.25M594.5 39.5V53.25M599.5 35.75V58.25M604.5 42V50.75M609.5 38.25V54.5M614.5 44.5V48.25" stroke="#B0AFBD" stroke-width="2.5" stroke-linecap="round" stroke-linejoin="round"/>
<path d="M147.5 44.5V48.25M152.5 39.5V53.25M157.5 35.75V58.25M162.5 42V50.75M167.5 38.25V54.5M172.5 44.5V48.25" stroke="#B0AFBD" stroke-width="2.5" stroke-linecap="round" stroke-linejoin="round"/>
<path d="M325.5 44.5V48.25M330.5 39.5V53.25M335.5 35.75V58.25M340.5 42V50.75M345.5 38.25V54.5M350.5 44.5V48.25" stroke="#B0AFBD" stroke-width="2.5" stroke-linecap="round" stroke-linejoin="round"/>
<path d="M501.5 44.5V48.25M506.5 39.5V53.25M511.5 35.75V58.25M516.5 42V50.75M521.5 38.25V54.5M526.5 44.5V48.25" stroke="#B0AFBD" stroke-width="2.5" stroke-linecap="round" stroke-linejoin="round"/>
<path d="M207.5 44.5V48.25M212.5 39.5V53.25M217.5 35.75V58.25M222.5 42V50.75M227.5 38.25V54.5M232.5 44.5V48.25" stroke="#B0AFBD" stroke-width="2.5" stroke-linecap="round" stroke-linejoin="round"/>
<path d="M385.5 44.5V48.25M390.5 39.5V53.25M395.5 35.75V58.25M400.5 42V50.75M405.5 38.25V54.5M410.5 44.5V48.25" stroke="#B0AFBD" stroke-width="2.5" stroke-linecap="round" stroke-linejoin="round"/>
<path d="M561.5 44.5V48.25M566.5 39.5V53.25M571.5 35.75V58.25M576.5 42V50.75M581.5 38.25V54.5M586.5 44.5V48.25" stroke="#B0AFBD" stroke-width="2.5" stroke-linecap="round" stroke-linejoin="round"/>
<path d="M265.5 44.5V48.25M270.5 39.5V53.25M275.5 35.75V58.25M280.5 42V50.75M285.5 38.25V54.5M290.5 44.5V48.25" stroke="#B0AFBD" stroke-width="2.5" stroke-linecap="round" stroke-linejoin="round"/>
<path d="M443.5 44.5V48.25M448.5 39.5V53.25M453.5 35.75V58.25M458.5 42V50.75M463.5 38.25V54.5M468.5 44.5V48.25" stroke="#B0AFBD" stroke-width="2.5" stroke-linecap="round" stroke-linejoin="round"/>
<path d="M619.5 44.5V48.25M624.5 39.5V53.25M629.5 35.75V58.25M634.5 42V50.75M639.5 38.25V54.5M644.5 44.5V48.25" stroke="#B0AFBD" stroke-width="2.5" stroke-linecap="round" stroke-linejoin="round"/>
<path d="M649.5 44.5V48.25M654.5 39.5V53.25M659.5 35.75V58.25M664.5 42V50.75M669.5 38.25V54.5M674.5 44.5V48.25" stroke="#B0AFBD" stroke-width="2.5" stroke-linecap="round" stroke-linejoin="round"/>
<path d="M115 52C117.761 52 120 49.7614 120 47C120 44.2386 117.761 42 115 42C112.239 42 110 44.2386 110 47C110 49.7614 112.239 52 115 52Z" fill="#1FFF02"/>
<defs>
<filter id="filter0_d_62_675" x="0" y="0" width="849" height="189" filterUnits="userSpaceOnUse" color-interpolation-filters="sRGB">
<feFlood flood-opacity="0" result="BackgroundImageFix"/>
<feColorMatrix in="SourceAlpha" type="matrix" values="0 0 0 0 0 0 0 0 0 0 0 0 0 0 0 0 0 0 127 0" result="hardAlpha"/>
<feOffset dy="4"/>
<feGaussianBlur stdDeviation="2"/>
<feComposite in2="hardAlpha" operator="out"/>
<feColorMatrix type="matrix" values="0 0 0 0 0 0 0 0 0 0 0 0 0 0 0 0 0 0 0.25 0"/>
<feBlend mode="normal" in2="BackgroundImageFix" result="effect1_dropShadow_62_675"/>
<feBlend mode="normal" in="SourceGraphic" in2="effect1_dropShadow_62_675" result="shape"/>
</filter>
</defs>
</svg>
