<svg width="849" height="136" viewBox="0 0 849 136" fill="none" xmlns="http://www.w3.org/2000/svg">
<g filter="url(#filter0_d_56_1356)">
<path d="M4 25C4 11.1929 15.1929 0 29 0H820C833.807 0 845 11.1929 845 25V128H4V25Z" fill="#2C2C2C"/>
<path d="M29 0.5H820C833.531 0.5 844.5 11.469 844.5 25V127.5H4.5V25C4.5 11.469 15.469 0.5 29 0.5Z" stroke="black"/>
</g>
<path d="M107.42 75.1989C106.483 75.1989 105.647 75.0379 104.913 74.7159C104.184 74.3939 103.604 73.9465 103.173 73.3736C102.747 72.7959 102.515 72.1259 102.477 71.3636H104.267C104.305 71.8324 104.466 72.2372 104.75 72.5781C105.034 72.9143 105.406 73.1747 105.865 73.3594C106.324 73.544 106.833 73.6364 107.392 73.6364C108.017 73.6364 108.571 73.5275 109.054 73.3097C109.537 73.0919 109.916 72.7888 110.19 72.4006C110.465 72.0123 110.602 71.5625 110.602 71.0511C110.602 70.5161 110.47 70.045 110.205 69.6378C109.939 69.2259 109.551 68.9039 109.04 68.6719C108.528 68.4399 107.903 68.3239 107.165 68.3239H106V66.7614H107.165C107.742 66.7614 108.249 66.6572 108.685 66.4489C109.125 66.2405 109.468 65.947 109.714 65.5682C109.965 65.1894 110.091 64.7443 110.091 64.233C110.091 63.7405 109.982 63.312 109.764 62.9474C109.546 62.5829 109.239 62.2988 108.841 62.0952C108.448 61.8916 107.984 61.7898 107.449 61.7898C106.947 61.7898 106.473 61.8821 106.028 62.0668C105.588 62.2467 105.228 62.5095 104.949 62.8551C104.67 63.196 104.518 63.608 104.494 64.0909H102.79C102.818 63.3286 103.048 62.661 103.479 62.0881C103.91 61.5104 104.473 61.0606 105.169 60.7386C105.87 60.4167 106.639 60.2557 107.477 60.2557C108.377 60.2557 109.149 60.438 109.793 60.8026C110.437 61.1624 110.931 61.6383 111.277 62.2301C111.623 62.822 111.795 63.4612 111.795 64.1477C111.795 64.9669 111.58 65.6652 111.149 66.2429C110.723 66.8205 110.143 67.2206 109.409 67.4432V67.5568C110.328 67.7083 111.045 68.099 111.561 68.7287C112.077 69.3537 112.335 70.1278 112.335 71.0511C112.335 71.8419 112.12 72.5521 111.689 73.1818C111.263 73.8068 110.68 74.2992 109.942 74.6591C109.203 75.0189 108.363 75.1989 107.42 75.1989ZM120.893 75V64.0909H122.513V65.7955H122.655C122.882 65.2131 123.249 64.7609 123.756 64.4389C124.262 64.1122 124.871 63.9489 125.581 63.9489C126.301 63.9489 126.9 64.1122 127.378 64.4389C127.861 64.7609 128.237 65.2131 128.507 65.7955H128.621C128.9 65.232 129.319 64.7846 129.878 64.4531C130.437 64.117 131.107 63.9489 131.888 63.9489C132.863 63.9489 133.661 64.2543 134.281 64.8651C134.902 65.4711 135.212 66.4157 135.212 67.6989V75H133.536V67.6989C133.536 66.8939 133.315 66.3187 132.875 65.973C132.435 65.6274 131.916 65.4545 131.32 65.4545C130.553 65.4545 129.958 65.6866 129.537 66.1506C129.116 66.6098 128.905 67.1922 128.905 67.8977V75H127.2V67.5284C127.2 66.9081 126.999 66.4086 126.597 66.0298C126.194 65.6463 125.676 65.4545 125.041 65.4545C124.606 65.4545 124.198 65.5705 123.82 65.8026C123.446 66.0346 123.143 66.3565 122.911 66.7685C122.683 67.1757 122.57 67.6468 122.57 68.1818V75H120.893ZM142.85 75.2273C141.799 75.2273 140.892 74.9953 140.13 74.5312C139.372 74.0625 138.788 73.4091 138.376 72.571C137.969 71.7282 137.765 70.7481 137.765 69.6307C137.765 68.5133 137.969 67.5284 138.376 66.6761C138.788 65.8191 139.361 65.1515 140.094 64.6733C140.833 64.1903 141.695 63.9489 142.68 63.9489C143.248 63.9489 143.809 64.0436 144.363 64.233C144.917 64.4223 145.421 64.7301 145.876 65.1562C146.33 65.5777 146.692 66.1364 146.962 66.8324C147.232 67.5284 147.367 68.3854 147.367 69.4034V70.1136H138.958V68.6648H145.663C145.663 68.0492 145.54 67.5 145.293 67.017C145.052 66.5341 144.706 66.1529 144.256 65.8736C143.811 65.5942 143.286 65.4545 142.68 65.4545C142.012 65.4545 141.434 65.6203 140.947 65.9517C140.464 66.2784 140.092 66.7045 139.832 67.2301C139.571 67.7557 139.441 68.3191 139.441 68.9205V69.8864C139.441 70.7102 139.583 71.4086 139.867 71.9815C140.156 72.5497 140.556 72.983 141.067 73.2812C141.579 73.5748 142.173 73.7216 142.85 73.7216C143.29 73.7216 143.688 73.66 144.043 73.5369C144.403 73.4091 144.713 73.2197 144.974 72.9688C145.234 72.7131 145.435 72.3958 145.577 72.017L147.197 72.4716C147.026 73.0208 146.74 73.5038 146.337 73.9205C145.935 74.3324 145.438 74.6544 144.846 74.8864C144.254 75.1136 143.589 75.2273 142.85 75.2273ZM151.593 68.4375V75H149.917V64.0909H151.536V65.7955H151.678C151.934 65.2415 152.322 64.7964 152.843 64.4602C153.364 64.1193 154.036 63.9489 154.86 63.9489C155.599 63.9489 156.245 64.1004 156.799 64.4034C157.353 64.7017 157.784 65.1562 158.092 65.767C158.399 66.3731 158.553 67.1402 158.553 68.0682V75H156.877V68.1818C156.877 67.3248 156.655 66.6572 156.21 66.179C155.764 65.696 155.154 65.4545 154.377 65.4545C153.842 65.4545 153.364 65.5705 152.942 65.8026C152.526 66.0346 152.197 66.3731 151.955 66.8182C151.714 67.2633 151.593 67.803 151.593 68.4375ZM169.343 66.5341L167.838 66.9602C167.743 66.7093 167.603 66.4654 167.419 66.2287C167.239 65.9872 166.993 65.7884 166.68 65.6321C166.368 65.4759 165.967 65.3977 165.48 65.3977C164.812 65.3977 164.256 65.5516 163.811 65.8594C163.37 66.1624 163.15 66.5483 163.15 67.017C163.15 67.4337 163.302 67.7628 163.605 68.0043C163.908 68.2457 164.381 68.447 165.025 68.608L166.645 69.0057C167.62 69.2424 168.347 69.6046 168.825 70.0923C169.303 70.5753 169.542 71.1979 169.542 71.9602C169.542 72.5852 169.362 73.1439 169.002 73.6364C168.647 74.1288 168.15 74.517 167.511 74.8011C166.872 75.0852 166.128 75.2273 165.281 75.2273C164.168 75.2273 163.247 74.9858 162.518 74.5028C161.789 74.0199 161.327 73.3144 161.133 72.3864L162.724 71.9886C162.876 72.5758 163.162 73.0161 163.583 73.3097C164.01 73.6032 164.566 73.75 165.252 73.75C166.034 73.75 166.654 73.5843 167.113 73.2528C167.577 72.9167 167.809 72.5142 167.809 72.0455C167.809 71.6667 167.677 71.3494 167.412 71.0938C167.146 70.8333 166.739 70.6392 166.19 70.5114L164.372 70.0852C163.373 69.8485 162.639 69.4815 162.17 68.9844C161.706 68.4825 161.474 67.8551 161.474 67.1023C161.474 66.4867 161.647 65.9422 161.993 65.4688C162.343 64.9953 162.819 64.6236 163.42 64.3537C164.026 64.0838 164.713 63.9489 165.48 63.9489C166.559 63.9489 167.407 64.1856 168.022 64.6591C168.643 65.1326 169.083 65.7576 169.343 66.5341ZM175.276 75.2557C174.584 75.2557 173.957 75.1255 173.393 74.8651C172.83 74.5999 172.383 74.2188 172.051 73.7216C171.72 73.2197 171.554 72.6136 171.554 71.9034C171.554 71.2784 171.677 70.7718 171.923 70.3835C172.17 69.9905 172.499 69.6828 172.911 69.4602C173.322 69.2377 173.777 69.072 174.274 68.9631C174.776 68.8494 175.28 68.7595 175.787 68.6932C176.45 68.608 176.987 68.544 177.399 68.5014C177.816 68.4541 178.119 68.3759 178.308 68.267C178.502 68.1581 178.599 67.9687 178.599 67.6989V67.642C178.599 66.9413 178.408 66.3968 178.024 66.0085C177.645 65.6203 177.07 65.4261 176.298 65.4261C175.498 65.4261 174.871 65.6013 174.416 65.9517C173.962 66.3021 173.642 66.6761 173.457 67.0739L171.866 66.5057C172.151 65.8428 172.529 65.3267 173.003 64.9574C173.481 64.5833 174.002 64.3229 174.565 64.1761C175.134 64.0246 175.692 63.9489 176.241 63.9489C176.592 63.9489 176.994 63.9915 177.449 64.0767C177.908 64.1572 178.351 64.3253 178.777 64.581C179.208 64.8366 179.565 65.2225 179.849 65.7386C180.134 66.2547 180.276 66.946 180.276 67.8125V75H178.599V73.5227H178.514C178.401 73.7595 178.211 74.0128 177.946 74.2827C177.681 74.5526 177.328 74.7822 176.888 74.9716C176.447 75.161 175.91 75.2557 175.276 75.2557ZM175.531 73.75C176.194 73.75 176.753 73.6198 177.207 73.3594C177.667 73.099 178.012 72.7628 178.244 72.3509C178.481 71.9389 178.599 71.5057 178.599 71.0511V69.517C178.528 69.6023 178.372 69.6804 178.131 69.7514C177.894 69.8177 177.619 69.8769 177.307 69.929C176.999 69.9763 176.698 70.0189 176.405 70.0568C176.116 70.09 175.882 70.1184 175.702 70.142C175.266 70.1989 174.859 70.2912 174.48 70.419C174.106 70.5421 173.803 70.7292 173.571 70.9801C173.344 71.2263 173.23 71.5625 173.23 71.9886C173.23 72.571 173.446 73.0114 173.876 73.3097C174.312 73.6032 174.864 73.75 175.531 73.75ZM183.335 64.0909H185.011V75.7955C185.011 76.4678 184.895 77.0502 184.663 77.5426C184.436 78.035 184.09 78.4162 183.626 78.6861C183.167 78.956 182.587 79.0909 181.886 79.0909C181.829 79.0909 181.772 79.0909 181.716 79.0909C181.659 79.0909 181.602 79.0909 181.545 79.0909V77.5284C181.602 77.5284 181.654 77.5284 181.701 77.5284C181.749 77.5284 181.801 77.5284 181.858 77.5284C182.369 77.5284 182.743 77.3769 182.98 77.0739C183.217 76.7756 183.335 76.3494 183.335 75.7955V64.0909ZM184.159 62.2727C183.832 62.2727 183.55 62.1615 183.314 61.9389C183.082 61.7164 182.966 61.4489 182.966 61.1364C182.966 60.8239 183.082 60.5563 183.314 60.3338C183.55 60.1113 183.832 60 184.159 60C184.485 60 184.765 60.1113 184.997 60.3338C185.234 60.5563 185.352 60.8239 185.352 61.1364C185.352 61.4489 185.234 61.7164 184.997 61.9389C184.765 62.1615 184.485 62.2727 184.159 62.2727ZM192.655 75.2273C191.604 75.2273 190.697 74.9953 189.935 74.5312C189.177 74.0625 188.592 73.4091 188.18 72.571C187.773 71.7282 187.57 70.7481 187.57 69.6307C187.57 68.5133 187.773 67.5284 188.18 66.6761C188.592 65.8191 189.165 65.1515 189.899 64.6733C190.638 64.1903 191.5 63.9489 192.484 63.9489C193.053 63.9489 193.614 64.0436 194.168 64.233C194.722 64.4223 195.226 64.7301 195.68 65.1562C196.135 65.5777 196.497 66.1364 196.767 66.8324C197.037 67.5284 197.172 68.3854 197.172 69.4034V70.1136H188.763V68.6648H195.467C195.467 68.0492 195.344 67.5 195.098 67.017C194.857 66.5341 194.511 66.1529 194.061 65.8736C193.616 65.5942 193.09 65.4545 192.484 65.4545C191.817 65.4545 191.239 65.6203 190.751 65.9517C190.268 66.2784 189.897 66.7045 189.636 67.2301C189.376 67.7557 189.246 68.3191 189.246 68.9205V69.8864C189.246 70.7102 189.388 71.4086 189.672 71.9815C189.961 72.5497 190.361 72.983 190.872 73.2812C191.384 73.5748 191.978 73.7216 192.655 73.7216C193.095 73.7216 193.493 73.66 193.848 73.5369C194.208 73.4091 194.518 73.2197 194.778 72.9688C195.039 72.7131 195.24 72.3958 195.382 72.017L197.001 72.4716C196.831 73.0208 196.545 73.5038 196.142 73.9205C195.74 74.3324 195.242 74.6544 194.651 74.8864C194.059 75.1136 193.393 75.2273 192.655 75.2273ZM207.449 66.5341L205.943 66.9602C205.848 66.7093 205.709 66.4654 205.524 66.2287C205.344 65.9872 205.098 65.7884 204.786 65.6321C204.473 65.4759 204.073 65.3977 203.585 65.3977C202.918 65.3977 202.361 65.5516 201.916 65.8594C201.476 66.1624 201.256 66.5483 201.256 67.017C201.256 67.4337 201.407 67.7628 201.71 68.0043C202.013 68.2457 202.487 68.447 203.131 68.608L204.75 69.0057C205.725 69.2424 206.452 69.6046 206.93 70.0923C207.409 70.5753 207.648 71.1979 207.648 71.9602C207.648 72.5852 207.468 73.1439 207.108 73.6364C206.753 74.1288 206.256 74.517 205.616 74.8011C204.977 75.0852 204.234 75.2273 203.386 75.2273C202.274 75.2273 201.353 74.9858 200.624 74.5028C199.894 74.0199 199.433 73.3144 199.239 72.3864L200.83 71.9886C200.981 72.5758 201.268 73.0161 201.689 73.3097C202.115 73.6032 202.671 73.75 203.358 73.75C204.139 73.75 204.759 73.5843 205.219 73.2528C205.683 72.9167 205.915 72.5142 205.915 72.0455C205.915 71.6667 205.782 71.3494 205.517 71.0938C205.252 70.8333 204.845 70.6392 204.295 70.5114L202.477 70.0852C201.478 69.8485 200.744 69.4815 200.276 68.9844C199.812 68.4825 199.58 67.8551 199.58 67.1023C199.58 66.4867 199.752 65.9422 200.098 65.4688C200.448 64.9953 200.924 64.6236 201.526 64.3537C202.132 64.0838 202.818 63.9489 203.585 63.9489C204.665 63.9489 205.512 64.1856 206.128 64.6591C206.748 65.1326 207.188 65.7576 207.449 66.5341ZM223.523 66.5341L222.017 66.9602C221.923 66.7093 221.783 66.4654 221.598 66.2287C221.418 65.9872 221.172 65.7884 220.86 65.6321C220.547 65.4759 220.147 65.3977 219.659 65.3977C218.992 65.3977 218.435 65.5516 217.99 65.8594C217.55 66.1624 217.33 66.5483 217.33 67.017C217.33 67.4337 217.481 67.7628 217.784 68.0043C218.087 68.2457 218.561 68.447 219.205 68.608L220.824 69.0057C221.8 69.2424 222.526 69.6046 223.005 70.0923C223.483 70.5753 223.722 71.1979 223.722 71.9602C223.722 72.5852 223.542 73.1439 223.182 73.6364C222.827 74.1288 222.33 74.517 221.691 74.8011C221.051 75.0852 220.308 75.2273 219.461 75.2273C218.348 75.2273 217.427 74.9858 216.698 74.5028C215.969 74.0199 215.507 73.3144 215.313 72.3864L216.904 71.9886C217.055 72.5758 217.342 73.0161 217.763 73.3097C218.189 73.6032 218.746 73.75 219.432 73.75C220.213 73.75 220.834 73.5843 221.293 73.2528C221.757 72.9167 221.989 72.5142 221.989 72.0455C221.989 71.6667 221.856 71.3494 221.591 71.0938C221.326 70.8333 220.919 70.6392 220.37 70.5114L218.551 70.0852C217.552 69.8485 216.819 69.4815 216.35 68.9844C215.886 68.4825 215.654 67.8551 215.654 67.1023C215.654 66.4867 215.827 65.9422 216.172 65.4688C216.523 64.9953 216.998 64.6236 217.6 64.3537C218.206 64.0838 218.892 63.9489 219.659 63.9489C220.739 63.9489 221.587 64.1856 222.202 64.6591C222.822 65.1326 223.263 65.7576 223.523 66.5341ZM230.819 75.2273C229.768 75.2273 228.861 74.9953 228.099 74.5312C227.341 74.0625 226.756 73.4091 226.344 72.571C225.937 71.7282 225.734 70.7481 225.734 69.6307C225.734 68.5133 225.937 67.5284 226.344 66.6761C226.756 65.8191 227.329 65.1515 228.063 64.6733C228.802 64.1903 229.664 63.9489 230.648 63.9489C231.217 63.9489 231.778 64.0436 232.332 64.233C232.886 64.4223 233.39 64.7301 233.844 65.1562C234.299 65.5777 234.661 66.1364 234.931 66.8324C235.201 67.5284 235.336 68.3854 235.336 69.4034V70.1136H226.927V68.6648H233.631C233.631 68.0492 233.508 67.5 233.262 67.017C233.021 66.5341 232.675 66.1529 232.225 65.8736C231.78 65.5942 231.254 65.4545 230.648 65.4545C229.981 65.4545 229.403 65.6203 228.915 65.9517C228.433 66.2784 228.061 66.7045 227.8 67.2301C227.54 67.7557 227.41 68.3191 227.41 68.9205V69.8864C227.41 70.7102 227.552 71.4086 227.836 71.9815C228.125 72.5497 228.525 72.983 229.036 73.2812C229.548 73.5748 230.142 73.7216 230.819 73.7216C231.259 73.7216 231.657 73.66 232.012 73.5369C232.372 73.4091 232.682 73.2197 232.942 72.9688C233.203 72.7131 233.404 72.3958 233.546 72.017L235.165 72.4716C234.995 73.0208 234.709 73.5038 234.306 73.9205C233.904 74.3324 233.406 74.6544 232.815 74.8864C232.223 75.1136 231.558 75.2273 230.819 75.2273ZM239.562 60.4545V75H237.886V60.4545H239.562ZM247.206 75.2273C246.154 75.2273 245.248 74.9953 244.485 74.5312C243.728 74.0625 243.143 73.4091 242.731 72.571C242.324 71.7282 242.12 70.7481 242.12 69.6307C242.12 68.5133 242.324 67.5284 242.731 66.6761C243.143 65.8191 243.716 65.1515 244.45 64.6733C245.189 64.1903 246.05 63.9489 247.035 63.9489C247.603 63.9489 248.164 64.0436 248.718 64.233C249.272 64.4223 249.777 64.7301 250.231 65.1562C250.686 65.5777 251.048 66.1364 251.318 66.8324C251.588 67.5284 251.723 68.3854 251.723 69.4034V70.1136H243.314V68.6648H250.018C250.018 68.0492 249.895 67.5 249.649 67.017C249.407 66.5341 249.062 66.1529 248.612 65.8736C248.167 65.5942 247.641 65.4545 247.035 65.4545C246.368 65.4545 245.79 65.6203 245.302 65.9517C244.819 66.2784 244.448 66.7045 244.187 67.2301C243.927 67.7557 243.797 68.3191 243.797 68.9205V69.8864C243.797 70.7102 243.939 71.4086 244.223 71.9815C244.511 72.5497 244.912 72.983 245.423 73.2812C245.934 73.5748 246.529 73.7216 247.206 73.7216C247.646 73.7216 248.044 73.66 248.399 73.5369C248.759 73.4091 249.069 73.2197 249.329 72.9688C249.59 72.7131 249.791 72.3958 249.933 72.017L251.552 72.4716C251.382 73.0208 251.095 73.5038 250.693 73.9205C250.29 74.3324 249.793 74.6544 249.201 74.8864C248.609 75.1136 247.944 75.2273 247.206 75.2273ZM258.704 75.2273C257.681 75.2273 256.801 74.9858 256.062 74.5028C255.324 74.0199 254.755 73.3546 254.358 72.5071C253.96 71.6596 253.761 70.6913 253.761 69.6023C253.761 68.4943 253.965 67.5166 254.372 66.669C254.784 65.8168 255.357 65.1515 256.091 64.6733C256.829 64.1903 257.691 63.9489 258.676 63.9489C259.443 63.9489 260.134 64.0909 260.75 64.375C261.365 64.6591 261.869 65.0568 262.262 65.5682C262.655 66.0795 262.899 66.6761 262.994 67.358H261.318C261.19 66.8608 260.906 66.4205 260.466 66.0369C260.03 65.6487 259.443 65.4545 258.704 65.4545C258.051 65.4545 257.478 65.625 256.985 65.9659C256.498 66.3021 256.117 66.7779 255.842 67.3935C255.572 68.0043 255.437 68.7216 255.437 69.5455C255.437 70.3883 255.57 71.1222 255.835 71.7472C256.105 72.3722 256.484 72.8575 256.971 73.2031C257.464 73.5488 258.041 73.7216 258.704 73.7216C259.14 73.7216 259.535 73.6458 259.89 73.4943C260.245 73.3428 260.546 73.125 260.792 72.8409C261.038 72.5568 261.214 72.2159 261.318 71.8182H262.994C262.899 72.4621 262.665 73.0421 262.291 73.5582C261.922 74.0696 261.431 74.4768 260.821 74.7798C260.215 75.0781 259.509 75.2273 258.704 75.2273ZM269.876 75.2273C268.853 75.2273 267.973 74.9858 267.234 74.5028C266.495 74.0199 265.927 73.3546 265.529 72.5071C265.132 71.6596 264.933 70.6913 264.933 69.6023C264.933 68.4943 265.136 67.5166 265.544 66.669C265.956 65.8168 266.529 65.1515 267.262 64.6733C268.001 64.1903 268.863 63.9489 269.848 63.9489C270.615 63.9489 271.306 64.0909 271.922 64.375C272.537 64.6591 273.041 65.0568 273.434 65.5682C273.827 66.0795 274.071 66.6761 274.166 67.358H272.49C272.362 66.8608 272.078 66.4205 271.637 66.0369C271.202 65.6487 270.615 65.4545 269.876 65.4545C269.223 65.4545 268.65 65.625 268.157 65.9659C267.67 66.3021 267.288 66.7779 267.014 67.3935C266.744 68.0043 266.609 68.7216 266.609 69.5455C266.609 70.3883 266.742 71.1222 267.007 71.7472C267.277 72.3722 267.655 72.8575 268.143 73.2031C268.636 73.5488 269.213 73.7216 269.876 73.7216C270.312 73.7216 270.707 73.6458 271.062 73.4943C271.417 73.3428 271.718 73.125 271.964 72.8409C272.21 72.5568 272.386 72.2159 272.49 71.8182H274.166C274.071 72.4621 273.837 73.0421 273.463 73.5582C273.093 74.0696 272.603 74.4768 271.993 74.7798C271.386 75.0781 270.681 75.2273 269.876 75.2273ZM276.616 75V64.0909H278.292V75H276.616ZM277.468 62.2727C277.142 62.2727 276.86 62.1615 276.623 61.9389C276.391 61.7164 276.275 61.4489 276.275 61.1364C276.275 60.8239 276.391 60.5563 276.623 60.3338C276.86 60.1113 277.142 60 277.468 60C277.795 60 278.074 60.1113 278.306 60.3338C278.543 60.5563 278.662 60.8239 278.662 61.1364C278.662 61.4489 278.543 61.7164 278.306 61.9389C278.074 62.1615 277.795 62.2727 277.468 62.2727ZM285.794 75.2273C284.809 75.2273 283.945 74.9929 283.202 74.5241C282.463 74.0554 281.885 73.3996 281.469 72.5568C281.057 71.714 280.851 70.7292 280.851 69.6023C280.851 68.4659 281.057 67.474 281.469 66.6264C281.885 65.7789 282.463 65.1207 283.202 64.652C283.945 64.1832 284.809 63.9489 285.794 63.9489C286.779 63.9489 287.641 64.1832 288.379 64.652C289.123 65.1207 289.7 65.7789 290.112 66.6264C290.529 67.474 290.737 68.4659 290.737 69.6023C290.737 70.7292 290.529 71.714 290.112 72.5568C289.7 73.3996 289.123 74.0554 288.379 74.5241C287.641 74.9929 286.779 75.2273 285.794 75.2273ZM285.794 73.7216C286.542 73.7216 287.158 73.5298 287.641 73.1463C288.124 72.7628 288.481 72.2585 288.713 71.6335C288.945 71.0085 289.061 70.3314 289.061 69.6023C289.061 68.8731 288.945 68.1937 288.713 67.5639C288.481 66.9342 288.124 66.4252 287.641 66.0369C287.158 65.6487 286.542 65.4545 285.794 65.4545C285.046 65.4545 284.43 65.6487 283.947 66.0369C283.464 66.4252 283.107 66.9342 282.875 67.5639C282.643 68.1937 282.527 68.8731 282.527 69.6023C282.527 70.3314 282.643 71.0085 282.875 71.6335C283.107 72.2585 283.464 72.7628 283.947 73.1463C284.43 73.5298 285.046 73.7216 285.794 73.7216ZM294.972 68.4375V75H293.296V64.0909H294.915V65.7955H295.057C295.313 65.2415 295.701 64.7964 296.222 64.4602C296.743 64.1193 297.415 63.9489 298.239 63.9489C298.978 63.9489 299.624 64.1004 300.178 64.4034C300.732 64.7017 301.163 65.1562 301.471 65.767C301.778 66.3731 301.932 67.1402 301.932 68.0682V75H300.256V68.1818C300.256 67.3248 300.033 66.6572 299.588 66.179C299.143 65.696 298.533 65.4545 297.756 65.4545C297.221 65.4545 296.743 65.5705 296.321 65.8026C295.905 66.0346 295.576 66.3731 295.334 66.8182C295.093 67.2633 294.972 67.803 294.972 68.4375ZM308.205 75.2557C307.514 75.2557 306.887 75.1255 306.323 74.8651C305.76 74.5999 305.312 74.2188 304.981 73.7216C304.649 73.2197 304.484 72.6136 304.484 71.9034C304.484 71.2784 304.607 70.7718 304.853 70.3835C305.099 69.9905 305.428 69.6828 305.84 69.4602C306.252 69.2377 306.707 69.072 307.204 68.9631C307.706 68.8494 308.21 68.7595 308.717 68.6932C309.379 68.608 309.917 68.544 310.329 68.5014C310.746 68.4541 311.049 68.3759 311.238 68.267C311.432 68.1581 311.529 67.9687 311.529 67.6989V67.642C311.529 66.9413 311.337 66.3968 310.954 66.0085C310.575 65.6203 310 65.4261 309.228 65.4261C308.428 65.4261 307.8 65.6013 307.346 65.9517C306.891 66.3021 306.572 66.6761 306.387 67.0739L304.796 66.5057C305.08 65.8428 305.459 65.3267 305.933 64.9574C306.411 64.5833 306.932 64.3229 307.495 64.1761C308.063 64.0246 308.622 63.9489 309.171 63.9489C309.522 63.9489 309.924 63.9915 310.379 64.0767C310.838 64.1572 311.281 64.3253 311.707 64.581C312.138 64.8366 312.495 65.2225 312.779 65.7386C313.063 66.2547 313.205 66.946 313.205 67.8125V75H311.529V73.5227H311.444C311.33 73.7595 311.141 74.0128 310.876 74.2827C310.611 74.5526 310.258 74.7822 309.817 74.9716C309.377 75.161 308.84 75.2557 308.205 75.2557ZM308.461 73.75C309.124 73.75 309.683 73.6198 310.137 73.3594C310.596 73.099 310.942 72.7628 311.174 72.3509C311.411 71.9389 311.529 71.5057 311.529 71.0511V69.517C311.458 69.6023 311.302 69.6804 311.06 69.7514C310.824 69.8177 310.549 69.8769 310.237 69.929C309.929 69.9763 309.628 70.0189 309.335 70.0568C309.046 70.09 308.811 70.1184 308.631 70.142C308.196 70.1989 307.789 70.2912 307.41 70.419C307.036 70.5421 306.733 70.7292 306.501 70.9801C306.273 71.2263 306.16 71.5625 306.16 71.9886C306.16 72.571 306.375 73.0114 306.806 73.3097C307.242 73.6032 307.793 73.75 308.461 73.75ZM320.384 75.2273C319.475 75.2273 318.672 74.9976 317.976 74.5384C317.28 74.0743 316.736 73.4209 316.343 72.5781C315.95 71.7306 315.753 70.7292 315.753 69.5739C315.753 68.428 315.95 67.4337 316.343 66.5909C316.736 65.7481 317.283 65.0971 317.983 64.6378C318.684 64.1785 319.494 63.9489 320.412 63.9489C321.123 63.9489 321.684 64.0672 322.096 64.304C322.512 64.536 322.829 64.8011 323.047 65.0994C323.27 65.393 323.443 65.6345 323.566 65.8239H323.708V60.4545H325.384V75H323.765V73.3239H323.566C323.443 73.5227 323.267 73.7737 323.04 74.0767C322.813 74.375 322.489 74.6425 322.067 74.8793C321.646 75.1113 321.085 75.2273 320.384 75.2273ZM320.611 73.7216C321.283 73.7216 321.852 73.5464 322.316 73.196C322.78 72.8409 323.132 72.3509 323.374 71.7259C323.615 71.0961 323.736 70.3693 323.736 69.5455C323.736 68.7311 323.618 68.0185 323.381 67.4077C323.144 66.7921 322.794 66.3139 322.33 65.973C321.866 65.6274 321.293 65.4545 320.611 65.4545C319.901 65.4545 319.309 65.6368 318.836 66.0014C318.367 66.3613 318.014 66.8513 317.777 67.4716C317.545 68.0871 317.429 68.7784 317.429 69.5455C317.429 70.322 317.548 71.0275 317.784 71.6619C318.026 72.2917 318.381 72.7936 318.85 73.1676C319.323 73.5369 319.91 73.7216 320.611 73.7216ZM333.118 75.2273C332.133 75.2273 331.269 74.9929 330.526 74.5241C329.787 74.0554 329.21 73.3996 328.793 72.5568C328.381 71.714 328.175 70.7292 328.175 69.6023C328.175 68.4659 328.381 67.474 328.793 66.6264C329.21 65.7789 329.787 65.1207 330.526 64.652C331.269 64.1832 332.133 63.9489 333.118 63.9489C334.103 63.9489 334.965 64.1832 335.703 64.652C336.447 65.1207 337.025 65.7789 337.436 66.6264C337.853 67.474 338.061 68.4659 338.061 69.6023C338.061 70.7292 337.853 71.714 337.436 72.5568C337.025 73.3996 336.447 74.0554 335.703 74.5241C334.965 74.9929 334.103 75.2273 333.118 75.2273ZM333.118 73.7216C333.866 73.7216 334.482 73.5298 334.965 73.1463C335.448 72.7628 335.805 72.2585 336.037 71.6335C336.269 71.0085 336.385 70.3314 336.385 69.6023C336.385 68.8731 336.269 68.1937 336.037 67.5639C335.805 66.9342 335.448 66.4252 334.965 66.0369C334.482 65.6487 333.866 65.4545 333.118 65.4545C332.37 65.4545 331.755 65.6487 331.272 66.0369C330.789 66.4252 330.431 66.9342 330.199 67.5639C329.967 68.1937 329.851 68.8731 329.851 69.6023C329.851 70.3314 329.967 71.0085 330.199 71.6335C330.431 72.2585 330.789 72.7628 331.272 73.1463C331.755 73.5298 332.37 73.7216 333.118 73.7216ZM348.347 66.5341L346.842 66.9602C346.747 66.7093 346.607 66.4654 346.423 66.2287C346.243 65.9872 345.996 65.7884 345.684 65.6321C345.371 65.4759 344.971 65.3977 344.484 65.3977C343.816 65.3977 343.26 65.5516 342.815 65.8594C342.374 66.1624 342.154 66.5483 342.154 67.017C342.154 67.4337 342.306 67.7628 342.609 68.0043C342.912 68.2457 343.385 68.447 344.029 68.608L345.648 69.0057C346.624 69.2424 347.351 69.6046 347.829 70.0923C348.307 70.5753 348.546 71.1979 348.546 71.9602C348.546 72.5852 348.366 73.1439 348.006 73.6364C347.651 74.1288 347.154 74.517 346.515 74.8011C345.876 75.0852 345.132 75.2273 344.285 75.2273C343.172 75.2273 342.251 74.9858 341.522 74.5028C340.793 74.0199 340.331 73.3144 340.137 72.3864L341.728 71.9886C341.879 72.5758 342.166 73.0161 342.587 73.3097C343.013 73.6032 343.57 73.75 344.256 73.75C345.038 73.75 345.658 73.5843 346.117 73.2528C346.581 72.9167 346.813 72.5142 346.813 72.0455C346.813 71.6667 346.681 71.3494 346.415 71.0938C346.15 70.8333 345.743 70.6392 345.194 70.5114L343.376 70.0852C342.377 69.8485 341.643 69.4815 341.174 68.9844C340.71 68.4825 340.478 67.8551 340.478 67.1023C340.478 66.4867 340.651 65.9422 340.996 65.4688C341.347 64.9953 341.823 64.6236 342.424 64.3537C343.03 64.0838 343.717 63.9489 344.484 63.9489C345.563 63.9489 346.411 64.1856 347.026 64.6591C347.647 65.1326 348.087 65.7576 348.347 66.5341Z" fill="#FEFEFF"/>
<path d="M59.5 60.5L44.5 75.5M44.5 60.5L59.5 75.5" stroke="#B0AFBD" stroke-width="2.5" stroke-linecap="round" stroke-linejoin="round"/>
<path d="M742 71.75V56.75M742 71.75L735.75 65.5M742 71.75L748.25 65.5M753.25 71.75V76.75C753.25 77.413 752.987 78.0489 752.518 78.5178C752.049 78.9866 751.413 79.25 750.75 79.25H733.25C732.587 79.25 731.951 78.9866 731.482 78.5178C731.013 78.0489 730.75 77.413 730.75 76.75V71.75" stroke="#B0AFBD" stroke-width="2.5" stroke-linecap="round" stroke-linejoin="round"/>
<path d="M565.75 74.25L572 68M572 68L565.75 61.75M572 68H557C555.674 68 554.402 68.5268 553.464 69.4645C552.527 70.4021 552 71.6739 552 73V75.5" stroke="#B0AFBD" stroke-width="2.5" stroke-linecap="round" stroke-linejoin="round"/>
<path d="M610 73C608.625 73 607.5 71.875 607.5 70.5V58C607.5 56.625 608.625 55.5 610 55.5H622.5C623.875 55.5 625 56.625 625 58M617.5 63H630C631.381 63 632.5 64.1193 632.5 65.5V78C632.5 79.3807 631.381 80.5 630 80.5H617.5C616.119 80.5 615 79.3807 615 78V65.5C615 64.1193 616.119 63 617.5 63Z" stroke="#B0AFBD" stroke-width="2.5" stroke-linecap="round" stroke-linejoin="round"/>
<path d="M667 80.5V58C667 57.8059 667.045 57.6146 667.132 57.441C667.219 57.2674 667.345 57.1164 667.5 57C668.798 56.0263 670.377 55.5 672 55.5C675.75 55.5 678.25 58 681.166 58C682.833 58 684.111 57.6667 685 57C685.186 56.8607 685.407 56.7759 685.638 56.7551C685.869 56.7342 686.101 56.7781 686.309 56.882C686.517 56.9858 686.691 57.1454 686.813 57.3428C686.935 57.5403 687 57.7679 687 58V70.5C687 70.6941 686.955 70.8854 686.868 71.059C686.781 71.2326 686.655 71.3836 686.5 71.5C685.202 72.4737 683.623 73 682 73C678.25 73 675.75 70.5 672 70.5C670.155 70.5 668.375 71.1801 667 72.41" stroke="#B0AFBD" stroke-width="2.5" stroke-linecap="round" stroke-linejoin="round"/>
<path d="M789.5 66.75V74.25M794.5 66.75V74.25M800.75 60.5V78C800.75 78.663 800.487 79.2989 800.018 79.7678C799.549 80.2366 798.913 80.5 798.25 80.5H785.75C785.087 80.5 784.451 80.2366 783.982 79.7678C783.513 79.2989 783.25 78.663 783.25 78V60.5M780.75 60.5H803.25M787 60.5V58C787 57.337 787.263 56.7011 787.732 56.2322C788.201 55.7634 788.837 55.5 789.5 55.5H794.5C795.163 55.5 795.799 55.7634 796.268 56.2322C796.737 56.7011 797 57.337 797 58V60.5" stroke="#B0AFBD" stroke-width="2.5" stroke-linecap="round" stroke-linejoin="round"/>
<defs>
<filter id="filter0_d_56_1356" x="0" y="0" width="849" height="136" filterUnits="userSpaceOnUse" color-interpolation-filters="sRGB">
<feFlood flood-opacity="0" result="BackgroundImageFix"/>
<feColorMatrix in="SourceAlpha" type="matrix" values="0 0 0 0 0 0 0 0 0 0 0 0 0 0 0 0 0 0 127 0" result="hardAlpha"/>
<feOffset dy="4"/>
<feGaussianBlur stdDeviation="2"/>
<feComposite in2="hardAlpha" operator="out"/>
<feColorMatrix type="matrix" values="0 0 0 0 0 0 0 0 0 0 0 0 0 0 0 0 0 0 0.25 0"/>
<feBlend mode="normal" in2="BackgroundImageFix" result="effect1_dropShadow_56_1356"/>
<feBlend mode="normal" in="SourceGraphic" in2="effect1_dropShadow_56_1356" result="shape"/>
</filter>
</defs>
</svg>
