<svg width="849" height="136" viewBox="0 0 849 136" fill="none" xmlns="http://www.w3.org/2000/svg">
<g filter="url(#filter0_d_40_329)">
<path d="M4 25C4 11.1929 15.1929 0 29 0H820C833.807 0 845 11.1929 845 25V128H4V25Z" fill="#2C2C2C"/>
<path d="M29 0.5H820C833.531 0.5 844.5 11.469 844.5 25V127.5H4.5V25C4.5 11.469 15.469 0.5 29 0.5Z" stroke="black"/>
</g>
<path opacity="0.5" d="M66 36.5H718C735.949 36.5 750.5 51.0507 750.5 69C750.5 86.9493 735.949 101.5 718 101.5H66C48.0508 101.5 33.5 86.9492 33.5 69C33.5 51.0507 48.0507 36.5 66 36.5Z" fill="#757575" stroke="#AEAEAE"/>
<path d="M685 61.5L674.483 72.2325C674.014 72.7014 673.75 73.3374 673.75 74.0006C673.75 74.6638 674.014 75.2998 674.483 75.7687C674.951 76.2377 675.587 76.5011 676.251 76.5011C676.914 76.5011 677.55 76.2377 678.019 75.7687L688.536 65.0362C689.474 64.0985 690.001 62.8267 690.001 61.5006C690.001 60.1745 689.474 58.9027 688.536 57.965C687.599 57.0273 686.327 56.5005 685.001 56.5005C683.675 56.5005 682.403 57.0273 681.465 57.965L670.991 68.6537C670.286 69.3481 669.724 70.1753 669.34 71.0877C668.955 72 668.755 72.9795 668.751 73.9695C668.747 74.9596 668.939 75.9406 669.316 76.8561C669.693 77.7715 670.248 78.6033 670.948 79.3034C671.648 80.0034 672.48 80.558 673.395 80.935C674.311 81.312 675.292 81.504 676.282 81.5C677.272 81.496 678.251 81.2959 679.164 80.9115C680.076 80.527 680.903 79.9657 681.598 79.26L692.071 68.5712" stroke="#B0AEBD" stroke-width="2.5" stroke-linecap="round" stroke-linejoin="round"/>
<path d="M719 77.75V81.5M719 77.75C721.321 77.75 723.546 76.8281 725.187 75.1872C726.828 73.5462 727.75 71.3206 727.75 69V66.5M719 77.75C716.679 77.75 714.454 76.8281 712.813 75.1872C711.172 73.5462 710.25 71.3206 710.25 69V66.5M719 56.5C721.071 56.5 722.75 58.1789 722.75 60.25V69C722.75 71.0711 721.071 72.75 719 72.75C716.929 72.75 715.25 71.0711 715.25 69V60.25C715.25 58.1789 716.929 56.5 719 56.5Z" stroke="#B0AFBD" stroke-width="2.5" stroke-linecap="round" stroke-linejoin="round"/>
<path opacity="0.5" d="M793 36.5H794C811.949 36.5 826.5 51.0507 826.5 69C826.5 86.9493 811.949 101.5 794 101.5H793C775.051 101.5 760.5 86.9493 760.5 69C760.5 51.0507 775.051 36.5 793 36.5Z" fill="#2C2C2C" stroke="#AEAEAE"/>
<path d="M796.366 63.3333H802.5C803.251 63.3333 803.972 63.6318 804.503 64.1632C805.035 64.6945 805.333 65.4152 805.333 66.1666V72.3008M779.833 71.8333H782.667M805.333 71.8333H808.167M808.167 83.1666L779.833 54.8333M788.333 63.3333H785.5C784.748 63.3333 784.028 63.6318 783.496 64.1632C782.965 64.6945 782.667 65.4152 782.667 66.1666V77.5C782.667 78.2514 782.965 78.9721 783.496 79.5034C784.028 80.0348 784.748 80.3333 785.5 80.3333H802.5C803.251 80.3332 803.972 80.0345 804.503 79.5031M789.75 70.4166V73.25M790.699 57.6666H794V60.9675" stroke="#B0AFBD" stroke-width="2.5" stroke-linecap="round" stroke-linejoin="round"/>
<path d="M83.5 65.75V67C83.4873 69.5229 82.7116 71.983 81.2746 74.0567C79.8377 76.1305 77.8069 77.7209 75.4492 78.6188C73.0915 79.5168 70.5172 79.6803 68.0648 79.0879C65.6124 78.4954 63.3967 77.1747 61.709 75.2994C60.0212 73.4242 58.9404 71.0821 58.6087 68.581C58.2769 66.08 58.7098 63.5371 59.8503 61.2867C60.9908 59.0363 62.7856 57.1836 64.9987 55.9723C67.2118 54.761 69.7397 54.2478 72.25 54.5M66 69.5C66 69.5 67.875 72 71 72C74.125 72 76 69.5 76 69.5M67.25 63.25H67.2625M74.75 63.25H74.7625M76 58.25H83.5M79.75 54.5V62" stroke="#B0AFBD" stroke-width="2.5" stroke-linecap="round" stroke-linejoin="round"/>
<defs>
<filter id="filter0_d_40_329" x="0" y="0" width="849" height="136" filterUnits="userSpaceOnUse" color-interpolation-filters="sRGB">
<feFlood flood-opacity="0" result="BackgroundImageFix"/>
<feColorMatrix in="SourceAlpha" type="matrix" values="0 0 0 0 0 0 0 0 0 0 0 0 0 0 0 0 0 0 127 0" result="hardAlpha"/>
<feOffset dy="4"/>
<feGaussianBlur stdDeviation="2"/>
<feComposite in2="hardAlpha" operator="out"/>
<feColorMatrix type="matrix" values="0 0 0 0 0 0 0 0 0 0 0 0 0 0 0 0 0 0 0.25 0"/>
<feBlend mode="normal" in2="BackgroundImageFix" result="effect1_dropShadow_40_329"/>
<feBlend mode="normal" in="SourceGraphic" in2="effect1_dropShadow_40_329" result="shape"/>
</filter>
</defs>
</svg>
