<svg width="23" height="26" viewBox="0 0 23 26" fill="none" xmlns="http://www.w3.org/2000/svg">
<path d="M0.355114 21L2.76989 6.45455H12.4006L11.9744 8.99006H5.41903L4.85085 12.456H10.767L10.3409 14.9915H4.42472L3.4304 21H0.355114ZM16.0973 21.2131C14.9751 21.2131 14.0518 20.9763 13.3274 20.5028C12.6077 20.0246 12.1035 19.3617 11.8146 18.5142C11.5305 17.6667 11.4808 16.6913 11.6655 15.5881C11.8454 14.4706 12.2218 13.4905 12.7947 12.6477C13.3677 11.8002 14.0945 11.1397 14.9751 10.6662C15.8606 10.188 16.8549 9.94886 17.9581 9.94886C18.9098 9.94886 19.7147 10.1217 20.3729 10.4673C21.031 10.813 21.514 11.2983 21.8217 11.9233C22.1295 12.5483 22.2337 13.2822 22.1342 14.125H19.2862C19.291 13.5852 19.1513 13.1473 18.8672 12.8111C18.5831 12.4749 18.1664 12.3068 17.6172 12.3068C17.1437 12.3068 16.7081 12.4347 16.3104 12.6903C15.9174 12.9413 15.5836 13.3082 15.3089 13.7912C15.0391 14.2741 14.8497 14.8589 14.7408 15.5455C14.6271 16.2415 14.6248 16.8333 14.7337 17.321C14.8426 17.8087 15.0509 18.1804 15.3587 18.4361C15.6664 18.6918 16.0547 18.8196 16.5234 18.8196C16.8738 18.8196 17.1982 18.7486 17.4964 18.6065C17.7995 18.4645 18.0646 18.2585 18.2919 17.9886C18.5192 17.714 18.6944 17.3849 18.8175 17.0014H21.6726C21.4785 17.8395 21.1257 18.5734 20.6143 19.2031C20.1077 19.8329 19.4709 20.3253 18.7038 20.6804C17.9368 21.0355 17.0679 21.2131 16.0973 21.2131Z" fill="white"/>
<g clip-path="url(#clip0_232_131)">
<path d="M21.6667 0.666814V2.00015M22.3333 1.33348H21M18.6723 0.938147C18.6866 0.861682 18.7272 0.792619 18.787 0.74292C18.8469 0.693221 18.9222 0.666016 19 0.666016C19.0778 0.666016 19.1531 0.693221 19.213 0.74292C19.2728 0.792619 19.3134 0.861682 19.3277 0.938147L19.678 2.79081C19.7029 2.92253 19.7669 3.04369 19.8617 3.13847C19.9565 3.23326 20.0776 3.29727 20.2093 3.32215L22.062 3.67248C22.1385 3.68676 22.2075 3.72734 22.2572 3.78718C22.3069 3.84702 22.3341 3.92236 22.3341 4.00015C22.3341 4.07794 22.3069 4.15327 22.2572 4.21311C22.2075 4.27296 22.1385 4.31353 22.062 4.32781L20.2093 4.67815C20.0776 4.70303 19.9565 4.76704 19.8617 4.86182C19.7669 4.95661 19.7029 5.07776 19.678 5.20948L19.3277 7.06215C19.3134 7.13861 19.2728 7.20768 19.213 7.25737C19.1531 7.30707 19.0778 7.33428 19 7.33428C18.9222 7.33428 18.8469 7.30707 18.787 7.25737C18.7272 7.20768 18.6866 7.13861 18.6723 7.06215L18.322 5.20948C18.2971 5.07776 18.2331 4.95661 18.1383 4.86182C18.0435 4.76704 17.9224 4.70303 17.7907 4.67815L15.938 4.32781C15.8615 4.31353 15.7925 4.27296 15.7428 4.21311C15.6931 4.15327 15.6659 4.07794 15.6659 4.00015C15.6659 3.92236 15.6931 3.84702 15.7428 3.78718C15.7925 3.72734 15.8615 3.68676 15.938 3.67248L17.7907 3.32215C17.9224 3.29727 18.0435 3.23326 18.1383 3.13847C18.2331 3.04369 18.2971 2.92253 18.322 2.79081L18.6723 0.938147ZM17 6.66681C17 7.035 16.7015 7.33348 16.3333 7.33348C15.9651 7.33348 15.6667 7.035 15.6667 6.66681C15.6667 6.29862 15.9651 6.00015 16.3333 6.00015C16.7015 6.00015 17 6.29862 17 6.66681Z" stroke="white" stroke-width="0.5" stroke-linecap="round" stroke-linejoin="round"/>
</g>
<defs>
<clipPath id="clip0_232_131">
<rect width="8" height="8" fill="white" transform="translate(15)"/>
</clipPath>
</defs>
</svg>
