<svg width="849" height="136" viewBox="0 0 849 136" fill="none" xmlns="http://www.w3.org/2000/svg">
<g filter="url(#filter0_d_40_487)">
<path d="M4 25C4 11.1929 15.1929 0 29 0H820C833.807 0 845 11.1929 845 25V128H4V25Z" fill="#2C2C2C"/>
<path d="M29 0.5H820C833.531 0.5 844.5 11.469 844.5 25V127.5H4.5V25C4.5 11.469 15.469 0.5 29 0.5Z" stroke="black"/>
</g>
<path opacity="0.5" d="M66 36.5H797C814.949 36.5 829.5 51.0507 829.5 69C829.5 86.9493 814.949 101.5 797 101.5H66C48.0507 101.5 33.5 86.9493 33.5 69C33.5 51.0507 48.0507 36.5 66 36.5Z" fill="#757575" stroke="#AEAEAE"/>
<path d="M81.5 67.75V69C81.4873 71.5229 80.7116 73.983 79.2746 76.0567C77.8377 78.1305 75.8069 79.7209 73.4492 80.6188C71.0915 81.5168 68.5172 81.6803 66.0648 81.0879C63.6124 80.4954 61.3967 79.1747 59.709 77.2994C58.0212 75.4242 56.9404 73.0821 56.6087 70.581C56.2769 68.08 56.7098 65.5371 57.8503 63.2867C58.9908 61.0363 60.7856 59.1836 62.9987 57.9723C65.2118 56.761 67.7397 56.2478 70.25 56.5M64 71.5C64 71.5 65.875 74 69 74C72.125 74 74 71.5 74 71.5M65.25 65.25H65.2625M72.75 65.25H72.7625M74 60.25H81.5M77.75 56.5V64" stroke="#B0AFBD" stroke-width="2.5" stroke-linecap="round" stroke-linejoin="round"/>
<path d="M685 61.5L674.483 72.2325C674.014 72.7014 673.75 73.3374 673.75 74.0006C673.75 74.6638 674.014 75.2998 674.483 75.7687C674.951 76.2377 675.587 76.5011 676.251 76.5011C676.914 76.5011 677.55 76.2377 678.019 75.7687L688.536 65.0362C689.474 64.0985 690.001 62.8267 690.001 61.5006C690.001 60.1745 689.474 58.9027 688.536 57.965C687.599 57.0273 686.327 56.5005 685.001 56.5005C683.675 56.5005 682.403 57.0273 681.465 57.965L670.991 68.6537C670.286 69.3481 669.724 70.1753 669.34 71.0877C668.955 72 668.755 72.9795 668.751 73.9695C668.747 74.9596 668.939 75.9406 669.316 76.8561C669.693 77.7715 670.248 78.6033 670.948 79.3034C671.648 80.0034 672.48 80.558 673.395 80.935C674.311 81.312 675.292 81.504 676.282 81.5C677.272 81.496 678.251 81.2959 679.164 80.9115C680.076 80.527 680.903 79.9657 681.598 79.26L692.071 68.5712" stroke="#B0AEBD" stroke-width="2.5" stroke-linecap="round" stroke-linejoin="round"/>
<path d="M719 77.75V81.5M719 77.75C721.321 77.75 723.546 76.8281 725.187 75.1872C726.828 73.5462 727.75 71.3206 727.75 69V66.5M719 77.75C716.679 77.75 714.454 76.8281 712.813 75.1872C711.172 73.5462 710.25 71.3206 710.25 69V66.5M719 56.5C721.071 56.5 722.75 58.1789 722.75 60.25V69C722.75 71.0711 721.071 72.75 719 72.75C716.929 72.75 715.25 71.0711 715.25 69V60.25C715.25 58.1789 716.929 56.5 719 56.5Z" stroke="#B0AFBD" stroke-width="2.5" stroke-linecap="round" stroke-linejoin="round"/>
<path opacity="0.5" d="M796 37.5H797C814.949 37.5 829.5 52.0507 829.5 70C829.5 87.9493 814.949 102.5 797 102.5H796C778.051 102.5 763.5 87.9493 763.5 70C763.5 52.0507 778.051 37.5 796 37.5Z" fill="#2C2C2C" stroke="#AEAEAE"/>
<path d="M797 59.5V53.8333H791.333M801.25 66.5833V69.4166M782.833 68H785.667M808.333 68H811.167M792.75 66.5833V69.4166M808.333 73.6666C808.333 74.4181 808.035 75.1388 807.503 75.6701C806.972 76.2015 806.251 76.5 805.5 76.5H792.506C791.755 76.5001 791.034 76.7988 790.503 77.3301L787.384 80.4496C787.243 80.5903 787.064 80.6861 786.869 80.7249C786.674 80.7637 786.471 80.7437 786.288 80.6676C786.104 80.5915 785.947 80.4626 785.836 80.2972C785.726 80.1318 785.667 79.9374 785.667 79.7385V62.3333C785.667 61.5819 785.965 60.8612 786.496 60.3298C787.028 59.7985 787.748 59.5 788.5 59.5H805.5C806.251 59.5 806.972 59.7985 807.503 60.3298C808.035 60.8612 808.333 61.5819 808.333 62.3333V73.6666Z" stroke="#FF9500" stroke-width="2.5" stroke-linecap="round" stroke-linejoin="round"/>
<defs>
<filter id="filter0_d_40_487" x="0" y="0" width="849" height="136" filterUnits="userSpaceOnUse" color-interpolation-filters="sRGB">
<feFlood flood-opacity="0" result="BackgroundImageFix"/>
<feColorMatrix in="SourceAlpha" type="matrix" values="0 0 0 0 0 0 0 0 0 0 0 0 0 0 0 0 0 0 127 0" result="hardAlpha"/>
<feOffset dy="4"/>
<feGaussianBlur stdDeviation="2"/>
<feComposite in2="hardAlpha" operator="out"/>
<feColorMatrix type="matrix" values="0 0 0 0 0 0 0 0 0 0 0 0 0 0 0 0 0 0 0.25 0"/>
<feBlend mode="normal" in2="BackgroundImageFix" result="effect1_dropShadow_40_487"/>
<feBlend mode="normal" in="SourceGraphic" in2="effect1_dropShadow_40_487" result="shape"/>
</filter>
</defs>
</svg>
