<svg width="849" height="136" viewBox="0 0 849 136" fill="none" xmlns="http://www.w3.org/2000/svg">
<g filter="url(#filter0_d_40_502)">
<path d="M4 25C4 11.1929 15.1929 0 29 0H820C833.807 0 845 11.1929 845 25V128H4V25Z" fill="#2C2C2C"/>
<path d="M29 0.5H820C833.531 0.5 844.5 11.469 844.5 25V127.5H4.5V25C4.5 11.469 15.469 0.5 29 0.5Z" stroke="black"/>
</g>
<path opacity="0.5" d="M215 36.5H798C815.949 36.5 830.5 51.0507 830.5 69C830.5 86.9493 815.949 101.5 798 101.5H215C197.051 101.5 182.5 86.9493 182.5 69C182.5 51.0507 197.051 36.5 215 36.5Z" fill="#757575" stroke="#AEAEAE"/>
<path d="M76.375 76H73.233V65.8182H76.5142C77.5019 65.8182 78.3471 66.022 79.0497 66.4297C79.7524 66.834 80.291 67.4157 80.6655 68.1747C81.04 68.9304 81.2273 69.8352 81.2273 70.8892C81.2273 71.9498 81.0384 72.8629 80.6605 73.6286C80.2827 74.3909 79.7325 74.9775 79.0099 75.3885C78.2874 75.7962 77.4091 76 76.375 76ZM74.4659 74.9062H76.2955C77.1373 74.9062 77.835 74.7438 78.3885 74.419C78.942 74.0942 79.3546 73.6319 79.6264 73.032C79.8982 72.4321 80.0341 71.7178 80.0341 70.8892C80.0341 70.0672 79.8999 69.3596 79.6314 68.7663C79.3629 68.1697 78.9619 67.7124 78.4283 67.3942C77.8946 67.0727 77.2301 66.9119 76.4347 66.9119H74.4659V74.9062ZM86.3381 76.1591C85.6023 76.1591 84.9676 75.9967 84.4339 75.6719C83.9036 75.3438 83.4943 74.8864 83.206 74.2997C82.9209 73.7098 82.7784 73.0237 82.7784 72.2415C82.7784 71.4593 82.9209 70.7699 83.206 70.1733C83.4943 69.5734 83.8954 69.1061 84.4091 68.7713C84.9261 68.4332 85.5294 68.2642 86.2188 68.2642C86.6165 68.2642 87.0092 68.3305 87.397 68.4631C87.7848 68.5956 88.1378 68.8111 88.456 69.1094C88.7741 69.4044 89.0277 69.7955 89.2166 70.2827C89.4055 70.7699 89.5 71.3698 89.5 72.0824V72.5795H83.6136V71.5653H88.3068C88.3068 71.1345 88.2206 70.75 88.0483 70.4119C87.8793 70.0739 87.6373 69.8071 87.3224 69.6115C87.0109 69.416 86.643 69.3182 86.2188 69.3182C85.7514 69.3182 85.3471 69.4342 85.0057 69.6662C84.6676 69.8949 84.4074 70.1932 84.2251 70.5611C84.0429 70.929 83.9517 71.3234 83.9517 71.7443V72.4205C83.9517 72.9972 84.0511 73.486 84.25 73.8871C84.4522 74.2848 84.7322 74.5881 85.0902 74.7969C85.4482 75.0024 85.8641 75.1051 86.3381 75.1051C86.6463 75.1051 86.9247 75.062 87.1733 74.9759C87.4252 74.8864 87.6423 74.7538 87.8246 74.5781C88.0069 74.3991 88.1477 74.1771 88.2472 73.9119L89.3807 74.2301C89.2614 74.6146 89.0608 74.9527 88.7791 75.2443C88.4974 75.5327 88.1494 75.758 87.7351 75.9205C87.3208 76.0795 86.8551 76.1591 86.3381 76.1591ZM96.6939 70.0739L95.6399 70.3722C95.5736 70.1965 95.4759 70.0258 95.3466 69.8601C95.2206 69.6911 95.0483 69.5518 94.8295 69.4425C94.6108 69.3331 94.3307 69.2784 93.9893 69.2784C93.522 69.2784 93.1326 69.3861 92.821 69.6016C92.5128 69.8137 92.3587 70.0838 92.3587 70.4119C92.3587 70.7036 92.4647 70.9339 92.6768 71.103C92.889 71.272 93.2204 71.4129 93.6712 71.5256L94.8047 71.804C95.4875 71.9697 95.9962 72.2232 96.331 72.5646C96.6657 72.9027 96.8331 73.3385 96.8331 73.8722C96.8331 74.3097 96.7071 74.7008 96.4553 75.0455C96.2067 75.3902 95.8587 75.6619 95.4112 75.8608C94.9638 76.0597 94.4434 76.1591 93.8501 76.1591C93.0713 76.1591 92.4266 75.9901 91.9162 75.652C91.4058 75.3139 91.0826 74.8201 90.9467 74.1705L92.0604 73.892C92.1664 74.303 92.367 74.6113 92.6619 74.8168C92.9602 75.0223 93.3497 75.125 93.8303 75.125C94.3771 75.125 94.8113 75.009 95.1328 74.777C95.4576 74.5417 95.62 74.2599 95.62 73.9318C95.62 73.6667 95.5272 73.4446 95.3416 73.2656C95.156 73.0833 94.871 72.9474 94.4865 72.858L93.2138 72.5597C92.5144 72.3939 92.0007 72.1371 91.6726 71.7891C91.3478 71.4377 91.1854 70.9986 91.1854 70.4716C91.1854 70.0407 91.3063 69.6596 91.5483 69.3281C91.7936 68.9967 92.1267 68.7365 92.5476 68.5476C92.9718 68.3587 93.4524 68.2642 93.9893 68.2642C94.745 68.2642 95.3383 68.4299 95.7692 68.7614C96.2034 69.0928 96.5116 69.5303 96.6939 70.0739ZM100.846 76.179C100.363 76.179 99.9234 76.0878 99.5289 75.9055C99.1345 75.7199 98.8213 75.4531 98.5893 75.1051C98.3573 74.7538 98.2413 74.3295 98.2413 73.8324C98.2413 73.3949 98.3275 73.0402 98.4998 72.7685C98.6722 72.4934 98.9025 72.2779 99.1909 72.1222C99.4792 71.9664 99.7974 71.8504 100.145 71.7741C100.497 71.6946 100.85 71.6316 101.204 71.5852C101.668 71.5256 102.045 71.4808 102.333 71.451C102.625 71.4179 102.837 71.3632 102.969 71.2869C103.105 71.2107 103.173 71.0781 103.173 70.8892V70.8494C103.173 70.3589 103.039 69.9777 102.77 69.706C102.505 69.4342 102.103 69.2983 101.562 69.2983C101.002 69.2983 100.563 69.4209 100.245 69.6662C99.9267 69.9115 99.7029 70.1733 99.5737 70.4517L98.46 70.054C98.6589 69.59 98.9241 69.2287 99.2555 68.9702C99.5903 68.7083 99.9548 68.526 100.349 68.4233C100.747 68.3172 101.138 68.2642 101.523 68.2642C101.768 68.2642 102.05 68.294 102.368 68.3537C102.689 68.41 102.999 68.5277 103.297 68.7067C103.599 68.8857 103.849 69.1558 104.048 69.517C104.247 69.8783 104.346 70.3622 104.346 70.9688V76H103.173V74.9659H103.113C103.034 75.1316 102.901 75.3089 102.716 75.4979C102.53 75.6868 102.283 75.8475 101.975 75.9801C101.667 76.1127 101.291 76.179 100.846 76.179ZM101.025 75.125C101.489 75.125 101.881 75.0339 102.199 74.8516C102.52 74.6693 102.762 74.4339 102.925 74.1456C103.09 73.8572 103.173 73.554 103.173 73.2358V72.1619C103.123 72.2216 103.014 72.2763 102.845 72.326C102.679 72.3724 102.487 72.4138 102.268 72.4503C102.053 72.4834 101.842 72.5133 101.637 72.5398C101.435 72.563 101.271 72.5829 101.145 72.5994C100.84 72.6392 100.555 72.7038 100.29 72.7933C100.028 72.8795 99.8156 73.0104 99.6532 73.1861C99.4941 73.3584 99.4146 73.5937 99.4146 73.892C99.4146 74.2997 99.5654 74.608 99.867 74.8168C100.172 75.0223 100.558 75.125 101.025 75.125ZM109.59 76.1591C108.874 76.1591 108.258 75.9901 107.741 75.652C107.224 75.3139 106.826 74.8482 106.548 74.255C106.269 73.6617 106.13 72.9839 106.13 72.2216C106.13 71.446 106.272 70.7616 106.558 70.1683C106.846 69.5717 107.247 69.1061 107.761 68.7713C108.278 68.4332 108.881 68.2642 109.57 68.2642C110.107 68.2642 110.591 68.3636 111.022 68.5625C111.453 68.7614 111.806 69.0398 112.081 69.3977C112.356 69.7557 112.527 70.1733 112.593 70.6506H111.42C111.33 70.3026 111.131 69.9943 110.823 69.7259C110.518 69.4541 110.107 69.3182 109.59 69.3182C109.133 69.3182 108.732 69.4375 108.387 69.6761C108.046 69.9115 107.779 70.2446 107.587 70.6754C107.398 71.103 107.303 71.6051 107.303 72.1818C107.303 72.7718 107.396 73.2855 107.582 73.723C107.771 74.1605 108.036 74.5002 108.377 74.7422C108.722 74.9841 109.126 75.1051 109.59 75.1051C109.895 75.1051 110.172 75.0521 110.42 74.946C110.669 74.84 110.879 74.6875 111.052 74.4886C111.224 74.2898 111.347 74.0511 111.42 73.7727H112.593C112.527 74.2235 112.363 74.6295 112.101 74.9908C111.842 75.3487 111.499 75.6338 111.072 75.8459C110.647 76.0547 110.154 76.1591 109.59 76.1591ZM117.629 68.3636V69.358H113.672V68.3636H117.629ZM114.825 66.5341H115.999V73.8125C115.999 74.1439 116.047 74.3925 116.143 74.5582C116.242 74.7206 116.368 74.83 116.521 74.8864C116.676 74.9394 116.84 74.9659 117.013 74.9659C117.142 74.9659 117.248 74.9593 117.331 74.946C117.414 74.9295 117.48 74.9162 117.53 74.9062L117.768 75.9602C117.689 75.9901 117.578 76.0199 117.435 76.0497C117.293 76.0829 117.112 76.0994 116.893 76.0994C116.562 76.0994 116.237 76.0282 115.919 75.8857C115.604 75.7431 115.342 75.526 115.134 75.2344C114.928 74.9427 114.825 74.5748 114.825 74.1307V66.5341ZM119.394 76V68.3636H120.567V76H119.394ZM119.991 67.0909C119.762 67.0909 119.565 67.013 119.399 66.8572C119.237 66.7015 119.156 66.5142 119.156 66.2955C119.156 66.0767 119.237 65.8894 119.399 65.7337C119.565 65.5779 119.762 65.5 119.991 65.5C120.219 65.5 120.415 65.5779 120.577 65.7337C120.743 65.8894 120.826 66.0767 120.826 66.2955C120.826 66.5142 120.743 66.7015 120.577 66.8572C120.415 67.013 120.219 67.0909 119.991 67.0909ZM128.961 68.3636L126.137 76H124.944L122.12 68.3636H123.393L125.501 74.4489H125.58L127.688 68.3636H128.961ZM132.524 76.179C132.04 76.179 131.601 76.0878 131.207 75.9055C130.812 75.7199 130.499 75.4531 130.267 75.1051C130.035 74.7538 129.919 74.3295 129.919 73.8324C129.919 73.3949 130.005 73.0402 130.178 72.7685C130.35 72.4934 130.58 72.2779 130.869 72.1222C131.157 71.9664 131.475 71.8504 131.823 71.7741C132.174 71.6946 132.527 71.6316 132.882 71.5852C133.346 71.5256 133.722 71.4808 134.011 71.451C134.302 71.4179 134.514 71.3632 134.647 71.2869C134.783 71.2107 134.851 71.0781 134.851 70.8892V70.8494C134.851 70.3589 134.717 69.9777 134.448 69.706C134.183 69.4342 133.78 69.2983 133.24 69.2983C132.68 69.2983 132.241 69.4209 131.923 69.6662C131.604 69.9115 131.381 70.1733 131.251 70.4517L130.138 70.054C130.337 69.59 130.602 69.2287 130.933 68.9702C131.268 68.7083 131.633 68.526 132.027 68.4233C132.425 68.3172 132.816 68.2642 133.2 68.2642C133.446 68.2642 133.727 68.294 134.045 68.3537C134.367 68.41 134.677 68.5277 134.975 68.7067C135.277 68.8857 135.527 69.1558 135.726 69.517C135.925 69.8783 136.024 70.3622 136.024 70.9688V76H134.851V74.9659H134.791C134.712 75.1316 134.579 75.3089 134.393 75.4979C134.208 75.6868 133.961 75.8475 133.653 75.9801C133.344 76.1127 132.968 76.179 132.524 76.179ZM132.703 75.125C133.167 75.125 133.558 75.0339 133.876 74.8516C134.198 74.6693 134.44 74.4339 134.602 74.1456C134.768 73.8572 134.851 73.554 134.851 73.2358V72.1619C134.801 72.2216 134.692 72.2763 134.523 72.326C134.357 72.3724 134.165 72.4138 133.946 72.4503C133.731 72.4834 133.52 72.5133 133.315 72.5398C133.112 72.563 132.948 72.5829 132.822 72.5994C132.518 72.6392 132.232 72.7038 131.967 72.7933C131.705 72.8795 131.493 73.0104 131.331 73.1861C131.172 73.3584 131.092 73.5937 131.092 73.892C131.092 74.2997 131.243 74.608 131.545 74.8168C131.85 75.0223 132.236 75.125 132.703 75.125ZM138.166 76V68.3636H139.299V69.517H139.379C139.518 69.1392 139.77 68.8326 140.134 68.5973C140.499 68.362 140.91 68.2443 141.367 68.2443C141.454 68.2443 141.561 68.246 141.691 68.2493C141.82 68.2526 141.918 68.2576 141.984 68.2642V69.4574C141.944 69.4474 141.853 69.4325 141.71 69.4126C141.571 69.3894 141.424 69.3778 141.268 69.3778C140.897 69.3778 140.565 69.4557 140.274 69.6115C139.985 69.764 139.757 69.9761 139.588 70.2479C139.422 70.5163 139.339 70.8229 139.339 71.1676V76H138.166Z" fill="#FEFEFF"/>
<path d="M211.233 73V62.8182H217.338V63.9119H212.466V67.3523H216.881V68.446H212.466V73H211.233ZM220.464 62.8182V73H219.291V62.8182H220.464ZM227.425 69.8778V65.3636H228.599V73H227.425V71.7074H227.346C227.167 72.0952 226.888 72.425 226.511 72.6967C226.133 72.9652 225.656 73.0994 225.079 73.0994C224.602 73.0994 224.177 72.995 223.806 72.7862C223.435 72.5741 223.143 72.2559 222.931 71.8317C222.719 71.4041 222.613 70.8655 222.613 70.2159V65.3636H223.786V70.1364C223.786 70.6932 223.942 71.1373 224.254 71.4688C224.568 71.8002 224.969 71.9659 225.457 71.9659C225.748 71.9659 226.045 71.8913 226.347 71.7422C226.652 71.593 226.907 71.3643 227.112 71.0561C227.321 70.7479 227.425 70.3551 227.425 69.8778ZM231.623 65.3636L233.452 68.4858L235.282 65.3636H236.634L234.168 69.1818L236.634 73H235.282L233.452 70.0369L231.623 73H230.27L232.697 69.1818L230.27 65.3636H231.623ZM241.096 73.1591C240.38 73.1591 239.764 72.9901 239.247 72.652C238.73 72.3139 238.332 71.8482 238.053 71.255C237.775 70.6617 237.636 69.9839 237.636 69.2216C237.636 68.446 237.778 67.7616 238.063 67.1683C238.352 66.5717 238.753 66.1061 239.267 65.7713C239.784 65.4332 240.387 65.2642 241.076 65.2642C241.613 65.2642 242.097 65.3636 242.528 65.5625C242.959 65.7614 243.312 66.0398 243.587 66.3977C243.862 66.7557 244.033 67.1733 244.099 67.6506H242.926C242.836 67.3026 242.637 66.9943 242.329 66.7259C242.024 66.4541 241.613 66.3182 241.096 66.3182C240.639 66.3182 240.238 66.4375 239.893 66.6761C239.552 66.9115 239.285 67.2446 239.093 67.6754C238.904 68.103 238.809 68.6051 238.809 69.1818C238.809 69.7718 238.902 70.2855 239.088 70.723C239.276 71.1605 239.542 71.5002 239.883 71.7422C240.228 71.9841 240.632 72.1051 241.096 72.1051C241.401 72.1051 241.678 72.0521 241.926 71.946C242.175 71.84 242.385 71.6875 242.558 71.4886C242.73 71.2898 242.853 71.0511 242.926 70.7727H244.099C244.033 71.2235 243.869 71.6295 243.607 71.9908C243.348 72.3487 243.005 72.6338 242.578 72.8459C242.153 73.0547 241.66 73.1591 241.096 73.1591ZM248.916 73.1591C248.227 73.1591 247.622 72.995 247.102 72.6669C246.585 72.3388 246.18 71.8797 245.889 71.2898C245.6 70.6998 245.456 70.0104 245.456 69.2216C245.456 68.4261 245.6 67.7318 245.889 67.1385C246.18 66.5452 246.585 66.0845 247.102 65.7564C247.622 65.4283 248.227 65.2642 248.916 65.2642C249.606 65.2642 250.209 65.4283 250.726 65.7564C251.246 66.0845 251.651 66.5452 251.939 67.1385C252.231 67.7318 252.377 68.4261 252.377 69.2216C252.377 70.0104 252.231 70.6998 251.939 71.2898C251.651 71.8797 251.246 72.3388 250.726 72.6669C250.209 72.995 249.606 73.1591 248.916 73.1591ZM248.916 72.1051C249.44 72.1051 249.871 71.9709 250.209 71.7024C250.547 71.4339 250.797 71.081 250.96 70.6435C251.122 70.206 251.203 69.732 251.203 69.2216C251.203 68.7112 251.122 68.2356 250.96 67.7947C250.797 67.3539 250.547 66.9976 250.209 66.7259C249.871 66.4541 249.44 66.3182 248.916 66.3182C248.393 66.3182 247.962 66.4541 247.624 66.7259C247.286 66.9976 247.035 67.3539 246.873 67.7947C246.711 68.2356 246.629 68.7112 246.629 69.2216C246.629 69.732 246.711 70.206 246.873 70.6435C247.035 71.081 247.286 71.4339 247.624 71.7024C247.962 71.9709 248.393 72.1051 248.916 72.1051ZM254.168 73V65.3636H255.301V66.517H255.381C255.52 66.1392 255.772 65.8326 256.136 65.5973C256.501 65.362 256.912 65.2443 257.369 65.2443C257.455 65.2443 257.563 65.246 257.692 65.2493C257.822 65.2526 257.92 65.2576 257.986 65.2642V66.4574C257.946 66.4474 257.855 66.4325 257.712 66.4126C257.573 66.3894 257.426 66.3778 257.27 66.3778C256.899 66.3778 256.567 66.4557 256.276 66.6115C255.987 66.764 255.759 66.9761 255.589 67.2479C255.424 67.5163 255.341 67.8229 255.341 68.1676V73H254.168ZM262.346 73.1591C261.61 73.1591 260.975 72.9967 260.442 72.6719C259.911 72.3438 259.502 71.8864 259.214 71.2997C258.929 70.7098 258.786 70.0237 258.786 69.2415C258.786 68.4593 258.929 67.7699 259.214 67.1733C259.502 66.5734 259.903 66.1061 260.417 65.7713C260.934 65.4332 261.537 65.2642 262.227 65.2642C262.624 65.2642 263.017 65.3305 263.405 65.4631C263.793 65.5956 264.146 65.8111 264.464 66.1094C264.782 66.4044 265.036 66.7955 265.224 67.2827C265.413 67.7699 265.508 68.3698 265.508 69.0824V69.5795H259.621V68.5653H264.315C264.315 68.1345 264.228 67.75 264.056 67.4119C263.887 67.0739 263.645 66.8071 263.33 66.6115C263.019 66.416 262.651 66.3182 262.227 66.3182C261.759 66.3182 261.355 66.4342 261.013 66.6662C260.675 66.8949 260.415 67.1932 260.233 67.5611C260.051 67.929 259.96 68.3234 259.96 68.7443V69.4205C259.96 69.9972 260.059 70.486 260.258 70.8871C260.46 71.2848 260.74 71.5881 261.098 71.7969C261.456 72.0024 261.872 72.1051 262.346 72.1051C262.654 72.1051 262.933 72.062 263.181 71.9759C263.433 71.8864 263.65 71.7538 263.832 71.5781C264.015 71.3991 264.156 71.1771 264.255 70.9119L265.388 71.2301C265.269 71.6146 265.069 71.9527 264.787 72.2443C264.505 72.5327 264.157 72.758 263.743 72.9205C263.329 73.0795 262.863 73.1591 262.346 73.1591ZM271.23 73V65.3636H272.364V66.517H272.443C272.582 66.1392 272.834 65.8326 273.199 65.5973C273.563 65.362 273.974 65.2443 274.432 65.2443C274.518 65.2443 274.626 65.246 274.755 65.2493C274.884 65.2526 274.982 65.2576 275.048 65.2642V66.4574C275.009 66.4474 274.917 66.4325 274.775 66.4126C274.636 66.3894 274.488 66.3778 274.332 66.3778C273.961 66.3778 273.63 66.4557 273.338 66.6115C273.05 66.764 272.821 66.9761 272.652 67.2479C272.486 67.5163 272.403 67.8229 272.403 68.1676V73H271.23ZM279.408 73.1591C278.673 73.1591 278.038 72.9967 277.504 72.6719C276.974 72.3438 276.565 71.8864 276.276 71.2997C275.991 70.7098 275.849 70.0237 275.849 69.2415C275.849 68.4593 275.991 67.7699 276.276 67.1733C276.565 66.5734 276.966 66.1061 277.479 65.7713C277.996 65.4332 278.6 65.2642 279.289 65.2642C279.687 65.2642 280.08 65.3305 280.467 65.4631C280.855 65.5956 281.208 65.8111 281.526 66.1094C281.844 66.4044 282.098 66.7955 282.287 67.2827C282.476 67.7699 282.57 68.3698 282.57 69.0824V69.5795H276.684V68.5653H281.377C281.377 68.1345 281.291 67.75 281.119 67.4119C280.95 67.0739 280.708 66.8071 280.393 66.6115C280.081 66.416 279.713 66.3182 279.289 66.3182C278.822 66.3182 278.417 66.4342 278.076 66.6662C277.738 66.8949 277.478 67.1932 277.295 67.5611C277.113 67.929 277.022 68.3234 277.022 68.7443V69.4205C277.022 69.9972 277.121 70.486 277.32 70.8871C277.522 71.2848 277.803 71.5881 278.161 71.7969C278.518 72.0024 278.934 72.1051 279.408 72.1051C279.717 72.1051 279.995 72.062 280.244 71.9759C280.496 71.8864 280.713 71.7538 280.895 71.5781C281.077 71.3991 281.218 71.1771 281.317 70.9119L282.451 71.2301C282.332 71.6146 282.131 71.9527 281.849 72.2443C281.568 72.5327 281.22 72.758 280.805 72.9205C280.391 73.0795 279.925 73.1591 279.408 73.1591ZM289.764 67.0739L288.71 67.3722C288.644 67.1965 288.546 67.0258 288.417 66.8601C288.291 66.6911 288.119 66.5518 287.9 66.4425C287.681 66.3331 287.401 66.2784 287.06 66.2784C286.592 66.2784 286.203 66.3861 285.891 66.6016C285.583 66.8137 285.429 67.0838 285.429 67.4119C285.429 67.7036 285.535 67.9339 285.747 68.103C285.959 68.272 286.291 68.4129 286.741 68.5256L287.875 68.804C288.558 68.9697 289.067 69.2232 289.401 69.5646C289.736 69.9027 289.903 70.3385 289.903 70.8722C289.903 71.3097 289.777 71.7008 289.526 72.0455C289.277 72.3902 288.929 72.6619 288.482 72.8608C288.034 73.0597 287.514 73.1591 286.92 73.1591C286.142 73.1591 285.497 72.9901 284.987 72.652C284.476 72.3139 284.153 71.8201 284.017 71.1705L285.131 70.892C285.237 71.303 285.437 71.6113 285.732 71.8168C286.031 72.0223 286.42 72.125 286.901 72.125C287.447 72.125 287.882 72.009 288.203 71.777C288.528 71.5417 288.69 71.2599 288.69 70.9318C288.69 70.6667 288.598 70.4446 288.412 70.2656C288.226 70.0833 287.941 69.9474 287.557 69.858L286.284 69.5597C285.585 69.3939 285.071 69.1371 284.743 68.7891C284.418 68.4377 284.256 67.9986 284.256 67.4716C284.256 67.0407 284.377 66.6596 284.619 66.3281C284.864 65.9967 285.197 65.7365 285.618 65.5476C286.042 65.3587 286.523 65.2642 287.06 65.2642C287.815 65.2642 288.409 65.4299 288.839 65.7614C289.274 66.0928 289.582 66.5303 289.764 67.0739ZM291.67 75.8636V65.3636H292.803V66.5767H292.942C293.028 66.4441 293.148 66.2751 293.3 66.0696C293.456 65.8608 293.678 65.6752 293.966 65.5128C294.258 65.3471 294.653 65.2642 295.15 65.2642C295.793 65.2642 296.359 65.425 296.85 65.7464C297.34 66.0679 297.723 66.5237 297.998 67.1136C298.273 67.7036 298.411 68.3996 298.411 69.2017C298.411 70.0104 298.273 70.7114 297.998 71.3047C297.723 71.8946 297.342 72.352 296.855 72.6768C296.368 72.9983 295.806 73.1591 295.17 73.1591C294.679 73.1591 294.286 73.0779 293.991 72.9155C293.696 72.7498 293.469 72.5625 293.31 72.3537C293.151 72.1416 293.028 71.9659 292.942 71.8267H292.843V75.8636H291.67ZM292.823 69.1818C292.823 69.7585 292.907 70.2673 293.077 70.7081C293.246 71.1456 293.492 71.4886 293.817 71.7372C294.142 71.9825 294.54 72.1051 295.01 72.1051C295.501 72.1051 295.91 71.9759 296.238 71.7173C296.57 71.4555 296.818 71.1042 296.984 70.6634C297.153 70.2192 297.238 69.7254 297.238 69.1818C297.238 68.6449 297.155 68.161 296.989 67.7301C296.827 67.2959 296.58 66.9529 296.248 66.701C295.92 66.4458 295.508 66.3182 295.01 66.3182C294.533 66.3182 294.132 66.4392 293.807 66.6811C293.483 66.9197 293.237 67.2545 293.072 67.6854C292.906 68.1129 292.823 68.6117 292.823 69.1818ZM303.303 73.1591C302.614 73.1591 302.009 72.995 301.488 72.6669C300.971 72.3388 300.567 71.8797 300.275 71.2898C299.987 70.6998 299.843 70.0104 299.843 69.2216C299.843 68.4261 299.987 67.7318 300.275 67.1385C300.567 66.5452 300.971 66.0845 301.488 65.7564C302.009 65.4283 302.614 65.2642 303.303 65.2642C303.992 65.2642 304.596 65.4283 305.113 65.7564C305.633 66.0845 306.037 66.5452 306.326 67.1385C306.617 67.7318 306.763 68.4261 306.763 69.2216C306.763 70.0104 306.617 70.6998 306.326 71.2898C306.037 71.8797 305.633 72.3388 305.113 72.6669C304.596 72.995 303.992 73.1591 303.303 73.1591ZM303.303 72.1051C303.827 72.1051 304.258 71.9709 304.596 71.7024C304.934 71.4339 305.184 71.081 305.346 70.6435C305.509 70.206 305.59 69.732 305.59 69.2216C305.59 68.7112 305.509 68.2356 305.346 67.7947C305.184 67.3539 304.934 66.9976 304.596 66.7259C304.258 66.4541 303.827 66.3182 303.303 66.3182C302.779 66.3182 302.349 66.4541 302.01 66.7259C301.672 66.9976 301.422 67.3539 301.26 67.7947C301.097 68.2356 301.016 68.7112 301.016 69.2216C301.016 69.732 301.097 70.206 301.26 70.6435C301.422 71.081 301.672 71.4339 302.01 71.7024C302.349 71.9709 302.779 72.1051 303.303 72.1051ZM309.728 68.4062V73H308.554V65.3636H309.688V66.5568H309.787C309.966 66.169 310.238 65.8575 310.603 65.6222C310.967 65.3835 311.438 65.2642 312.015 65.2642C312.532 65.2642 312.984 65.3703 313.372 65.5824C313.76 65.7912 314.061 66.1094 314.277 66.5369C314.492 66.9612 314.6 67.4981 314.6 68.1477V73H313.426V68.2273C313.426 67.6274 313.271 67.16 312.959 66.8253C312.648 66.4872 312.22 66.3182 311.676 66.3182C311.302 66.3182 310.967 66.3994 310.672 66.5618C310.381 66.7242 310.15 66.9612 309.981 67.2727C309.812 67.5843 309.728 67.9621 309.728 68.4062ZM319.627 73.1591C318.991 73.1591 318.429 72.9983 317.942 72.6768C317.455 72.352 317.074 71.8946 316.798 71.3047C316.523 70.7114 316.386 70.0104 316.386 69.2017C316.386 68.3996 316.523 67.7036 316.798 67.1136C317.074 66.5237 317.456 66.0679 317.947 65.7464C318.437 65.425 319.004 65.2642 319.647 65.2642C320.144 65.2642 320.537 65.3471 320.825 65.5128C321.117 65.6752 321.339 65.8608 321.492 66.0696C321.647 66.2751 321.768 66.4441 321.855 66.5767H321.954V62.8182H323.127V73H321.994V71.8267H321.855C321.768 71.9659 321.646 72.1416 321.487 72.3537C321.328 72.5625 321.101 72.7498 320.806 72.9155C320.511 73.0779 320.118 73.1591 319.627 73.1591ZM319.786 72.1051C320.257 72.1051 320.655 71.9825 320.98 71.7372C321.304 71.4886 321.551 71.1456 321.72 70.7081C321.889 70.2673 321.974 69.7585 321.974 69.1818C321.974 68.6117 321.891 68.1129 321.725 67.6854C321.56 67.2545 321.314 66.9197 320.99 66.6811C320.665 66.4392 320.264 66.3182 319.786 66.3182C319.289 66.3182 318.875 66.4458 318.544 66.701C318.215 66.9529 317.968 67.2959 317.803 67.7301C317.64 68.161 317.559 68.6449 317.559 69.1818C317.559 69.7254 317.642 70.2192 317.808 70.6634C317.977 71.1042 318.225 71.4555 318.553 71.7173C318.885 71.9759 319.296 72.1051 319.786 72.1051ZM328.641 73.1591C327.905 73.1591 327.27 72.9967 326.737 72.6719C326.206 72.3438 325.797 71.8864 325.509 71.2997C325.224 70.7098 325.081 70.0237 325.081 69.2415C325.081 68.4593 325.224 67.7699 325.509 67.1733C325.797 66.5734 326.198 66.1061 326.712 65.7713C327.229 65.4332 327.832 65.2642 328.521 65.2642C328.919 65.2642 329.312 65.3305 329.7 65.4631C330.088 65.5956 330.441 65.8111 330.759 66.1094C331.077 66.4044 331.33 66.7955 331.519 67.2827C331.708 67.7699 331.803 68.3698 331.803 69.0824V69.5795H325.916V68.5653H330.61C330.61 68.1345 330.523 67.75 330.351 67.4119C330.182 67.0739 329.94 66.8071 329.625 66.6115C329.314 66.416 328.946 66.3182 328.521 66.3182C328.054 66.3182 327.65 66.4342 327.308 66.6662C326.97 66.8949 326.71 67.1932 326.528 67.5611C326.346 67.929 326.254 68.3234 326.254 68.7443V69.4205C326.254 69.9972 326.354 70.486 326.553 70.8871C326.755 71.2848 327.035 71.5881 327.393 71.7969C327.751 72.0024 328.167 72.1051 328.641 72.1051C328.949 72.1051 329.227 72.062 329.476 71.9759C329.728 71.8864 329.945 71.7538 330.127 71.5781C330.31 71.3991 330.45 71.1771 330.55 70.9119L331.683 71.2301C331.564 71.6146 331.364 71.9527 331.082 72.2443C330.8 72.5327 330.452 72.758 330.038 72.9205C329.624 73.0795 329.158 73.1591 328.641 73.1591ZM333.588 73V65.3636H334.721V66.517H334.801C334.94 66.1392 335.192 65.8326 335.556 65.5973C335.921 65.362 336.332 65.2443 336.789 65.2443C336.875 65.2443 336.983 65.246 337.112 65.2493C337.242 65.2526 337.339 65.2576 337.406 65.2642V66.4574C337.366 66.4474 337.275 66.4325 337.132 66.4126C336.993 66.3894 336.846 66.3778 336.69 66.3778C336.319 66.3778 335.987 66.4557 335.695 66.6115C335.407 66.764 335.178 66.9761 335.009 67.2479C334.844 67.5163 334.761 67.8229 334.761 68.1676V73H333.588ZM341.044 73.179C340.56 73.179 340.121 73.0878 339.726 72.9055C339.332 72.7199 339.019 72.4531 338.787 72.1051C338.555 71.7538 338.439 71.3295 338.439 70.8324C338.439 70.3949 338.525 70.0402 338.697 69.7685C338.869 69.4934 339.1 69.2779 339.388 69.1222C339.676 68.9664 339.995 68.8504 340.343 68.7741C340.694 68.6946 341.047 68.6316 341.402 68.5852C341.866 68.5256 342.242 68.4808 342.53 68.451C342.822 68.4179 343.034 68.3632 343.167 68.2869C343.302 68.2107 343.37 68.0781 343.37 67.8892V67.8494C343.37 67.3589 343.236 66.9777 342.968 66.706C342.703 66.4342 342.3 66.2983 341.76 66.2983C341.199 66.2983 340.76 66.4209 340.442 66.6662C340.124 66.9115 339.9 67.1733 339.771 67.4517L338.657 67.054C338.856 66.59 339.121 66.2287 339.453 65.9702C339.788 65.7083 340.152 65.526 340.547 65.4233C340.944 65.3172 341.335 65.2642 341.72 65.2642C341.965 65.2642 342.247 65.294 342.565 65.3537C342.886 65.41 343.196 65.5277 343.495 65.7067C343.796 65.8857 344.047 66.1558 344.245 66.517C344.444 66.8783 344.544 67.3622 344.544 67.9688V73H343.37V71.9659H343.311C343.231 72.1316 343.099 72.3089 342.913 72.4979C342.727 72.6868 342.48 72.8475 342.172 72.9801C341.864 73.1127 341.488 73.179 341.044 73.179ZM341.223 72.125C341.687 72.125 342.078 72.0339 342.396 71.8516C342.717 71.6693 342.959 71.4339 343.122 71.1456C343.288 70.8572 343.37 70.554 343.37 70.2358V69.1619C343.321 69.2216 343.211 69.2763 343.042 69.326C342.877 69.3724 342.684 69.4138 342.466 69.4503C342.25 69.4834 342.04 69.5133 341.834 69.5398C341.632 69.563 341.468 69.5829 341.342 69.5994C341.037 69.6392 340.752 69.7038 340.487 69.7933C340.225 69.8795 340.013 70.0104 339.85 70.1861C339.691 70.3584 339.612 70.5937 339.612 70.892C339.612 71.2997 339.763 71.608 340.064 71.8168C340.369 72.0223 340.755 72.125 341.223 72.125ZM341.262 64.3295L342.475 62.0227H343.848L342.297 64.3295H341.262ZM352.87 73.179C352.386 73.179 351.947 73.0878 351.552 72.9055C351.158 72.7199 350.845 72.4531 350.613 72.1051C350.381 71.7538 350.265 71.3295 350.265 70.8324C350.265 70.3949 350.351 70.0402 350.523 69.7685C350.696 69.4934 350.926 69.2779 351.214 69.1222C351.503 68.9664 351.821 68.8504 352.169 68.7741C352.52 68.6946 352.873 68.6316 353.228 68.5852C353.692 68.5256 354.068 68.4808 354.356 68.451C354.648 68.4179 354.86 68.3632 354.993 68.2869C355.129 68.2107 355.197 68.0781 355.197 67.8892V67.8494C355.197 67.3589 355.062 66.9777 354.794 66.706C354.529 66.4342 354.126 66.2983 353.586 66.2983C353.026 66.2983 352.586 66.4209 352.268 66.6662C351.95 66.9115 351.726 67.1733 351.597 67.4517L350.483 67.054C350.682 66.59 350.948 66.2287 351.279 65.9702C351.614 65.7083 351.978 65.526 352.373 65.4233C352.77 65.3172 353.162 65.2642 353.546 65.2642C353.791 65.2642 354.073 65.294 354.391 65.3537C354.713 65.41 355.023 65.5277 355.321 65.7067C355.622 65.8857 355.873 66.1558 356.072 66.517C356.27 66.8783 356.37 67.3622 356.37 67.9688V73H355.197V71.9659H355.137C355.057 72.1316 354.925 72.3089 354.739 72.4979C354.554 72.6868 354.307 72.8475 353.998 72.9801C353.69 73.1127 353.314 73.179 352.87 73.179ZM353.049 72.125C353.513 72.125 353.904 72.0339 354.222 71.8516C354.544 71.6693 354.786 71.4339 354.948 71.1456C355.114 70.8572 355.197 70.554 355.197 70.2358V69.1619C355.147 69.2216 355.037 69.2763 354.868 69.326C354.703 69.3724 354.51 69.4138 354.292 69.4503C354.076 69.4834 353.866 69.5133 353.66 69.5398C353.458 69.563 353.294 69.5829 353.168 69.5994C352.863 69.6392 352.578 69.7038 352.313 69.7933C352.051 69.8795 351.839 70.0104 351.677 70.1861C351.518 70.3584 351.438 70.5937 351.438 70.892C351.438 71.2997 351.589 71.608 351.89 71.8168C352.195 72.0223 352.581 72.125 353.049 72.125ZM363.324 69.8778V65.3636H364.497V73H363.324V71.7074H363.244C363.065 72.0952 362.787 72.425 362.409 72.6967C362.031 72.9652 361.554 73.0994 360.977 73.0994C360.5 73.0994 360.076 72.995 359.705 72.7862C359.333 72.5741 359.042 72.2559 358.83 71.8317C358.617 71.4041 358.511 70.8655 358.511 70.2159V65.3636H359.685V70.1364C359.685 70.6932 359.84 71.1373 360.152 71.4688C360.467 71.8002 360.868 71.9659 361.355 71.9659C361.647 71.9659 361.943 71.8913 362.245 71.7422C362.55 71.593 362.805 71.3643 363.011 71.0561C363.219 70.7479 363.324 70.3551 363.324 69.8778ZM369.967 65.3636V66.358H366.01V65.3636H369.967ZM367.163 63.5341H368.336V70.8125C368.336 71.1439 368.385 71.3925 368.481 71.5582C368.58 71.7206 368.706 71.83 368.858 71.8864C369.014 71.9394 369.178 71.9659 369.351 71.9659C369.48 71.9659 369.586 71.9593 369.669 71.946C369.752 71.9295 369.818 71.9162 369.868 71.9062L370.106 72.9602C370.027 72.9901 369.916 73.0199 369.773 73.0497C369.631 73.0829 369.45 73.0994 369.231 73.0994C368.9 73.0994 368.575 73.0282 368.257 72.8857C367.942 72.7431 367.68 72.526 367.471 72.2344C367.266 71.9427 367.163 71.5748 367.163 71.1307V63.5341ZM374.752 73.1591C374.063 73.1591 373.458 72.995 372.938 72.6669C372.421 72.3388 372.016 71.8797 371.725 71.2898C371.436 70.6998 371.292 70.0104 371.292 69.2216C371.292 68.4261 371.436 67.7318 371.725 67.1385C372.016 66.5452 372.421 66.0845 372.938 65.7564C373.458 65.4283 374.063 65.2642 374.752 65.2642C375.442 65.2642 376.045 65.4283 376.562 65.7564C377.082 66.0845 377.487 66.5452 377.775 67.1385C378.067 67.7318 378.213 68.4261 378.213 69.2216C378.213 70.0104 378.067 70.6998 377.775 71.2898C377.487 71.8797 377.082 72.3388 376.562 72.6669C376.045 72.995 375.442 73.1591 374.752 73.1591ZM374.752 72.1051C375.276 72.1051 375.707 71.9709 376.045 71.7024C376.383 71.4339 376.633 71.081 376.796 70.6435C376.958 70.206 377.039 69.732 377.039 69.2216C377.039 68.7112 376.958 68.2356 376.796 67.7947C376.633 67.3539 376.383 66.9976 376.045 66.7259C375.707 66.4541 375.276 66.3182 374.752 66.3182C374.229 66.3182 373.798 66.4541 373.46 66.7259C373.122 66.9976 372.871 67.3539 372.709 67.7947C372.547 68.2356 372.465 68.7112 372.465 69.2216C372.465 69.732 372.547 70.206 372.709 70.6435C372.871 71.081 373.122 71.4339 373.46 71.7024C373.798 71.9709 374.229 72.1051 374.752 72.1051ZM380.004 73V65.3636H381.137V66.5568H381.237C381.396 66.1491 381.652 65.8326 382.007 65.6072C382.362 65.3786 382.788 65.2642 383.285 65.2642C383.789 65.2642 384.208 65.3786 384.543 65.6072C384.881 65.8326 385.144 66.1491 385.333 66.5568H385.413C385.608 66.1624 385.902 65.8492 386.293 65.6172C386.684 65.3819 387.153 65.2642 387.7 65.2642C388.382 65.2642 388.941 65.478 389.375 65.9055C389.809 66.3298 390.026 66.991 390.026 67.8892V73H388.853V67.8892C388.853 67.3258 388.699 66.9231 388.391 66.6811C388.082 66.4392 387.719 66.3182 387.302 66.3182C386.765 66.3182 386.349 66.4806 386.054 66.8054C385.759 67.1269 385.612 67.5346 385.612 68.0284V73H384.418V67.7699C384.418 67.3357 384.277 66.986 383.996 66.7209C383.714 66.4524 383.351 66.3182 382.907 66.3182C382.602 66.3182 382.317 66.3994 382.052 66.5618C381.79 66.7242 381.578 66.9496 381.415 67.2379C381.256 67.523 381.177 67.8527 381.177 68.2273V73H380.004ZM394.419 73.179C393.935 73.179 393.496 73.0878 393.101 72.9055C392.707 72.7199 392.394 72.4531 392.162 72.1051C391.93 71.7538 391.814 71.3295 391.814 70.8324C391.814 70.3949 391.9 70.0402 392.072 69.7685C392.244 69.4934 392.475 69.2779 392.763 69.1222C393.051 68.9664 393.37 68.8504 393.718 68.7741C394.069 68.6946 394.422 68.6316 394.777 68.5852C395.241 68.5256 395.617 68.4808 395.905 68.451C396.197 68.4179 396.409 68.3632 396.542 68.2869C396.677 68.2107 396.745 68.0781 396.745 67.8892V67.8494C396.745 67.3589 396.611 66.9777 396.343 66.706C396.078 66.4342 395.675 66.2983 395.135 66.2983C394.574 66.2983 394.135 66.4209 393.817 66.6662C393.499 66.9115 393.275 67.1733 393.146 67.4517L392.032 67.054C392.231 66.59 392.496 66.2287 392.828 65.9702C393.163 65.7083 393.527 65.526 393.922 65.4233C394.319 65.3172 394.71 65.2642 395.095 65.2642C395.34 65.2642 395.622 65.294 395.94 65.3537C396.261 65.41 396.571 65.5277 396.87 65.7067C397.171 65.8857 397.422 66.1558 397.62 66.517C397.819 66.8783 397.919 67.3622 397.919 67.9688V73H396.745V71.9659H396.686C396.606 72.1316 396.474 72.3089 396.288 72.4979C396.102 72.6868 395.855 72.8475 395.547 72.9801C395.239 73.1127 394.863 73.179 394.419 73.179ZM394.598 72.125C395.062 72.125 395.453 72.0339 395.771 71.8516C396.092 71.6693 396.334 71.4339 396.497 71.1456C396.663 70.8572 396.745 70.554 396.745 70.2358V69.1619C396.696 69.2216 396.586 69.2763 396.417 69.326C396.252 69.3724 396.059 69.4138 395.841 69.4503C395.625 69.4834 395.415 69.5133 395.209 69.5398C395.007 69.563 394.843 69.5829 394.717 69.5994C394.412 69.6392 394.127 69.7038 393.862 69.7933C393.6 69.8795 393.388 70.0104 393.225 70.1861C393.066 70.3584 392.987 70.5937 392.987 70.892C392.987 71.2997 393.138 71.608 393.439 71.8168C393.744 72.0223 394.13 72.125 394.598 72.125ZM394.637 64.3295L395.85 62.0227H397.223L395.672 64.3295H394.637ZM403.381 65.3636V66.358H399.424V65.3636H403.381ZM400.577 63.5341H401.751V70.8125C401.751 71.1439 401.799 71.3925 401.895 71.5582C401.994 71.7206 402.12 71.83 402.273 71.8864C402.428 71.9394 402.592 71.9659 402.765 71.9659C402.894 71.9659 403 71.9593 403.083 71.946C403.166 71.9295 403.232 71.9162 403.282 71.9062L403.52 72.9602C403.441 72.9901 403.33 73.0199 403.187 73.0497C403.045 73.0829 402.864 73.0994 402.645 73.0994C402.314 73.0994 401.989 73.0282 401.671 72.8857C401.356 72.7431 401.094 72.526 400.885 72.2344C400.68 71.9427 400.577 71.5748 400.577 71.1307V63.5341ZM405.146 73V65.3636H406.319V73H405.146ZM405.743 64.0909C405.514 64.0909 405.317 64.013 405.151 63.8572C404.989 63.7015 404.907 63.5142 404.907 63.2955C404.907 63.0767 404.989 62.8894 405.151 62.7337C405.317 62.5779 405.514 62.5 405.743 62.5C405.971 62.5 406.167 62.5779 406.329 62.7337C406.495 62.8894 406.578 63.0767 406.578 63.2955C406.578 63.5142 406.495 63.7015 406.329 63.8572C406.167 64.013 405.971 64.0909 405.743 64.0909ZM411.571 73.1591C410.855 73.1591 410.238 72.9901 409.721 72.652C409.204 72.3139 408.806 71.8482 408.528 71.255C408.25 70.6617 408.11 69.9839 408.11 69.2216C408.11 68.446 408.253 67.7616 408.538 67.1683C408.826 66.5717 409.227 66.1061 409.741 65.7713C410.258 65.4332 410.861 65.2642 411.551 65.2642C412.088 65.2642 412.572 65.3636 413.002 65.5625C413.433 65.7614 413.786 66.0398 414.061 66.3977C414.337 66.7557 414.507 67.1733 414.574 67.6506H413.4C413.311 67.3026 413.112 66.9943 412.804 66.7259C412.499 66.4541 412.088 66.3182 411.571 66.3182C411.113 66.3182 410.712 66.4375 410.368 66.6761C410.026 66.9115 409.759 67.2446 409.567 67.6754C409.378 68.103 409.284 68.6051 409.284 69.1818C409.284 69.7718 409.377 70.2855 409.562 70.723C409.751 71.1605 410.016 71.5002 410.358 71.7422C410.702 71.9841 411.107 72.1051 411.571 72.1051C411.876 72.1051 412.152 72.0521 412.401 71.946C412.65 71.84 412.86 71.6875 413.032 71.4886C413.205 71.2898 413.327 71.0511 413.4 70.7727H414.574C414.507 71.2235 414.343 71.6295 414.081 71.9908C413.823 72.3487 413.48 72.6338 413.052 72.8459C412.628 73.0547 412.134 73.1591 411.571 73.1591ZM418.536 73.179C418.052 73.179 417.613 73.0878 417.218 72.9055C416.824 72.7199 416.511 72.4531 416.279 72.1051C416.047 71.7538 415.931 71.3295 415.931 70.8324C415.931 70.3949 416.017 70.0402 416.189 69.7685C416.362 69.4934 416.592 69.2779 416.88 69.1222C417.169 68.9664 417.487 68.8504 417.835 68.7741C418.186 68.6946 418.539 68.6316 418.894 68.5852C419.358 68.5256 419.734 68.4808 420.022 68.451C420.314 68.4179 420.526 68.3632 420.659 68.2869C420.795 68.2107 420.863 68.0781 420.863 67.8892V67.8494C420.863 67.3589 420.728 66.9777 420.46 66.706C420.195 66.4342 419.792 66.2983 419.252 66.2983C418.692 66.2983 418.252 66.4209 417.934 66.6662C417.616 66.9115 417.392 67.1733 417.263 67.4517L416.15 67.054C416.348 66.59 416.614 66.2287 416.945 65.9702C417.28 65.7083 417.644 65.526 418.039 65.4233C418.436 65.3172 418.828 65.2642 419.212 65.2642C419.457 65.2642 419.739 65.294 420.057 65.3537C420.379 65.41 420.689 65.5277 420.987 65.7067C421.288 65.8857 421.539 66.1558 421.738 66.517C421.936 66.8783 422.036 67.3622 422.036 67.9688V73H420.863V71.9659H420.803C420.723 72.1316 420.591 72.3089 420.405 72.4979C420.22 72.6868 419.973 72.8475 419.664 72.9801C419.356 73.1127 418.98 73.179 418.536 73.179ZM418.715 72.125C419.179 72.125 419.57 72.0339 419.888 71.8516C420.21 71.6693 420.452 71.4339 420.614 71.1456C420.78 70.8572 420.863 70.554 420.863 70.2358V69.1619C420.813 69.2216 420.703 69.2763 420.534 69.326C420.369 69.3724 420.176 69.4138 419.958 69.4503C419.742 69.4834 419.532 69.5133 419.326 69.5398C419.124 69.563 418.96 69.5829 418.834 69.5994C418.529 69.6392 418.244 69.7038 417.979 69.7933C417.717 69.8795 417.505 70.0104 417.343 70.1861C417.184 70.3584 417.104 70.5937 417.104 70.892C417.104 71.2997 417.255 71.608 417.556 71.8168C417.861 72.0223 418.248 72.125 418.715 72.125ZM424.177 73V65.3636H425.311V66.5568H425.41C425.569 66.1491 425.826 65.8326 426.181 65.6072C426.536 65.3786 426.961 65.2642 427.459 65.2642C427.962 65.2642 428.382 65.3786 428.716 65.6072C429.055 65.8326 429.318 66.1491 429.507 66.5568H429.586C429.782 66.1624 430.075 65.8492 430.466 65.6172C430.858 65.3819 431.327 65.2642 431.873 65.2642C432.556 65.2642 433.115 65.478 433.549 65.9055C433.983 66.3298 434.2 66.991 434.2 67.8892V73H433.027V67.8892C433.027 67.3258 432.873 66.9231 432.564 66.6811C432.256 66.4392 431.893 66.3182 431.476 66.3182C430.939 66.3182 430.523 66.4806 430.228 66.8054C429.933 67.1269 429.785 67.5346 429.785 68.0284V73H428.592V67.7699C428.592 67.3357 428.451 66.986 428.17 66.7209C427.888 66.4524 427.525 66.3182 427.081 66.3182C426.776 66.3182 426.491 66.3994 426.226 66.5618C425.964 66.7242 425.752 66.9496 425.589 67.2379C425.43 67.523 425.351 67.8527 425.351 68.2273V73H424.177ZM439.547 73.1591C438.811 73.1591 438.177 72.9967 437.643 72.6719C437.113 72.3438 436.703 71.8864 436.415 71.2997C436.13 70.7098 435.987 70.0237 435.987 69.2415C435.987 68.4593 436.13 67.7699 436.415 67.1733C436.703 66.5734 437.104 66.1061 437.618 65.7713C438.135 65.4332 438.738 65.2642 439.428 65.2642C439.825 65.2642 440.218 65.3305 440.606 65.4631C440.994 65.5956 441.347 65.8111 441.665 66.1094C441.983 66.4044 442.237 66.7955 442.426 67.2827C442.615 67.7699 442.709 68.3698 442.709 69.0824V69.5795H436.823V68.5653H441.516C441.516 68.1345 441.43 67.75 441.257 67.4119C441.088 67.0739 440.846 66.8071 440.531 66.6115C440.22 66.416 439.852 66.3182 439.428 66.3182C438.96 66.3182 438.556 66.4342 438.215 66.6662C437.877 66.8949 437.616 67.1932 437.434 67.5611C437.252 67.929 437.161 68.3234 437.161 68.7443V69.4205C437.161 69.9972 437.26 70.486 437.459 70.8871C437.661 71.2848 437.941 71.5881 438.299 71.7969C438.657 72.0024 439.073 72.1051 439.547 72.1051C439.855 72.1051 440.134 72.062 440.382 71.9759C440.634 71.8864 440.851 71.7538 441.034 71.5781C441.216 71.3991 441.357 71.1771 441.456 70.9119L442.59 71.2301C442.47 71.6146 442.27 71.9527 441.988 72.2443C441.706 72.5327 441.358 72.758 440.944 72.9205C440.53 73.0795 440.064 73.1591 439.547 73.1591ZM445.667 68.4062V73H444.494V65.3636H445.627V66.5568H445.727C445.906 66.169 446.177 65.8575 446.542 65.6222C446.907 65.3835 447.377 65.2642 447.954 65.2642C448.471 65.2642 448.923 65.3703 449.311 65.5824C449.699 65.7912 450.001 66.1094 450.216 66.5369C450.432 66.9612 450.539 67.4981 450.539 68.1477V73H449.366V68.2273C449.366 67.6274 449.21 67.16 448.899 66.8253C448.587 66.4872 448.16 66.3182 447.616 66.3182C447.241 66.3182 446.907 66.3994 446.612 66.5618C446.32 66.7242 446.09 66.9612 445.921 67.2727C445.752 67.5843 445.667 67.9621 445.667 68.4062ZM456.004 65.3636V66.358H452.047V65.3636H456.004ZM453.2 63.5341H454.374V70.8125C454.374 71.1439 454.422 71.3925 454.518 71.5582C454.617 71.7206 454.743 71.83 454.896 71.8864C455.051 71.9394 455.215 71.9659 455.388 71.9659C455.517 71.9659 455.623 71.9593 455.706 71.946C455.789 71.9295 455.855 71.9162 455.905 71.9062L456.143 72.9602C456.064 72.9901 455.953 73.0199 455.81 73.0497C455.668 73.0829 455.487 73.0994 455.268 73.0994C454.937 73.0994 454.612 73.0282 454.294 72.8857C453.979 72.7431 453.717 72.526 453.509 72.2344C453.303 71.9427 453.2 71.5748 453.2 71.1307V63.5341ZM460.889 73.1591C460.153 73.1591 459.518 72.9967 458.985 72.6719C458.454 72.3438 458.045 71.8864 457.757 71.2997C457.472 70.7098 457.329 70.0237 457.329 69.2415C457.329 68.4593 457.472 67.7699 457.757 67.1733C458.045 66.5734 458.446 66.1061 458.96 65.7713C459.477 65.4332 460.08 65.2642 460.77 65.2642C461.167 65.2642 461.56 65.3305 461.948 65.4631C462.336 65.5956 462.689 65.8111 463.007 66.1094C463.325 66.4044 463.578 66.7955 463.767 67.2827C463.956 67.7699 464.051 68.3698 464.051 69.0824V69.5795H458.164V68.5653H462.858C462.858 68.1345 462.771 67.75 462.599 67.4119C462.43 67.0739 462.188 66.8071 461.873 66.6115C461.562 66.416 461.194 66.3182 460.77 66.3182C460.302 66.3182 459.898 66.4342 459.556 66.6662C459.218 66.8949 458.958 67.1932 458.776 67.5611C458.594 67.929 458.502 68.3234 458.502 68.7443V69.4205C458.502 69.9972 458.602 70.486 458.801 70.8871C459.003 71.2848 459.283 71.5881 459.641 71.7969C459.999 72.0024 460.415 72.1051 460.889 72.1051C461.197 72.1051 461.475 72.062 461.724 71.9759C461.976 71.8864 462.193 71.7538 462.375 71.5781C462.558 71.3991 462.699 71.1771 462.798 70.9119L463.931 71.2301C463.812 71.6146 463.612 71.9527 463.33 72.2443C463.048 72.5327 462.7 72.758 462.286 72.9205C461.872 73.0795 461.406 73.1591 460.889 73.1591ZM469.773 75.8636V65.3636H470.907V66.5767H471.046C471.132 66.4441 471.251 66.2751 471.404 66.0696C471.56 65.8608 471.782 65.6752 472.07 65.5128C472.362 65.3471 472.756 65.2642 473.253 65.2642C473.896 65.2642 474.463 65.425 474.953 65.7464C475.444 66.0679 475.827 66.5237 476.102 67.1136C476.377 67.7036 476.515 68.3996 476.515 69.2017C476.515 70.0104 476.377 70.7114 476.102 71.3047C475.827 71.8946 475.446 72.352 474.958 72.6768C474.471 72.9983 473.909 73.1591 473.273 73.1591C472.783 73.1591 472.39 73.0779 472.095 72.9155C471.8 72.7498 471.573 72.5625 471.414 72.3537C471.255 72.1416 471.132 71.9659 471.046 71.8267H470.946V75.8636H469.773ZM470.926 69.1818C470.926 69.7585 471.011 70.2673 471.18 70.7081C471.349 71.1456 471.596 71.4886 471.921 71.7372C472.246 71.9825 472.643 72.1051 473.114 72.1051C473.605 72.1051 474.014 71.9759 474.342 71.7173C474.673 71.4555 474.922 71.1042 475.088 70.6634C475.257 70.2192 475.341 69.7254 475.341 69.1818C475.341 68.6449 475.258 68.161 475.093 67.7301C474.93 67.2959 474.683 66.9529 474.352 66.701C474.024 66.4458 473.611 66.3182 473.114 66.3182C472.637 66.3182 472.236 66.4392 471.911 66.6811C471.586 66.9197 471.341 67.2545 471.175 67.6854C471.009 68.1129 470.926 68.6117 470.926 69.1818ZM481.407 73.1591C480.717 73.1591 480.112 72.995 479.592 72.6669C479.075 72.3388 478.671 71.8797 478.379 71.2898C478.091 70.6998 477.946 70.0104 477.946 69.2216C477.946 68.4261 478.091 67.7318 478.379 67.1385C478.671 66.5452 479.075 66.0845 479.592 65.7564C480.112 65.4283 480.717 65.2642 481.407 65.2642C482.096 65.2642 482.699 65.4283 483.216 65.7564C483.737 66.0845 484.141 66.5452 484.429 67.1385C484.721 67.7318 484.867 68.4261 484.867 69.2216C484.867 70.0104 484.721 70.6998 484.429 71.2898C484.141 71.8797 483.737 72.3388 483.216 72.6669C482.699 72.995 482.096 73.1591 481.407 73.1591ZM481.407 72.1051C481.93 72.1051 482.361 71.9709 482.699 71.7024C483.037 71.4339 483.288 71.081 483.45 70.6435C483.612 70.206 483.694 69.732 483.694 69.2216C483.694 68.7112 483.612 68.2356 483.45 67.7947C483.288 67.3539 483.037 66.9976 482.699 66.7259C482.361 66.4541 481.93 66.3182 481.407 66.3182C480.883 66.3182 480.452 66.4541 480.114 66.7259C479.776 66.9976 479.526 67.3539 479.363 67.7947C479.201 68.2356 479.12 68.7112 479.12 69.2216C479.12 69.732 479.201 70.206 479.363 70.6435C479.526 71.081 479.776 71.4339 480.114 71.7024C480.452 71.9709 480.883 72.1051 481.407 72.1051ZM486.658 73V65.3636H487.791V66.517H487.871C488.01 66.1392 488.262 65.8326 488.627 65.5973C488.991 65.362 489.402 65.2443 489.86 65.2443C489.946 65.2443 490.053 65.246 490.183 65.2493C490.312 65.2526 490.41 65.2576 490.476 65.2642V66.4574C490.436 66.4474 490.345 66.4325 490.203 66.4126C490.063 66.3894 489.916 66.3778 489.76 66.3778C489.389 66.3778 489.057 66.4557 488.766 66.6115C488.477 66.764 488.249 66.9761 488.08 67.2479C487.914 67.5163 487.831 67.8229 487.831 68.1676V73H486.658ZM500.617 69.8778V65.3636H501.79V73H500.617V71.7074H500.537C500.358 72.0952 500.08 72.425 499.702 72.6967C499.324 72.9652 498.847 73.0994 498.27 73.0994C497.793 73.0994 497.369 72.995 496.998 72.7862C496.626 72.5741 496.335 72.2559 496.123 71.8317C495.91 71.4041 495.804 70.8655 495.804 70.2159V65.3636H496.978V70.1364C496.978 70.6932 497.133 71.1373 497.445 71.4688C497.76 71.8002 498.161 71.9659 498.648 71.9659C498.94 71.9659 499.236 71.8913 499.538 71.7422C499.843 71.593 500.098 71.3643 500.304 71.0561C500.512 70.7479 500.617 70.3551 500.617 69.8778ZM509.348 67.0739L508.294 67.3722C508.228 67.1965 508.13 67.0258 508.001 66.8601C507.875 66.6911 507.703 66.5518 507.484 66.4425C507.265 66.3331 506.985 66.2784 506.644 66.2784C506.176 66.2784 505.787 66.3861 505.475 66.6016C505.167 66.8137 505.013 67.0838 505.013 67.4119C505.013 67.7036 505.119 67.9339 505.331 68.103C505.543 68.272 505.875 68.4129 506.325 68.5256L507.459 68.804C508.142 68.9697 508.651 69.2232 508.985 69.5646C509.32 69.9027 509.487 70.3385 509.487 70.8722C509.487 71.3097 509.361 71.7008 509.11 72.0455C508.861 72.3902 508.513 72.6619 508.066 72.8608C507.618 73.0597 507.098 73.1591 506.504 73.1591C505.726 73.1591 505.081 72.9901 504.57 72.652C504.06 72.3139 503.737 71.8201 503.601 71.1705L504.715 70.892C504.821 71.303 505.021 71.6113 505.316 71.8168C505.615 72.0223 506.004 72.125 506.485 72.125C507.031 72.125 507.466 72.009 507.787 71.777C508.112 71.5417 508.274 71.2599 508.274 70.9318C508.274 70.6667 508.182 70.4446 507.996 70.2656C507.81 70.0833 507.525 69.9474 507.141 69.858L505.868 69.5597C505.169 69.3939 504.655 69.1371 504.327 68.7891C504.002 68.4377 503.84 67.9986 503.84 67.4716C503.84 67.0407 503.961 66.6596 504.203 66.3281C504.448 65.9967 504.781 65.7365 505.202 65.5476C505.626 65.3587 506.107 65.2642 506.644 65.2642C507.399 65.2642 507.993 65.4299 508.423 65.7614C508.858 66.0928 509.166 66.5303 509.348 67.0739ZM514.575 65.3636V66.358H510.617V65.3636H514.575ZM511.771 63.5341H512.944V70.8125C512.944 71.1439 512.992 71.3925 513.088 71.5582C513.188 71.7206 513.313 71.83 513.466 71.8864C513.622 71.9394 513.786 71.9659 513.958 71.9659C514.087 71.9659 514.193 71.9593 514.276 71.946C514.359 71.9295 514.425 71.9162 514.475 71.9062L514.714 72.9602C514.634 72.9901 514.523 73.0199 514.381 73.0497C514.238 73.0829 514.058 73.0994 513.839 73.0994C513.507 73.0994 513.183 73.0282 512.864 72.8857C512.549 72.7431 512.288 72.526 512.079 72.2344C511.873 71.9427 511.771 71.5748 511.771 71.1307V63.5341ZM519.459 73.1591C518.723 73.1591 518.089 72.9967 517.555 72.6719C517.025 72.3438 516.615 71.8864 516.327 71.2997C516.042 70.7098 515.9 70.0237 515.9 69.2415C515.9 68.4593 516.042 67.7699 516.327 67.1733C516.615 66.5734 517.016 66.1061 517.53 65.7713C518.047 65.4332 518.65 65.2642 519.34 65.2642C519.738 65.2642 520.13 65.3305 520.518 65.4631C520.906 65.5956 521.259 65.8111 521.577 66.1094C521.895 66.4044 522.149 66.7955 522.338 67.2827C522.527 67.7699 522.621 68.3698 522.621 69.0824V69.5795H516.735V68.5653H521.428C521.428 68.1345 521.342 67.75 521.169 67.4119C521 67.0739 520.758 66.8071 520.444 66.6115C520.132 66.416 519.764 66.3182 519.34 66.3182C518.873 66.3182 518.468 66.4342 518.127 66.6662C517.789 66.8949 517.529 67.1932 517.346 67.5611C517.164 67.929 517.073 68.3234 517.073 68.7443V69.4205C517.073 69.9972 517.172 70.486 517.371 70.8871C517.573 71.2848 517.853 71.5881 518.211 71.7969C518.569 72.0024 518.985 72.1051 519.459 72.1051C519.767 72.1051 520.046 72.062 520.294 71.9759C520.546 71.8864 520.763 71.7538 520.946 71.5781C521.128 71.3991 521.269 71.1771 521.368 70.9119L522.502 71.2301C522.382 71.6146 522.182 71.9527 521.9 72.2443C521.618 72.5327 521.27 72.758 520.856 72.9205C520.442 73.0795 519.976 73.1591 519.459 73.1591ZM527.289 73.1591C526.653 73.1591 526.091 72.9983 525.604 72.6768C525.117 72.352 524.736 71.8946 524.461 71.3047C524.185 70.7114 524.048 70.0104 524.048 69.2017C524.048 68.3996 524.185 67.7036 524.461 67.1136C524.736 66.5237 525.118 66.0679 525.609 65.7464C526.1 65.425 526.666 65.2642 527.309 65.2642C527.806 65.2642 528.199 65.3471 528.488 65.5128C528.779 65.6752 529.001 65.8608 529.154 66.0696C529.31 66.2751 529.431 66.4441 529.517 66.5767H529.616V62.8182H530.789V73H529.656V71.8267H529.517C529.431 71.9659 529.308 72.1416 529.149 72.3537C528.99 72.5625 528.763 72.7498 528.468 72.9155C528.173 73.0779 527.78 73.1591 527.289 73.1591ZM527.449 72.1051C527.919 72.1051 528.317 71.9825 528.642 71.7372C528.967 71.4886 529.213 71.1456 529.382 70.7081C529.551 70.2673 529.636 69.7585 529.636 69.1818C529.636 68.6117 529.553 68.1129 529.387 67.6854C529.222 67.2545 528.976 66.9197 528.652 66.6811C528.327 66.4392 527.926 66.3182 527.449 66.3182C526.951 66.3182 526.537 66.4458 526.206 66.701C525.877 66.9529 525.631 67.2959 525.465 67.7301C525.302 68.161 525.221 68.6449 525.221 69.1818C525.221 69.7254 525.304 70.2192 525.47 70.6634C525.639 71.1042 525.887 71.4555 526.216 71.7173C526.547 71.9759 526.958 72.1051 527.449 72.1051ZM541.851 69.8778V65.3636H543.025V73H541.851V71.7074H541.772C541.593 72.0952 541.314 72.425 540.936 72.6967C540.559 72.9652 540.081 73.0994 539.505 73.0994C539.027 73.0994 538.603 72.995 538.232 72.7862C537.861 72.5741 537.569 72.2559 537.357 71.8317C537.145 71.4041 537.039 70.8655 537.039 70.2159V65.3636H538.212V70.1364C538.212 70.6932 538.368 71.1373 538.679 71.4688C538.994 71.8002 539.395 71.9659 539.882 71.9659C540.174 71.9659 540.471 71.8913 540.772 71.7422C541.077 71.593 541.333 71.3643 541.538 71.0561C541.747 70.7479 541.851 70.3551 541.851 69.8778ZM550.583 67.0739L549.529 67.3722C549.462 67.1965 549.365 67.0258 549.235 66.8601C549.109 66.6911 548.937 66.5518 548.718 66.4425C548.499 66.3331 548.219 66.2784 547.878 66.2784C547.411 66.2784 547.021 66.3861 546.71 66.6016C546.401 66.8137 546.247 67.0838 546.247 67.4119C546.247 67.7036 546.353 67.9339 546.566 68.103C546.778 68.272 547.109 68.4129 547.56 68.5256L548.693 68.804C549.376 68.9697 549.885 69.2232 550.22 69.5646C550.554 69.9027 550.722 70.3385 550.722 70.8722C550.722 71.3097 550.596 71.7008 550.344 72.0455C550.095 72.3902 549.747 72.6619 549.3 72.8608C548.852 73.0597 548.332 73.1591 547.739 73.1591C546.96 73.1591 546.315 72.9901 545.805 72.652C545.294 72.3139 544.971 71.8201 544.835 71.1705L545.949 70.892C546.055 71.303 546.256 71.6113 546.551 71.8168C546.849 72.0223 547.238 72.125 547.719 72.125C548.266 72.125 548.7 72.009 549.021 71.777C549.346 71.5417 549.509 71.2599 549.509 70.9318C549.509 70.6667 549.416 70.4446 549.23 70.2656C549.045 70.0833 548.76 69.9474 548.375 69.858L547.102 69.5597C546.403 69.3939 545.889 69.1371 545.561 68.7891C545.236 68.4377 545.074 67.9986 545.074 67.4716C545.074 67.0407 545.195 66.6596 545.437 66.3281C545.682 65.9967 546.015 65.7365 546.436 65.5476C546.86 65.3587 547.341 65.2642 547.878 65.2642C548.634 65.2642 549.227 65.4299 549.658 65.7614C550.092 66.0928 550.4 66.5303 550.583 67.0739ZM554.735 73.179C554.251 73.179 553.812 73.0878 553.418 72.9055C553.023 72.7199 552.71 72.4531 552.478 72.1051C552.246 71.7538 552.13 71.3295 552.13 70.8324C552.13 70.3949 552.216 70.0402 552.388 69.7685C552.561 69.4934 552.791 69.2779 553.08 69.1222C553.368 68.9664 553.686 68.8504 554.034 68.7741C554.385 68.6946 554.738 68.6316 555.093 68.5852C555.557 68.5256 555.933 68.4808 556.222 68.451C556.513 68.4179 556.725 68.3632 556.858 68.2869C556.994 68.2107 557.062 68.0781 557.062 67.8892V67.8494C557.062 67.3589 556.928 66.9777 556.659 66.706C556.394 66.4342 555.991 66.2983 555.451 66.2983C554.891 66.2983 554.452 66.4209 554.134 66.6662C553.815 66.9115 553.592 67.1733 553.462 67.4517L552.349 67.054C552.548 66.59 552.813 66.2287 553.144 65.9702C553.479 65.7083 553.844 65.526 554.238 65.4233C554.636 65.3172 555.027 65.2642 555.411 65.2642C555.656 65.2642 555.938 65.294 556.256 65.3537C556.578 65.41 556.888 65.5277 557.186 65.7067C557.488 65.8857 557.738 66.1558 557.937 66.517C558.136 66.8783 558.235 67.3622 558.235 67.9688V73H557.062V71.9659H557.002C556.923 72.1316 556.79 72.3089 556.604 72.4979C556.419 72.6868 556.172 72.8475 555.864 72.9801C555.555 73.1127 555.179 73.179 554.735 73.179ZM554.914 72.125C555.378 72.125 555.769 72.0339 556.087 71.8516C556.409 71.6693 556.651 71.4339 556.813 71.1456C556.979 70.8572 557.062 70.554 557.062 70.2358V69.1619C557.012 69.2216 556.903 69.2763 556.734 69.326C556.568 69.3724 556.376 69.4138 556.157 69.4503C555.942 69.4834 555.731 69.5133 555.526 69.5398C555.323 69.563 555.159 69.5829 555.033 69.5994C554.728 69.6392 554.443 69.7038 554.178 69.7933C553.916 69.8795 553.704 70.0104 553.542 70.1861C553.383 70.3584 553.303 70.5937 553.303 70.892C553.303 71.2997 553.454 71.608 553.756 71.8168C554.061 72.0223 554.447 72.125 554.914 72.125ZM561.55 68.4062V73H560.377V65.3636H561.51V66.5568H561.61C561.789 66.169 562.06 65.8575 562.425 65.6222C562.789 65.3835 563.26 65.2642 563.837 65.2642C564.354 65.2642 564.806 65.3703 565.194 65.5824C565.582 65.7912 565.883 66.1094 566.099 66.5369C566.314 66.9612 566.422 67.4981 566.422 68.1477V73H565.249V68.2273C565.249 67.6274 565.093 67.16 564.781 66.8253C564.47 66.4872 564.042 66.3182 563.499 66.3182C563.124 66.3182 562.789 66.3994 562.494 66.5618C562.203 66.7242 561.972 66.9612 561.803 67.2727C561.634 67.5843 561.55 67.9621 561.55 68.4062ZM571.45 73.1591C570.813 73.1591 570.251 72.9983 569.764 72.6768C569.277 72.352 568.896 71.8946 568.621 71.3047C568.346 70.7114 568.208 70.0104 568.208 69.2017C568.208 68.3996 568.346 67.7036 568.621 67.1136C568.896 66.5237 569.279 66.0679 569.769 65.7464C570.26 65.425 570.826 65.2642 571.469 65.2642C571.967 65.2642 572.359 65.3471 572.648 65.5128C572.939 65.6752 573.161 65.8608 573.314 66.0696C573.47 66.2751 573.591 66.4441 573.677 66.5767H573.776V62.8182H574.95V73H573.816V71.8267H573.677C573.591 71.9659 573.468 72.1416 573.309 72.3537C573.15 72.5625 572.923 72.7498 572.628 72.9155C572.333 73.0779 571.94 73.1591 571.45 73.1591ZM571.609 72.1051C572.079 72.1051 572.477 71.9825 572.802 71.7372C573.127 71.4886 573.374 71.1456 573.543 70.7081C573.712 70.2673 573.796 69.7585 573.796 69.1818C573.796 68.6117 573.713 68.1129 573.548 67.6854C573.382 67.2545 573.137 66.9197 572.812 66.6811C572.487 66.4392 572.086 66.3182 571.609 66.3182C571.112 66.3182 570.697 66.4458 570.366 66.701C570.038 66.9529 569.791 67.2959 569.625 67.7301C569.463 68.161 569.381 68.6449 569.381 69.1818C569.381 69.7254 569.464 70.2192 569.63 70.6634C569.799 71.1042 570.048 71.4555 570.376 71.7173C570.707 71.9759 571.118 72.1051 571.609 72.1051ZM580.364 73.1591C579.674 73.1591 579.069 72.995 578.549 72.6669C578.032 72.3388 577.628 71.8797 577.336 71.2898C577.048 70.6998 576.903 70.0104 576.903 69.2216C576.903 68.4261 577.048 67.7318 577.336 67.1385C577.628 66.5452 578.032 66.0845 578.549 65.7564C579.069 65.4283 579.674 65.2642 580.364 65.2642C581.053 65.2642 581.656 65.4283 582.173 65.7564C582.694 66.0845 583.098 66.5452 583.386 67.1385C583.678 67.7318 583.824 68.4261 583.824 69.2216C583.824 70.0104 583.678 70.6998 583.386 71.2898C583.098 71.8797 582.694 72.3388 582.173 72.6669C581.656 72.995 581.053 73.1591 580.364 73.1591ZM580.364 72.1051C580.887 72.1051 581.318 71.9709 581.656 71.7024C581.994 71.4339 582.245 71.081 582.407 70.6435C582.569 70.206 582.651 69.732 582.651 69.2216C582.651 68.7112 582.569 68.2356 582.407 67.7947C582.245 67.3539 581.994 66.9976 581.656 66.7259C581.318 66.4541 580.887 66.3182 580.364 66.3182C579.84 66.3182 579.409 66.4541 579.071 66.7259C578.733 66.9976 578.483 67.3539 578.32 67.7947C578.158 68.2356 578.077 68.7112 578.077 69.2216C578.077 69.732 578.158 70.206 578.32 70.6435C578.483 71.081 578.733 71.4339 579.071 71.7024C579.409 71.9709 579.84 72.1051 580.364 72.1051ZM597.905 66H596.672C596.599 65.6454 596.471 65.3338 596.289 65.0653C596.11 64.7969 595.891 64.5715 595.633 64.3892C595.377 64.2036 595.094 64.0644 594.782 63.9716C594.471 63.8788 594.146 63.8324 593.808 63.8324C593.192 63.8324 592.633 63.9882 592.133 64.2997C591.635 64.6113 591.239 65.0703 590.944 65.6768C590.653 66.2834 590.507 67.0275 590.507 67.9091C590.507 68.7907 590.653 69.5348 590.944 70.1413C591.239 70.7479 591.635 71.2069 592.133 71.5185C592.633 71.83 593.192 71.9858 593.808 71.9858C594.146 71.9858 594.471 71.9394 594.782 71.8466C595.094 71.7538 595.377 71.6162 595.633 71.4339C595.891 71.2483 596.11 71.0213 596.289 70.7528C596.471 70.4811 596.599 70.1695 596.672 69.8182H597.905C597.812 70.3385 597.643 70.8042 597.398 71.2152C597.152 71.6262 596.847 71.9759 596.483 72.2642C596.118 72.5492 595.709 72.7663 595.255 72.9155C594.804 73.0646 594.322 73.1392 593.808 73.1392C592.94 73.1392 592.167 72.9271 591.491 72.5028C590.815 72.0786 590.283 71.4754 589.895 70.6932C589.508 69.911 589.314 68.983 589.314 67.9091C589.314 66.8352 589.508 65.9072 589.895 65.125C590.283 64.3428 590.815 63.7396 591.491 63.3153C592.167 62.8911 592.94 62.679 593.808 62.679C594.322 62.679 594.804 62.7536 595.255 62.9027C595.709 63.0518 596.118 63.2706 596.483 63.5589C596.847 63.844 597.152 64.192 597.398 64.603C597.643 65.0107 597.812 65.4763 597.905 66ZM600.911 62.8182V73H599.738V62.8182H600.911ZM605.307 73.179C604.823 73.179 604.384 73.0878 603.99 72.9055C603.595 72.7199 603.282 72.4531 603.05 72.1051C602.818 71.7538 602.702 71.3295 602.702 70.8324C602.702 70.3949 602.788 70.0402 602.961 69.7685C603.133 69.4934 603.363 69.2779 603.652 69.1222C603.94 68.9664 604.258 68.8504 604.606 68.7741C604.958 68.6946 605.311 68.6316 605.665 68.5852C606.129 68.5256 606.506 68.4808 606.794 68.451C607.086 68.4179 607.298 68.3632 607.43 68.2869C607.566 68.2107 607.634 68.0781 607.634 67.8892V67.8494C607.634 67.3589 607.5 66.9777 607.231 66.706C606.966 66.4342 606.564 66.2983 606.023 66.2983C605.463 66.2983 605.024 66.4209 604.706 66.6662C604.388 66.9115 604.164 67.1733 604.035 67.4517L602.921 67.054C603.12 66.59 603.385 66.2287 603.716 65.9702C604.051 65.7083 604.416 65.526 604.81 65.4233C605.208 65.3172 605.599 65.2642 605.983 65.2642C606.229 65.2642 606.51 65.294 606.829 65.3537C607.15 65.41 607.46 65.5277 607.758 65.7067C608.06 65.8857 608.31 66.1558 608.509 66.517C608.708 66.8783 608.807 67.3622 608.807 67.9688V73H607.634V71.9659H607.574C607.495 72.1316 607.362 72.3089 607.177 72.4979C606.991 72.6868 606.744 72.8475 606.436 72.9801C606.128 73.1127 605.751 73.179 605.307 73.179ZM605.486 72.125C605.95 72.125 606.341 72.0339 606.66 71.8516C606.981 71.6693 607.223 71.4339 607.385 71.1456C607.551 70.8572 607.634 70.554 607.634 70.2358V69.1619C607.584 69.2216 607.475 69.2763 607.306 69.326C607.14 69.3724 606.948 69.4138 606.729 69.4503C606.514 69.4834 606.303 69.5133 606.098 69.5398C605.896 69.563 605.732 69.5829 605.606 69.5994C605.301 69.6392 605.016 69.7038 604.751 69.7933C604.489 69.8795 604.277 70.0104 604.114 70.1861C603.955 70.3584 603.876 70.5937 603.876 70.892C603.876 71.2997 604.026 71.608 604.328 71.8168C604.633 72.0223 605.019 72.125 605.486 72.125ZM615.761 69.8778V65.3636H616.935V73H615.761V71.7074H615.682C615.503 72.0952 615.224 72.425 614.847 72.6967C614.469 72.9652 613.991 73.0994 613.415 73.0994C612.938 73.0994 612.513 72.995 612.142 72.7862C611.771 72.5741 611.479 72.2559 611.267 71.8317C611.055 71.4041 610.949 70.8655 610.949 70.2159V65.3636H612.122V70.1364C612.122 70.6932 612.278 71.1373 612.589 71.4688C612.904 71.8002 613.305 71.9659 613.793 71.9659C614.084 71.9659 614.381 71.8913 614.683 71.7422C614.987 71.593 615.243 71.3643 615.448 71.0561C615.657 70.7479 615.761 70.3551 615.761 69.8778ZM621.967 73.1591C621.331 73.1591 620.769 72.9983 620.282 72.6768C619.795 72.352 619.413 71.8946 619.138 71.3047C618.863 70.7114 618.726 70.0104 618.726 69.2017C618.726 68.3996 618.863 67.7036 619.138 67.1136C619.413 66.5237 619.796 66.0679 620.287 65.7464C620.777 65.425 621.344 65.2642 621.987 65.2642C622.484 65.2642 622.877 65.3471 623.165 65.5128C623.457 65.6752 623.679 65.8608 623.831 66.0696C623.987 66.2751 624.108 66.4441 624.194 66.5767H624.294V62.8182H625.467V73H624.334V71.8267H624.194C624.108 71.9659 623.986 72.1416 623.827 72.3537C623.667 72.5625 623.44 72.7498 623.145 72.9155C622.85 73.0779 622.458 73.1591 621.967 73.1591ZM622.126 72.1051C622.597 72.1051 622.995 71.9825 623.319 71.7372C623.644 71.4886 623.891 71.1456 624.06 70.7081C624.229 70.2673 624.314 69.7585 624.314 69.1818C624.314 68.6117 624.231 68.1129 624.065 67.6854C623.899 67.2545 623.654 66.9197 623.329 66.6811C623.005 66.4392 622.604 66.3182 622.126 66.3182C621.629 66.3182 621.215 66.4458 620.883 66.701C620.555 66.9529 620.308 67.2959 620.143 67.7301C619.98 68.161 619.899 68.6449 619.899 69.1818C619.899 69.7254 619.982 70.2192 620.148 70.6634C620.317 71.1042 620.565 71.4555 620.893 71.7173C621.225 71.9759 621.636 72.1051 622.126 72.1051ZM630.981 73.1591C630.245 73.1591 629.61 72.9967 629.077 72.6719C628.546 72.3438 628.137 71.8864 627.849 71.2997C627.564 70.7098 627.421 70.0237 627.421 69.2415C627.421 68.4593 627.564 67.7699 627.849 67.1733C628.137 66.5734 628.538 66.1061 629.052 65.7713C629.569 65.4332 630.172 65.2642 630.861 65.2642C631.259 65.2642 631.652 65.3305 632.04 65.4631C632.427 65.5956 632.78 65.8111 633.099 66.1094C633.417 66.4044 633.67 66.7955 633.859 67.2827C634.048 67.7699 634.143 68.3698 634.143 69.0824V69.5795H628.256V68.5653H632.949C632.949 68.1345 632.863 67.75 632.691 67.4119C632.522 67.0739 632.28 66.8071 631.965 66.6115C631.653 66.416 631.286 66.3182 630.861 66.3182C630.394 66.3182 629.99 66.4342 629.648 66.6662C629.31 66.8949 629.05 67.1932 628.868 67.5611C628.685 67.929 628.594 68.3234 628.594 68.7443V69.4205C628.594 69.9972 628.694 70.486 628.893 70.8871C629.095 71.2848 629.375 71.5881 629.733 71.7969C630.091 72.0024 630.507 72.1051 630.981 72.1051C631.289 72.1051 631.567 72.062 631.816 71.9759C632.068 71.8864 632.285 71.7538 632.467 71.5781C632.649 71.3991 632.79 71.1771 632.89 70.9119L634.023 71.2301C633.904 71.6146 633.703 71.9527 633.422 72.2443C633.14 72.5327 632.792 72.758 632.378 72.9205C631.963 73.0795 631.498 73.1591 630.981 73.1591ZM645.592 65.3636C645.532 64.8598 645.291 64.4688 644.866 64.1903C644.442 63.9119 643.922 63.7727 643.305 63.7727C642.854 63.7727 642.46 63.8456 642.122 63.9915C641.787 64.1373 641.525 64.3378 641.336 64.593C641.151 64.8482 641.058 65.1383 641.058 65.4631C641.058 65.7348 641.123 65.9685 641.252 66.1641C641.385 66.3563 641.554 66.517 641.759 66.6463C641.965 66.7723 642.18 66.8767 642.405 66.9595C642.631 67.0391 642.838 67.1037 643.027 67.1534L644.061 67.4318C644.326 67.5014 644.621 67.5975 644.946 67.7202C645.274 67.8428 645.587 68.0102 645.885 68.2223C646.187 68.4311 646.436 68.6996 646.631 69.0277C646.827 69.3558 646.925 69.7585 646.925 70.2358C646.925 70.786 646.78 71.2831 646.492 71.7273C646.207 72.1714 645.789 72.5244 645.239 72.7862C644.692 73.0481 644.028 73.179 643.246 73.179C642.516 73.179 641.885 73.0613 641.351 72.826C640.821 72.5907 640.403 72.2625 640.099 71.8416C639.797 71.4207 639.626 70.9318 639.586 70.375H640.859C640.892 70.7595 641.022 71.0777 641.247 71.3295C641.476 71.5781 641.764 71.7637 642.112 71.8864C642.463 72.0057 642.841 72.0653 643.246 72.0653C643.716 72.0653 644.139 71.9891 644.513 71.8366C644.888 71.6809 645.184 71.4654 645.403 71.1903C645.622 70.9119 645.731 70.5871 645.731 70.2159C645.731 69.8778 645.637 69.6027 645.448 69.3906C645.259 69.1785 645.01 69.0062 644.702 68.8736C644.394 68.741 644.061 68.625 643.703 68.5256L642.45 68.1676C641.655 67.9389 641.025 67.6125 640.561 67.1882C640.097 66.764 639.865 66.2088 639.865 65.5227C639.865 64.9527 640.019 64.4555 640.327 64.0312C640.639 63.6037 641.056 63.2723 641.58 63.0369C642.107 62.7983 642.695 62.679 643.345 62.679C644.001 62.679 644.585 62.7966 645.095 63.032C645.605 63.264 646.01 63.5821 646.308 63.9865C646.61 64.3909 646.769 64.8499 646.785 65.3636H645.592ZM651.895 73.1591C651.205 73.1591 650.601 72.995 650.08 72.6669C649.563 72.3388 649.159 71.8797 648.867 71.2898C648.579 70.6998 648.435 70.0104 648.435 69.2216C648.435 68.4261 648.579 67.7318 648.867 67.1385C649.159 66.5452 649.563 66.0845 650.08 65.7564C650.601 65.4283 651.205 65.2642 651.895 65.2642C652.584 65.2642 653.188 65.4283 653.705 65.7564C654.225 66.0845 654.629 66.5452 654.918 67.1385C655.209 67.7318 655.355 68.4261 655.355 69.2216C655.355 70.0104 655.209 70.6998 654.918 71.2898C654.629 71.8797 654.225 72.3388 653.705 72.6669C653.188 72.995 652.584 73.1591 651.895 73.1591ZM651.895 72.1051C652.419 72.1051 652.849 71.9709 653.188 71.7024C653.526 71.4339 653.776 71.081 653.938 70.6435C654.101 70.206 654.182 69.732 654.182 69.2216C654.182 68.7112 654.101 68.2356 653.938 67.7947C653.776 67.3539 653.526 66.9976 653.188 66.7259C652.849 66.4541 652.419 66.3182 651.895 66.3182C651.371 66.3182 650.94 66.4541 650.602 66.7259C650.264 66.9976 650.014 67.3539 649.852 67.7947C649.689 68.2356 649.608 68.7112 649.608 69.2216C649.608 69.732 649.689 70.206 649.852 70.6435C650.014 71.081 650.264 71.4339 650.602 71.7024C650.94 71.9709 651.371 72.1051 651.895 72.1051ZM658.319 68.4062V73H657.146V65.3636H658.28V66.5568H658.379C658.558 66.169 658.83 65.8575 659.194 65.6222C659.559 65.3835 660.03 65.2642 660.606 65.2642C661.123 65.2642 661.576 65.3703 661.964 65.5824C662.351 65.7912 662.653 66.1094 662.868 66.5369C663.084 66.9612 663.192 67.4981 663.192 68.1477V73H662.018V68.2273C662.018 67.6274 661.863 67.16 661.551 66.8253C661.239 66.4872 660.812 66.3182 660.268 66.3182C659.894 66.3182 659.559 66.3994 659.264 66.5618C658.972 66.7242 658.742 66.9612 658.573 67.2727C658.404 67.5843 658.319 67.9621 658.319 68.4062ZM668.537 73.1591C667.801 73.1591 667.167 72.9967 666.633 72.6719C666.103 72.3438 665.694 71.8864 665.405 71.2997C665.12 70.7098 664.978 70.0237 664.978 69.2415C664.978 68.4593 665.12 67.7699 665.405 67.1733C665.694 66.5734 666.095 66.1061 666.608 65.7713C667.125 65.4332 667.729 65.2642 668.418 65.2642C668.816 65.2642 669.208 65.3305 669.596 65.4631C669.984 65.5956 670.337 65.8111 670.655 66.1094C670.973 66.4044 671.227 66.7955 671.416 67.2827C671.605 67.7699 671.699 68.3698 671.699 69.0824V69.5795H665.813V68.5653H670.506C670.506 68.1345 670.42 67.75 670.248 67.4119C670.078 67.0739 669.837 66.8071 669.522 66.6115C669.21 66.416 668.842 66.3182 668.418 66.3182C667.951 66.3182 667.546 66.4342 667.205 66.6662C666.867 66.8949 666.607 67.1932 666.424 67.5611C666.242 67.929 666.151 68.3234 666.151 68.7443V69.4205C666.151 69.9972 666.25 70.486 666.449 70.8871C666.651 71.2848 666.931 71.5881 667.289 71.7969C667.647 72.0024 668.063 72.1051 668.537 72.1051C668.846 72.1051 669.124 72.062 669.373 71.9759C669.624 71.8864 669.842 71.7538 670.024 71.5781C670.206 71.3991 670.347 71.1771 670.446 70.9119L671.58 71.2301C671.461 71.6146 671.26 71.9527 670.978 72.2443C670.697 72.5327 670.349 72.758 669.934 72.9205C669.52 73.0795 669.054 73.1591 668.537 73.1591ZM676.805 65.3636V66.358H672.848V65.3636H676.805ZM674.001 63.5341H675.174V70.8125C675.174 71.1439 675.222 71.3925 675.319 71.5582C675.418 71.7206 675.544 71.83 675.696 71.8864C675.852 71.9394 676.016 71.9659 676.189 71.9659C676.318 71.9659 676.424 71.9593 676.507 71.946C676.59 71.9295 676.656 71.9162 676.706 71.9062L676.944 72.9602C676.865 72.9901 676.754 73.0199 676.611 73.0497C676.469 73.0829 676.288 73.0994 676.069 73.0994C675.738 73.0994 675.413 73.0282 675.095 72.8857C674.78 72.7431 674.518 72.526 674.309 72.2344C674.104 71.9427 674.001 71.5748 674.001 71.1307V63.5341ZM678.106 70.9119V69.8977L682.581 62.8182H683.317V64.3892H682.819L679.439 69.7386V69.8182H685.464V70.9119H678.106ZM682.899 73V70.6037V70.1314V62.8182H684.072V73H682.899ZM687.724 73.0795C687.479 73.0795 687.268 72.9917 687.093 72.8161C686.917 72.6404 686.829 72.4299 686.829 72.1847C686.829 71.9394 686.917 71.7289 687.093 71.5533C687.268 71.3776 687.479 71.2898 687.724 71.2898C687.969 71.2898 688.18 71.3776 688.355 71.5533C688.531 71.7289 688.619 71.9394 688.619 72.1847C688.619 72.3471 688.577 72.4962 688.494 72.6321C688.415 72.768 688.307 72.8774 688.171 72.9602C688.039 73.0398 687.89 73.0795 687.724 73.0795ZM693.681 73.1392C693.098 73.1392 692.572 73.0232 692.105 72.7912C691.638 72.5592 691.263 72.241 690.982 71.8366C690.7 71.4323 690.546 70.9716 690.519 70.4545H691.712C691.759 70.9152 691.968 71.2964 692.339 71.598C692.713 71.8963 693.161 72.0455 693.681 72.0455C694.099 72.0455 694.47 71.9477 694.795 71.7521C695.123 71.5566 695.38 71.2881 695.565 70.9467C695.754 70.602 695.849 70.2126 695.849 69.7784C695.849 69.3343 695.751 68.9382 695.555 68.5902C695.363 68.2389 695.098 67.9621 694.76 67.7599C694.422 67.5578 694.036 67.455 693.602 67.4517C693.29 67.4484 692.97 67.4964 692.642 67.5959C692.314 67.692 692.044 67.8163 691.832 67.9688L690.678 67.8295L691.295 62.8182H696.585V63.9119H692.329L691.971 66.9148H692.031C692.239 66.7491 692.501 66.6115 692.816 66.5021C693.131 66.3928 693.459 66.3381 693.8 66.3381C694.424 66.3381 694.979 66.4872 695.466 66.7855C695.956 67.0805 696.341 67.4848 696.619 67.9986C696.901 68.5123 697.042 69.099 697.042 69.7585C697.042 70.4081 696.896 70.9882 696.604 71.4986C696.316 72.0057 695.918 72.4067 695.411 72.7017C694.904 72.9934 694.327 73.1392 693.681 73.1392Z" fill="#FEFEFF"/>
<path opacity="0.5" d="M797 36.5H798C815.949 36.5 830.5 51.0507 830.5 69C830.5 86.9493 815.949 101.5 798 101.5H797C779.051 101.5 764.5 86.9493 764.5 69C764.5 51.0507 779.051 36.5 797 36.5Z" fill="#2C2C2C" stroke="#AEAEAE"/>
<path d="M798 62.3334V56.6667H792.333M783.833 70.8334H786.667M809.333 70.8334H812.167M802.25 69.4167V72.25M793.75 69.4167V72.25M789.5 62.3334H806.5C808.065 62.3334 809.333 63.6019 809.333 65.1667V76.5C809.333 78.0648 808.065 79.3334 806.5 79.3334H789.5C787.935 79.3334 786.667 78.0648 786.667 76.5V65.1667C786.667 63.6019 787.935 62.3334 789.5 62.3334Z" stroke="#14D32A" stroke-width="2.5" stroke-linecap="round" stroke-linejoin="round"/>
<defs>
<filter id="filter0_d_40_502" x="0" y="0" width="849" height="136" filterUnits="userSpaceOnUse" color-interpolation-filters="sRGB">
<feFlood flood-opacity="0" result="BackgroundImageFix"/>
<feColorMatrix in="SourceAlpha" type="matrix" values="0 0 0 0 0 0 0 0 0 0 0 0 0 0 0 0 0 0 127 0" result="hardAlpha"/>
<feOffset dy="4"/>
<feGaussianBlur stdDeviation="2"/>
<feComposite in2="hardAlpha" operator="out"/>
<feColorMatrix type="matrix" values="0 0 0 0 0 0 0 0 0 0 0 0 0 0 0 0 0 0 0.25 0"/>
<feBlend mode="normal" in2="BackgroundImageFix" result="effect1_dropShadow_40_502"/>
<feBlend mode="normal" in="SourceGraphic" in2="effect1_dropShadow_40_502" result="shape"/>
</filter>
</defs>
</svg>
