<svg width="849" height="532" viewBox="0 0 849 532" fill="none" xmlns="http://www.w3.org/2000/svg">
<g filter="url(#filter0_d_62_762)">
<path d="M4 25C4 11.1929 15.1929 0 29 0H820C833.807 0 845 11.1929 845 25V524H4V25Z" fill="#2C2C2C"/>
<path d="M29 0.5H820C833.531 0.5 844.5 11.469 844.5 25V523.5H4.5V25L4.50781 24.3672C4.84346 11.1287 15.6806 0.5 29 0.5Z" stroke="black"/>
</g>
<path opacity="0.5" d="M66 43.5H718C735.949 43.5 750.5 58.0507 750.5 76C750.5 93.9493 735.949 108.5 718 108.5H66C48.0508 108.5 33.5 93.9492 33.5 76C33.5 58.0507 48.0507 43.5 66 43.5Z" fill="#757575" stroke="#AEAEAE"/>
<path d="M685 68.5L674.483 79.2325C674.014 79.7014 673.75 80.3374 673.75 81.0006C673.75 81.6638 674.014 82.2998 674.483 82.7687C674.951 83.2377 675.587 83.5011 676.251 83.5011C676.914 83.5011 677.55 83.2377 678.019 82.7687L688.536 72.0362C689.474 71.0985 690.001 69.8267 690.001 68.5006C690.001 67.1745 689.474 65.9027 688.536 64.965C687.599 64.0273 686.327 63.5005 685.001 63.5005C683.675 63.5005 682.403 64.0273 681.465 64.965L670.991 75.6537C670.286 76.3481 669.724 77.1753 669.34 78.0877C668.955 79 668.755 79.9795 668.751 80.9695C668.747 81.9596 668.939 82.9406 669.316 83.8561C669.693 84.7715 670.248 85.6033 670.948 86.3034C671.648 87.0034 672.48 87.558 673.395 87.935C674.311 88.312 675.292 88.504 676.282 88.5C677.272 88.496 678.251 88.2959 679.164 87.9115C680.076 87.527 680.903 86.9657 681.598 86.26L692.071 75.5712" stroke="#B0AEBD" stroke-width="2.5" stroke-linecap="round" stroke-linejoin="round"/>
<path d="M719 84.75V88.5M719 84.75C721.321 84.75 723.546 83.8281 725.187 82.1872C726.828 80.5462 727.75 78.3206 727.75 76V73.5M719 84.75C716.679 84.75 714.454 83.8281 712.813 82.1872C711.172 80.5462 710.25 78.3206 710.25 76V73.5M719 63.5C721.071 63.5 722.75 65.1789 722.75 67.25V76C722.75 78.0711 721.071 79.75 719 79.75C716.929 79.75 715.25 78.0711 715.25 76V67.25C715.25 65.1789 716.929 63.5 719 63.5Z" stroke="#B0AFBD" stroke-width="2.5" stroke-linecap="round" stroke-linejoin="round"/>
<path opacity="0.5" d="M793 43.5H794C811.949 43.5 826.5 58.0507 826.5 76C826.5 93.9493 811.949 108.5 794 108.5H793C775.051 108.5 760.5 93.9493 760.5 76C760.5 58.0507 775.051 43.5 793 43.5Z" fill="#2C2C2C" stroke="#AEAEAE"/>
<path d="M796.366 70.3334H802.5C803.252 70.3334 803.972 70.6319 804.504 71.1632C805.035 71.6946 805.333 72.4153 805.333 73.1667V79.3009M779.833 78.8334H782.667M805.333 78.8334H808.167M808.167 90.1667L779.833 61.8334M788.333 70.3334H785.5C784.749 70.3334 784.028 70.6319 783.497 71.1632C782.965 71.6946 782.667 72.4153 782.667 73.1667V84.5C782.667 85.2515 782.965 85.9722 783.497 86.5035C784.028 87.0349 784.749 87.3334 785.5 87.3334H802.5C803.252 87.3332 803.972 87.0346 804.503 86.5032M789.75 77.4167V80.25M790.699 64.6667H794V67.9675" stroke="#B0AFBD" stroke-width="2.5" stroke-linecap="round" stroke-linejoin="round"/>
<path d="M71.5 71H71.5125M74 76H74.0125M76.5 71H76.5125M79 76H79.0125M81.5 71H81.5125M66.5 71H66.5125M67.75 81H80.25M69 76H69.0125M64 66H84C85.3807 66 86.5 67.1193 86.5 68.5V83.5C86.5 84.8807 85.3807 86 84 86H64C62.6193 86 61.5 84.8807 61.5 83.5V68.5C61.5 67.1193 62.6193 66 64 66Z" stroke="#B0AFBD" stroke-width="2.5" stroke-linecap="round" stroke-linejoin="round"/>
<rect x="327" y="14" width="217" height="5" fill="#3B82F6"/>
<rect x="264.5" y="473.5" width="125" height="34" rx="17" fill="#0D0D0D" stroke="#AEAEAE"/>
<path d="M295.264 498V483.455H305.065V485.99H298.339V489.456H304.561V491.991H298.339V495.464H305.094V498H295.264ZM307.453 498V487.091H310.337V489.016H310.465C310.692 488.376 311.071 487.872 311.601 487.503C312.132 487.134 312.766 486.949 313.505 486.949C314.253 486.949 314.89 487.136 315.415 487.51C315.941 487.879 316.291 488.381 316.466 489.016H316.58C316.802 488.391 317.205 487.891 317.787 487.517C318.374 487.138 319.068 486.949 319.868 486.949C320.886 486.949 321.712 487.273 322.347 487.922C322.986 488.566 323.306 489.48 323.306 490.663V498H320.287V491.26C320.287 490.654 320.126 490.199 319.804 489.896C319.482 489.593 319.08 489.442 318.597 489.442C318.048 489.442 317.619 489.617 317.311 489.967C317.004 490.313 316.85 490.77 316.85 491.338V498H313.917V491.196C313.917 490.661 313.763 490.235 313.455 489.918C313.152 489.6 312.752 489.442 312.255 489.442C311.918 489.442 311.615 489.527 311.346 489.697C311.08 489.863 310.87 490.098 310.713 490.401C310.557 490.699 310.479 491.049 310.479 491.452V498H307.453ZM330.625 498.213C329.521 498.213 328.567 497.979 327.762 497.51C326.962 497.036 326.344 496.378 325.909 495.536C325.473 494.688 325.255 493.705 325.255 492.588C325.255 491.461 325.473 490.476 325.909 489.634C326.344 488.786 326.962 488.128 327.762 487.659C328.567 487.186 329.521 486.949 330.625 486.949C331.728 486.949 332.68 487.186 333.48 487.659C334.285 488.128 334.905 488.786 335.341 489.634C335.776 490.476 335.994 491.461 335.994 492.588C335.994 493.705 335.776 494.688 335.341 495.536C334.905 496.378 334.285 497.036 333.48 497.51C332.68 497.979 331.728 498.213 330.625 498.213ZM330.639 495.869C331.141 495.869 331.56 495.727 331.896 495.443C332.232 495.154 332.485 494.761 332.656 494.264C332.831 493.767 332.919 493.201 332.919 492.567C332.919 491.932 332.831 491.366 332.656 490.869C332.485 490.372 332.232 489.979 331.896 489.69C331.56 489.402 331.141 489.257 330.639 489.257C330.132 489.257 329.706 489.402 329.36 489.69C329.02 489.979 328.761 490.372 328.586 490.869C328.416 491.366 328.331 491.932 328.331 492.567C328.331 493.201 328.416 493.767 328.586 494.264C328.761 494.761 329.02 495.154 329.36 495.443C329.706 495.727 330.132 495.869 330.639 495.869ZM337.961 487.091H340.987V498.54C340.987 499.383 340.821 500.064 340.49 500.585C340.158 501.106 339.682 501.487 339.062 501.729C338.447 501.97 337.71 502.091 336.853 502.091C336.749 502.091 336.65 502.089 336.555 502.084C336.456 502.084 336.351 502.081 336.243 502.077V499.712C336.323 499.716 336.394 499.719 336.456 499.719C336.512 499.723 336.574 499.726 336.64 499.726C337.128 499.726 337.469 499.622 337.663 499.413C337.862 499.21 337.961 498.902 337.961 498.49V487.091ZM339.467 485.685C339.022 485.685 338.638 485.536 338.316 485.237C337.994 484.934 337.833 484.572 337.833 484.151C337.833 483.734 337.994 483.376 338.316 483.078C338.638 482.775 339.022 482.624 339.467 482.624C339.922 482.624 340.307 482.775 340.625 483.078C340.947 483.376 341.108 483.734 341.108 484.151C341.108 484.572 340.947 484.934 340.625 485.237C340.307 485.536 339.922 485.685 339.467 485.685ZM343.411 498V487.091H346.436V498H343.411ZM344.93 485.685C344.481 485.685 344.095 485.536 343.773 485.237C343.455 484.934 343.297 484.572 343.297 484.151C343.297 483.734 343.455 483.376 343.773 483.078C344.095 482.775 344.481 482.624 344.93 482.624C345.38 482.624 345.764 482.775 346.081 483.078C346.403 483.376 346.564 483.734 346.564 484.151C346.564 484.572 346.403 484.934 346.081 485.237C345.764 485.536 345.38 485.685 344.93 485.685ZM357.936 490.202L355.167 490.372C355.119 490.135 355.017 489.922 354.861 489.733C354.705 489.539 354.499 489.385 354.243 489.271C353.992 489.153 353.692 489.094 353.341 489.094C352.873 489.094 352.477 489.193 352.155 489.392C351.833 489.586 351.672 489.847 351.672 490.173C351.672 490.434 351.776 490.654 351.985 490.834C352.193 491.014 352.551 491.158 353.057 491.267L355.032 491.665C356.092 491.883 356.883 492.233 357.404 492.716C357.925 493.199 358.185 493.833 358.185 494.619C358.185 495.334 357.974 495.962 357.553 496.501C357.136 497.041 356.563 497.463 355.834 497.766C355.11 498.064 354.274 498.213 353.327 498.213C351.883 498.213 350.732 497.912 349.875 497.311C349.023 496.705 348.524 495.881 348.377 494.839L351.353 494.683C351.443 495.124 351.66 495.46 352.006 495.692C352.352 495.919 352.794 496.033 353.334 496.033C353.864 496.033 354.291 495.931 354.613 495.727C354.939 495.519 355.105 495.251 355.11 494.925C355.105 494.65 354.989 494.425 354.762 494.25C354.534 494.07 354.184 493.933 353.711 493.838L351.821 493.462C350.756 493.249 349.963 492.879 349.442 492.354C348.926 491.828 348.668 491.158 348.668 490.344C348.668 489.643 348.857 489.039 349.236 488.533C349.62 488.026 350.157 487.635 350.848 487.361C351.544 487.086 352.359 486.949 353.292 486.949C354.669 486.949 355.754 487.24 356.544 487.822C357.34 488.405 357.804 489.198 357.936 490.202Z" fill="#D5CECE"/>
<path d="M435.909 488.156C435.81 487.811 435.67 487.505 435.49 487.24C435.31 486.97 435.09 486.743 434.83 486.558C434.574 486.369 434.28 486.224 433.949 486.125C433.622 486.026 433.26 485.976 432.862 485.976C432.119 485.976 431.465 486.161 430.902 486.53C430.343 486.899 429.908 487.437 429.595 488.142C429.283 488.843 429.126 489.7 429.126 490.713C429.126 491.726 429.28 492.588 429.588 493.298C429.896 494.009 430.331 494.551 430.895 494.925C431.458 495.294 432.124 495.479 432.891 495.479C433.587 495.479 434.181 495.356 434.673 495.109C435.17 494.858 435.549 494.506 435.81 494.051C436.075 493.597 436.207 493.059 436.207 492.439L436.832 492.531H433.082V490.216H439.169V492.048C439.169 493.327 438.899 494.425 438.359 495.344C437.82 496.258 437.076 496.963 436.129 497.46C435.182 497.953 434.098 498.199 432.876 498.199C431.513 498.199 430.315 497.898 429.283 497.297C428.25 496.691 427.446 495.831 426.868 494.719C426.295 493.601 426.009 492.276 426.009 490.741C426.009 489.562 426.179 488.511 426.52 487.588C426.866 486.66 427.348 485.874 427.969 485.23C428.589 484.586 429.311 484.096 430.135 483.76C430.959 483.424 431.851 483.256 432.812 483.256C433.636 483.256 434.403 483.376 435.114 483.618C435.824 483.855 436.454 484.191 437.003 484.626C437.557 485.062 438.009 485.58 438.359 486.182C438.71 486.778 438.935 487.437 439.034 488.156H435.909ZM444.554 483.455V498H441.479V483.455H444.554ZM447.085 498V483.455H456.715V485.99H450.16V489.456H456.076V491.991H450.16V498H447.085Z" fill="#D5CECE"/>
<path d="M533.155 487.638C533.098 487.065 532.854 486.62 532.423 486.303C531.992 485.985 531.408 485.827 530.669 485.827C530.167 485.827 529.743 485.898 529.398 486.04C529.052 486.177 528.787 486.369 528.602 486.615C528.422 486.861 528.332 487.141 528.332 487.453C528.323 487.714 528.377 487.941 528.496 488.135C528.619 488.329 528.787 488.497 529 488.639C529.213 488.777 529.459 488.897 529.739 489.001C530.018 489.101 530.316 489.186 530.634 489.257L531.94 489.57C532.575 489.712 533.157 489.901 533.688 490.138C534.218 490.375 534.677 490.666 535.065 491.011C535.454 491.357 535.754 491.764 535.967 492.233C536.185 492.702 536.296 493.239 536.301 493.845C536.296 494.735 536.069 495.507 535.619 496.161C535.174 496.809 534.53 497.313 533.688 497.673C532.849 498.028 531.839 498.206 530.655 498.206C529.481 498.206 528.458 498.026 527.587 497.666C526.72 497.306 526.043 496.774 525.555 496.068C525.072 495.358 524.819 494.48 524.795 493.433H527.771C527.804 493.921 527.944 494.328 528.19 494.655C528.441 494.977 528.775 495.221 529.192 495.386C529.613 495.547 530.089 495.628 530.619 495.628C531.14 495.628 531.592 495.552 531.976 495.401C532.364 495.249 532.665 495.038 532.878 494.768C533.091 494.499 533.197 494.188 533.197 493.838C533.197 493.511 533.1 493.237 532.906 493.014C532.717 492.792 532.438 492.602 532.068 492.446C531.704 492.29 531.256 492.148 530.726 492.02L529.142 491.622C527.916 491.324 526.947 490.857 526.237 490.223C525.527 489.589 525.174 488.734 525.179 487.659C525.174 486.778 525.409 486.009 525.882 485.351C526.36 484.693 527.016 484.179 527.849 483.81C528.683 483.44 529.63 483.256 530.69 483.256C531.77 483.256 532.712 483.44 533.517 483.81C534.327 484.179 534.956 484.693 535.406 485.351C535.856 486.009 536.088 486.771 536.102 487.638H533.155ZM544.115 487.091V489.364H537.546V487.091H544.115ZM539.037 484.477H542.063V494.648C542.063 494.927 542.105 495.145 542.191 495.301C542.276 495.453 542.394 495.559 542.546 495.621C542.702 495.682 542.882 495.713 543.086 495.713C543.228 495.713 543.37 495.701 543.512 495.678C543.654 495.649 543.763 495.628 543.838 495.614L544.314 497.865C544.163 497.912 543.95 497.967 543.675 498.028C543.4 498.095 543.067 498.135 542.674 498.149C541.944 498.178 541.305 498.08 540.756 497.858C540.212 497.635 539.788 497.29 539.485 496.821C539.182 496.352 539.033 495.76 539.037 495.045V484.477ZM546.086 498V487.091H549.112V498H546.086ZM547.606 485.685C547.156 485.685 546.77 485.536 546.449 485.237C546.131 484.934 545.973 484.572 545.973 484.151C545.973 483.734 546.131 483.376 546.449 483.078C546.77 482.775 547.156 482.624 547.606 482.624C548.056 482.624 548.44 482.775 548.757 483.078C549.079 483.376 549.24 483.734 549.24 484.151C549.24 484.572 549.079 484.934 548.757 485.237C548.44 485.536 548.056 485.685 547.606 485.685ZM556.464 498.213C555.347 498.213 554.386 497.976 553.581 497.503C552.781 497.025 552.165 496.362 551.734 495.514C551.308 494.667 551.095 493.691 551.095 492.588C551.095 491.471 551.311 490.491 551.741 489.648C552.177 488.8 552.795 488.14 553.595 487.666C554.395 487.188 555.347 486.949 556.45 486.949C557.402 486.949 558.235 487.122 558.95 487.467C559.665 487.813 560.231 488.298 560.648 488.923C561.064 489.548 561.294 490.282 561.337 491.125H558.482C558.401 490.58 558.188 490.143 557.842 489.811C557.501 489.475 557.054 489.307 556.5 489.307C556.031 489.307 555.622 489.435 555.271 489.69C554.926 489.941 554.656 490.308 554.462 490.791C554.268 491.274 554.17 491.859 554.17 492.545C554.17 493.241 554.265 493.833 554.455 494.321C554.649 494.809 554.921 495.18 555.271 495.436C555.622 495.692 556.031 495.82 556.5 495.82C556.846 495.82 557.156 495.749 557.43 495.607C557.71 495.464 557.939 495.259 558.119 494.989C558.304 494.714 558.425 494.385 558.482 494.001H561.337C561.289 494.835 561.062 495.569 560.655 496.203C560.252 496.833 559.696 497.325 558.986 497.68C558.276 498.036 557.435 498.213 556.464 498.213ZM566.015 494.861L566.022 491.232H566.463L569.957 487.091H573.43L568.735 492.574H568.018L566.015 494.861ZM563.274 498V483.455H566.299V498H563.274ZM570.092 498L566.882 493.249L568.899 491.111L573.636 498H570.092ZM579.437 498.213C578.315 498.213 577.349 497.986 576.539 497.531C575.734 497.072 575.114 496.423 574.678 495.585C574.243 494.742 574.025 493.746 574.025 492.595C574.025 491.473 574.243 490.488 574.678 489.641C575.114 488.793 575.727 488.133 576.518 487.659C577.313 487.186 578.246 486.949 579.316 486.949C580.036 486.949 580.706 487.065 581.326 487.297C581.951 487.524 582.496 487.867 582.96 488.327C583.428 488.786 583.793 489.364 584.053 490.06C584.314 490.751 584.444 491.561 584.444 492.489V493.32H575.232V491.445H581.596C581.596 491.009 581.501 490.623 581.312 490.287C581.122 489.951 580.86 489.688 580.523 489.499C580.192 489.304 579.806 489.207 579.366 489.207C578.906 489.207 578.499 489.314 578.144 489.527C577.794 489.735 577.519 490.017 577.32 490.372C577.121 490.723 577.02 491.113 577.015 491.544V493.327C577.015 493.866 577.114 494.333 577.313 494.726C577.517 495.119 577.803 495.422 578.173 495.635C578.542 495.848 578.98 495.955 579.487 495.955C579.823 495.955 580.13 495.907 580.41 495.812C580.689 495.718 580.928 495.576 581.127 495.386C581.326 495.197 581.478 494.965 581.582 494.69L584.38 494.875C584.238 495.547 583.947 496.134 583.506 496.636C583.071 497.134 582.507 497.522 581.816 497.801C581.129 498.076 580.336 498.213 579.437 498.213ZM586.418 498V487.091H589.352V488.994H589.465C589.664 488.317 589.998 487.806 590.467 487.46C590.935 487.11 591.475 486.935 592.086 486.935C592.237 486.935 592.401 486.944 592.576 486.963C592.751 486.982 592.905 487.008 593.038 487.041V489.726C592.896 489.683 592.699 489.645 592.448 489.612C592.197 489.579 591.968 489.562 591.759 489.562C591.314 489.562 590.916 489.66 590.566 489.854C590.22 490.043 589.946 490.308 589.742 490.649C589.543 490.99 589.444 491.383 589.444 491.828V498H586.418ZM603.679 490.202L600.909 490.372C600.861 490.135 600.76 489.922 600.603 489.733C600.447 489.539 600.241 489.385 599.985 489.271C599.734 489.153 599.434 489.094 599.083 489.094C598.615 489.094 598.219 489.193 597.897 489.392C597.575 489.586 597.414 489.847 597.414 490.173C597.414 490.434 597.519 490.654 597.727 490.834C597.935 491.014 598.293 491.158 598.799 491.267L600.774 491.665C601.834 491.883 602.625 492.233 603.146 492.716C603.667 493.199 603.927 493.833 603.927 494.619C603.927 495.334 603.717 495.962 603.295 496.501C602.878 497.041 602.306 497.463 601.576 497.766C600.852 498.064 600.016 498.213 599.069 498.213C597.625 498.213 596.475 497.912 595.618 497.311C594.765 496.705 594.266 495.881 594.119 494.839L597.095 494.683C597.185 495.124 597.403 495.46 597.748 495.692C598.094 495.919 598.537 496.033 599.076 496.033C599.607 496.033 600.033 495.931 600.355 495.727C600.681 495.519 600.847 495.251 600.852 494.925C600.847 494.65 600.731 494.425 600.504 494.25C600.277 494.07 599.926 493.933 599.453 493.838L597.564 493.462C596.498 493.249 595.705 492.879 595.184 492.354C594.668 491.828 594.41 491.158 594.41 490.344C594.41 489.643 594.6 489.039 594.978 488.533C595.362 488.026 595.899 487.635 596.591 487.361C597.287 487.086 598.101 486.949 599.034 486.949C600.412 486.949 601.496 487.24 602.287 487.822C603.082 488.405 603.546 489.198 603.679 490.202Z" fill="#D5CECE"/>
<path d="M785 487.25L792.5 494.75M792.5 487.25L785 494.75M782.5 482.25C781.879 482.25 781.28 482.481 780.82 482.899L772.91 490.074C772.781 490.191 772.678 490.334 772.607 490.493C772.536 490.653 772.5 490.825 772.5 490.999C772.5 491.174 772.536 491.346 772.607 491.506C772.678 491.665 772.781 491.808 772.91 491.925L780.82 499.101C781.28 499.519 781.879 499.75 782.5 499.75H795C795.663 499.75 796.299 499.487 796.768 499.018C797.237 498.549 797.5 497.913 797.5 497.25V484.75C797.5 484.087 797.237 483.451 796.768 482.982C796.299 482.513 795.663 482.25 795 482.25H782.5Z" stroke="#B0AFBD" stroke-width="2.5" stroke-linecap="round" stroke-linejoin="round"/>
<path d="M57 189.8H97V149.8H57V189.8ZM121.4 189.8H161.4V149.8H121.4V189.8ZM185.8 189.8H225.8V149.8H185.8V189.8ZM250.2 189.8H290.2V149.8H250.2V189.8ZM314.6 189.8H354.6V149.8H314.6V189.8ZM379 189.8H419V149.8H379V189.8ZM443.4 189.8H483.4V149.8H443.4V189.8ZM507.8 189.8H547.8V149.8H507.8V189.8ZM572.2 189.8H612.2V149.8H572.2V189.8ZM636.6 189.8H676.6V149.8H636.6V189.8ZM701 189.8H741V149.8H701V189.8ZM765.4 189.8H805.4V149.8H765.4V189.8ZM57 248.8H97V208.8H57V248.8ZM121.4 248.8H161.4V208.8H121.4V248.8ZM185.8 248.8H225.8V208.8H185.8V248.8ZM250.2 248.8H290.2V208.8H250.2V248.8ZM314.6 248.8H354.6V208.8H314.6V248.8ZM379 248.8H419V208.8H379V248.8ZM443.4 248.8H483.4V208.8H443.4V248.8ZM507.8 248.8H547.8V208.8H507.8V248.8ZM572.2 248.8H612.2V208.8H572.2V248.8ZM636.6 248.8H676.6V208.8H636.6V248.8ZM701 248.8H741V208.8H701V248.8ZM765.4 248.8H805.4V208.8H765.4V248.8ZM57 307.8H97V267.8H57V307.8ZM121.4 307.8H161.4V267.8H121.4V307.8ZM185.8 307.8H225.8V267.8H185.8V307.8ZM250.2 307.8H290.2V267.8H250.2V307.8ZM314.6 307.8H354.6V267.8H314.6V307.8ZM379 307.8H419V267.8H379V307.8ZM443.4 307.8H483.4V267.8H443.4V307.8ZM507.8 307.8H547.8V267.8H507.8V307.8ZM572.2 307.8H612.2V267.8H572.2V307.8ZM636.6 307.8H676.6V267.8H636.6V307.8ZM701 307.8H741V267.8H701V307.8ZM765.4 307.8H805.4V267.8H765.4V307.8ZM57 366.8H97V326.8H57V366.8ZM121.4 366.8H161.4V326.8H121.4V366.8ZM185.8 366.8H225.8V326.8H185.8V366.8ZM250.2 366.8H290.2V326.8H250.2V366.8ZM314.6 366.8H354.6V326.8H314.6V366.8ZM379 366.8H419V326.8H379V366.8ZM443.4 366.8H483.4V326.8H443.4V366.8ZM507.8 366.8H547.8V326.8H507.8V366.8ZM572.2 366.8H612.2V326.8H572.2V366.8ZM636.6 366.8H676.6V326.8H636.6V366.8ZM701 366.8H741V326.8H701V366.8ZM765.4 366.8H805.4V326.8H765.4V366.8ZM57 425.8H97V385.8H57V425.8ZM121.4 425.8H161.4V385.8H121.4V425.8ZM185.8 425.8H225.8V385.8H185.8V425.8ZM250.2 425.8H290.2V385.8H250.2V425.8ZM314.6 425.8H354.6V385.8H314.6V425.8ZM379 425.8H419V385.8H379V425.8ZM443.4 425.8H483.4V385.8H443.4V425.8ZM507.8 425.8H547.8V385.8H507.8V425.8ZM572.2 425.8H612.2V385.8H572.2V425.8ZM636.6 425.8H676.6V385.8H636.6V425.8ZM701 425.8H741V385.8H701V425.8ZM765.4 425.8H805.4V385.8H765.4V425.8Z" fill="black"/>
<defs>
<filter id="filter0_d_62_762" x="0" y="0" width="849" height="532" filterUnits="userSpaceOnUse" color-interpolation-filters="sRGB">
<feFlood flood-opacity="0" result="BackgroundImageFix"/>
<feColorMatrix in="SourceAlpha" type="matrix" values="0 0 0 0 0 0 0 0 0 0 0 0 0 0 0 0 0 0 127 0" result="hardAlpha"/>
<feOffset dy="4"/>
<feGaussianBlur stdDeviation="2"/>
<feComposite in2="hardAlpha" operator="out"/>
<feColorMatrix type="matrix" values="0 0 0 0 0 0 0 0 0 0 0 0 0 0 0 0 0 0 0.25 0"/>
<feBlend mode="normal" in2="BackgroundImageFix" result="effect1_dropShadow_62_762"/>
<feBlend mode="normal" in="SourceGraphic" in2="effect1_dropShadow_62_762" result="shape"/>
</filter>
</defs>
</svg>
