<svg width="849" height="189" viewBox="0 0 849 189" fill="none" xmlns="http://www.w3.org/2000/svg">
<g filter="url(#filter0_d_62_760)">
<path d="M4 25C4 11.1929 15.1929 0 29 0H820C833.807 0 845 11.1929 845 25V181H4V25Z" fill="#2C2C2C"/>
<path d="M29 0.5H820C833.531 0.5 844.5 11.469 844.5 25V180.5H4.5V25C4.5 11.469 15.469 0.5 29 0.5Z" stroke="black"/>
</g>
<path d="M775 102.5C791.292 102.5 804.5 115.708 804.5 132C804.5 148.292 791.292 161.5 775 161.5C758.708 161.5 745.5 148.292 745.5 132C745.5 115.708 758.708 102.5 775 102.5Z" fill="#3B82F6" stroke="#2C2C2C"/>
<path d="M770 126.5L775 121.5M775 121.5L780 126.5M775 121.5V146.5" stroke="#2C2C2C" stroke-width="2.5" stroke-linecap="round" stroke-linejoin="round"/>
<path d="M78.5 136.75V144.25M83.5 136.75V144.25M89.75 130.5V148C89.75 148.663 89.4866 149.299 89.0178 149.768C88.5489 150.237 87.913 150.5 87.25 150.5H74.75C74.087 150.5 73.4511 150.237 72.9822 149.768C72.5134 149.299 72.25 148.663 72.25 148V130.5M69.75 130.5H92.25M76 130.5V128C76 127.337 76.2634 126.701 76.7322 126.232C77.2011 125.763 77.837 125.5 78.5 125.5H83.5C84.163 125.5 84.7989 125.763 85.2678 126.232C85.7366 126.701 86 127.337 86 128V130.5" stroke="#B0AFBD" stroke-width="2.5" stroke-linecap="round" stroke-linejoin="round"/>
<path d="M60.125 56.2585C58.7339 56.2585 57.549 55.88 56.5703 55.1229C55.5916 54.3596 54.8438 53.2547 54.3267 51.8082C53.8097 50.3556 53.5511 48.6013 53.5511 46.5455C53.5511 44.5019 53.8097 42.7569 54.3267 41.3104C54.8499 39.8577 55.6009 38.7498 56.5795 37.9865C57.5644 37.2171 58.7462 36.8324 60.125 36.8324C61.5038 36.8324 62.6825 37.2171 63.6612 37.9865C64.6461 38.7498 65.397 39.8577 65.9141 41.3104C66.4373 42.7569 66.6989 44.5019 66.6989 46.5455C66.6989 48.6013 66.4403 50.3556 65.9233 51.8082C65.4062 53.2547 64.6584 54.3596 63.6797 55.1229C62.701 55.88 61.5161 56.2585 60.125 56.2585ZM60.125 54.2273C61.5038 54.2273 62.5748 53.5625 63.3381 52.233C64.1013 50.9034 64.483 49.0076 64.483 46.5455C64.483 44.9081 64.3075 43.514 63.9567 42.3629C63.612 41.2119 63.1134 40.3348 62.4609 39.7315C61.8146 39.1283 61.036 38.8267 60.125 38.8267C58.7585 38.8267 57.6906 39.5007 56.9212 40.8487C56.1518 42.1906 55.767 44.0895 55.767 46.5455C55.767 48.1828 55.9394 49.5739 56.2841 50.7188C56.6288 51.8636 57.1243 52.7346 57.7706 53.3317C58.4231 53.9287 59.2079 54.2273 60.125 54.2273ZM71.8324 53.581C71.3769 53.581 70.986 53.4179 70.6598 53.0916C70.3336 52.7654 70.1705 52.3745 70.1705 51.919C70.1705 51.4635 70.3336 51.0727 70.6598 50.7464C70.986 50.4202 71.3769 50.2571 71.8324 50.2571C72.2879 50.2571 72.6787 50.4202 73.005 50.7464C73.3312 51.0727 73.4943 51.4635 73.4943 51.919C73.4943 52.2206 73.4174 52.4976 73.2635 52.75C73.1158 53.0024 72.9157 53.2055 72.6634 53.3594C72.4171 53.5071 72.1402 53.581 71.8324 53.581ZM71.8324 44.0156C71.3769 44.0156 70.986 43.8525 70.6598 43.5263C70.3336 43.2 70.1705 42.8092 70.1705 42.3537C70.1705 41.8982 70.3336 41.5073 70.6598 41.1811C70.986 40.8549 71.3769 40.6918 71.8324 40.6918C72.2879 40.6918 72.6787 40.8549 73.005 41.1811C73.3312 41.5073 73.4943 41.8982 73.4943 42.3537C73.4943 42.6553 73.4174 42.9323 73.2635 43.1847C73.1158 43.437 72.9157 43.6402 72.6634 43.794C72.4171 43.9418 72.1402 44.0156 71.8324 44.0156ZM83.5352 56.2585C82.1441 56.2585 80.9592 55.88 79.9805 55.1229C79.0018 54.3596 78.2539 53.2547 77.7369 51.8082C77.2198 50.3556 76.9613 48.6013 76.9613 46.5455C76.9613 44.5019 77.2198 42.7569 77.7369 41.3104C78.2601 39.8577 79.011 38.7498 79.9897 37.9865C80.9746 37.2171 82.1564 36.8324 83.5352 36.8324C84.9139 36.8324 86.0927 37.2171 87.0714 37.9865C88.0562 38.7498 88.8072 39.8577 89.3242 41.3104C89.8474 42.7569 90.109 44.5019 90.109 46.5455C90.109 48.6013 89.8505 50.3556 89.3335 51.8082C88.8164 53.2547 88.0685 54.3596 87.0898 55.1229C86.1112 55.88 84.9263 56.2585 83.5352 56.2585ZM83.5352 54.2273C84.9139 54.2273 85.985 53.5625 86.7482 52.233C87.5115 50.9034 87.8931 49.0076 87.8931 46.5455C87.8931 44.9081 87.7177 43.514 87.3668 42.3629C87.0221 41.2119 86.5236 40.3348 85.8711 39.7315C85.2248 39.1283 84.4461 38.8267 83.5352 38.8267C82.1687 38.8267 81.1007 39.5007 80.3313 40.8487C79.5619 42.1906 79.1772 44.0895 79.1772 46.5455C79.1772 48.1828 79.3496 49.5739 79.6942 50.7188C80.0389 51.8636 80.5344 52.7346 81.1808 53.3317C81.8332 53.9287 82.618 54.2273 83.5352 54.2273ZM100.007 56.2585C98.788 56.2585 97.7016 56.0492 96.7475 55.6307C95.7996 55.2121 95.0456 54.6304 94.4854 53.8857C93.9315 53.1347 93.6299 52.2637 93.5806 51.2727H95.9073C95.9566 51.8821 96.1658 52.4084 96.5352 52.8516C96.9045 53.2886 97.3877 53.6271 97.9847 53.8672C98.5818 54.1072 99.2435 54.2273 99.9698 54.2273C100.782 54.2273 101.502 54.0857 102.13 53.8026C102.758 53.5194 103.251 53.1255 103.608 52.6207C103.965 52.116 104.143 51.5312 104.143 50.8665C104.143 50.1709 103.971 49.5585 103.626 49.0291C103.281 48.4936 102.777 48.075 102.112 47.7734C101.447 47.4718 100.635 47.321 99.6744 47.321H98.1602V45.2898H99.6744C100.425 45.2898 101.084 45.1544 101.65 44.8835C102.223 44.6127 102.669 44.2311 102.989 43.7386C103.315 43.2462 103.478 42.6676 103.478 42.0028C103.478 41.3627 103.337 40.8056 103.054 40.3317C102.77 39.8577 102.37 39.4884 101.853 39.2237C101.342 38.959 100.739 38.8267 100.044 38.8267C99.3912 38.8267 98.7757 38.9467 98.1971 39.1868C97.6246 39.4207 97.1568 39.7623 96.7937 40.2116C96.4305 40.6548 96.2335 41.1903 96.2028 41.8182H93.9869C94.0238 40.8272 94.3223 39.9593 94.8825 39.2145C95.4426 38.4635 96.1751 37.8788 97.0799 37.4602C97.9909 37.0417 98.9911 36.8324 100.081 36.8324C101.25 36.8324 102.253 37.0694 103.091 37.5433C103.928 38.0111 104.571 38.6297 105.02 39.3991C105.47 40.1686 105.694 40.9995 105.694 41.892C105.694 42.9569 105.414 43.8648 104.854 44.6158C104.3 45.3667 103.546 45.8868 102.592 46.1761V46.3239C103.786 46.5208 104.719 47.0286 105.39 47.8473C106.06 48.6598 106.396 49.6662 106.396 50.8665C106.396 51.8944 106.116 52.8177 105.556 53.6364C105.002 54.4489 104.245 55.089 103.284 55.5568C102.324 56.0246 101.232 56.2585 100.007 56.2585Z" fill="#FEFEFF"/>
<path d="M117.5 44.5V48.25M122.5 39.5V53.25M127.5 35.75V58.25M132.5 42V50.75M137.5 38.25V54.5M142.5 44.5V48.25" stroke="#B0AFBD" stroke-width="2.5" stroke-linecap="round" stroke-linejoin="round"/>
<path d="M147.5 44.5V48.25M152.5 39.5V53.25M157.5 35.75V58.25M162.5 42V50.75M167.5 38.25V54.5M172.5 44.5V48.25" stroke="#B0AFBD" stroke-width="2.5" stroke-linecap="round" stroke-linejoin="round"/>
<path d="M442 120H436C434.895 120 434 120.895 434 122V154C434 155.105 434.895 156 436 156H442C443.105 156 444 155.105 444 154V122C444 120.895 443.105 120 442 120Z" stroke="#EF0054" stroke-width="4" stroke-linecap="round" stroke-linejoin="round"/>
<path d="M424 120H418C416.895 120 416 120.895 416 122V154C416 155.105 416.895 156 418 156H424C425.105 156 426 155.105 426 154V122C426 120.895 425.105 120 424 120Z" stroke="#EF0054" stroke-width="4" stroke-linecap="round" stroke-linejoin="round"/>
<defs>
<filter id="filter0_d_62_760" x="0" y="0" width="849" height="189" filterUnits="userSpaceOnUse" color-interpolation-filters="sRGB">
<feFlood flood-opacity="0" result="BackgroundImageFix"/>
<feColorMatrix in="SourceAlpha" type="matrix" values="0 0 0 0 0 0 0 0 0 0 0 0 0 0 0 0 0 0 127 0" result="hardAlpha"/>
<feOffset dy="4"/>
<feGaussianBlur stdDeviation="2"/>
<feComposite in2="hardAlpha" operator="out"/>
<feColorMatrix type="matrix" values="0 0 0 0 0 0 0 0 0 0 0 0 0 0 0 0 0 0 0.25 0"/>
<feBlend mode="normal" in2="BackgroundImageFix" result="effect1_dropShadow_62_760"/>
<feBlend mode="normal" in="SourceGraphic" in2="effect1_dropShadow_62_760" result="shape"/>
</filter>
</defs>
</svg>
