<svg width="849" height="136" viewBox="0 0 849 136" fill="none" xmlns="http://www.w3.org/2000/svg">
<g filter="url(#filter0_d_51_1317)">
<path d="M4 25C4 11.1929 15.1929 0 29 0H820C833.807 0 845 11.1929 845 25V128H4V25Z" fill="#2C2C2C"/>
<path d="M29 0.5H820C833.531 0.5 844.5 11.469 844.5 25V127.5H4.5V25C4.5 11.469 15.469 0.5 29 0.5Z" stroke="black"/>
</g>
<path opacity="0.5" d="M66 36.5H718C735.949 36.5 750.5 51.0507 750.5 69C750.5 86.9493 735.949 101.5 718 101.5H66C48.0508 101.5 33.5 86.9492 33.5 69C33.5 51.0507 48.0507 36.5 66 36.5Z" fill="#757575" stroke="#AEAEAE"/>
<path d="M715 63.5L704.483 74.2325C704.014 74.7014 703.75 75.3374 703.75 76.0006C703.75 76.6638 704.014 77.2998 704.483 77.7687C704.951 78.2377 705.587 78.5011 706.251 78.5011C706.914 78.5011 707.55 78.2377 708.019 77.7687L718.536 67.0362C719.474 66.0985 720.001 64.8267 720.001 63.5006C720.001 62.1745 719.474 60.9027 718.536 59.965C717.599 59.0273 716.327 58.5005 715.001 58.5005C713.675 58.5005 712.403 59.0273 711.465 59.965L700.991 70.6537C700.286 71.3481 699.724 72.1753 699.34 73.0877C698.955 74 698.755 74.9795 698.751 75.9695C698.747 76.9596 698.939 77.9406 699.316 78.8561C699.693 79.7715 700.248 80.6033 700.948 81.3034C701.648 82.0034 702.48 82.558 703.395 82.935C704.311 83.312 705.292 83.504 706.282 83.5C707.272 83.496 708.251 83.2959 709.164 82.9115C710.076 82.527 710.903 81.9657 711.598 81.26L722.071 70.5712" stroke="#B0AEBD" stroke-width="2.5" stroke-linecap="round" stroke-linejoin="round"/>
<path d="M83.5001 65.75V67C83.4875 69.5229 82.7117 71.983 81.2748 74.0567C79.8378 76.1305 77.807 77.7209 75.4493 78.6188C73.0916 79.5168 70.5173 79.6803 68.0649 79.0879C65.6125 78.4954 63.3968 77.1747 61.7091 75.2994C60.0213 73.4242 58.9405 71.0821 58.6088 68.581C58.277 66.08 58.7099 63.5371 59.8504 61.2867C60.9909 59.0363 62.7857 57.1836 64.9988 55.9723C67.2119 54.761 69.7398 54.2478 72.2501 54.5M66.0001 69.5C66.0001 69.5 67.8751 72 71.0001 72C74.1251 72 76.0001 69.5 76.0001 69.5M67.2501 63.25H67.2626M74.7501 63.25H74.7626M76.0001 58.25H83.5001M79.7501 54.5V62" stroke="#B0AFBD" stroke-width="2.5" stroke-linecap="round" stroke-linejoin="round"/>
<path d="M113.233 76V65.8182H116.793C117.502 65.8182 118.087 65.9408 118.548 66.1861C119.008 66.428 119.351 66.7545 119.577 67.1655C119.802 67.5732 119.915 68.0256 119.915 68.5227C119.915 68.9602 119.837 69.3215 119.681 69.6065C119.529 69.8916 119.326 70.117 119.075 70.2827C118.826 70.4484 118.556 70.571 118.264 70.6506V70.75C118.576 70.7699 118.889 70.8793 119.204 71.0781C119.519 71.277 119.782 71.562 119.994 71.9332C120.206 72.3045 120.312 72.7585 120.312 73.2955C120.312 73.8059 120.196 74.2649 119.964 74.6726C119.732 75.0803 119.366 75.4034 118.866 75.642C118.365 75.8807 117.714 76 116.912 76H113.233ZM114.466 74.9062H116.912C117.717 74.9062 118.289 74.7505 118.627 74.4389C118.969 74.1241 119.139 73.7429 119.139 73.2955C119.139 72.9508 119.051 72.6326 118.876 72.3409C118.7 72.0459 118.45 71.8106 118.125 71.6349C117.8 71.456 117.416 71.3665 116.972 71.3665H114.466V74.9062ZM114.466 70.2926H116.753C117.124 70.2926 117.459 70.2197 117.757 70.0739C118.059 69.928 118.297 69.7225 118.473 69.4574C118.652 69.1922 118.741 68.8807 118.741 68.5227C118.741 68.0753 118.586 67.6958 118.274 67.3842C117.963 67.0694 117.469 66.9119 116.793 66.9119H114.466V70.2926ZM126.992 72.8778V68.3636H128.165V76H126.992V74.7074H126.912C126.733 75.0952 126.455 75.425 126.077 75.6967C125.699 75.9652 125.222 76.0994 124.645 76.0994C124.168 76.0994 123.744 75.995 123.373 75.7862C123.001 75.5741 122.71 75.2559 122.498 74.8317C122.285 74.4041 122.179 73.8655 122.179 73.2159V68.3636H123.353V73.1364C123.353 73.6932 123.508 74.1373 123.82 74.4688C124.135 74.8002 124.536 74.9659 125.023 74.9659C125.315 74.9659 125.611 74.8913 125.913 74.7422C126.218 74.593 126.473 74.3643 126.679 74.0561C126.887 73.7479 126.992 73.3551 126.992 72.8778ZM133.516 76.1591C132.78 76.1591 132.145 75.9967 131.612 75.6719C131.081 75.3438 130.672 74.8864 130.384 74.2997C130.099 73.7098 129.956 73.0237 129.956 72.2415C129.956 71.4593 130.099 70.7699 130.384 70.1733C130.672 69.5734 131.073 69.1061 131.587 68.7713C132.104 68.4332 132.707 68.2642 133.396 68.2642C133.794 68.2642 134.187 68.3305 134.575 68.4631C134.963 68.5956 135.316 68.8111 135.634 69.1094C135.952 69.4044 136.205 69.7955 136.394 70.2827C136.583 70.7699 136.678 71.3698 136.678 72.0824V72.5795H130.791V71.5653H135.485C135.485 71.1345 135.398 70.75 135.226 70.4119C135.057 70.0739 134.815 69.8071 134.5 69.6115C134.189 69.416 133.821 69.3182 133.396 69.3182C132.929 69.3182 132.525 69.4342 132.183 69.6662C131.845 69.8949 131.585 70.1932 131.403 70.5611C131.221 70.929 131.129 71.3234 131.129 71.7443V72.4205C131.129 72.9972 131.229 73.486 131.428 73.8871C131.63 74.2848 131.91 74.5881 132.268 74.7969C132.626 75.0024 133.042 75.1051 133.516 75.1051C133.824 75.1051 134.102 75.062 134.351 74.9759C134.603 74.8864 134.82 74.7538 135.002 74.5781C135.185 74.3991 135.325 74.1771 135.425 73.9119L136.558 74.2301C136.439 74.6146 136.239 74.9527 135.957 75.2443C135.675 75.5327 135.327 75.758 134.913 75.9205C134.499 76.0795 134.033 76.1591 133.516 76.1591ZM139.636 71.4062V76H138.463V68.3636H139.596V69.5568H139.695C139.874 69.169 140.146 68.8575 140.511 68.6222C140.875 68.3835 141.346 68.2642 141.923 68.2642C142.44 68.2642 142.892 68.3703 143.28 68.5824C143.668 68.7912 143.969 69.1094 144.185 69.5369C144.4 69.9612 144.508 70.4981 144.508 71.1477V76H143.335V71.2273C143.335 70.6274 143.179 70.16 142.867 69.8253C142.556 69.4872 142.128 69.3182 141.585 69.3182C141.21 69.3182 140.875 69.3994 140.58 69.5618C140.289 69.7242 140.058 69.9612 139.889 70.2727C139.72 70.5843 139.636 70.9621 139.636 71.4062ZM148.899 76.179C148.415 76.179 147.976 76.0878 147.582 75.9055C147.187 75.7199 146.874 75.4531 146.642 75.1051C146.41 74.7538 146.294 74.3295 146.294 73.8324C146.294 73.3949 146.38 73.0402 146.553 72.7685C146.725 72.4934 146.955 72.2779 147.244 72.1222C147.532 71.9664 147.85 71.8504 148.198 71.7741C148.549 71.6946 148.902 71.6316 149.257 71.5852C149.721 71.5256 150.097 71.4808 150.386 71.451C150.677 71.4179 150.889 71.3632 151.022 71.2869C151.158 71.2107 151.226 71.0781 151.226 70.8892V70.8494C151.226 70.3589 151.092 69.9777 150.823 69.706C150.558 69.4342 150.155 69.2983 149.615 69.2983C149.055 69.2983 148.616 69.4209 148.298 69.6662C147.979 69.9115 147.756 70.1733 147.626 70.4517L146.513 70.054C146.712 69.59 146.977 69.2287 147.308 68.9702C147.643 68.7083 148.008 68.526 148.402 68.4233C148.8 68.3172 149.191 68.2642 149.575 68.2642C149.821 68.2642 150.102 68.294 150.42 68.3537C150.742 68.41 151.052 68.5277 151.35 68.7067C151.652 68.8857 151.902 69.1558 152.101 69.517C152.3 69.8783 152.399 70.3622 152.399 70.9688V76H151.226V74.9659H151.166C151.087 75.1316 150.954 75.3089 150.768 75.4979C150.583 75.6868 150.336 75.8475 150.028 75.9801C149.719 76.1127 149.343 76.179 148.899 76.179ZM149.078 75.125C149.542 75.125 149.933 75.0339 150.251 74.8516C150.573 74.6693 150.815 74.4339 150.977 74.1456C151.143 73.8572 151.226 73.554 151.226 73.2358V72.1619C151.176 72.2216 151.067 72.2763 150.898 72.326C150.732 72.3724 150.54 72.4138 150.321 72.4503C150.106 72.4834 149.895 72.5133 149.69 72.5398C149.487 72.563 149.323 72.5829 149.197 72.5994C148.893 72.6392 148.607 72.7038 148.342 72.7933C148.08 72.8795 147.868 73.0104 147.706 73.1861C147.547 73.3584 147.467 73.5937 147.467 73.892C147.467 74.2997 147.618 74.608 147.92 74.8168C148.225 75.0223 148.611 75.125 149.078 75.125ZM159.95 70.0739L158.896 70.3722C158.829 70.1965 158.732 70.0258 158.602 69.8601C158.477 69.6911 158.304 69.5518 158.085 69.4425C157.867 69.3331 157.587 69.2784 157.245 69.2784C156.778 69.2784 156.388 69.3861 156.077 69.6016C155.769 69.8137 155.615 70.0838 155.615 70.4119C155.615 70.7036 155.721 70.9339 155.933 71.103C156.145 71.272 156.476 71.4129 156.927 71.5256L158.061 71.804C158.743 71.9697 159.252 72.2232 159.587 72.5646C159.922 72.9027 160.089 73.3385 160.089 73.8722C160.089 74.3097 159.963 74.7008 159.711 75.0455C159.463 75.3902 159.115 75.6619 158.667 75.8608C158.22 76.0597 157.699 76.1591 157.106 76.1591C156.327 76.1591 155.682 75.9901 155.172 75.652C154.662 75.3139 154.338 74.8201 154.203 74.1705L155.316 73.892C155.422 74.303 155.623 74.6113 155.918 74.8168C156.216 75.0223 156.606 75.125 157.086 75.125C157.633 75.125 158.067 75.009 158.389 74.777C158.713 74.5417 158.876 74.2599 158.876 73.9318C158.876 73.6667 158.783 73.4446 158.597 73.2656C158.412 73.0833 158.127 72.9474 157.742 72.858L156.47 72.5597C155.77 72.3939 155.257 72.1371 154.928 71.7891C154.604 71.4377 154.441 70.9986 154.441 70.4716C154.441 70.0407 154.562 69.6596 154.804 69.3281C155.049 68.9967 155.383 68.7365 155.803 68.5476C156.228 68.3587 156.708 68.2642 157.245 68.2642C158.001 68.2642 158.594 68.4299 159.025 68.7614C159.459 69.0928 159.767 69.5303 159.95 70.0739ZM169.114 68.3636V69.358H165.156V68.3636H169.114ZM166.31 66.5341H167.483V73.8125C167.483 74.1439 167.531 74.3925 167.627 74.5582C167.727 74.7206 167.853 74.83 168.005 74.8864C168.161 74.9394 168.325 74.9659 168.497 74.9659C168.626 74.9659 168.732 74.9593 168.815 74.946C168.898 74.9295 168.964 74.9162 169.014 74.9062L169.253 75.9602C169.173 75.9901 169.062 76.0199 168.92 76.0497C168.777 76.0829 168.597 76.0994 168.378 76.0994C168.046 76.0994 167.722 76.0282 167.403 75.8857C167.089 75.7431 166.827 75.526 166.618 75.2344C166.412 74.9427 166.31 74.5748 166.31 74.1307V66.5341ZM173.126 76.179C172.642 76.179 172.203 76.0878 171.808 75.9055C171.414 75.7199 171.101 75.4531 170.869 75.1051C170.637 74.7538 170.521 74.3295 170.521 73.8324C170.521 73.3949 170.607 73.0402 170.779 72.7685C170.951 72.4934 171.182 72.2779 171.47 72.1222C171.759 71.9664 172.077 71.8504 172.425 71.7741C172.776 71.6946 173.129 71.6316 173.484 71.5852C173.948 71.5256 174.324 71.4808 174.612 71.451C174.904 71.4179 175.116 71.3632 175.249 71.2869C175.384 71.2107 175.452 71.0781 175.452 70.8892V70.8494C175.452 70.3589 175.318 69.9777 175.05 69.706C174.785 69.4342 174.382 69.2983 173.842 69.2983C173.281 69.2983 172.842 69.4209 172.524 69.6662C172.206 69.9115 171.982 70.1733 171.853 70.4517L170.739 70.054C170.938 69.59 171.203 69.2287 171.535 68.9702C171.87 68.7083 172.234 68.526 172.629 68.4233C173.026 68.3172 173.417 68.2642 173.802 68.2642C174.047 68.2642 174.329 68.294 174.647 68.3537C174.969 68.41 175.278 68.5277 175.577 68.7067C175.878 68.8857 176.129 69.1558 176.327 69.517C176.526 69.8783 176.626 70.3622 176.626 70.9688V76H175.452V74.9659H175.393C175.313 75.1316 175.181 75.3089 174.995 75.4979C174.809 75.6868 174.563 75.8475 174.254 75.9801C173.946 76.1127 173.57 76.179 173.126 76.179ZM173.305 75.125C173.769 75.125 174.16 75.0339 174.478 74.8516C174.799 74.6693 175.041 74.4339 175.204 74.1456C175.37 73.8572 175.452 73.554 175.452 73.2358V72.1619C175.403 72.2216 175.293 72.2763 175.124 72.326C174.959 72.3724 174.766 72.4138 174.548 72.4503C174.332 72.4834 174.122 72.5133 173.916 72.5398C173.714 72.563 173.55 72.5829 173.424 72.5994C173.119 72.6392 172.834 72.7038 172.569 72.7933C172.307 72.8795 172.095 73.0104 171.933 73.1861C171.773 73.3584 171.694 73.5937 171.694 73.892C171.694 74.2997 171.845 74.608 172.146 74.8168C172.451 75.0223 172.837 75.125 173.305 75.125ZM178.767 76V68.3636H179.901V69.517H179.98C180.119 69.1392 180.371 68.8326 180.736 68.5973C181.101 68.362 181.512 68.2443 181.969 68.2443C182.055 68.2443 182.163 68.246 182.292 68.2493C182.421 68.2526 182.519 68.2576 182.585 68.2642V69.4574C182.546 69.4474 182.454 69.4325 182.312 69.4126C182.173 69.3894 182.025 69.3778 181.869 69.3778C181.498 69.3778 181.167 69.4557 180.875 69.6115C180.587 69.764 180.358 69.9761 180.189 70.2479C180.023 70.5163 179.941 70.8229 179.941 71.1676V76H178.767ZM186.627 76.1591C185.991 76.1591 185.429 75.9983 184.942 75.6768C184.455 75.352 184.074 74.8946 183.798 74.3047C183.523 73.7114 183.386 73.0104 183.386 72.2017C183.386 71.3996 183.523 70.7036 183.798 70.1136C184.074 69.5237 184.456 69.0679 184.947 68.7464C185.437 68.425 186.004 68.2642 186.647 68.2642C187.144 68.2642 187.537 68.3471 187.825 68.5128C188.117 68.6752 188.339 68.8608 188.492 69.0696C188.647 69.2751 188.768 69.4441 188.855 69.5767H188.954V65.8182H190.127V76H188.994V74.8267H188.855C188.768 74.9659 188.646 75.1416 188.487 75.3537C188.328 75.5625 188.101 75.7498 187.806 75.9155C187.511 76.0779 187.118 76.1591 186.627 76.1591ZM186.786 75.1051C187.257 75.1051 187.655 74.9825 187.98 74.7372C188.304 74.4886 188.551 74.1456 188.72 73.7081C188.889 73.2673 188.974 72.7585 188.974 72.1818C188.974 71.6117 188.891 71.1129 188.725 70.6854C188.56 70.2545 188.314 69.9197 187.99 69.6811C187.665 69.4392 187.264 69.3182 186.786 69.3182C186.289 69.3182 185.875 69.4458 185.544 69.701C185.215 69.9529 184.968 70.2959 184.803 70.7301C184.64 71.161 184.559 71.6449 184.559 72.1818C184.559 72.7254 184.642 73.2192 184.808 73.6634C184.977 74.1042 185.225 74.4555 185.553 74.7173C185.885 74.9759 186.296 75.1051 186.786 75.1051ZM195.641 76.1591C194.905 76.1591 194.27 75.9967 193.737 75.6719C193.206 75.3438 192.797 74.8864 192.509 74.2997C192.224 73.7098 192.081 73.0237 192.081 72.2415C192.081 71.4593 192.224 70.7699 192.509 70.1733C192.797 69.5734 193.198 69.1061 193.712 68.7713C194.229 68.4332 194.832 68.2642 195.521 68.2642C195.919 68.2642 196.312 68.3305 196.7 68.4631C197.088 68.5956 197.441 68.8111 197.759 69.1094C198.077 69.4044 198.33 69.7955 198.519 70.2827C198.708 70.7699 198.803 71.3698 198.803 72.0824V72.5795H192.916V71.5653H197.61C197.61 71.1345 197.523 70.75 197.351 70.4119C197.182 70.0739 196.94 69.8071 196.625 69.6115C196.314 69.416 195.946 69.3182 195.521 69.3182C195.054 69.3182 194.65 69.4342 194.308 69.6662C193.97 69.8949 193.71 70.1932 193.528 70.5611C193.346 70.929 193.254 71.3234 193.254 71.7443V72.4205C193.254 72.9972 193.354 73.486 193.553 73.8871C193.755 74.2848 194.035 74.5881 194.393 74.7969C194.751 75.0024 195.167 75.1051 195.641 75.1051C195.949 75.1051 196.227 75.062 196.476 74.9759C196.728 74.8864 196.945 74.7538 197.127 74.5781C197.31 74.3991 197.45 74.1771 197.55 73.9119L198.683 74.2301C198.564 74.6146 198.364 74.9527 198.082 75.2443C197.8 75.5327 197.452 75.758 197.038 75.9205C196.624 76.0795 196.158 76.1591 195.641 76.1591ZM205.997 70.0739L204.943 70.3722C204.876 70.1965 204.779 70.0258 204.649 69.8601C204.523 69.6911 204.351 69.5518 204.132 69.4425C203.914 69.3331 203.633 69.2784 203.292 69.2784C202.825 69.2784 202.435 69.3861 202.124 69.6016C201.816 69.8137 201.661 70.0838 201.661 70.4119C201.661 70.7036 201.767 70.9339 201.98 71.103C202.192 71.272 202.523 71.4129 202.974 71.5256L204.107 71.804C204.79 71.9697 205.299 72.2232 205.634 72.5646C205.968 72.9027 206.136 73.3385 206.136 73.8722C206.136 74.3097 206.01 74.7008 205.758 75.0455C205.509 75.3902 205.161 75.6619 204.714 75.8608C204.267 76.0597 203.746 76.1591 203.153 76.1591C202.374 76.1591 201.729 75.9901 201.219 75.652C200.709 75.3139 200.385 74.8201 200.249 74.1705L201.363 73.892C201.469 74.303 201.67 74.6113 201.965 74.8168C202.263 75.0223 202.652 75.125 203.133 75.125C203.68 75.125 204.114 75.009 204.436 74.777C204.76 74.5417 204.923 74.2599 204.923 73.9318C204.923 73.6667 204.83 73.4446 204.644 73.2656C204.459 73.0833 204.174 72.9474 203.789 72.858L202.517 72.5597C201.817 72.3939 201.303 72.1371 200.975 71.7891C200.651 71.4377 200.488 70.9986 200.488 70.4716C200.488 70.0407 200.609 69.6596 200.851 69.3281C201.096 68.9967 201.429 68.7365 201.85 68.5476C202.275 68.3587 202.755 68.2642 203.292 68.2642C204.048 68.2642 204.641 68.4299 205.072 68.7614C205.506 69.0928 205.814 69.5303 205.997 70.0739ZM217.249 70.0739L216.195 70.3722C216.128 70.1965 216.031 70.0258 215.901 69.8601C215.775 69.6911 215.603 69.5518 215.384 69.4425C215.165 69.3331 214.885 69.2784 214.544 69.2784C214.077 69.2784 213.687 69.3861 213.376 69.6016C213.067 69.8137 212.913 70.0838 212.913 70.4119C212.913 70.7036 213.019 70.9339 213.232 71.103C213.444 71.272 213.775 71.4129 214.226 71.5256L215.359 71.804C216.042 71.9697 216.551 72.2232 216.886 72.5646C217.22 72.9027 217.388 73.3385 217.388 73.8722C217.388 74.3097 217.262 74.7008 217.01 75.0455C216.761 75.3902 216.413 75.6619 215.966 75.8608C215.518 76.0597 214.998 76.1591 214.405 76.1591C213.626 76.1591 212.981 75.9901 212.471 75.652C211.96 75.3139 211.637 74.8201 211.501 74.1705L212.615 73.892C212.721 74.303 212.922 74.6113 213.217 74.8168C213.515 75.0223 213.904 75.125 214.385 75.125C214.932 75.125 215.366 75.009 215.688 74.777C216.012 74.5417 216.175 74.2599 216.175 73.9318C216.175 73.6667 216.082 73.4446 215.896 73.2656C215.711 73.0833 215.426 72.9474 215.041 72.858L213.768 72.5597C213.069 72.3939 212.555 72.1371 212.227 71.7891C211.902 71.4377 211.74 70.9986 211.74 70.4716C211.74 70.0407 211.861 69.6596 212.103 69.3281C212.348 68.9967 212.681 68.7365 213.102 68.5476C213.527 68.3587 214.007 68.2642 214.544 68.2642C215.3 68.2642 215.893 68.4299 216.324 68.7614C216.758 69.0928 217.066 69.5303 217.249 70.0739ZM219.154 76V68.3636H220.327V76H219.154ZM219.751 67.0909C219.522 67.0909 219.325 67.013 219.159 66.8572C218.997 66.7015 218.915 66.5142 218.915 66.2955C218.915 66.0767 218.997 65.8894 219.159 65.7337C219.325 65.5779 219.522 65.5 219.751 65.5C219.979 65.5 220.175 65.5779 220.337 65.7337C220.503 65.8894 220.586 66.0767 220.586 66.2955C220.586 66.5142 220.503 66.7015 220.337 66.8572C220.175 67.013 219.979 67.0909 219.751 67.0909ZM227.885 70.0739L226.831 70.3722C226.765 70.1965 226.667 70.0258 226.538 69.8601C226.412 69.6911 226.24 69.5518 226.021 69.4425C225.802 69.3331 225.522 69.2784 225.181 69.2784C224.713 69.2784 224.324 69.3861 224.012 69.6016C223.704 69.8137 223.55 70.0838 223.55 70.4119C223.55 70.7036 223.656 70.9339 223.868 71.103C224.08 71.272 224.412 71.4129 224.863 71.5256L225.996 71.804C226.679 71.9697 227.188 72.2232 227.522 72.5646C227.857 72.9027 228.025 73.3385 228.025 73.8722C228.025 74.3097 227.899 74.7008 227.647 75.0455C227.398 75.3902 227.05 75.6619 226.603 75.8608C226.155 76.0597 225.635 76.1591 225.042 76.1591C224.263 76.1591 223.618 75.9901 223.108 75.652C222.597 75.3139 222.274 74.8201 222.138 74.1705L223.252 73.892C223.358 74.303 223.558 74.6113 223.853 74.8168C224.152 75.0223 224.541 75.125 225.022 75.125C225.569 75.125 226.003 75.009 226.324 74.777C226.649 74.5417 226.811 74.2599 226.811 73.9318C226.811 73.6667 226.719 73.4446 226.533 73.2656C226.347 73.0833 226.062 72.9474 225.678 72.858L224.405 72.5597C223.706 72.3939 223.192 72.1371 222.864 71.7891C222.539 71.4377 222.377 70.9986 222.377 70.4716C222.377 70.0407 222.498 69.6596 222.74 69.3281C222.985 68.9967 223.318 68.7365 223.739 68.5476C224.163 68.3587 224.644 68.2642 225.181 68.2642C225.936 68.2642 226.53 68.4299 226.961 68.7614C227.395 69.0928 227.703 69.5303 227.885 70.0739ZM233.728 78.8636V68.3636H234.862V69.5767H235.001C235.087 69.4441 235.206 69.2751 235.359 69.0696C235.515 68.8608 235.737 68.6752 236.025 68.5128C236.317 68.3471 236.711 68.2642 237.208 68.2642C237.851 68.2642 238.418 68.425 238.909 68.7464C239.399 69.0679 239.782 69.5237 240.057 70.1136C240.332 70.7036 240.47 71.3996 240.47 72.2017C240.47 73.0104 240.332 73.7114 240.057 74.3047C239.782 74.8946 239.401 75.352 238.914 75.6768C238.426 75.9983 237.865 76.1591 237.228 76.1591C236.738 76.1591 236.345 76.0779 236.05 75.9155C235.755 75.7498 235.528 75.5625 235.369 75.3537C235.21 75.1416 235.087 74.9659 235.001 74.8267H234.901V78.8636H233.728ZM234.882 72.1818C234.882 72.7585 234.966 73.2673 235.135 73.7081C235.304 74.1456 235.551 74.4886 235.876 74.7372C236.201 74.9825 236.598 75.1051 237.069 75.1051C237.56 75.1051 237.969 74.9759 238.297 74.7173C238.628 74.4555 238.877 74.1042 239.043 73.6634C239.212 73.2192 239.296 72.7254 239.296 72.1818C239.296 71.6449 239.213 71.161 239.048 70.7301C238.885 70.2959 238.638 69.9529 238.307 69.701C237.979 69.4458 237.566 69.3182 237.069 69.3182C236.592 69.3182 236.191 69.4392 235.866 69.6811C235.541 69.9197 235.296 70.2545 235.13 70.6854C234.964 71.1129 234.882 71.6117 234.882 72.1818ZM245.461 76.1591C244.725 76.1591 244.091 75.9967 243.557 75.6719C243.027 75.3438 242.617 74.8864 242.329 74.2997C242.044 73.7098 241.901 73.0237 241.901 72.2415C241.901 71.4593 242.044 70.7699 242.329 70.1733C242.617 69.5734 243.018 69.1061 243.532 68.7713C244.049 68.4332 244.652 68.2642 245.342 68.2642C245.74 68.2642 246.132 68.3305 246.52 68.4631C246.908 68.5956 247.261 68.8111 247.579 69.1094C247.897 69.4044 248.151 69.7955 248.34 70.2827C248.529 70.7699 248.623 71.3698 248.623 72.0824V72.5795H242.737V71.5653H247.43C247.43 71.1345 247.344 70.75 247.171 70.4119C247.002 70.0739 246.76 69.8071 246.445 69.6115C246.134 69.416 245.766 69.3182 245.342 69.3182C244.874 69.3182 244.47 69.4342 244.129 69.6662C243.791 69.8949 243.53 70.1932 243.348 70.5611C243.166 70.929 243.075 71.3234 243.075 71.7443V72.4205C243.075 72.9972 243.174 73.486 243.373 73.8871C243.575 74.2848 243.855 74.5881 244.213 74.7969C244.571 75.0024 244.987 75.1051 245.461 75.1051C245.769 75.1051 246.048 75.062 246.296 74.9759C246.548 74.8864 246.765 74.7538 246.948 74.5781C247.13 74.3991 247.271 74.1771 247.37 73.9119L248.504 74.2301C248.384 74.6146 248.184 74.9527 247.902 75.2443C247.62 75.5327 247.272 75.758 246.858 75.9205C246.444 76.0795 245.978 76.1591 245.461 76.1591ZM250.408 76V68.3636H251.541V69.517H251.621C251.76 69.1392 252.012 68.8326 252.377 68.5973C252.741 68.362 253.152 68.2443 253.61 68.2443C253.696 68.2443 253.803 68.246 253.933 68.2493C254.062 68.2526 254.16 68.2576 254.226 68.2642V69.4574C254.186 69.4474 254.095 69.4325 253.953 69.4126C253.813 69.3894 253.666 69.3778 253.51 69.3778C253.139 69.3778 252.807 69.4557 252.516 69.6115C252.227 69.764 251.999 69.9761 251.83 70.2479C251.664 70.5163 251.581 70.8229 251.581 71.1676V76H250.408ZM261.026 70.0739L259.972 70.3722C259.906 70.1965 259.808 70.0258 259.679 69.8601C259.553 69.6911 259.38 69.5518 259.162 69.4425C258.943 69.3331 258.663 69.2784 258.321 69.2784C257.854 69.2784 257.465 69.3861 257.153 69.6016C256.845 69.8137 256.691 70.0838 256.691 70.4119C256.691 70.7036 256.797 70.9339 257.009 71.103C257.221 71.272 257.552 71.4129 258.003 71.5256L259.137 71.804C259.819 71.9697 260.328 72.2232 260.663 72.5646C260.998 72.9027 261.165 73.3385 261.165 73.8722C261.165 74.3097 261.039 74.7008 260.787 75.0455C260.539 75.3902 260.191 75.6619 259.743 75.8608C259.296 76.0597 258.775 76.1591 258.182 76.1591C257.403 76.1591 256.759 75.9901 256.248 75.652C255.738 75.3139 255.415 74.8201 255.279 74.1705L256.392 73.892C256.498 74.303 256.699 74.6113 256.994 74.8168C257.292 75.0223 257.682 75.125 258.162 75.125C258.709 75.125 259.143 75.009 259.465 74.777C259.79 74.5417 259.952 74.2599 259.952 73.9318C259.952 73.6667 259.859 73.4446 259.674 73.2656C259.488 73.0833 259.203 72.9474 258.819 72.858L257.546 72.5597C256.846 72.3939 256.333 72.1371 256.005 71.7891C255.68 71.4377 255.517 70.9986 255.517 70.4716C255.517 70.0407 255.638 69.6596 255.88 69.3281C256.126 68.9967 256.459 68.7365 256.88 68.5476C257.304 68.3587 257.784 68.2642 258.321 68.2642C259.077 68.2642 259.67 68.4299 260.101 68.7614C260.535 69.0928 260.844 69.5303 261.026 70.0739ZM266.034 76.1591C265.344 76.1591 264.739 75.995 264.219 75.6669C263.702 75.3388 263.298 74.8797 263.006 74.2898C262.718 73.6998 262.573 73.0104 262.573 72.2216C262.573 71.4261 262.718 70.7318 263.006 70.1385C263.298 69.5452 263.702 69.0845 264.219 68.7564C264.739 68.4283 265.344 68.2642 266.034 68.2642C266.723 68.2642 267.326 68.4283 267.843 68.7564C268.364 69.0845 268.768 69.5452 269.056 70.1385C269.348 70.7318 269.494 71.4261 269.494 72.2216C269.494 73.0104 269.348 73.6998 269.056 74.2898C268.768 74.8797 268.364 75.3388 267.843 75.6669C267.326 75.995 266.723 76.1591 266.034 76.1591ZM266.034 75.1051C266.557 75.1051 266.988 74.9709 267.326 74.7024C267.664 74.4339 267.914 74.081 268.077 73.6435C268.239 73.206 268.32 72.732 268.32 72.2216C268.32 71.7112 268.239 71.2356 268.077 70.7947C267.914 70.3539 267.664 69.9976 267.326 69.7259C266.988 69.4541 266.557 69.3182 266.034 69.3182C265.51 69.3182 265.079 69.4541 264.741 69.7259C264.403 69.9976 264.153 70.3539 263.99 70.7947C263.828 71.2356 263.747 71.7112 263.747 72.2216C263.747 72.732 263.828 73.206 263.99 73.6435C264.153 74.081 264.403 74.4339 264.741 74.7024C265.079 74.9709 265.51 75.1051 266.034 75.1051ZM272.458 71.4062V76H271.285V68.3636H272.418V69.5568H272.518C272.697 69.169 272.969 68.8575 273.333 68.6222C273.698 68.3835 274.168 68.2642 274.745 68.2642C275.262 68.2642 275.714 68.3703 276.102 68.5824C276.49 68.7912 276.792 69.1094 277.007 69.5369C277.223 69.9612 277.33 70.4981 277.33 71.1477V76H276.157V71.2273C276.157 70.6274 276.001 70.16 275.69 69.8253C275.378 69.4872 274.951 69.3182 274.407 69.3182C274.032 69.3182 273.698 69.3994 273.403 69.5618C273.111 69.7242 272.881 69.9612 272.712 70.2727C272.543 70.5843 272.458 70.9621 272.458 71.4062ZM281.721 76.179C281.238 76.179 280.798 76.0878 280.404 75.9055C280.01 75.7199 279.696 75.4531 279.464 75.1051C279.232 74.7538 279.116 74.3295 279.116 73.8324C279.116 73.3949 279.202 73.0402 279.375 72.7685C279.547 72.4934 279.778 72.2779 280.066 72.1222C280.354 71.9664 280.672 71.8504 281.02 71.7741C281.372 71.6946 281.725 71.6316 282.079 71.5852C282.543 71.5256 282.92 71.4808 283.208 71.451C283.5 71.4179 283.712 71.3632 283.844 71.2869C283.98 71.2107 284.048 71.0781 284.048 70.8892V70.8494C284.048 70.3589 283.914 69.9777 283.645 69.706C283.38 69.4342 282.978 69.2983 282.437 69.2983C281.877 69.2983 281.438 69.4209 281.12 69.6662C280.802 69.9115 280.578 70.1733 280.449 70.4517L279.335 70.054C279.534 69.59 279.799 69.2287 280.131 68.9702C280.465 68.7083 280.83 68.526 281.224 68.4233C281.622 68.3172 282.013 68.2642 282.398 68.2642C282.643 68.2642 282.925 68.294 283.243 68.3537C283.564 68.41 283.874 68.5277 284.172 68.7067C284.474 68.8857 284.724 69.1558 284.923 69.517C285.122 69.8783 285.221 70.3622 285.221 70.9688V76H284.048V74.9659H283.988C283.909 75.1316 283.776 75.3089 283.591 75.4979C283.405 75.6868 283.158 75.8475 282.85 75.9801C282.542 76.1127 282.166 76.179 281.721 76.179ZM281.9 75.125C282.364 75.125 282.756 75.0339 283.074 74.8516C283.395 74.6693 283.637 74.4339 283.8 74.1456C283.965 73.8572 284.048 73.554 284.048 73.2358V72.1619C283.998 72.2216 283.889 72.2763 283.72 72.326C283.554 72.3724 283.362 72.4138 283.143 72.4503C282.928 72.4834 282.717 72.5133 282.512 72.5398C282.31 72.563 282.146 72.5829 282.02 72.5994C281.715 72.6392 281.43 72.7038 281.165 72.7933C280.903 72.8795 280.691 73.0104 280.528 73.1861C280.369 73.3584 280.29 73.5937 280.29 73.892C280.29 74.2997 280.44 74.608 280.742 74.8168C281.047 75.0223 281.433 75.125 281.9 75.125ZM288.218 76.0795C287.973 76.0795 287.762 75.9917 287.587 75.8161C287.411 75.6404 287.323 75.4299 287.323 75.1847C287.323 74.9394 287.411 74.7289 287.587 74.5533C287.762 74.3776 287.973 74.2898 288.218 74.2898C288.463 74.2898 288.674 74.3776 288.849 74.5533C289.025 74.7289 289.113 74.9394 289.113 75.1847C289.113 75.3471 289.071 75.4962 288.989 75.6321C288.909 75.768 288.801 75.8774 288.665 75.9602C288.533 76.0398 288.384 76.0795 288.218 76.0795ZM292.074 76.0795C291.828 76.0795 291.618 75.9917 291.442 75.8161C291.266 75.6404 291.179 75.4299 291.179 75.1847C291.179 74.9394 291.266 74.7289 291.442 74.5533C291.618 74.3776 291.828 74.2898 292.074 74.2898C292.319 74.2898 292.529 74.3776 292.705 74.5533C292.881 74.7289 292.968 74.9394 292.968 75.1847C292.968 75.3471 292.927 75.4962 292.844 75.6321C292.765 75.768 292.657 75.8774 292.521 75.9602C292.388 76.0398 292.239 76.0795 292.074 76.0795ZM295.929 76.0795C295.684 76.0795 295.473 75.9917 295.298 75.8161C295.122 75.6404 295.034 75.4299 295.034 75.1847C295.034 74.9394 295.122 74.7289 295.298 74.5533C295.473 74.3776 295.684 74.2898 295.929 74.2898C296.174 74.2898 296.385 74.3776 296.56 74.5533C296.736 74.7289 296.824 74.9394 296.824 75.1847C296.824 75.3471 296.782 75.4962 296.7 75.6321C296.62 75.768 296.512 75.8774 296.376 75.9602C296.244 76.0398 296.095 76.0795 295.929 76.0795Z" fill="#FEFEFF"/>
<path d="M762 69C762 52.4315 775.431 39 792 39C808.569 39 822 52.4315 822 69C822 85.5685 808.569 99 792 99C775.431 99 762 85.5685 762 69Z" fill="#3B82F6"/>
<path d="M787 63.5L792 58.5M792 58.5L797 63.5M792 58.5V83.5" stroke="#2C2C2C" stroke-width="2.5" stroke-linecap="round" stroke-linejoin="round"/>
<defs>
<filter id="filter0_d_51_1317" x="0" y="0" width="849" height="136" filterUnits="userSpaceOnUse" color-interpolation-filters="sRGB">
<feFlood flood-opacity="0" result="BackgroundImageFix"/>
<feColorMatrix in="SourceAlpha" type="matrix" values="0 0 0 0 0 0 0 0 0 0 0 0 0 0 0 0 0 0 127 0" result="hardAlpha"/>
<feOffset dy="4"/>
<feGaussianBlur stdDeviation="2"/>
<feComposite in2="hardAlpha" operator="out"/>
<feColorMatrix type="matrix" values="0 0 0 0 0 0 0 0 0 0 0 0 0 0 0 0 0 0 0.25 0"/>
<feBlend mode="normal" in2="BackgroundImageFix" result="effect1_dropShadow_51_1317"/>
<feBlend mode="normal" in="SourceGraphic" in2="effect1_dropShadow_51_1317" result="shape"/>
</filter>
</defs>
</svg>
