<svg width="849" height="532" viewBox="0 0 849 532" fill="none" xmlns="http://www.w3.org/2000/svg">
<g filter="url(#filter0_d_62_761)">
<path d="M4 25C4 11.1929 15.1929 0 29 0H820C833.807 0 845 11.1929 845 25V524H4V25Z" fill="#2C2C2C"/>
<path d="M29 0.5H820C833.531 0.5 844.5 11.469 844.5 25V523.5H4.5V25L4.50781 24.3672C4.84346 11.1287 15.6806 0.5 29 0.5Z" stroke="black"/>
</g>
<path opacity="0.5" d="M66 425.5H718C735.949 425.5 750.5 440.051 750.5 458C750.5 475.949 735.949 490.5 718 490.5H66C48.0508 490.5 33.5 475.949 33.5 458C33.5 440.051 48.0507 425.5 66 425.5Z" fill="#757575" stroke="#AEAEAE"/>
<path d="M685 450.5L674.483 461.232C674.014 461.701 673.75 462.337 673.75 463.001C673.75 463.664 674.014 464.3 674.483 464.769C674.951 465.238 675.587 465.501 676.251 465.501C676.914 465.501 677.55 465.238 678.019 464.769L688.536 454.036C689.474 453.099 690.001 451.827 690.001 450.501C690.001 449.175 689.474 447.903 688.536 446.965C687.599 446.027 686.327 445.5 685.001 445.5C683.675 445.5 682.403 446.027 681.465 446.965L670.991 457.654C670.286 458.348 669.724 459.175 669.34 460.088C668.955 461 668.755 461.979 668.751 462.97C668.747 463.96 668.939 464.941 669.316 465.856C669.693 466.772 670.248 467.603 670.948 468.303C671.648 469.003 672.48 469.558 673.395 469.935C674.311 470.312 675.292 470.504 676.282 470.5C677.272 470.496 678.251 470.296 679.164 469.911C680.076 469.527 680.903 468.966 681.598 468.26L692.071 457.571" stroke="#B0AEBD" stroke-width="2.5" stroke-linecap="round" stroke-linejoin="round"/>
<path d="M719 466.75V470.5M719 466.75C721.321 466.75 723.546 465.828 725.187 464.187C726.828 462.546 727.75 460.321 727.75 458V455.5M719 466.75C716.679 466.75 714.454 465.828 712.813 464.187C711.172 462.546 710.25 460.321 710.25 458V455.5M719 445.5C721.071 445.5 722.75 447.179 722.75 449.25V458C722.75 460.071 721.071 461.75 719 461.75C716.929 461.75 715.25 460.071 715.25 458V449.25C715.25 447.179 716.929 445.5 719 445.5Z" stroke="#B0AFBD" stroke-width="2.5" stroke-linecap="round" stroke-linejoin="round"/>
<path opacity="0.5" d="M793 425.5H794C811.949 425.5 826.5 440.051 826.5 458C826.5 475.949 811.949 490.5 794 490.5H793C775.051 490.5 760.5 475.949 760.5 458C760.5 440.051 775.051 425.5 793 425.5Z" fill="#2C2C2C" stroke="#AEAEAE"/>
<path d="M796.366 452.333H802.5C803.252 452.333 803.972 452.632 804.504 453.163C805.035 453.695 805.333 454.415 805.333 455.167V461.301M779.833 460.833H782.667M805.333 460.833H808.167M808.167 472.167L779.833 443.833M788.333 452.333H785.5C784.749 452.333 784.028 452.632 783.497 453.163C782.965 453.695 782.667 454.415 782.667 455.167V466.5C782.667 467.251 782.965 467.972 783.497 468.503C784.028 469.035 784.749 469.333 785.5 469.333H802.5C803.252 469.333 803.972 469.035 804.503 468.503M789.75 459.417V462.25M790.699 446.667H794V449.967" stroke="#B0AFBD" stroke-width="2.5" stroke-linecap="round" stroke-linejoin="round"/>
<path d="M83.5001 454.75V456C83.4875 458.523 82.7117 460.983 81.2748 463.057C79.8378 465.13 77.807 466.721 75.4493 467.619C73.0916 468.517 70.5173 468.68 68.0649 468.088C65.6125 467.495 63.3968 466.175 61.7091 464.299C60.0213 462.424 58.9405 460.082 58.6088 457.581C58.277 455.08 58.7099 452.537 59.8504 450.287C60.9909 448.036 62.7857 446.184 64.9988 444.972C67.2119 443.761 69.7398 443.248 72.2501 443.5M66.0001 458.5C66.0001 458.5 67.8751 461 71.0001 461C74.1251 461 76.0001 458.5 76.0001 458.5M67.2501 452.25H67.2626M74.7501 452.25H74.7626M76.0001 447.25H83.5001M79.7501 443.5V451" stroke="#B0AFBD" stroke-width="2.5" stroke-linecap="round" stroke-linejoin="round"/>
<rect x="63.5" y="85.5" width="103" height="99" rx="15.5" fill="#0D0D0D" stroke="#B0AFBD"/>
<rect x="63.5" y="244.5" width="103" height="99" rx="15.5" fill="#0D0D0D" stroke="#B0AFBD"/>
<rect x="269.5" y="85.5" width="103" height="99" rx="15.5" fill="#0D0D0D" stroke="#B0AFBD"/>
<rect x="269.5" y="244.5" width="103" height="99" rx="15.5" fill="#0D0D0D" stroke="#B0AFBD"/>
<rect x="463.5" y="80.5" width="103" height="99" rx="15.5" fill="#0D0D0D" stroke="#B0AFBD"/>
<rect x="463.5" y="239.5" width="103" height="99" rx="15.5" fill="#0D0D0D" stroke="#B0AFBD"/>
<rect x="672.5" y="84.5" width="103" height="99" rx="15.5" fill="#0D0D0D" stroke="#B0AFBD"/>
<rect x="672.5" y="243.5" width="103" height="99" rx="15.5" fill="#0D0D0D" stroke="#B0AFBD"/>
<rect x="327" y="14" width="217" height="5" fill="#3B82F6"/>
<path d="M103 155C101.939 155 100.922 154.579 100.172 153.828C99.4214 153.078 99 152.061 99 151V119C99 117.939 99.4214 116.922 100.172 116.172C100.922 115.421 101.939 115 103 115H119C119.633 114.999 120.26 115.123 120.845 115.366C121.43 115.608 121.961 115.964 122.408 116.412L129.584 123.588C130.034 124.035 130.39 124.567 130.633 125.152C130.876 125.738 131.001 126.366 131 127V151C131 152.061 130.579 153.078 129.828 153.828C129.078 154.579 128.061 155 127 155H103Z" stroke="#44EFFF" stroke-width="4" stroke-linecap="round" stroke-linejoin="round"/>
<path d="M119 115V125C119 125.53 119.211 126.039 119.586 126.414C119.961 126.789 120.47 127 121 127H131" stroke="#44EFFF" stroke-width="4" stroke-linecap="round" stroke-linejoin="round"/>
<path d="M64.4205 214H59.2642V199.455H64.4631C65.9261 199.455 67.1856 199.746 68.2415 200.328C69.2973 200.906 70.1094 201.737 70.6776 202.821C71.2505 203.905 71.5369 205.203 71.5369 206.713C71.5369 208.228 71.2505 209.53 70.6776 210.619C70.1094 211.708 69.2926 212.544 68.2273 213.126C67.1667 213.709 65.8977 214 64.4205 214ZM62.3395 211.365H64.2926C65.2017 211.365 65.9664 211.204 66.5866 210.882C67.2116 210.555 67.6804 210.051 67.9929 209.369C68.3101 208.683 68.4688 207.797 68.4688 206.713C68.4688 205.638 68.3101 204.76 67.9929 204.078C67.6804 203.396 67.214 202.894 66.5938 202.572C65.9735 202.25 65.2088 202.089 64.2997 202.089H62.3395V211.365ZM78.6871 214.213C77.5839 214.213 76.6299 213.979 75.8249 213.51C75.0247 213.036 74.4068 212.378 73.9712 211.536C73.5356 210.688 73.3178 209.705 73.3178 208.588C73.3178 207.461 73.5356 206.476 73.9712 205.634C74.4068 204.786 75.0247 204.128 75.8249 203.659C76.6299 203.186 77.5839 202.949 78.6871 202.949C79.7904 202.949 80.7421 203.186 81.5423 203.659C82.3472 204.128 82.9674 204.786 83.4031 205.634C83.8387 206.476 84.0565 207.461 84.0565 208.588C84.0565 209.705 83.8387 210.688 83.4031 211.536C82.9674 212.378 82.3472 213.036 81.5423 213.51C80.7421 213.979 79.7904 214.213 78.6871 214.213ZM78.7013 211.869C79.2032 211.869 79.6223 211.727 79.9585 211.443C80.2946 211.154 80.5479 210.761 80.7184 210.264C80.8936 209.767 80.9812 209.201 80.9812 208.567C80.9812 207.932 80.8936 207.366 80.7184 206.869C80.5479 206.372 80.2946 205.979 79.9585 205.69C79.6223 205.402 79.2032 205.257 78.7013 205.257C78.1947 205.257 77.7686 205.402 77.4229 205.69C77.082 205.979 76.824 206.372 76.6488 206.869C76.4783 207.366 76.3931 207.932 76.3931 208.567C76.3931 209.201 76.4783 209.767 76.6488 210.264C76.824 210.761 77.082 211.154 77.4229 211.443C77.7686 211.727 78.1947 211.869 78.7013 211.869ZM90.9528 214.213C89.8353 214.213 88.8742 213.976 88.0692 213.503C87.2691 213.025 86.6535 212.362 86.2227 211.514C85.7965 210.667 85.5835 209.691 85.5835 208.588C85.5835 207.471 85.7989 206.491 86.2298 205.648C86.6654 204.8 87.2833 204.14 88.0835 203.666C88.8836 203.188 89.8353 202.949 90.9386 202.949C91.8903 202.949 92.7236 203.122 93.4386 203.467C94.1535 203.813 94.7193 204.298 95.136 204.923C95.5527 205.548 95.7823 206.282 95.8249 207.125H92.9698C92.8893 206.58 92.6763 206.143 92.3306 205.811C91.9897 205.475 91.5423 205.307 90.9883 205.307C90.5195 205.307 90.11 205.435 89.7596 205.69C89.4139 205.941 89.1441 206.308 88.9499 206.791C88.7558 207.274 88.6587 207.859 88.6587 208.545C88.6587 209.241 88.7534 209.833 88.9428 210.321C89.137 210.809 89.4092 211.18 89.7596 211.436C90.11 211.692 90.5195 211.82 90.9883 211.82C91.3339 211.82 91.6441 211.749 91.9187 211.607C92.198 211.464 92.4277 211.259 92.6076 210.989C92.7923 210.714 92.913 210.385 92.9698 210.001H95.8249C95.7776 210.835 95.5503 211.569 95.1431 212.203C94.7406 212.833 94.1843 213.325 93.4741 213.68C92.7638 214.036 91.9234 214.213 90.9528 214.213ZM104.758 209.355V203.091H107.783V214H104.879V212.018H104.765C104.519 212.658 104.109 213.171 103.536 213.56C102.968 213.948 102.274 214.142 101.455 214.142C100.726 214.142 100.085 213.976 99.5305 213.645C98.9766 213.313 98.5433 212.842 98.2308 212.232C97.9231 211.621 97.7668 210.889 97.7621 210.037V203.091H100.788V209.497C100.792 210.141 100.965 210.65 101.306 211.024C101.647 211.398 102.104 211.585 102.677 211.585C103.041 211.585 103.382 211.502 103.7 211.337C104.017 211.166 104.272 210.915 104.467 210.584C104.665 210.252 104.763 209.843 104.758 209.355ZM110.203 214V203.091H113.087V205.016H113.215C113.442 204.376 113.821 203.872 114.351 203.503C114.882 203.134 115.516 202.949 116.255 202.949C117.003 202.949 117.64 203.136 118.165 203.51C118.691 203.879 119.041 204.381 119.216 205.016H119.33C119.552 204.391 119.955 203.891 120.537 203.517C121.124 203.138 121.818 202.949 122.618 202.949C123.636 202.949 124.462 203.273 125.097 203.922C125.736 204.566 126.056 205.48 126.056 206.663V214H123.037V207.26C123.037 206.654 122.876 206.199 122.554 205.896C122.232 205.593 121.83 205.442 121.347 205.442C120.798 205.442 120.369 205.617 120.061 205.967C119.754 206.313 119.6 206.77 119.6 207.338V214H116.667V207.196C116.667 206.661 116.513 206.235 116.205 205.918C115.902 205.6 115.502 205.442 115.005 205.442C114.668 205.442 114.365 205.527 114.096 205.697C113.83 205.863 113.62 206.098 113.463 206.401C113.307 206.699 113.229 207.049 113.229 207.452V214H110.203ZM133.417 214.213C132.295 214.213 131.329 213.986 130.52 213.531C129.715 213.072 129.094 212.423 128.659 211.585C128.223 210.742 128.005 209.746 128.005 208.595C128.005 207.473 128.223 206.488 128.659 205.641C129.094 204.793 129.708 204.133 130.498 203.659C131.294 203.186 132.226 202.949 133.297 202.949C134.016 202.949 134.686 203.065 135.306 203.297C135.931 203.524 136.476 203.867 136.94 204.327C137.409 204.786 137.773 205.364 138.034 206.06C138.294 206.751 138.424 207.561 138.424 208.489V209.32H129.213V207.445H135.576C135.576 207.009 135.482 206.623 135.292 206.287C135.103 205.951 134.84 205.688 134.504 205.499C134.172 205.304 133.787 205.207 133.346 205.207C132.887 205.207 132.48 205.314 132.125 205.527C131.774 205.735 131.5 206.017 131.301 206.372C131.102 206.723 131 207.113 130.995 207.544V209.327C130.995 209.866 131.095 210.333 131.294 210.726C131.497 211.119 131.784 211.422 132.153 211.635C132.522 211.848 132.96 211.955 133.467 211.955C133.803 211.955 134.111 211.907 134.39 211.812C134.67 211.718 134.909 211.576 135.108 211.386C135.306 211.197 135.458 210.965 135.562 210.69L138.36 210.875C138.218 211.547 137.927 212.134 137.487 212.636C137.051 213.134 136.488 213.522 135.797 213.801C135.11 214.076 134.317 214.213 133.417 214.213ZM143.424 207.693V214H140.399V203.091H143.282V205.016H143.41C143.652 204.381 144.056 203.879 144.625 203.51C145.193 203.136 145.882 202.949 146.691 202.949C147.449 202.949 148.109 203.115 148.673 203.446C149.236 203.777 149.674 204.251 149.987 204.866C150.299 205.477 150.456 206.206 150.456 207.054V214H147.43V207.594C147.435 206.926 147.264 206.405 146.919 206.031C146.573 205.652 146.097 205.463 145.491 205.463C145.084 205.463 144.724 205.551 144.412 205.726C144.104 205.901 143.862 206.157 143.687 206.493C143.517 206.824 143.429 207.224 143.424 207.693ZM158.643 203.091V205.364H152.073V203.091H158.643ZM153.565 200.477H156.59V210.648C156.59 210.927 156.633 211.145 156.718 211.301C156.803 211.453 156.922 211.559 157.073 211.621C157.229 211.682 157.409 211.713 157.613 211.713C157.755 211.713 157.897 211.701 158.039 211.678C158.181 211.649 158.29 211.628 158.366 211.614L158.842 213.865C158.69 213.912 158.477 213.967 158.202 214.028C157.928 214.095 157.594 214.135 157.201 214.149C156.472 214.178 155.833 214.08 155.283 213.858C154.739 213.635 154.315 213.29 154.012 212.821C153.709 212.352 153.56 211.76 153.565 211.045V200.477ZM165.425 214.213C164.322 214.213 163.368 213.979 162.563 213.51C161.763 213.036 161.145 212.378 160.71 211.536C160.274 210.688 160.056 209.705 160.056 208.588C160.056 207.461 160.274 206.476 160.71 205.634C161.145 204.786 161.763 204.128 162.563 203.659C163.368 203.186 164.322 202.949 165.425 202.949C166.529 202.949 167.48 203.186 168.281 203.659C169.085 204.128 169.706 204.786 170.141 205.634C170.577 206.476 170.795 207.461 170.795 208.588C170.795 209.705 170.577 210.688 170.141 211.536C169.706 212.378 169.085 213.036 168.281 213.51C167.48 213.979 166.529 214.213 165.425 214.213ZM165.44 211.869C165.942 211.869 166.361 211.727 166.697 211.443C167.033 211.154 167.286 210.761 167.457 210.264C167.632 209.767 167.719 209.201 167.719 208.567C167.719 207.932 167.632 207.366 167.457 206.869C167.286 206.372 167.033 205.979 166.697 205.69C166.361 205.402 165.942 205.257 165.44 205.257C164.933 205.257 164.507 205.402 164.161 205.69C163.82 205.979 163.562 206.372 163.387 206.869C163.217 207.366 163.131 207.932 163.131 208.567C163.131 209.201 163.217 209.767 163.387 210.264C163.562 210.761 163.82 211.154 164.161 211.443C164.507 211.727 164.933 211.869 165.44 211.869Z" fill="#D5CECE"/>
<path d="M82.2642 373V358.455H88.0028C89.1061 358.455 90.0459 358.665 90.8224 359.087C91.599 359.503 92.1908 360.083 92.598 360.827C93.0099 361.565 93.2159 362.418 93.2159 363.384C93.2159 364.349 93.0076 365.202 92.5909 365.94C92.1742 366.679 91.5705 367.254 90.7798 367.666C89.9938 368.078 89.0421 368.284 87.9247 368.284H84.267V365.82H87.4276C88.0194 365.82 88.5071 365.718 88.8906 365.514C89.2789 365.306 89.5677 365.019 89.7571 364.655C89.9512 364.286 90.0483 363.862 90.0483 363.384C90.0483 362.901 89.9512 362.479 89.7571 362.119C89.5677 361.755 89.2789 361.473 88.8906 361.274C88.5024 361.071 88.0099 360.969 87.4134 360.969H85.3395V373H82.2642ZM99.9524 373.213C98.8303 373.213 97.8643 372.986 97.0547 372.531C96.2498 372.072 95.6295 371.423 95.1939 370.585C94.7583 369.742 94.5405 368.746 94.5405 367.595C94.5405 366.473 94.7583 365.488 95.1939 364.641C95.6295 363.793 96.2427 363.133 97.0334 362.659C97.8288 362.186 98.7616 361.949 99.8317 361.949C100.551 361.949 101.221 362.065 101.842 362.297C102.467 362.524 103.011 362.867 103.475 363.327C103.944 363.786 104.308 364.364 104.569 365.06C104.829 365.751 104.96 366.561 104.96 367.489V368.32H95.7479V366.445H102.112C102.112 366.009 102.017 365.623 101.827 365.287C101.638 364.951 101.375 364.688 101.039 364.499C100.708 364.304 100.322 364.207 99.8814 364.207C99.4221 364.207 99.0149 364.314 98.6598 364.527C98.3094 364.735 98.0348 365.017 97.8359 365.372C97.6371 365.723 97.5353 366.113 97.5305 366.544V368.327C97.5305 368.866 97.63 369.333 97.8288 369.726C98.0324 370.119 98.3189 370.422 98.6882 370.635C99.0575 370.848 99.4955 370.955 100.002 370.955C100.338 370.955 100.646 370.907 100.925 370.812C101.205 370.718 101.444 370.576 101.643 370.386C101.842 370.197 101.993 369.965 102.097 369.69L104.896 369.875C104.754 370.547 104.462 371.134 104.022 371.636C103.586 372.134 103.023 372.522 102.332 372.801C101.645 373.076 100.852 373.213 99.9524 373.213ZM110.954 373.178C110.125 373.178 109.375 372.964 108.702 372.538C108.035 372.107 107.504 371.475 107.112 370.642C106.723 369.804 106.529 368.777 106.529 367.56C106.529 366.31 106.73 365.27 107.133 364.442C107.535 363.608 108.07 362.986 108.738 362.574C109.41 362.157 110.147 361.949 110.947 361.949C111.558 361.949 112.067 362.053 112.474 362.261C112.886 362.465 113.217 362.721 113.468 363.028C113.724 363.331 113.918 363.63 114.05 363.923H114.143V358.455H117.161V373H114.178V371.253H114.05C113.908 371.556 113.707 371.857 113.447 372.155C113.191 372.448 112.857 372.692 112.445 372.886C112.038 373.08 111.541 373.178 110.954 373.178ZM111.913 370.77C112.4 370.77 112.812 370.637 113.148 370.372C113.489 370.102 113.75 369.726 113.93 369.243C114.114 368.76 114.207 368.194 114.207 367.545C114.207 366.897 114.117 366.333 113.937 365.855C113.757 365.377 113.496 365.008 113.156 364.747C112.815 364.487 112.4 364.357 111.913 364.357C111.415 364.357 110.996 364.491 110.656 364.761C110.315 365.031 110.057 365.405 109.881 365.884C109.706 366.362 109.619 366.916 109.619 367.545C109.619 368.18 109.706 368.741 109.881 369.229C110.061 369.712 110.319 370.09 110.656 370.365C110.996 370.635 111.415 370.77 111.913 370.77ZM119.649 373V362.091H122.674V373H119.649ZM121.169 360.685C120.719 360.685 120.333 360.536 120.011 360.237C119.694 359.934 119.535 359.572 119.535 359.151C119.535 358.734 119.694 358.376 120.011 358.078C120.333 357.775 120.719 357.624 121.169 357.624C121.618 357.624 122.002 357.775 122.319 358.078C122.641 358.376 122.802 358.734 122.802 359.151C122.802 359.572 122.641 359.934 122.319 360.237C122.002 360.536 121.618 360.685 121.169 360.685ZM129.118 373.178C128.289 373.178 127.539 372.964 126.866 372.538C126.199 372.107 125.669 371.475 125.276 370.642C124.887 369.804 124.693 368.777 124.693 367.56C124.693 366.31 124.894 365.27 125.297 364.442C125.699 363.608 126.234 362.986 126.902 362.574C127.574 362.157 128.311 361.949 129.111 361.949C129.722 361.949 130.231 362.053 130.638 362.261C131.05 362.465 131.381 362.721 131.632 363.028C131.888 363.331 132.082 363.63 132.214 363.923H132.307V358.455H135.325V373H132.342V371.253H132.214C132.072 371.556 131.871 371.857 131.611 372.155C131.355 372.448 131.021 372.692 130.609 372.886C130.202 373.08 129.705 373.178 129.118 373.178ZM130.077 370.77C130.564 370.77 130.976 370.637 131.312 370.372C131.653 370.102 131.914 369.726 132.094 369.243C132.278 368.76 132.371 368.194 132.371 367.545C132.371 366.897 132.281 366.333 132.101 365.855C131.921 365.377 131.661 365.008 131.32 364.747C130.979 364.487 130.564 364.357 130.077 364.357C129.58 364.357 129.161 364.491 128.82 364.761C128.479 365.031 128.221 365.405 128.045 365.884C127.87 366.362 127.783 366.916 127.783 367.545C127.783 368.18 127.87 368.741 128.045 369.229C128.225 369.712 128.483 370.09 128.82 370.365C129.161 370.635 129.58 370.77 130.077 370.77ZM142.742 373.213C141.639 373.213 140.685 372.979 139.88 372.51C139.079 372.036 138.462 371.378 138.026 370.536C137.59 369.688 137.373 368.705 137.373 367.588C137.373 366.461 137.59 365.476 138.026 364.634C138.462 363.786 139.079 363.128 139.88 362.659C140.685 362.186 141.639 361.949 142.742 361.949C143.845 361.949 144.797 362.186 145.597 362.659C146.402 363.128 147.022 363.786 147.458 364.634C147.893 365.476 148.111 366.461 148.111 367.588C148.111 368.705 147.893 369.688 147.458 370.536C147.022 371.378 146.402 372.036 145.597 372.51C144.797 372.979 143.845 373.213 142.742 373.213ZM142.756 370.869C143.258 370.869 143.677 370.727 144.013 370.443C144.349 370.154 144.603 369.761 144.773 369.264C144.948 368.767 145.036 368.201 145.036 367.567C145.036 366.932 144.948 366.366 144.773 365.869C144.603 365.372 144.349 364.979 144.013 364.69C143.677 364.402 143.258 364.257 142.756 364.257C142.249 364.257 141.823 364.402 141.478 364.69C141.137 364.979 140.879 365.372 140.703 365.869C140.533 366.366 140.448 366.932 140.448 367.567C140.448 368.201 140.533 368.767 140.703 369.264C140.879 369.761 141.137 370.154 141.478 370.443C141.823 370.727 142.249 370.869 142.756 370.869Z" fill="#D5CECE"/>
<path d="M291.098 204.547H287.987C287.93 204.144 287.814 203.787 287.639 203.474C287.464 203.157 287.239 202.887 286.964 202.665C286.69 202.442 286.373 202.272 286.013 202.153C285.658 202.035 285.272 201.976 284.855 201.976C284.102 201.976 283.446 202.163 282.888 202.537C282.329 202.906 281.896 203.446 281.588 204.156C281.28 204.862 281.126 205.719 281.126 206.727C281.126 207.764 281.28 208.635 281.588 209.341C281.901 210.046 282.336 210.579 282.895 210.939C283.454 211.299 284.1 211.479 284.834 211.479C285.246 211.479 285.627 211.424 285.977 211.315C286.332 211.206 286.647 211.048 286.922 210.839C287.196 210.626 287.424 210.368 287.604 210.065C287.788 209.762 287.916 209.417 287.987 209.028L291.098 209.043C291.018 209.71 290.816 210.354 290.494 210.974C290.177 211.59 289.749 212.142 289.209 212.629C288.674 213.112 288.035 213.496 287.291 213.78C286.553 214.059 285.717 214.199 284.784 214.199C283.487 214.199 282.327 213.905 281.304 213.318C280.286 212.731 279.481 211.881 278.889 210.768C278.302 209.656 278.009 208.309 278.009 206.727C278.009 205.141 278.307 203.792 278.903 202.679C279.5 201.566 280.31 200.719 281.332 200.136C282.355 199.549 283.506 199.256 284.784 199.256C285.627 199.256 286.408 199.374 287.128 199.611C287.852 199.848 288.494 200.193 289.053 200.648C289.611 201.098 290.066 201.649 290.416 202.303C290.771 202.956 290.999 203.704 291.098 204.547ZM296.357 214.206C295.661 214.206 295.041 214.085 294.496 213.844C293.952 213.598 293.521 213.235 293.204 212.757C292.891 212.274 292.735 211.673 292.735 210.953C292.735 210.347 292.846 209.838 293.069 209.426C293.291 209.014 293.594 208.683 293.978 208.432C294.362 208.181 294.797 207.991 295.285 207.864C295.777 207.736 296.293 207.646 296.833 207.594C297.468 207.527 297.979 207.466 298.367 207.409C298.755 207.348 299.037 207.258 299.212 207.139C299.388 207.021 299.475 206.846 299.475 206.614V206.571C299.475 206.121 299.333 205.773 299.049 205.527C298.77 205.281 298.372 205.158 297.856 205.158C297.311 205.158 296.878 205.278 296.556 205.52C296.234 205.757 296.021 206.055 295.917 206.415L293.119 206.188C293.261 205.525 293.54 204.952 293.957 204.469C294.373 203.981 294.911 203.607 295.569 203.347C296.232 203.081 296.999 202.949 297.87 202.949C298.476 202.949 299.056 203.02 299.61 203.162C300.169 203.304 300.664 203.524 301.094 203.822C301.53 204.121 301.873 204.504 302.124 204.973C302.375 205.437 302.501 205.993 302.501 206.642V214H299.631V212.487H299.546C299.371 212.828 299.137 213.129 298.843 213.389C298.549 213.645 298.197 213.846 297.785 213.993C297.373 214.135 296.897 214.206 296.357 214.206ZM297.224 212.118C297.669 212.118 298.062 212.03 298.403 211.855C298.744 211.675 299.011 211.434 299.205 211.131C299.399 210.828 299.496 210.484 299.496 210.101V208.943C299.402 209.005 299.272 209.062 299.106 209.114C298.945 209.161 298.763 209.206 298.559 209.249C298.355 209.286 298.152 209.322 297.948 209.355C297.745 209.384 297.56 209.41 297.394 209.433C297.039 209.485 296.729 209.568 296.464 209.682C296.199 209.795 295.993 209.949 295.846 210.143C295.699 210.333 295.626 210.57 295.626 210.854C295.626 211.266 295.775 211.58 296.073 211.798C296.376 212.011 296.76 212.118 297.224 212.118ZM296.897 201.685L298.403 198.453H301.201L299.035 201.685H296.897ZM304.848 214V203.091H307.732V205.016H307.859C308.087 204.376 308.465 203.872 308.996 203.503C309.526 203.134 310.161 202.949 310.899 202.949C311.647 202.949 312.284 203.136 312.81 203.51C313.335 203.879 313.686 204.381 313.861 205.016H313.974C314.197 204.391 314.599 203.891 315.182 203.517C315.769 203.138 316.463 202.949 317.263 202.949C318.281 202.949 319.107 203.273 319.741 203.922C320.381 204.566 320.7 205.48 320.7 206.663V214H317.682V207.26C317.682 206.654 317.521 206.199 317.199 205.896C316.877 205.593 316.474 205.442 315.991 205.442C315.442 205.442 315.014 205.617 314.706 205.967C314.398 206.313 314.244 206.77 314.244 207.338V214H311.311V207.196C311.311 206.661 311.157 206.235 310.849 205.918C310.546 205.6 310.146 205.442 309.649 205.442C309.313 205.442 309.01 205.527 308.74 205.697C308.475 205.863 308.264 206.098 308.108 206.401C307.952 206.699 307.874 207.049 307.874 207.452V214H304.848ZM326.201 214.206C325.505 214.206 324.885 214.085 324.34 213.844C323.796 213.598 323.365 213.235 323.048 212.757C322.735 212.274 322.579 211.673 322.579 210.953C322.579 210.347 322.69 209.838 322.913 209.426C323.135 209.014 323.438 208.683 323.822 208.432C324.205 208.181 324.641 207.991 325.129 207.864C325.621 207.736 326.137 207.646 326.677 207.594C327.311 207.527 327.823 207.466 328.211 207.409C328.599 207.348 328.881 207.258 329.056 207.139C329.231 207.021 329.319 206.846 329.319 206.614V206.571C329.319 206.121 329.177 205.773 328.893 205.527C328.613 205.281 328.216 205.158 327.7 205.158C327.155 205.158 326.722 205.278 326.4 205.52C326.078 205.757 325.865 206.055 325.761 206.415L322.962 206.188C323.104 205.525 323.384 204.952 323.8 204.469C324.217 203.981 324.754 203.607 325.413 203.347C326.076 203.081 326.843 202.949 327.714 202.949C328.32 202.949 328.9 203.02 329.454 203.162C330.013 203.304 330.507 203.524 330.938 203.822C331.374 204.121 331.717 204.504 331.968 204.973C332.219 205.437 332.344 205.993 332.344 206.642V214H329.475V212.487H329.39C329.215 212.828 328.98 213.129 328.687 213.389C328.393 213.645 328.04 213.846 327.629 213.993C327.217 214.135 326.741 214.206 326.201 214.206ZM327.067 212.118C327.513 212.118 327.906 212.03 328.246 211.855C328.587 211.675 328.855 211.434 329.049 211.131C329.243 210.828 329.34 210.484 329.34 210.101V208.943C329.246 209.005 329.115 209.062 328.95 209.114C328.789 209.161 328.606 209.206 328.403 209.249C328.199 209.286 327.996 209.322 327.792 209.355C327.588 209.384 327.404 209.41 327.238 209.433C326.883 209.485 326.573 209.568 326.308 209.682C326.042 209.795 325.836 209.949 325.69 210.143C325.543 210.333 325.469 210.57 325.469 210.854C325.469 211.266 325.619 211.58 325.917 211.798C326.22 212.011 326.603 212.118 327.067 212.118ZM334.692 214V203.091H337.625V204.994H337.739C337.938 204.317 338.271 203.806 338.74 203.46C339.209 203.11 339.749 202.935 340.359 202.935C340.511 202.935 340.674 202.944 340.849 202.963C341.025 202.982 341.179 203.008 341.311 203.041V205.726C341.169 205.683 340.973 205.645 340.722 205.612C340.471 205.579 340.241 205.562 340.033 205.562C339.588 205.562 339.19 205.66 338.839 205.854C338.494 206.043 338.219 206.308 338.016 206.649C337.817 206.99 337.717 207.383 337.717 207.828V214H334.692ZM345.674 214.206C344.978 214.206 344.357 214.085 343.813 213.844C343.268 213.598 342.837 213.235 342.52 212.757C342.208 212.274 342.051 211.673 342.051 210.953C342.051 210.347 342.163 209.838 342.385 209.426C342.608 209.014 342.911 208.683 343.294 208.432C343.678 208.181 344.114 207.991 344.601 207.864C345.094 207.736 345.61 207.646 346.15 207.594C346.784 207.527 347.295 207.466 347.684 207.409C348.072 207.348 348.354 207.258 348.529 207.139C348.704 207.021 348.792 206.846 348.792 206.614V206.571C348.792 206.121 348.65 205.773 348.365 205.527C348.086 205.281 347.688 205.158 347.172 205.158C346.628 205.158 346.194 205.278 345.873 205.52C345.551 205.757 345.337 206.055 345.233 206.415L342.435 206.188C342.577 205.525 342.856 204.952 343.273 204.469C343.69 203.981 344.227 203.607 344.885 203.347C345.548 203.081 346.315 202.949 347.186 202.949C347.792 202.949 348.373 203.02 348.926 203.162C349.485 203.304 349.98 203.524 350.411 203.822C350.846 204.121 351.19 204.504 351.441 204.973C351.692 205.437 351.817 205.993 351.817 206.642V214H348.948V212.487H348.863C348.687 212.828 348.453 213.129 348.159 213.389C347.866 213.645 347.513 213.846 347.101 213.993C346.689 214.135 346.213 214.206 345.674 214.206ZM346.54 212.118C346.985 212.118 347.378 212.03 347.719 211.855C348.06 211.675 348.328 211.434 348.522 211.131C348.716 210.828 348.813 210.484 348.813 210.101V208.943C348.718 209.005 348.588 209.062 348.422 209.114C348.261 209.161 348.079 209.206 347.875 209.249C347.672 209.286 347.468 209.322 347.265 209.355C347.061 209.384 346.876 209.41 346.711 209.433C346.355 209.485 346.045 209.568 345.78 209.682C345.515 209.795 345.309 209.949 345.162 210.143C345.016 210.333 344.942 210.57 344.942 210.854C344.942 211.266 345.091 211.58 345.39 211.798C345.693 212.011 346.076 212.118 346.54 212.118Z" fill="#D5CECE"/>
<path d="M282.249 358.455H285.324V367.901C285.324 368.961 285.071 369.889 284.564 370.685C284.062 371.48 283.359 372.1 282.455 372.545C281.55 372.986 280.497 373.206 279.294 373.206C278.087 373.206 277.031 372.986 276.126 372.545C275.222 372.1 274.519 371.48 274.017 370.685C273.515 369.889 273.264 368.961 273.264 367.901V358.455H276.339V367.638C276.339 368.192 276.46 368.684 276.702 369.115C276.948 369.546 277.294 369.884 277.739 370.131C278.184 370.377 278.702 370.5 279.294 370.5C279.891 370.5 280.409 370.377 280.849 370.131C281.295 369.884 281.638 369.546 281.879 369.115C282.125 368.684 282.249 368.192 282.249 367.638V358.455ZM287.854 373V358.455H290.88V363.923H290.972C291.105 363.63 291.296 363.331 291.547 363.028C291.803 362.721 292.134 362.465 292.542 362.261C292.953 362.053 293.465 361.949 294.076 361.949C294.871 361.949 295.605 362.157 296.277 362.574C296.95 362.986 297.487 363.608 297.89 364.442C298.292 365.27 298.493 366.31 298.493 367.56C298.493 368.777 298.297 369.804 297.904 370.642C297.516 371.475 296.985 372.107 296.313 372.538C295.645 372.964 294.897 373.178 294.069 373.178C293.481 373.178 292.982 373.08 292.57 372.886C292.163 372.692 291.829 372.448 291.569 372.155C291.308 371.857 291.109 371.556 290.972 371.253H290.837V373H287.854ZM290.816 367.545C290.816 368.194 290.906 368.76 291.086 369.243C291.266 369.726 291.526 370.102 291.867 370.372C292.208 370.637 292.622 370.77 293.11 370.77C293.602 370.77 294.019 370.635 294.36 370.365C294.701 370.09 294.959 369.712 295.134 369.229C295.314 368.741 295.404 368.18 295.404 367.545C295.404 366.916 295.316 366.362 295.141 365.884C294.966 365.405 294.708 365.031 294.367 364.761C294.026 364.491 293.607 364.357 293.11 364.357C292.617 364.357 292.201 364.487 291.86 364.747C291.524 365.008 291.266 365.377 291.086 365.855C290.906 366.333 290.816 366.897 290.816 367.545ZM300.512 373V362.091H303.538V373H300.512ZM302.032 360.685C301.582 360.685 301.196 360.536 300.874 360.237C300.557 359.934 300.398 359.572 300.398 359.151C300.398 358.734 300.557 358.376 300.874 358.078C301.196 357.775 301.582 357.624 302.032 357.624C302.482 357.624 302.865 357.775 303.183 358.078C303.504 358.376 303.665 358.734 303.665 359.151C303.665 359.572 303.504 359.934 303.183 360.237C302.865 360.536 302.482 360.685 302.032 360.685ZM310.89 373.213C309.773 373.213 308.812 372.976 308.007 372.503C307.207 372.025 306.591 371.362 306.16 370.514C305.734 369.667 305.521 368.691 305.521 367.588C305.521 366.471 305.736 365.491 306.167 364.648C306.603 363.8 307.221 363.14 308.021 362.666C308.821 362.188 309.773 361.949 310.876 361.949C311.828 361.949 312.661 362.122 313.376 362.467C314.091 362.813 314.657 363.298 315.074 363.923C315.49 364.548 315.72 365.282 315.762 366.125H312.907C312.827 365.58 312.614 365.143 312.268 364.811C311.927 364.475 311.48 364.307 310.926 364.307C310.457 364.307 310.047 364.435 309.697 364.69C309.351 364.941 309.082 365.308 308.887 365.791C308.693 366.274 308.596 366.859 308.596 367.545C308.596 368.241 308.691 368.833 308.88 369.321C309.074 369.809 309.347 370.18 309.697 370.436C310.047 370.692 310.457 370.82 310.926 370.82C311.271 370.82 311.582 370.749 311.856 370.607C312.136 370.464 312.365 370.259 312.545 369.989C312.73 369.714 312.85 369.385 312.907 369.001H315.762C315.715 369.835 315.488 370.569 315.081 371.203C314.678 371.833 314.122 372.325 313.412 372.68C312.701 373.036 311.861 373.213 310.89 373.213ZM320.81 373.206C320.114 373.206 319.494 373.085 318.95 372.844C318.405 372.598 317.974 372.235 317.657 371.757C317.344 371.274 317.188 370.673 317.188 369.953C317.188 369.347 317.299 368.838 317.522 368.426C317.745 368.014 318.048 367.683 318.431 367.432C318.815 367.181 319.25 366.991 319.738 366.864C320.23 366.736 320.746 366.646 321.286 366.594C321.921 366.527 322.432 366.466 322.82 366.409C323.209 366.348 323.49 366.258 323.665 366.139C323.841 366.021 323.928 365.846 323.928 365.614V365.571C323.928 365.121 323.786 364.773 323.502 364.527C323.223 364.281 322.825 364.158 322.309 364.158C321.764 364.158 321.331 364.278 321.009 364.52C320.687 364.757 320.474 365.055 320.37 365.415L317.572 365.188C317.714 364.525 317.993 363.952 318.41 363.469C318.826 362.981 319.364 362.607 320.022 362.347C320.685 362.081 321.452 361.949 322.323 361.949C322.929 361.949 323.509 362.02 324.063 362.162C324.622 362.304 325.117 362.524 325.548 362.822C325.983 363.121 326.326 363.504 326.577 363.973C326.828 364.437 326.954 364.993 326.954 365.642V373H324.085V371.487H323.999C323.824 371.828 323.59 372.129 323.296 372.389C323.003 372.645 322.65 372.846 322.238 372.993C321.826 373.135 321.35 373.206 320.81 373.206ZM321.677 371.118C322.122 371.118 322.515 371.03 322.856 370.855C323.197 370.675 323.464 370.434 323.658 370.131C323.853 369.828 323.95 369.484 323.95 369.101V367.943C323.855 368.005 323.725 368.062 323.559 368.114C323.398 368.161 323.216 368.206 323.012 368.249C322.808 368.286 322.605 368.322 322.401 368.355C322.198 368.384 322.013 368.41 321.847 368.433C321.492 368.485 321.182 368.568 320.917 368.682C320.652 368.795 320.446 368.949 320.299 369.143C320.152 369.333 320.079 369.57 320.079 369.854C320.079 370.266 320.228 370.58 320.526 370.798C320.829 371.011 321.213 371.118 321.677 371.118ZM334.23 373.213C333.113 373.213 332.152 372.976 331.347 372.503C330.546 372.025 329.931 371.362 329.5 370.514C329.074 369.667 328.861 368.691 328.861 367.588C328.861 366.471 329.076 365.491 329.507 364.648C329.943 363.8 330.561 363.14 331.361 362.666C332.161 362.188 333.113 361.949 334.216 361.949C335.168 361.949 336.001 362.122 336.716 362.467C337.431 362.813 337.997 363.298 338.413 363.923C338.83 364.548 339.06 365.282 339.102 366.125H336.247C336.167 365.58 335.954 365.143 335.608 364.811C335.267 364.475 334.82 364.307 334.266 364.307C333.797 364.307 333.387 364.435 333.037 364.69C332.691 364.941 332.421 365.308 332.227 365.791C332.033 366.274 331.936 366.859 331.936 367.545C331.936 368.241 332.031 368.833 332.22 369.321C332.414 369.809 332.687 370.18 333.037 370.436C333.387 370.692 333.797 370.82 334.266 370.82C334.611 370.82 334.921 370.749 335.196 370.607C335.475 370.464 335.705 370.259 335.885 369.989C336.07 369.714 336.19 369.385 336.247 369.001H339.102C339.055 369.835 338.828 370.569 338.42 371.203C338.018 371.833 337.462 372.325 336.751 372.68C336.041 373.036 335.201 373.213 334.23 373.213ZM341.039 373V362.091H344.065V373H341.039ZM342.559 360.685C342.109 360.685 341.724 360.536 341.402 360.237C341.084 359.934 340.926 359.572 340.926 359.151C340.926 358.734 341.084 358.376 341.402 358.078C341.724 357.775 342.109 357.624 342.559 357.624C343.009 357.624 343.393 357.775 343.71 358.078C344.032 358.376 344.193 358.734 344.193 359.151C344.193 359.572 344.032 359.934 343.71 360.237C343.393 360.536 343.009 360.685 342.559 360.685ZM351.418 373.213C350.314 373.213 349.36 372.979 348.555 372.51C347.755 372.036 347.137 371.378 346.702 370.536C346.266 369.688 346.048 368.705 346.048 367.588C346.048 366.461 346.266 365.476 346.702 364.634C347.137 363.786 347.755 363.128 348.555 362.659C349.36 362.186 350.314 361.949 351.418 361.949C352.521 361.949 353.473 362.186 354.273 362.659C355.078 363.128 355.698 363.786 356.134 364.634C356.569 365.476 356.787 366.461 356.787 367.588C356.787 368.705 356.569 369.688 356.134 370.536C355.698 371.378 355.078 372.036 354.273 372.51C353.473 372.979 352.521 373.213 351.418 373.213ZM351.432 370.869C351.934 370.869 352.353 370.727 352.689 370.443C353.025 370.154 353.278 369.761 353.449 369.264C353.624 368.767 353.712 368.201 353.712 367.567C353.712 366.932 353.624 366.366 353.449 365.869C353.278 365.372 353.025 364.979 352.689 364.69C352.353 364.402 351.934 364.257 351.432 364.257C350.925 364.257 350.499 364.402 350.153 364.69C349.813 364.979 349.554 365.372 349.379 365.869C349.209 366.366 349.124 366.932 349.124 367.567C349.124 368.201 349.209 368.767 349.379 369.264C349.554 369.761 349.813 370.154 350.153 370.443C350.499 370.727 350.925 370.869 351.432 370.869ZM350.331 360.685L351.837 357.453H354.635L352.469 360.685H350.331ZM361.78 366.693V373H358.754V362.091H361.638V364.016H361.766C362.007 363.381 362.412 362.879 362.98 362.51C363.548 362.136 364.237 361.949 365.047 361.949C365.804 361.949 366.465 362.115 367.028 362.446C367.592 362.777 368.03 363.251 368.342 363.866C368.655 364.477 368.811 365.206 368.811 366.054V373H365.786V366.594C365.79 365.926 365.62 365.405 365.274 365.031C364.929 364.652 364.453 364.463 363.847 364.463C363.439 364.463 363.08 364.551 362.767 364.726C362.459 364.901 362.218 365.157 362.043 365.493C361.872 365.824 361.785 366.224 361.78 366.693Z" fill="#D5CECE"/>
<path d="M490.909 204.156C490.81 203.811 490.67 203.505 490.49 203.24C490.31 202.97 490.09 202.743 489.83 202.558C489.574 202.369 489.28 202.224 488.949 202.125C488.622 202.026 488.26 201.976 487.862 201.976C487.119 201.976 486.465 202.161 485.902 202.53C485.343 202.899 484.908 203.437 484.595 204.142C484.283 204.843 484.126 205.7 484.126 206.713C484.126 207.726 484.28 208.588 484.588 209.298C484.896 210.009 485.331 210.551 485.895 210.925C486.458 211.294 487.124 211.479 487.891 211.479C488.587 211.479 489.181 211.356 489.673 211.109C490.17 210.858 490.549 210.506 490.81 210.051C491.075 209.597 491.207 209.059 491.207 208.439L491.832 208.531H488.082V206.216H494.169V208.048C494.169 209.327 493.899 210.425 493.359 211.344C492.82 212.258 492.076 212.963 491.129 213.46C490.182 213.953 489.098 214.199 487.876 214.199C486.513 214.199 485.315 213.898 484.283 213.297C483.25 212.691 482.446 211.831 481.868 210.719C481.295 209.601 481.009 208.276 481.009 206.741C481.009 205.562 481.179 204.511 481.52 203.588C481.866 202.66 482.348 201.874 482.969 201.23C483.589 200.586 484.311 200.096 485.135 199.76C485.959 199.424 486.851 199.256 487.812 199.256C488.636 199.256 489.403 199.376 490.114 199.618C490.824 199.855 491.454 200.191 492.003 200.626C492.557 201.062 493.009 201.58 493.359 202.182C493.71 202.778 493.935 203.437 494.034 204.156H490.909ZM499.533 214.206C498.837 214.206 498.217 214.085 497.672 213.844C497.128 213.598 496.697 213.235 496.38 212.757C496.067 212.274 495.911 211.673 495.911 210.953C495.911 210.347 496.022 209.838 496.245 209.426C496.467 209.014 496.77 208.683 497.154 208.432C497.537 208.181 497.973 207.991 498.461 207.864C498.953 207.736 499.469 207.646 500.009 207.594C500.643 207.527 501.155 207.466 501.543 207.409C501.931 207.348 502.213 207.258 502.388 207.139C502.563 207.021 502.651 206.846 502.651 206.614V206.571C502.651 206.121 502.509 205.773 502.225 205.527C501.945 205.281 501.548 205.158 501.032 205.158C500.487 205.158 500.054 205.278 499.732 205.52C499.41 205.757 499.197 206.055 499.093 206.415L496.294 206.188C496.436 205.525 496.716 204.952 497.132 204.469C497.549 203.981 498.087 203.607 498.745 203.347C499.408 203.081 500.175 202.949 501.046 202.949C501.652 202.949 502.232 203.02 502.786 203.162C503.345 203.304 503.839 203.524 504.27 203.822C504.706 204.121 505.049 204.504 505.3 204.973C505.551 205.437 505.676 205.993 505.676 206.642V214H502.807V212.487H502.722C502.547 212.828 502.312 213.129 502.019 213.389C501.725 213.645 501.373 213.846 500.961 213.993C500.549 214.135 500.073 214.206 499.533 214.206ZM500.4 212.118C500.845 212.118 501.238 212.03 501.578 211.855C501.919 211.675 502.187 211.434 502.381 211.131C502.575 210.828 502.672 210.484 502.672 210.101V208.943C502.578 209.005 502.447 209.062 502.282 209.114C502.121 209.161 501.938 209.206 501.735 209.249C501.531 209.286 501.328 209.322 501.124 209.355C500.92 209.384 500.736 209.41 500.57 209.433C500.215 209.485 499.905 209.568 499.64 209.682C499.374 209.795 499.168 209.949 499.022 210.143C498.875 210.333 498.801 210.57 498.801 210.854C498.801 211.266 498.951 211.58 499.249 211.798C499.552 212.011 499.935 212.118 500.4 212.118ZM511.049 199.455V214H508.024V199.455H511.049ZM518.445 214.213C517.322 214.213 516.357 213.986 515.547 213.531C514.742 213.072 514.122 212.423 513.686 211.585C513.25 210.742 513.033 209.746 513.033 208.595C513.033 207.473 513.25 206.488 513.686 205.641C514.122 204.793 514.735 204.133 515.526 203.659C516.321 203.186 517.254 202.949 518.324 202.949C519.044 202.949 519.714 203.065 520.334 203.297C520.959 203.524 521.503 203.867 521.967 204.327C522.436 204.786 522.801 205.364 523.061 206.06C523.321 206.751 523.452 207.561 523.452 208.489V209.32H514.24V207.445H520.604C520.604 207.009 520.509 206.623 520.32 206.287C520.13 205.951 519.867 205.688 519.531 205.499C519.2 205.304 518.814 205.207 518.374 205.207C517.914 205.207 517.507 205.314 517.152 205.527C516.802 205.735 516.527 206.017 516.328 206.372C516.129 206.723 516.027 207.113 516.023 207.544V209.327C516.023 209.866 516.122 210.333 516.321 210.726C516.525 211.119 516.811 211.422 517.18 211.635C517.55 211.848 517.988 211.955 518.494 211.955C518.83 211.955 519.138 211.907 519.418 211.812C519.697 211.718 519.936 211.576 520.135 211.386C520.334 211.197 520.485 210.965 520.589 210.69L523.388 210.875C523.246 211.547 522.955 212.134 522.514 212.636C522.079 213.134 521.515 213.522 520.824 213.801C520.137 214.076 519.344 214.213 518.445 214.213ZM525.426 214V203.091H528.359V204.994H528.473C528.672 204.317 529.006 203.806 529.474 203.46C529.943 203.11 530.483 202.935 531.094 202.935C531.245 202.935 531.409 202.944 531.584 202.963C531.759 202.982 531.913 203.008 532.045 203.041V205.726C531.903 205.683 531.707 205.645 531.456 205.612C531.205 205.579 530.975 205.562 530.767 205.562C530.322 205.562 529.924 205.66 529.574 205.854C529.228 206.043 528.954 206.308 528.75 206.649C528.551 206.99 528.452 207.383 528.452 207.828V214H525.426ZM533.61 214V203.091H536.635V214H533.61ZM534.043 201.685L535.549 198.453H538.347L536.181 201.685H534.043ZM542.17 214.206C541.474 214.206 540.853 214.085 540.309 213.844C539.764 213.598 539.334 213.235 539.016 212.757C538.704 212.274 538.548 211.673 538.548 210.953C538.548 210.347 538.659 209.838 538.881 209.426C539.104 209.014 539.407 208.683 539.79 208.432C540.174 208.181 540.61 207.991 541.097 207.864C541.59 207.736 542.106 207.646 542.646 207.594C543.28 207.527 543.791 207.466 544.18 207.409C544.568 207.348 544.85 207.258 545.025 207.139C545.2 207.021 545.288 206.846 545.288 206.614V206.571C545.288 206.121 545.146 205.773 544.862 205.527C544.582 205.281 544.184 205.158 543.668 205.158C543.124 205.158 542.691 205.278 542.369 205.52C542.047 205.757 541.834 206.055 541.729 206.415L538.931 206.188C539.073 205.525 539.353 204.952 539.769 204.469C540.186 203.981 540.723 203.607 541.381 203.347C542.044 203.081 542.811 202.949 543.683 202.949C544.289 202.949 544.869 203.02 545.423 203.162C545.981 203.304 546.476 203.524 546.907 203.822C547.343 204.121 547.686 204.504 547.937 204.973C548.188 205.437 548.313 205.993 548.313 206.642V214H545.444V212.487H545.359C545.183 212.828 544.949 213.129 544.656 213.389C544.362 213.645 544.009 213.846 543.597 213.993C543.185 214.135 542.71 214.206 542.17 214.206ZM543.036 212.118C543.481 212.118 543.874 212.03 544.215 211.855C544.556 211.675 544.824 211.434 545.018 211.131C545.212 210.828 545.309 210.484 545.309 210.101V208.943C545.214 209.005 545.084 209.062 544.918 209.114C544.757 209.161 544.575 209.206 544.371 209.249C544.168 209.286 543.964 209.322 543.761 209.355C543.557 209.384 543.372 209.41 543.207 209.433C542.852 209.485 542.541 209.568 542.276 209.682C542.011 209.795 541.805 209.949 541.658 210.143C541.512 210.333 541.438 210.57 541.438 210.854C541.438 211.266 541.587 211.58 541.886 211.798C542.189 212.011 542.572 212.118 543.036 212.118Z" fill="#D5CECE"/>
<path d="M430.264 372V357.455H436.003C437.101 357.455 438.039 357.651 438.815 358.044C439.597 358.432 440.191 358.984 440.598 359.699C441.01 360.409 441.216 361.245 441.216 362.206C441.216 363.172 441.008 364.003 440.591 364.699C440.174 365.39 439.571 365.92 438.78 366.29C437.994 366.659 437.042 366.844 435.925 366.844H432.082V364.372H435.428C436.015 364.372 436.502 364.292 436.891 364.131C437.279 363.97 437.568 363.728 437.757 363.406C437.951 363.084 438.048 362.684 438.048 362.206C438.048 361.723 437.951 361.316 437.757 360.984C437.568 360.653 437.277 360.402 436.884 360.232C436.495 360.056 436.005 359.969 435.413 359.969H433.339V372H430.264ZM438.119 365.381L441.734 372H438.339L434.803 365.381H438.119ZM448.128 372.213C447.006 372.213 446.04 371.986 445.23 371.531C444.426 371.072 443.805 370.423 443.37 369.585C442.934 368.742 442.716 367.746 442.716 366.595C442.716 365.473 442.934 364.488 443.37 363.641C443.805 362.793 444.418 362.133 445.209 361.659C446.005 361.186 446.937 360.949 448.007 360.949C448.727 360.949 449.397 361.065 450.017 361.297C450.642 361.524 451.187 361.867 451.651 362.327C452.12 362.786 452.484 363.364 452.745 364.06C453.005 364.751 453.135 365.561 453.135 366.489V367.32H443.924V365.445H450.287C450.287 365.009 450.193 364.623 450.003 364.287C449.814 363.951 449.551 363.688 449.215 363.499C448.883 363.304 448.498 363.207 448.057 363.207C447.598 363.207 447.191 363.314 446.836 363.527C446.485 363.735 446.211 364.017 446.012 364.372C445.813 364.723 445.711 365.113 445.706 365.544V367.327C445.706 367.866 445.806 368.333 446.005 368.726C446.208 369.119 446.495 369.422 446.864 369.635C447.233 369.848 447.671 369.955 448.178 369.955C448.514 369.955 448.822 369.907 449.101 369.812C449.381 369.718 449.62 369.576 449.819 369.386C450.017 369.197 450.169 368.965 450.273 368.69L453.071 368.875C452.929 369.547 452.638 370.134 452.198 370.636C451.762 371.134 451.199 371.522 450.507 371.801C449.821 372.076 449.028 372.213 448.128 372.213ZM464.186 364.202L461.417 364.372C461.369 364.135 461.267 363.922 461.111 363.733C460.955 363.539 460.749 363.385 460.493 363.271C460.242 363.153 459.942 363.094 459.591 363.094C459.123 363.094 458.727 363.193 458.405 363.392C458.083 363.586 457.922 363.847 457.922 364.173C457.922 364.434 458.026 364.654 458.235 364.834C458.443 365.014 458.801 365.158 459.307 365.267L461.282 365.665C462.342 365.883 463.133 366.233 463.654 366.716C464.175 367.199 464.435 367.833 464.435 368.619C464.435 369.334 464.224 369.962 463.803 370.501C463.386 371.041 462.813 371.463 462.084 371.766C461.36 372.064 460.524 372.213 459.577 372.213C458.133 372.213 456.982 371.912 456.125 371.311C455.273 370.705 454.774 369.881 454.627 368.839L457.603 368.683C457.693 369.124 457.91 369.46 458.256 369.692C458.602 369.919 459.044 370.033 459.584 370.033C460.114 370.033 460.541 369.931 460.863 369.727C461.189 369.519 461.355 369.251 461.36 368.925C461.355 368.65 461.239 368.425 461.012 368.25C460.784 368.07 460.434 367.933 459.961 367.838L458.071 367.462C457.006 367.249 456.213 366.879 455.692 366.354C455.176 365.828 454.918 365.158 454.918 364.344C454.918 363.643 455.107 363.039 455.486 362.533C455.87 362.026 456.407 361.635 457.098 361.361C457.794 361.086 458.609 360.949 459.542 360.949C460.919 360.949 462.004 361.24 462.794 361.822C463.59 362.405 464.054 363.198 464.186 364.202ZM466.34 376.091V361.091H469.323V362.923H469.458C469.591 362.63 469.782 362.331 470.033 362.028C470.289 361.721 470.621 361.465 471.028 361.261C471.44 361.053 471.951 360.949 472.562 360.949C473.357 360.949 474.091 361.157 474.763 361.574C475.436 361.986 475.973 362.608 476.376 363.442C476.778 364.27 476.979 365.31 476.979 366.56C476.979 367.777 476.783 368.804 476.39 369.642C476.002 370.475 475.471 371.107 474.799 371.538C474.131 371.964 473.383 372.178 472.555 372.178C471.968 372.178 471.468 372.08 471.056 371.886C470.649 371.692 470.315 371.448 470.055 371.155C469.794 370.857 469.595 370.556 469.458 370.253H469.366V376.091H466.34ZM469.302 366.545C469.302 367.194 469.392 367.76 469.572 368.243C469.752 368.726 470.012 369.102 470.353 369.372C470.694 369.637 471.108 369.77 471.596 369.77C472.088 369.77 472.505 369.635 472.846 369.365C473.187 369.09 473.445 368.712 473.62 368.229C473.8 367.741 473.89 367.18 473.89 366.545C473.89 365.916 473.802 365.362 473.627 364.884C473.452 364.405 473.194 364.031 472.853 363.761C472.512 363.491 472.093 363.357 471.596 363.357C471.103 363.357 470.687 363.487 470.346 363.747C470.01 364.008 469.752 364.377 469.572 364.855C469.392 365.333 469.302 365.897 469.302 366.545ZM485.992 367.355V361.091H489.018V372H486.113V370.018H485.999C485.753 370.658 485.344 371.171 484.771 371.56C484.202 371.948 483.509 372.142 482.69 372.142C481.96 372.142 481.319 371.976 480.765 371.645C480.211 371.313 479.778 370.842 479.465 370.232C479.157 369.621 479.001 368.889 478.996 368.037V361.091H482.022V367.497C482.027 368.141 482.2 368.65 482.54 369.024C482.881 369.398 483.338 369.585 483.911 369.585C484.276 369.585 484.617 369.502 484.934 369.337C485.251 369.166 485.507 368.915 485.701 368.584C485.9 368.252 485.997 367.843 485.992 367.355ZM496.409 372.213C495.287 372.213 494.321 371.986 493.512 371.531C492.707 371.072 492.087 370.423 491.651 369.585C491.215 368.742 490.998 367.746 490.998 366.595C490.998 365.473 491.215 364.488 491.651 363.641C492.087 362.793 492.7 362.133 493.49 361.659C494.286 361.186 495.219 360.949 496.289 360.949C497.008 360.949 497.678 361.065 498.299 361.297C498.924 361.524 499.468 361.867 499.932 362.327C500.401 362.786 500.766 363.364 501.026 364.06C501.286 364.751 501.417 365.561 501.417 366.489V367.32H492.205V365.445H498.569C498.569 365.009 498.474 364.623 498.284 364.287C498.095 363.951 497.832 363.688 497.496 363.499C497.165 363.304 496.779 363.207 496.338 363.207C495.879 363.207 495.472 363.314 495.117 363.527C494.766 363.735 494.492 364.017 494.293 364.372C494.094 364.723 493.992 365.113 493.988 365.544V367.327C493.988 367.866 494.087 368.333 494.286 368.726C494.489 369.119 494.776 369.422 495.145 369.635C495.515 369.848 495.953 369.955 496.459 369.955C496.795 369.955 497.103 369.907 497.382 369.812C497.662 369.718 497.901 369.576 498.1 369.386C498.299 369.197 498.45 368.965 498.554 368.69L501.353 368.875C501.211 369.547 500.919 370.134 500.479 370.636C500.043 371.134 499.48 371.522 498.789 371.801C498.102 372.076 497.309 372.213 496.409 372.213ZM512.468 364.202L509.698 364.372C509.65 364.135 509.549 363.922 509.392 363.733C509.236 363.539 509.03 363.385 508.775 363.271C508.524 363.153 508.223 363.094 507.873 363.094C507.404 363.094 507.008 363.193 506.686 363.392C506.364 363.586 506.203 363.847 506.203 364.173C506.203 364.434 506.308 364.654 506.516 364.834C506.724 365.014 507.082 365.158 507.588 365.267L509.563 365.665C510.623 365.883 511.414 366.233 511.935 366.716C512.456 367.199 512.716 367.833 512.716 368.619C512.716 369.334 512.506 369.962 512.084 370.501C511.667 371.041 511.095 371.463 510.365 371.766C509.641 372.064 508.805 372.213 507.858 372.213C506.414 372.213 505.264 371.912 504.407 371.311C503.554 370.705 503.055 369.881 502.908 368.839L505.884 368.683C505.974 369.124 506.192 369.46 506.537 369.692C506.883 369.919 507.326 370.033 507.865 370.033C508.396 370.033 508.822 369.931 509.144 369.727C509.471 369.519 509.636 369.251 509.641 368.925C509.636 368.65 509.52 368.425 509.293 368.25C509.066 368.07 508.715 367.933 508.242 367.838L506.353 367.462C505.287 367.249 504.494 366.879 503.973 366.354C503.457 365.828 503.199 365.158 503.199 364.344C503.199 363.643 503.389 363.039 503.767 362.533C504.151 362.026 504.688 361.635 505.38 361.361C506.076 361.086 506.89 360.949 507.823 360.949C509.201 360.949 510.285 361.24 511.076 361.822C511.871 362.405 512.335 363.198 512.468 364.202ZM520.424 361.091V363.364H513.854V361.091H520.424ZM515.346 358.477H518.371V368.648C518.371 368.927 518.414 369.145 518.499 369.301C518.585 369.453 518.703 369.559 518.854 369.621C519.011 369.682 519.191 369.713 519.394 369.713C519.536 369.713 519.678 369.701 519.82 369.678C519.962 369.649 520.071 369.628 520.147 369.614L520.623 371.865C520.471 371.912 520.258 371.967 519.984 372.028C519.709 372.095 519.375 372.135 518.982 372.149C518.253 372.178 517.614 372.08 517.065 371.858C516.52 371.635 516.096 371.29 515.793 370.821C515.49 370.352 515.341 369.76 515.346 369.045V358.477ZM525.506 372.206C524.81 372.206 524.189 372.085 523.645 371.844C523.1 371.598 522.67 371.235 522.352 370.757C522.04 370.274 521.884 369.673 521.884 368.953C521.884 368.347 521.995 367.838 522.217 367.426C522.44 367.014 522.743 366.683 523.126 366.432C523.51 366.181 523.946 365.991 524.433 365.864C524.926 365.736 525.442 365.646 525.982 365.594C526.616 365.527 527.127 365.466 527.516 365.409C527.904 365.348 528.186 365.258 528.361 365.139C528.536 365.021 528.624 364.846 528.624 364.614V364.571C528.624 364.121 528.482 363.773 528.197 363.527C527.918 363.281 527.52 363.158 527.004 363.158C526.46 363.158 526.027 363.278 525.705 363.52C525.383 363.757 525.17 364.055 525.065 364.415L522.267 364.188C522.409 363.525 522.688 362.952 523.105 362.469C523.522 361.981 524.059 361.607 524.717 361.347C525.38 361.081 526.147 360.949 527.018 360.949C527.625 360.949 528.205 361.02 528.759 361.162C529.317 361.304 529.812 361.524 530.243 361.822C530.679 362.121 531.022 362.504 531.273 362.973C531.524 363.437 531.649 363.993 531.649 364.642V372H528.78V370.487H528.695C528.519 370.828 528.285 371.129 527.991 371.389C527.698 371.645 527.345 371.846 526.933 371.993C526.521 372.135 526.045 372.206 525.506 372.206ZM526.372 370.118C526.817 370.118 527.21 370.03 527.551 369.855C527.892 369.675 528.16 369.434 528.354 369.131C528.548 368.828 528.645 368.484 528.645 368.101V366.943C528.55 367.005 528.42 367.062 528.254 367.114C528.093 367.161 527.911 367.206 527.707 367.249C527.504 367.286 527.3 367.322 527.097 367.355C526.893 367.384 526.708 367.41 526.543 367.433C526.188 367.485 525.877 367.568 525.612 367.682C525.347 367.795 525.141 367.949 524.994 368.143C524.848 368.333 524.774 368.57 524.774 368.854C524.774 369.266 524.923 369.58 525.222 369.798C525.525 370.011 525.908 370.118 526.372 370.118ZM538.625 372V361.091H541.559V362.994H541.672C541.871 362.317 542.205 361.806 542.674 361.46C543.142 361.11 543.682 360.935 544.293 360.935C544.444 360.935 544.608 360.944 544.783 360.963C544.958 360.982 545.112 361.008 545.245 361.041V363.726C545.103 363.683 544.906 363.645 544.655 363.612C544.404 363.579 544.175 363.562 543.966 363.562C543.521 363.562 543.123 363.66 542.773 363.854C542.427 364.043 542.153 364.308 541.949 364.649C541.75 364.99 541.651 365.383 541.651 365.828V372H538.625ZM549.607 372.206C548.911 372.206 548.291 372.085 547.746 371.844C547.202 371.598 546.771 371.235 546.454 370.757C546.141 370.274 545.985 369.673 545.985 368.953C545.985 368.347 546.096 367.838 546.319 367.426C546.541 367.014 546.844 366.683 547.228 366.432C547.612 366.181 548.047 365.991 548.535 365.864C549.027 365.736 549.543 365.646 550.083 365.594C550.718 365.527 551.229 365.466 551.617 365.409C552.005 365.348 552.287 365.258 552.462 365.139C552.638 365.021 552.725 364.846 552.725 364.614V364.571C552.725 364.121 552.583 363.773 552.299 363.527C552.02 363.281 551.622 363.158 551.106 363.158C550.561 363.158 550.128 363.278 549.806 363.52C549.484 363.757 549.271 364.055 549.167 364.415L546.369 364.188C546.511 363.525 546.79 362.952 547.207 362.469C547.623 361.981 548.161 361.607 548.819 361.347C549.482 361.081 550.249 360.949 551.12 360.949C551.726 360.949 552.306 361.02 552.86 361.162C553.419 361.304 553.914 361.524 554.344 361.822C554.78 362.121 555.123 362.504 555.374 362.973C555.625 363.437 555.751 363.993 555.751 364.642V372H552.881V370.487H552.796C552.621 370.828 552.387 371.129 552.093 371.389C551.799 371.645 551.447 371.846 551.035 371.993C550.623 372.135 550.147 372.206 549.607 372.206ZM550.474 370.118C550.919 370.118 551.312 370.03 551.653 369.855C551.994 369.675 552.261 369.434 552.455 369.131C552.649 368.828 552.746 368.484 552.746 368.101V366.943C552.652 367.005 552.522 367.062 552.356 367.114C552.195 367.161 552.013 367.206 551.809 367.249C551.605 367.286 551.402 367.322 551.198 367.355C550.995 367.384 550.81 367.41 550.644 367.433C550.289 367.485 549.979 367.568 549.714 367.682C549.449 367.795 549.243 367.949 549.096 368.143C548.949 368.333 548.876 368.57 548.876 368.854C548.876 369.266 549.025 369.58 549.323 369.798C549.626 370.011 550.01 370.118 550.474 370.118ZM550.147 359.685L551.653 356.453H554.451L552.285 359.685H550.147ZM558.098 376.091V361.091H561.081V362.923H561.216C561.348 362.63 561.54 362.331 561.791 362.028C562.047 361.721 562.378 361.465 562.786 361.261C563.197 361.053 563.709 360.949 564.32 360.949C565.115 360.949 565.849 361.157 566.521 361.574C567.194 361.986 567.731 362.608 568.134 363.442C568.536 364.27 568.737 365.31 568.737 366.56C568.737 367.777 568.541 368.804 568.148 369.642C567.759 370.475 567.229 371.107 566.557 371.538C565.889 371.964 565.141 372.178 564.312 372.178C563.725 372.178 563.226 372.08 562.814 371.886C562.407 371.692 562.073 371.448 561.812 371.155C561.552 370.857 561.353 370.556 561.216 370.253H561.124V376.091H558.098ZM561.06 366.545C561.06 367.194 561.15 367.76 561.33 368.243C561.509 368.726 561.77 369.102 562.111 369.372C562.452 369.637 562.866 369.77 563.354 369.77C563.846 369.77 564.263 369.635 564.604 369.365C564.945 369.09 565.203 368.712 565.378 368.229C565.558 367.741 565.648 367.18 565.648 366.545C565.648 365.916 565.56 365.362 565.385 364.884C565.21 364.405 564.952 364.031 564.611 363.761C564.27 363.491 563.851 363.357 563.354 363.357C562.861 363.357 562.445 363.487 562.104 363.747C561.768 364.008 561.509 364.377 561.33 364.855C561.15 365.333 561.06 365.897 561.06 366.545ZM570.754 372V361.091H573.78V372H570.754ZM572.274 359.685C571.824 359.685 571.438 359.536 571.116 359.237C570.799 358.934 570.641 358.572 570.641 358.151C570.641 357.734 570.799 357.376 571.116 357.078C571.438 356.775 571.824 356.624 572.274 356.624C572.724 356.624 573.107 356.775 573.425 357.078C573.747 357.376 573.908 357.734 573.908 358.151C573.908 358.572 573.747 358.934 573.425 359.237C573.107 359.536 572.724 359.685 572.274 359.685ZM580.223 372.178C579.395 372.178 578.644 371.964 577.972 371.538C577.304 371.107 576.774 370.475 576.381 369.642C575.993 368.804 575.799 367.777 575.799 366.56C575.799 365.31 576 364.27 576.402 363.442C576.805 362.608 577.34 361.986 578.007 361.574C578.68 361.157 579.416 360.949 580.216 360.949C580.827 360.949 581.336 361.053 581.743 361.261C582.155 361.465 582.487 361.721 582.738 362.028C582.993 362.331 583.187 362.63 583.32 362.923H583.412V357.455H586.431V372H583.448V370.253H583.32C583.178 370.556 582.977 370.857 582.716 371.155C582.461 371.448 582.127 371.692 581.715 371.886C581.308 372.08 580.81 372.178 580.223 372.178ZM581.182 369.77C581.67 369.77 582.082 369.637 582.418 369.372C582.759 369.102 583.019 368.726 583.199 368.243C583.384 367.76 583.476 367.194 583.476 366.545C583.476 365.897 583.386 365.333 583.206 364.855C583.026 364.377 582.766 364.008 582.425 363.747C582.084 363.487 581.67 363.357 581.182 363.357C580.685 363.357 580.266 363.491 579.925 363.761C579.584 364.031 579.326 364.405 579.151 364.884C578.976 365.362 578.888 365.916 578.888 366.545C578.888 367.18 578.976 367.741 579.151 368.229C579.331 368.712 579.589 369.09 579.925 369.365C580.266 369.635 580.685 369.77 581.182 369.77ZM592.029 372.206C591.333 372.206 590.713 372.085 590.168 371.844C589.624 371.598 589.193 371.235 588.876 370.757C588.563 370.274 588.407 369.673 588.407 368.953C588.407 368.347 588.518 367.838 588.741 367.426C588.963 367.014 589.266 366.683 589.65 366.432C590.033 366.181 590.469 365.991 590.957 365.864C591.449 365.736 591.965 365.646 592.505 365.594C593.139 365.527 593.651 365.466 594.039 365.409C594.427 365.348 594.709 365.258 594.884 365.139C595.059 365.021 595.147 364.846 595.147 364.614V364.571C595.147 364.121 595.005 363.773 594.721 363.527C594.442 363.281 594.044 363.158 593.528 363.158C592.983 363.158 592.55 363.278 592.228 363.52C591.906 363.757 591.693 364.055 591.589 364.415L588.79 364.188C588.933 363.525 589.212 362.952 589.629 362.469C590.045 361.981 590.583 361.607 591.241 361.347C591.904 361.081 592.671 360.949 593.542 360.949C594.148 360.949 594.728 361.02 595.282 361.162C595.841 361.304 596.335 361.524 596.766 361.822C597.202 362.121 597.545 362.504 597.796 362.973C598.047 363.437 598.173 363.993 598.173 364.642V372H595.303V370.487H595.218C595.043 370.828 594.808 371.129 594.515 371.389C594.221 371.645 593.869 371.846 593.457 371.993C593.045 372.135 592.569 372.206 592.029 372.206ZM592.896 370.118C593.341 370.118 593.734 370.03 594.075 369.855C594.415 369.675 594.683 369.434 594.877 369.131C595.071 368.828 595.168 368.484 595.168 368.101V366.943C595.074 367.005 594.943 367.062 594.778 367.114C594.617 367.161 594.434 367.206 594.231 367.249C594.027 367.286 593.824 367.322 593.62 367.355C593.416 367.384 593.232 367.41 593.066 367.433C592.711 367.485 592.401 367.568 592.136 367.682C591.871 367.795 591.665 367.949 591.518 368.143C591.371 368.333 591.298 368.57 591.298 368.854C591.298 369.266 591.447 369.58 591.745 369.798C592.048 370.011 592.432 370.118 592.896 370.118Z" fill="#D5CECE"/>
<path d="M703.771 214H700.476L705.497 199.455H709.46L714.474 214H711.179L707.536 202.778H707.422L703.771 214ZM703.565 208.283H711.349V210.683H703.565V208.283ZM723.164 209.355V203.091H726.19V214H723.285V212.018H723.171C722.925 212.658 722.515 213.171 721.942 213.56C721.374 213.948 720.681 214.142 719.862 214.142C719.132 214.142 718.491 213.976 717.937 213.645C717.383 213.313 716.95 212.842 716.637 212.232C716.329 211.621 716.173 210.889 716.168 210.037V203.091H719.194V209.497C719.199 210.141 719.371 210.65 719.712 211.024C720.053 211.398 720.51 211.585 721.083 211.585C721.448 211.585 721.789 211.502 722.106 211.337C722.423 211.166 722.679 210.915 722.873 210.584C723.072 210.252 723.169 209.843 723.164 209.355ZM732.63 214.178C731.801 214.178 731.051 213.964 730.378 213.538C729.711 213.107 729.18 212.475 728.787 211.642C728.399 210.804 728.205 209.777 728.205 208.56C728.205 207.31 728.406 206.27 728.809 205.442C729.211 204.608 729.746 203.986 730.414 203.574C731.086 203.157 731.822 202.949 732.623 202.949C733.233 202.949 733.742 203.053 734.15 203.261C734.561 203.465 734.893 203.721 735.144 204.028C735.4 204.331 735.594 204.63 735.726 204.923H735.819V199.455H738.837V214H735.854V212.253H735.726C735.584 212.556 735.383 212.857 735.123 213.155C734.867 213.448 734.533 213.692 734.121 213.886C733.714 214.08 733.217 214.178 732.63 214.178ZM733.588 211.77C734.076 211.77 734.488 211.637 734.824 211.372C735.165 211.102 735.426 210.726 735.605 210.243C735.79 209.76 735.882 209.194 735.882 208.545C735.882 207.897 735.792 207.333 735.613 206.855C735.433 206.377 735.172 206.008 734.831 205.747C734.49 205.487 734.076 205.357 733.588 205.357C733.091 205.357 732.672 205.491 732.331 205.761C731.99 206.031 731.732 206.405 731.557 206.884C731.382 207.362 731.294 207.916 731.294 208.545C731.294 209.18 731.382 209.741 731.557 210.229C731.737 210.712 731.995 211.09 732.331 211.365C732.672 211.635 733.091 211.77 733.588 211.77ZM741.325 214V203.091H744.35V214H741.325ZM742.844 201.685C742.395 201.685 742.009 201.536 741.687 201.237C741.37 200.934 741.211 200.572 741.211 200.151C741.211 199.734 741.37 199.376 741.687 199.078C742.009 198.775 742.395 198.624 742.844 198.624C743.294 198.624 743.678 198.775 743.995 199.078C744.317 199.376 744.478 199.734 744.478 200.151C744.478 200.572 744.317 200.934 743.995 201.237C743.678 201.536 743.294 201.685 742.844 201.685ZM751.703 214.213C750.6 214.213 749.645 213.979 748.841 213.51C748.04 213.036 747.422 212.378 746.987 211.536C746.551 210.688 746.333 209.705 746.333 208.588C746.333 207.461 746.551 206.476 746.987 205.634C747.422 204.786 748.04 204.128 748.841 203.659C749.645 203.186 750.6 202.949 751.703 202.949C752.806 202.949 753.758 203.186 754.558 203.659C755.363 204.128 755.983 204.786 756.419 205.634C756.854 206.476 757.072 207.461 757.072 208.588C757.072 209.705 756.854 210.688 756.419 211.536C755.983 212.378 755.363 213.036 754.558 213.51C753.758 213.979 752.806 214.213 751.703 214.213ZM751.717 211.869C752.219 211.869 752.638 211.727 752.974 211.443C753.31 211.154 753.564 210.761 753.734 210.264C753.909 209.767 753.997 209.201 753.997 208.567C753.997 207.932 753.909 207.366 753.734 206.869C753.564 206.372 753.31 205.979 752.974 205.69C752.638 205.402 752.219 205.257 751.717 205.257C751.21 205.257 750.784 205.402 750.439 205.69C750.098 205.979 749.84 206.372 749.664 206.869C749.494 207.366 749.409 207.932 749.409 208.567C749.409 209.201 749.494 209.767 749.664 210.264C749.84 210.761 750.098 211.154 750.439 211.443C750.784 211.727 751.21 211.869 751.717 211.869Z" fill="#D5CECE"/>
<path d="M697.098 363.547H693.987C693.93 363.144 693.814 362.787 693.639 362.474C693.464 362.157 693.239 361.887 692.964 361.665C692.69 361.442 692.373 361.272 692.013 361.153C691.658 361.035 691.272 360.976 690.855 360.976C690.102 360.976 689.446 361.163 688.888 361.537C688.329 361.906 687.896 362.446 687.588 363.156C687.28 363.862 687.126 364.719 687.126 365.727C687.126 366.764 687.28 367.635 687.588 368.341C687.901 369.046 688.336 369.579 688.895 369.939C689.454 370.299 690.1 370.479 690.834 370.479C691.246 370.479 691.627 370.424 691.977 370.315C692.332 370.206 692.647 370.048 692.922 369.839C693.196 369.626 693.424 369.368 693.604 369.065C693.788 368.762 693.916 368.417 693.987 368.028L697.098 368.043C697.018 368.71 696.816 369.354 696.494 369.974C696.177 370.59 695.749 371.142 695.209 371.629C694.674 372.112 694.035 372.496 693.291 372.78C692.553 373.059 691.717 373.199 690.784 373.199C689.487 373.199 688.327 372.905 687.304 372.318C686.286 371.731 685.481 370.881 684.889 369.768C684.302 368.656 684.009 367.309 684.009 365.727C684.009 364.141 684.307 362.792 684.903 361.679C685.5 360.566 686.31 359.719 687.332 359.136C688.355 358.549 689.506 358.256 690.784 358.256C691.627 358.256 692.408 358.374 693.128 358.611C693.852 358.848 694.494 359.193 695.053 359.648C695.611 360.098 696.066 360.649 696.416 361.303C696.771 361.956 696.999 362.704 697.098 363.547ZM704.175 373.213C703.072 373.213 702.118 372.979 701.313 372.51C700.513 372.036 699.895 371.378 699.46 370.536C699.024 369.688 698.806 368.705 698.806 367.588C698.806 366.461 699.024 365.476 699.46 364.634C699.895 363.786 700.513 363.128 701.313 362.659C702.118 362.186 703.072 361.949 704.175 361.949C705.279 361.949 706.23 362.186 707.031 362.659C707.835 363.128 708.456 363.786 708.891 364.634C709.327 365.476 709.545 366.461 709.545 367.588C709.545 368.705 709.327 369.688 708.891 370.536C708.456 371.378 707.835 372.036 707.031 372.51C706.23 372.979 705.279 373.213 704.175 373.213ZM704.19 370.869C704.692 370.869 705.111 370.727 705.447 370.443C705.783 370.154 706.036 369.761 706.207 369.264C706.382 368.767 706.469 368.201 706.469 367.567C706.469 366.932 706.382 366.366 706.207 365.869C706.036 365.372 705.783 364.979 705.447 364.69C705.111 364.402 704.692 364.257 704.19 364.257C703.683 364.257 703.257 364.402 702.911 364.69C702.57 364.979 702.312 365.372 702.137 365.869C701.967 366.366 701.881 366.932 701.881 367.567C701.881 368.201 701.967 368.767 702.137 369.264C702.312 369.761 702.57 370.154 702.911 370.443C703.257 370.727 703.683 370.869 704.19 370.869ZM714.538 366.693V373H711.512V362.091H714.396V364.016H714.523C714.765 363.381 715.17 362.879 715.738 362.51C716.306 362.136 716.995 361.949 717.805 361.949C718.562 361.949 719.223 362.115 719.786 362.446C720.35 362.777 720.788 363.251 721.1 363.866C721.413 364.477 721.569 365.206 721.569 366.054V373H718.543V366.594C718.548 365.926 718.378 365.405 718.032 365.031C717.686 364.652 717.21 364.463 716.604 364.463C716.197 364.463 715.837 364.551 715.525 364.726C715.217 364.901 714.976 365.157 714.8 365.493C714.63 365.824 714.542 366.224 714.538 366.693ZM729.756 362.091V364.364H723.186V362.091H729.756ZM724.678 359.477H727.703V369.648C727.703 369.927 727.746 370.145 727.831 370.301C727.917 370.453 728.035 370.559 728.186 370.621C728.343 370.682 728.523 370.713 728.726 370.713C728.868 370.713 729.01 370.701 729.152 370.678C729.294 370.649 729.403 370.628 729.479 370.614L729.955 372.865C729.803 372.912 729.59 372.967 729.316 373.028C729.041 373.095 728.707 373.135 728.314 373.149C727.585 373.178 726.946 373.08 726.397 372.858C725.852 372.635 725.428 372.29 725.125 371.821C724.822 371.352 724.673 370.76 724.678 370.045V359.477ZM734.838 373.206C734.142 373.206 733.521 373.085 732.977 372.844C732.432 372.598 732.002 372.235 731.684 371.757C731.372 371.274 731.216 370.673 731.216 369.953C731.216 369.347 731.327 368.838 731.549 368.426C731.772 368.014 732.075 367.683 732.458 367.432C732.842 367.181 733.278 366.991 733.765 366.864C734.258 366.736 734.774 366.646 735.314 366.594C735.948 366.527 736.459 366.466 736.848 366.409C737.236 366.348 737.518 366.258 737.693 366.139C737.868 366.021 737.956 365.846 737.956 365.614V365.571C737.956 365.121 737.814 364.773 737.529 364.527C737.25 364.281 736.852 364.158 736.336 364.158C735.792 364.158 735.359 364.278 735.037 364.52C734.715 364.757 734.502 365.055 734.397 365.415L731.599 365.188C731.741 364.525 732.02 363.952 732.437 363.469C732.854 362.981 733.391 362.607 734.049 362.347C734.712 362.081 735.479 361.949 736.35 361.949C736.957 361.949 737.537 362.02 738.091 362.162C738.649 362.304 739.144 362.524 739.575 362.822C740.011 363.121 740.354 363.504 740.605 363.973C740.856 364.437 740.981 364.993 740.981 365.642V373H738.112V371.487H738.027C737.851 371.828 737.617 372.129 737.324 372.389C737.03 372.645 736.677 372.846 736.265 372.993C735.853 373.135 735.377 373.206 734.838 373.206ZM735.704 371.118C736.149 371.118 736.542 371.03 736.883 370.855C737.224 370.675 737.492 370.434 737.686 370.131C737.88 369.828 737.977 369.484 737.977 369.101V367.943C737.882 368.005 737.752 368.062 737.586 368.114C737.425 368.161 737.243 368.206 737.039 368.249C736.836 368.286 736.632 368.322 736.429 368.355C736.225 368.384 736.04 368.41 735.875 368.433C735.52 368.485 735.209 368.568 734.944 368.682C734.679 368.795 734.473 368.949 734.326 369.143C734.18 369.333 734.106 369.57 734.106 369.854C734.106 370.266 734.255 370.58 734.554 370.798C734.857 371.011 735.24 371.118 735.704 371.118ZM748.257 373.213C747.14 373.213 746.179 372.976 745.374 372.503C744.574 372.025 743.958 371.362 743.527 370.514C743.101 369.667 742.888 368.691 742.888 367.588C742.888 366.471 743.104 365.491 743.534 364.648C743.97 363.8 744.588 363.14 745.388 362.666C746.188 362.188 747.14 361.949 748.243 361.949C749.195 361.949 750.028 362.122 750.743 362.467C751.458 362.813 752.024 363.298 752.441 363.923C752.857 364.548 753.087 365.282 753.13 366.125H750.275C750.194 365.58 749.981 365.143 749.635 364.811C749.294 364.475 748.847 364.307 748.293 364.307C747.824 364.307 747.415 364.435 747.064 364.69C746.719 364.941 746.449 365.308 746.255 365.791C746.06 366.274 745.963 366.859 745.963 367.545C745.963 368.241 746.058 368.833 746.248 369.321C746.442 369.809 746.714 370.18 747.064 370.436C747.415 370.692 747.824 370.82 748.293 370.82C748.639 370.82 748.949 370.749 749.223 370.607C749.503 370.464 749.732 370.259 749.912 369.989C750.097 369.714 750.218 369.385 750.275 369.001H753.13C753.082 369.835 752.855 370.569 752.448 371.203C752.045 371.833 751.489 372.325 750.779 372.68C750.069 373.036 749.228 373.213 748.257 373.213ZM760.869 362.091V364.364H754.3V362.091H760.869ZM755.791 359.477H758.817V369.648C758.817 369.927 758.859 370.145 758.945 370.301C759.03 370.453 759.148 370.559 759.3 370.621C759.456 370.682 759.636 370.713 759.839 370.713C759.982 370.713 760.124 370.701 760.266 370.678C760.408 370.649 760.517 370.628 760.592 370.614L761.068 372.865C760.917 372.912 760.704 372.967 760.429 373.028C760.154 373.095 759.821 373.135 759.428 373.149C758.698 373.178 758.059 373.08 757.51 372.858C756.965 372.635 756.542 372.29 756.239 371.821C755.936 371.352 755.786 370.76 755.791 370.045V359.477ZM767.652 373.213C766.549 373.213 765.595 372.979 764.79 372.51C763.99 372.036 763.372 371.378 762.936 370.536C762.5 369.688 762.283 368.705 762.283 367.588C762.283 366.461 762.5 365.476 762.936 364.634C763.372 363.786 763.99 363.128 764.79 362.659C765.595 362.186 766.549 361.949 767.652 361.949C768.755 361.949 769.707 362.186 770.507 362.659C771.312 363.128 771.932 363.786 772.368 364.634C772.804 365.476 773.021 366.461 773.021 367.588C773.021 368.705 772.804 369.688 772.368 370.536C771.932 371.378 771.312 372.036 770.507 372.51C769.707 372.979 768.755 373.213 767.652 373.213ZM767.666 370.869C768.168 370.869 768.587 370.727 768.923 370.443C769.259 370.154 769.513 369.761 769.683 369.264C769.858 368.767 769.946 368.201 769.946 367.567C769.946 366.932 769.858 366.366 769.683 365.869C769.513 365.372 769.259 364.979 768.923 364.69C768.587 364.402 768.168 364.257 767.666 364.257C767.16 364.257 766.733 364.402 766.388 364.69C766.047 364.979 765.789 365.372 765.614 365.869C765.443 366.366 765.358 366.932 765.358 367.567C765.358 368.201 765.443 368.767 765.614 369.264C765.789 369.761 766.047 370.154 766.388 370.443C766.733 370.727 767.16 370.869 767.666 370.869Z" fill="#D5CECE"/>
<path d="M324.994 116C325.716 116 326.424 116.195 327.043 116.565C327.663 116.935 328.171 117.465 328.514 118.1L329.486 119.9C329.829 120.535 330.337 121.065 330.957 121.435C331.576 121.805 332.284 122 333.006 122H337C338.061 122 339.078 122.421 339.828 123.172C340.579 123.922 341 124.939 341 126V144C341 145.061 340.579 146.078 339.828 146.828C339.078 147.579 338.061 148 337 148H305C303.939 148 302.922 147.579 302.172 146.828C301.421 146.078 301 145.061 301 144V126C301 124.939 301.421 123.922 302.172 123.172C302.922 122.421 303.939 122 305 122H308.994C309.715 122 310.422 121.805 311.042 121.436C311.661 121.067 312.169 120.538 312.512 119.904L313.49 118.096C313.833 117.462 314.341 116.933 314.96 116.564C315.58 116.195 316.287 116 317.008 116H324.994Z" stroke="#0A63E9" stroke-width="4" stroke-linecap="round" stroke-linejoin="round"/>
<path d="M321 140C324.314 140 327 137.314 327 134C327 130.686 324.314 128 321 128C317.686 128 315 130.686 315 134C315 137.314 317.686 140 321 140Z" stroke="#0A63E9" stroke-width="4" stroke-linecap="round" stroke-linejoin="round"/>
<path d="M535 128L532.408 125.408C531.962 124.958 531.431 124.601 530.846 124.357C530.261 124.114 529.634 123.988 529 123.988C528.366 123.988 527.739 124.114 527.154 124.357C526.569 124.601 526.038 124.958 525.592 125.408L513 138" stroke="#D30BB1" stroke-width="4" stroke-linecap="round" stroke-linejoin="round"/>
<path d="M499 122C497.939 122 496.922 122.421 496.172 123.172C495.421 123.922 495 124.939 495 126V146C495 147.061 495.421 148.078 496.172 148.828C496.922 149.579 497.939 150 499 150H519C520.061 150 521.078 149.579 521.828 148.828C522.579 148.078 523 147.061 523 146" stroke="#D30BB1" stroke-width="4" stroke-linecap="round" stroke-linejoin="round"/>
<path d="M517 122C518.105 122 519 121.105 519 120C519 118.895 518.105 118 517 118C515.895 118 515 118.895 515 120C515 121.105 515.895 122 517 122Z" fill="black" stroke="#D30BB1" stroke-width="4" stroke-linecap="round" stroke-linejoin="round"/>
<path d="M531 110H511C508.791 110 507 111.791 507 114V134C507 136.209 508.791 138 511 138H531C533.209 138 535 136.209 535 134V114C535 111.791 533.209 110 531 110Z" stroke="#D30BB1" stroke-width="4" stroke-linecap="round" stroke-linejoin="round"/>
<path d="M709 127V133" stroke="#CE1499" stroke-width="4" stroke-linecap="round" stroke-linejoin="round"/>
<path d="M717 119V141" stroke="#CE1499" stroke-width="4" stroke-linecap="round" stroke-linejoin="round"/>
<path d="M725 113V149" stroke="#CE1499" stroke-width="4" stroke-linecap="round" stroke-linejoin="round"/>
<path d="M733 123V137" stroke="#CE1499" stroke-width="4" stroke-linecap="round" stroke-linejoin="round"/>
<path d="M741 117V143" stroke="#CE1499" stroke-width="4" stroke-linecap="round" stroke-linejoin="round"/>
<path d="M749 127V133" stroke="#CE1499" stroke-width="4" stroke-linecap="round" stroke-linejoin="round"/>
<path d="M117 303H107" stroke="#E60E0E" stroke-width="4" stroke-linecap="round" stroke-linejoin="round"/>
<path d="M119 287H107" stroke="#E60E0E" stroke-width="4" stroke-linecap="round" stroke-linejoin="round"/>
<path d="M123 295H107" stroke="#E60E0E" stroke-width="4" stroke-linecap="round" stroke-linejoin="round"/>
<path d="M99 277C99 276.47 99.2107 275.961 99.5858 275.586C99.9609 275.211 100.47 275 101 275C101.495 274.997 101.981 275.136 102.4 275.4L104.266 276.6C104.684 276.867 105.17 277.009 105.666 277.009C106.162 277.009 106.648 276.867 107.066 276.6L108.934 275.4C109.352 275.133 109.838 274.991 110.334 274.991C110.83 274.991 111.316 275.133 111.734 275.4L113.6 276.6C114.018 276.867 114.504 277.009 115 277.009C115.496 277.009 115.982 276.867 116.4 276.6L118.266 275.4C118.684 275.133 119.17 274.991 119.666 274.991C120.162 274.991 120.648 275.133 121.066 275.4L122.934 276.6C123.352 276.867 123.838 277.009 124.334 277.009C124.83 277.009 125.316 276.867 125.734 276.6L127.6 275.4C128.019 275.136 128.505 274.997 129 275C129.53 275 130.039 275.211 130.414 275.586C130.789 275.961 131 276.47 131 277V313C131 313.53 130.789 314.039 130.414 314.414C130.039 314.789 129.53 315 129 315C128.505 315.003 128.019 314.864 127.6 314.6L125.734 313.4C125.316 313.133 124.83 312.991 124.334 312.991C123.838 312.991 123.352 313.133 122.934 313.4L121.066 314.6C120.648 314.867 120.162 315.009 119.666 315.009C119.17 315.009 118.684 314.867 118.266 314.6L116.4 313.4C115.982 313.133 115.496 312.991 115 312.991C114.504 312.991 114.018 313.133 113.6 313.4L111.734 314.6C111.316 314.867 110.83 315.009 110.334 315.009C109.838 315.009 109.352 314.867 108.934 314.6L107.066 313.4C106.648 313.133 106.162 312.991 105.666 312.991C105.17 312.991 104.684 313.133 104.266 313.4L102.4 314.6C101.981 314.864 101.495 315.003 101 315C100.47 315 99.9609 314.789 99.5858 314.414C99.2107 314.039 99 313.53 99 313V277Z" stroke="#E60E0E" stroke-width="4" stroke-linecap="round" stroke-linejoin="round"/>
<path d="M338 285C338 294.986 326.922 305.386 323.202 308.598C322.855 308.859 322.434 309 322 309C321.566 309 321.145 308.859 320.798 308.598C317.078 305.386 306 294.986 306 285C306 280.757 307.686 276.687 310.686 273.686C313.687 270.686 317.757 269 322 269C326.243 269 330.313 270.686 333.314 273.686C336.314 276.687 338 280.757 338 285Z" stroke="#14D32A" stroke-width="4" stroke-linecap="round" stroke-linejoin="round"/>
<path d="M322 291C325.314 291 328 288.314 328 285C328 281.686 325.314 279 322 279C318.686 279 316 281.686 316 285C316 288.314 318.686 291 322 291Z" stroke="#14D32A" stroke-width="4" stroke-linecap="round" stroke-linejoin="round"/>
<path d="M499 293C498.622 293.001 498.25 292.895 497.93 292.694C497.609 292.493 497.352 292.205 497.189 291.863C497.026 291.522 496.963 291.141 497.007 290.765C497.051 290.389 497.202 290.034 497.44 289.74L517.24 269.34C517.389 269.169 517.591 269.053 517.814 269.011C518.037 268.97 518.267 269.006 518.467 269.113C518.667 269.22 518.825 269.392 518.915 269.6C519.004 269.809 519.02 270.041 518.96 270.26L515.12 282.3C515.007 282.603 514.969 282.929 515.009 283.25C515.05 283.571 515.167 283.877 515.352 284.143C515.537 284.408 515.784 284.625 516.071 284.774C516.358 284.924 516.676 285.001 517 285H531C531.378 284.999 531.75 285.105 532.07 285.306C532.391 285.507 532.648 285.795 532.811 286.137C532.974 286.478 533.037 286.859 532.993 287.235C532.949 287.611 532.798 287.966 532.56 288.26L512.76 308.66C512.611 308.831 512.409 308.947 512.186 308.989C511.963 309.03 511.733 308.994 511.533 308.887C511.333 308.78 511.175 308.608 511.085 308.4C510.996 308.191 510.98 307.959 511.04 307.74L514.88 295.7C514.993 295.397 515.031 295.071 514.991 294.75C514.95 294.429 514.833 294.123 514.648 293.857C514.463 293.592 514.216 293.375 513.929 293.226C513.642 293.076 513.323 292.999 513 293H499Z" stroke="#FBFF00" stroke-width="4" stroke-linecap="round" stroke-linejoin="round"/>
<path d="M724 295C729.523 295 734 290.523 734 285C734 279.477 729.523 275 724 275C718.477 275 714 279.477 714 285C714 290.523 718.477 295 724 295Z" stroke="#25E7DE" stroke-width="4" stroke-linecap="round" stroke-linejoin="round"/>
<path d="M740 311C740 306.757 738.314 302.687 735.314 299.686C732.313 296.686 728.243 295 724 295C719.757 295 715.687 296.686 712.686 299.686C709.686 302.687 708 306.757 708 311" stroke="#25E7DE" stroke-width="4" stroke-linecap="round" stroke-linejoin="round"/>
<defs>
<filter id="filter0_d_62_761" x="0" y="0" width="849" height="532" filterUnits="userSpaceOnUse" color-interpolation-filters="sRGB">
<feFlood flood-opacity="0" result="BackgroundImageFix"/>
<feColorMatrix in="SourceAlpha" type="matrix" values="0 0 0 0 0 0 0 0 0 0 0 0 0 0 0 0 0 0 127 0" result="hardAlpha"/>
<feOffset dy="4"/>
<feGaussianBlur stdDeviation="2"/>
<feComposite in2="hardAlpha" operator="out"/>
<feColorMatrix type="matrix" values="0 0 0 0 0 0 0 0 0 0 0 0 0 0 0 0 0 0 0.25 0"/>
<feBlend mode="normal" in2="BackgroundImageFix" result="effect1_dropShadow_62_761"/>
<feBlend mode="normal" in="SourceGraphic" in2="effect1_dropShadow_62_761" result="shape"/>
</filter>
</defs>
</svg>
