<svg width="849" height="275" viewBox="0 0 849 275" fill="none" xmlns="http://www.w3.org/2000/svg">
<g filter="url(#filter0_d_62_673)">
<path d="M4 25C4 11.1929 15.1929 0 29 0H820C833.807 0 845 11.1929 845 25V267H4V25Z" fill="#2C2C2C"/>
<path d="M29 0.5H820C833.531 0.5 844.5 11.469 844.5 25V266.5H4.5V25C4.5 11.469 15.469 0.5 29 0.5Z" stroke="black"/>
</g>
<rect x="382.5" y="103.5" width="103" height="99" rx="15.5" fill="#0D0D0D" stroke="#B0AFBD"/>
<rect x="642.5" y="103.5" width="103" height="99" rx="15.5" fill="#0D0D0D" stroke="#B0AFBD"/>
<path d="M695.532 146.5H701.667C702.418 146.5 703.139 146.834 703.67 147.427C704.201 148.021 704.5 148.827 704.5 149.667V156.523M679 156H681.833M704.5 156H707.333M707.333 168.667L679 137M687.5 146.5H684.667C683.915 146.5 683.195 146.834 682.663 147.427C682.132 148.021 681.833 148.827 681.833 149.667V162.333C681.833 163.173 682.132 163.979 682.663 164.573C683.195 165.166 683.915 165.5 684.667 165.5H701.667C702.418 165.5 703.139 165.166 703.67 164.572M688.917 154.417V157.583M689.866 140.167H693.167V143.856" stroke="#B0AFBD" stroke-width="2.5" stroke-linecap="round" stroke-linejoin="round"/>
<path d="M434.167 146.333V140H428.5M420 155.833H422.833M445.5 155.833H448.333M438.417 154.25V157.417M429.917 154.25V157.417M425.667 146.333H442.667C444.231 146.333 445.5 147.751 445.5 149.5V162.167C445.5 163.916 444.231 165.333 442.667 165.333H425.667C424.102 165.333 422.833 163.916 422.833 162.167V149.5C422.833 147.751 424.102 146.333 425.667 146.333Z" stroke="#14D32A" stroke-width="2.5" stroke-linecap="round" stroke-linejoin="round"/>
<path d="M136.801 222.364C136.741 221.86 136.5 221.469 136.075 221.19C135.651 220.912 135.131 220.773 134.514 220.773C134.063 220.773 133.669 220.846 133.331 220.991C132.996 221.137 132.734 221.338 132.545 221.593C132.36 221.848 132.267 222.138 132.267 222.463C132.267 222.735 132.332 222.969 132.461 223.164C132.594 223.356 132.763 223.517 132.968 223.646C133.174 223.772 133.389 223.877 133.614 223.96C133.84 224.039 134.047 224.104 134.236 224.153L135.27 224.432C135.535 224.501 135.83 224.598 136.155 224.72C136.483 224.843 136.796 225.01 137.094 225.222C137.396 225.431 137.645 225.7 137.84 226.028C138.036 226.356 138.134 226.759 138.134 227.236C138.134 227.786 137.989 228.283 137.701 228.727C137.416 229.171 136.998 229.524 136.448 229.786C135.901 230.048 135.237 230.179 134.455 230.179C133.725 230.179 133.094 230.061 132.56 229.826C132.03 229.591 131.612 229.263 131.308 228.842C131.006 228.421 130.835 227.932 130.795 227.375H132.068C132.101 227.759 132.231 228.078 132.456 228.33C132.685 228.578 132.973 228.764 133.321 228.886C133.672 229.006 134.05 229.065 134.455 229.065C134.925 229.065 135.348 228.989 135.722 228.837C136.097 228.681 136.393 228.465 136.612 228.19C136.831 227.912 136.94 227.587 136.94 227.216C136.94 226.878 136.846 226.603 136.657 226.391C136.468 226.179 136.219 226.006 135.911 225.874C135.603 225.741 135.27 225.625 134.912 225.526L133.659 225.168C132.864 224.939 132.234 224.612 131.77 224.188C131.306 223.764 131.074 223.209 131.074 222.523C131.074 221.953 131.228 221.455 131.536 221.031C131.848 220.604 132.265 220.272 132.789 220.037C133.316 219.798 133.904 219.679 134.554 219.679C135.21 219.679 135.794 219.797 136.304 220.032C136.814 220.264 137.219 220.582 137.517 220.987C137.819 221.391 137.978 221.85 137.994 222.364H136.801ZM144.814 226.878V222.364H145.987V230H144.814V228.707H144.735C144.556 229.095 144.277 229.425 143.899 229.697C143.521 229.965 143.044 230.099 142.468 230.099C141.99 230.099 141.566 229.995 141.195 229.786C140.824 229.574 140.532 229.256 140.32 228.832C140.108 228.404 140.002 227.866 140.002 227.216V222.364H141.175V227.136C141.175 227.693 141.331 228.137 141.642 228.469C141.957 228.8 142.358 228.966 142.845 228.966C143.137 228.966 143.434 228.891 143.735 228.742C144.04 228.593 144.295 228.364 144.501 228.056C144.71 227.748 144.814 227.355 144.814 226.878ZM148.136 232.864V222.364H149.27V223.577H149.409C149.495 223.444 149.615 223.275 149.767 223.07C149.923 222.861 150.145 222.675 150.433 222.513C150.725 222.347 151.119 222.264 151.616 222.264C152.259 222.264 152.826 222.425 153.317 222.746C153.807 223.068 154.19 223.524 154.465 224.114C154.74 224.704 154.878 225.4 154.878 226.202C154.878 227.01 154.74 227.711 154.465 228.305C154.19 228.895 153.809 229.352 153.322 229.677C152.835 229.998 152.273 230.159 151.636 230.159C151.146 230.159 150.753 230.078 150.458 229.915C150.163 229.75 149.936 229.562 149.777 229.354C149.618 229.142 149.495 228.966 149.409 228.827H149.31V232.864H148.136ZM149.29 226.182C149.29 226.759 149.374 227.267 149.543 227.708C149.712 228.146 149.959 228.489 150.284 228.737C150.609 228.982 151.007 229.105 151.477 229.105C151.968 229.105 152.377 228.976 152.705 228.717C153.037 228.455 153.285 228.104 153.451 227.663C153.62 227.219 153.705 226.725 153.705 226.182C153.705 225.645 153.622 225.161 153.456 224.73C153.294 224.296 153.047 223.953 152.715 223.701C152.387 223.446 151.974 223.318 151.477 223.318C151 223.318 150.599 223.439 150.274 223.681C149.949 223.92 149.704 224.254 149.538 224.685C149.373 225.113 149.29 225.612 149.29 226.182ZM159.869 230.159C159.134 230.159 158.499 229.997 157.965 229.672C157.435 229.344 157.026 228.886 156.737 228.3C156.452 227.71 156.31 227.024 156.31 226.241C156.31 225.459 156.452 224.77 156.737 224.173C157.026 223.573 157.427 223.106 157.94 222.771C158.457 222.433 159.061 222.264 159.75 222.264C160.148 222.264 160.54 222.33 160.928 222.463C161.316 222.596 161.669 222.811 161.987 223.109C162.305 223.404 162.559 223.795 162.748 224.283C162.937 224.77 163.031 225.37 163.031 226.082V226.58H157.145V225.565H161.838C161.838 225.134 161.752 224.75 161.58 224.412C161.411 224.074 161.169 223.807 160.854 223.612C160.542 223.416 160.174 223.318 159.75 223.318C159.283 223.318 158.878 223.434 158.537 223.666C158.199 223.895 157.939 224.193 157.756 224.561C157.574 224.929 157.483 225.323 157.483 225.744V226.42C157.483 226.997 157.582 227.486 157.781 227.887C157.983 228.285 158.263 228.588 158.621 228.797C158.979 229.002 159.395 229.105 159.869 229.105C160.178 229.105 160.456 229.062 160.705 228.976C160.956 228.886 161.174 228.754 161.356 228.578C161.538 228.399 161.679 228.177 161.778 227.912L162.912 228.23C162.793 228.615 162.592 228.953 162.31 229.244C162.029 229.533 161.681 229.758 161.266 229.92C160.852 230.08 160.386 230.159 159.869 230.159ZM164.816 230V222.364H165.95V223.517H166.029C166.168 223.139 166.42 222.833 166.785 222.597C167.149 222.362 167.56 222.244 168.018 222.244C168.104 222.244 168.212 222.246 168.341 222.249C168.47 222.253 168.568 222.258 168.634 222.264V223.457C168.594 223.447 168.503 223.433 168.361 223.413C168.222 223.389 168.074 223.378 167.918 223.378C167.547 223.378 167.216 223.456 166.924 223.612C166.636 223.764 166.407 223.976 166.238 224.248C166.072 224.516 165.989 224.823 165.989 225.168V230H164.816ZM176.502 222.364L173.678 230H172.485L169.661 222.364H170.934L173.042 228.449H173.121L175.229 222.364H176.502ZM178.05 230V222.364H179.224V230H178.05ZM178.647 221.091C178.418 221.091 178.221 221.013 178.055 220.857C177.893 220.701 177.812 220.514 177.812 220.295C177.812 220.077 177.893 219.889 178.055 219.734C178.221 219.578 178.418 219.5 178.647 219.5C178.876 219.5 179.071 219.578 179.234 219.734C179.399 219.889 179.482 220.077 179.482 220.295C179.482 220.514 179.399 220.701 179.234 220.857C179.071 221.013 178.876 221.091 178.647 221.091ZM186.782 224.074L185.728 224.372C185.662 224.196 185.564 224.026 185.434 223.86C185.309 223.691 185.136 223.552 184.917 223.442C184.699 223.333 184.419 223.278 184.077 223.278C183.61 223.278 183.22 223.386 182.909 223.602C182.601 223.814 182.447 224.084 182.447 224.412C182.447 224.704 182.553 224.934 182.765 225.103C182.977 225.272 183.308 225.413 183.759 225.526L184.893 225.804C185.575 225.97 186.084 226.223 186.419 226.565C186.754 226.903 186.921 227.339 186.921 227.872C186.921 228.31 186.795 228.701 186.543 229.045C186.295 229.39 185.947 229.662 185.499 229.861C185.052 230.06 184.531 230.159 183.938 230.159C183.159 230.159 182.515 229.99 182.004 229.652C181.494 229.314 181.171 228.82 181.035 228.17L182.148 227.892C182.254 228.303 182.455 228.611 182.75 228.817C183.048 229.022 183.438 229.125 183.918 229.125C184.465 229.125 184.899 229.009 185.221 228.777C185.546 228.542 185.708 228.26 185.708 227.932C185.708 227.667 185.615 227.445 185.43 227.266C185.244 227.083 184.959 226.947 184.574 226.858L183.302 226.56C182.602 226.394 182.089 226.137 181.76 225.789C181.436 225.438 181.273 224.999 181.273 224.472C181.273 224.041 181.394 223.66 181.636 223.328C181.881 222.997 182.215 222.737 182.635 222.548C183.06 222.359 183.54 222.264 184.077 222.264C184.833 222.264 185.426 222.43 185.857 222.761C186.291 223.093 186.599 223.53 186.782 224.074ZM190.934 230.179C190.45 230.179 190.011 230.088 189.617 229.906C189.222 229.72 188.909 229.453 188.677 229.105C188.445 228.754 188.329 228.33 188.329 227.832C188.329 227.395 188.415 227.04 188.588 226.768C188.76 226.493 188.99 226.278 189.279 226.122C189.567 225.966 189.885 225.85 190.233 225.774C190.585 225.695 190.938 225.632 191.292 225.585C191.756 225.526 192.132 225.481 192.421 225.451C192.712 225.418 192.925 225.363 193.057 225.287C193.193 225.211 193.261 225.078 193.261 224.889V224.849C193.261 224.359 193.127 223.978 192.858 223.706C192.593 223.434 192.19 223.298 191.65 223.298C191.09 223.298 190.651 223.421 190.333 223.666C190.015 223.911 189.791 224.173 189.662 224.452L188.548 224.054C188.747 223.59 189.012 223.229 189.343 222.97C189.678 222.708 190.043 222.526 190.437 222.423C190.835 222.317 191.226 222.264 191.61 222.264C191.856 222.264 192.137 222.294 192.456 222.354C192.777 222.41 193.087 222.528 193.385 222.707C193.687 222.886 193.937 223.156 194.136 223.517C194.335 223.878 194.434 224.362 194.434 224.969V230H193.261V228.966H193.201C193.122 229.132 192.989 229.309 192.804 229.498C192.618 229.687 192.371 229.848 192.063 229.98C191.755 230.113 191.378 230.179 190.934 230.179ZM191.113 229.125C191.577 229.125 191.968 229.034 192.287 228.852C192.608 228.669 192.85 228.434 193.012 228.146C193.178 227.857 193.261 227.554 193.261 227.236V226.162C193.211 226.222 193.102 226.276 192.933 226.326C192.767 226.372 192.575 226.414 192.356 226.45C192.141 226.483 191.93 226.513 191.725 226.54C191.523 226.563 191.359 226.583 191.233 226.599C190.928 226.639 190.643 226.704 190.377 226.793C190.116 226.879 189.904 227.01 189.741 227.186C189.582 227.358 189.502 227.594 189.502 227.892C189.502 228.3 189.653 228.608 189.955 228.817C190.26 229.022 190.646 229.125 191.113 229.125ZM199.459 230.159C198.823 230.159 198.261 229.998 197.774 229.677C197.287 229.352 196.906 228.895 196.631 228.305C196.355 227.711 196.218 227.01 196.218 226.202C196.218 225.4 196.355 224.704 196.631 224.114C196.906 223.524 197.288 223.068 197.779 222.746C198.269 222.425 198.836 222.264 199.479 222.264C199.976 222.264 200.369 222.347 200.657 222.513C200.949 222.675 201.171 222.861 201.324 223.07C201.479 223.275 201.6 223.444 201.687 223.577H201.786V219.818H202.959V230H201.826V228.827H201.687C201.6 228.966 201.478 229.142 201.319 229.354C201.16 229.562 200.933 229.75 200.638 229.915C200.343 230.078 199.95 230.159 199.459 230.159ZM199.618 229.105C200.089 229.105 200.487 228.982 200.812 228.737C201.136 228.489 201.383 228.146 201.552 227.708C201.721 227.267 201.806 226.759 201.806 226.182C201.806 225.612 201.723 225.113 201.557 224.685C201.392 224.254 201.146 223.92 200.822 223.681C200.497 223.439 200.096 223.318 199.618 223.318C199.121 223.318 198.707 223.446 198.376 223.701C198.047 223.953 197.8 224.296 197.635 224.73C197.472 225.161 197.391 225.645 197.391 226.182C197.391 226.725 197.474 227.219 197.64 227.663C197.809 228.104 198.057 228.455 198.385 228.717C198.717 228.976 199.128 229.105 199.618 229.105ZM208.373 230.159C207.684 230.159 207.079 229.995 206.559 229.667C206.042 229.339 205.637 228.88 205.346 228.29C205.057 227.7 204.913 227.01 204.913 226.222C204.913 225.426 205.057 224.732 205.346 224.138C205.637 223.545 206.042 223.085 206.559 222.756C207.079 222.428 207.684 222.264 208.373 222.264C209.063 222.264 209.666 222.428 210.183 222.756C210.703 223.085 211.108 223.545 211.396 224.138C211.688 224.732 211.834 225.426 211.834 226.222C211.834 227.01 211.688 227.7 211.396 228.29C211.108 228.88 210.703 229.339 210.183 229.667C209.666 229.995 209.063 230.159 208.373 230.159ZM208.373 229.105C208.897 229.105 209.328 228.971 209.666 228.702C210.004 228.434 210.254 228.081 210.417 227.643C210.579 227.206 210.66 226.732 210.66 226.222C210.66 225.711 210.579 225.236 210.417 224.795C210.254 224.354 210.004 223.998 209.666 223.726C209.328 223.454 208.897 223.318 208.373 223.318C207.85 223.318 207.419 223.454 207.081 223.726C206.743 223.998 206.492 224.354 206.33 224.795C206.168 225.236 206.086 225.711 206.086 226.222C206.086 226.732 206.168 227.206 206.33 227.643C206.492 228.081 206.743 228.434 207.081 228.702C207.419 228.971 207.85 229.105 208.373 229.105Z" fill="#FEFEFF"/>
<path d="M397.651 239H396.358L400.097 228.818H401.369L405.108 239H403.815L400.773 230.429H400.693L397.651 239ZM398.128 235.023H403.338V236.116H398.128V235.023ZM411.347 235.878V231.364H412.521V239H411.347V237.707H411.268C411.089 238.095 410.81 238.425 410.433 238.697C410.055 238.965 409.577 239.099 409.001 239.099C408.523 239.099 408.099 238.995 407.728 238.786C407.357 238.574 407.065 238.256 406.853 237.832C406.641 237.404 406.535 236.866 406.535 236.216V231.364H407.708V236.136C407.708 236.693 407.864 237.137 408.175 237.469C408.49 237.8 408.891 237.966 409.379 237.966C409.67 237.966 409.967 237.891 410.268 237.742C410.573 237.593 410.829 237.364 411.034 237.056C411.243 236.748 411.347 236.355 411.347 235.878ZM417.991 231.364V232.358H414.033V231.364H417.991ZM415.187 229.534H416.36V236.812C416.36 237.144 416.408 237.393 416.504 237.558C416.604 237.721 416.729 237.83 416.882 237.886C417.038 237.939 417.202 237.966 417.374 237.966C417.503 237.966 417.609 237.959 417.692 237.946C417.775 237.929 417.841 237.916 417.891 237.906L418.13 238.96C418.05 238.99 417.939 239.02 417.797 239.05C417.654 239.083 417.474 239.099 417.255 239.099C416.923 239.099 416.599 239.028 416.28 238.886C415.965 238.743 415.704 238.526 415.495 238.234C415.289 237.943 415.187 237.575 415.187 237.131V229.534ZM422.776 239.159C422.086 239.159 421.481 238.995 420.961 238.667C420.444 238.339 420.04 237.88 419.748 237.29C419.46 236.7 419.316 236.01 419.316 235.222C419.316 234.426 419.46 233.732 419.748 233.138C420.04 232.545 420.444 232.085 420.961 231.756C421.481 231.428 422.086 231.264 422.776 231.264C423.465 231.264 424.068 231.428 424.585 231.756C425.106 232.085 425.51 232.545 425.798 233.138C426.09 233.732 426.236 234.426 426.236 235.222C426.236 236.01 426.09 236.7 425.798 237.29C425.51 237.88 425.106 238.339 424.585 238.667C424.068 238.995 423.465 239.159 422.776 239.159ZM422.776 238.105C423.299 238.105 423.73 237.971 424.068 237.702C424.406 237.434 424.657 237.081 424.819 236.643C424.981 236.206 425.063 235.732 425.063 235.222C425.063 234.711 424.981 234.236 424.819 233.795C424.657 233.354 424.406 232.998 424.068 232.726C423.73 232.454 423.299 232.318 422.776 232.318C422.252 232.318 421.821 232.454 421.483 232.726C421.145 232.998 420.895 233.354 420.732 233.795C420.57 234.236 420.489 234.711 420.489 235.222C420.489 235.732 420.57 236.206 420.732 236.643C420.895 237.081 421.145 237.434 421.483 237.702C421.821 237.971 422.252 238.105 422.776 238.105ZM428.027 239V231.364H429.161V232.557H429.26C429.419 232.149 429.676 231.833 430.031 231.607C430.385 231.379 430.811 231.264 431.308 231.264C431.812 231.264 432.231 231.379 432.566 231.607C432.904 231.833 433.168 232.149 433.357 232.557H433.436C433.632 232.162 433.925 231.849 434.316 231.617C434.707 231.382 435.176 231.264 435.723 231.264C436.406 231.264 436.964 231.478 437.398 231.906C437.833 232.33 438.05 232.991 438.05 233.889V239H436.876V233.889C436.876 233.326 436.722 232.923 436.414 232.681C436.106 232.439 435.743 232.318 435.325 232.318C434.788 232.318 434.372 232.481 434.077 232.805C433.782 233.127 433.635 233.535 433.635 234.028V239H432.442V233.77C432.442 233.336 432.301 232.986 432.019 232.721C431.737 232.452 431.375 232.318 430.93 232.318C430.625 232.318 430.34 232.399 430.075 232.562C429.813 232.724 429.601 232.95 429.439 233.238C429.28 233.523 429.2 233.853 429.2 234.227V239H428.027ZM442.442 239.179C441.958 239.179 441.519 239.088 441.125 238.906C440.73 238.72 440.417 238.453 440.185 238.105C439.953 237.754 439.837 237.33 439.837 236.832C439.837 236.395 439.923 236.04 440.096 235.768C440.268 235.493 440.498 235.278 440.787 235.122C441.075 234.966 441.393 234.85 441.741 234.774C442.092 234.695 442.445 234.632 442.8 234.585C443.264 234.526 443.64 234.481 443.929 234.451C444.22 234.418 444.432 234.363 444.565 234.287C444.701 234.211 444.769 234.078 444.769 233.889V233.849C444.769 233.359 444.635 232.978 444.366 232.706C444.101 232.434 443.698 232.298 443.158 232.298C442.598 232.298 442.159 232.421 441.841 232.666C441.522 232.911 441.299 233.173 441.169 233.452L440.056 233.054C440.255 232.59 440.52 232.229 440.851 231.97C441.186 231.708 441.551 231.526 441.945 231.423C442.343 231.317 442.734 231.264 443.118 231.264C443.364 231.264 443.645 231.294 443.963 231.354C444.285 231.41 444.595 231.528 444.893 231.707C445.195 231.886 445.445 232.156 445.644 232.517C445.843 232.878 445.942 233.362 445.942 233.969V239H444.769V237.966H444.709C444.63 238.132 444.497 238.309 444.311 238.498C444.126 238.687 443.879 238.848 443.571 238.98C443.262 239.113 442.886 239.179 442.442 239.179ZM442.621 238.125C443.085 238.125 443.476 238.034 443.794 237.852C444.116 237.669 444.358 237.434 444.52 237.146C444.686 236.857 444.769 236.554 444.769 236.236V235.162C444.719 235.222 444.61 235.276 444.441 235.326C444.275 235.372 444.083 235.414 443.864 235.45C443.649 235.483 443.438 235.513 443.233 235.54C443.03 235.563 442.866 235.583 442.74 235.599C442.435 235.639 442.15 235.704 441.885 235.793C441.623 235.879 441.411 236.01 441.249 236.186C441.09 236.358 441.01 236.594 441.01 236.892C441.01 237.3 441.161 237.608 441.463 237.817C441.768 238.022 442.154 238.125 442.621 238.125ZM442.661 230.33L443.874 228.023H445.246L443.695 230.33H442.661ZM451.405 231.364V232.358H447.447V231.364H451.405ZM448.601 229.534H449.774V236.812C449.774 237.144 449.822 237.393 449.918 237.558C450.018 237.721 450.144 237.83 450.296 237.886C450.452 237.939 450.616 237.966 450.788 237.966C450.917 237.966 451.023 237.959 451.106 237.946C451.189 237.929 451.256 237.916 451.305 237.906L451.544 238.96C451.464 238.99 451.353 239.02 451.211 239.05C451.068 239.083 450.888 239.099 450.669 239.099C450.337 239.099 450.013 239.028 449.694 238.886C449.38 238.743 449.118 238.526 448.909 238.234C448.703 237.943 448.601 237.575 448.601 237.131V229.534ZM453.17 239V231.364H454.343V239H453.17ZM453.766 230.091C453.537 230.091 453.34 230.013 453.175 229.857C453.012 229.701 452.931 229.514 452.931 229.295C452.931 229.077 453.012 228.889 453.175 228.734C453.34 228.578 453.537 228.5 453.766 228.5C453.995 228.5 454.19 228.578 454.353 228.734C454.519 228.889 454.601 229.077 454.601 229.295C454.601 229.514 454.519 229.701 454.353 229.857C454.19 230.013 453.995 230.091 453.766 230.091ZM459.594 239.159C458.878 239.159 458.262 238.99 457.745 238.652C457.228 238.314 456.83 237.848 456.551 237.255C456.273 236.662 456.134 235.984 456.134 235.222C456.134 234.446 456.276 233.762 456.561 233.168C456.85 232.572 457.251 232.106 457.765 231.771C458.282 231.433 458.885 231.264 459.574 231.264C460.111 231.264 460.595 231.364 461.026 231.562C461.457 231.761 461.81 232.04 462.085 232.398C462.36 232.756 462.531 233.173 462.597 233.651H461.424C461.334 233.303 461.135 232.994 460.827 232.726C460.522 232.454 460.111 232.318 459.594 232.318C459.137 232.318 458.736 232.437 458.391 232.676C458.05 232.911 457.783 233.245 457.591 233.675C457.402 234.103 457.307 234.605 457.307 235.182C457.307 235.772 457.4 236.286 457.586 236.723C457.775 237.161 458.04 237.5 458.381 237.742C458.726 237.984 459.13 238.105 459.594 238.105C459.899 238.105 460.176 238.052 460.424 237.946C460.673 237.84 460.883 237.688 461.056 237.489C461.228 237.29 461.351 237.051 461.424 236.773H462.597C462.531 237.223 462.367 237.629 462.105 237.991C461.846 238.349 461.503 238.634 461.076 238.846C460.651 239.055 460.158 239.159 459.594 239.159ZM467.414 239.159C466.725 239.159 466.12 238.995 465.6 238.667C465.083 238.339 464.678 237.88 464.387 237.29C464.098 236.7 463.954 236.01 463.954 235.222C463.954 234.426 464.098 233.732 464.387 233.138C464.678 232.545 465.083 232.085 465.6 231.756C466.12 231.428 466.725 231.264 467.414 231.264C468.104 231.264 468.707 231.428 469.224 231.756C469.744 232.085 470.149 232.545 470.437 233.138C470.729 233.732 470.875 234.426 470.875 235.222C470.875 236.01 470.729 236.7 470.437 237.29C470.149 237.88 469.744 238.339 469.224 238.667C468.707 238.995 468.104 239.159 467.414 239.159ZM467.414 238.105C467.938 238.105 468.369 237.971 468.707 237.702C469.045 237.434 469.295 237.081 469.458 236.643C469.62 236.206 469.701 235.732 469.701 235.222C469.701 234.711 469.62 234.236 469.458 233.795C469.295 233.354 469.045 232.998 468.707 232.726C468.369 232.454 467.938 232.318 467.414 232.318C466.891 232.318 466.46 232.454 466.122 232.726C465.784 232.998 465.533 233.354 465.371 233.795C465.209 234.236 465.127 234.711 465.127 235.222C465.127 235.732 465.209 236.206 465.371 236.643C465.533 237.081 465.784 237.434 466.122 237.702C466.46 237.971 466.891 238.105 467.414 238.105Z" fill="#FEFEFF"/>
<path d="M656.375 235H653.233V224.818H656.514C657.502 224.818 658.347 225.022 659.05 225.43C659.752 225.834 660.291 226.416 660.665 227.175C661.04 227.93 661.227 228.835 661.227 229.889C661.227 230.95 661.038 231.863 660.661 232.629C660.283 233.391 659.732 233.978 659.01 234.388C658.287 234.796 657.409 235 656.375 235ZM654.466 233.906H656.295C657.137 233.906 657.835 233.744 658.388 233.419C658.942 233.094 659.355 232.632 659.626 232.032C659.898 231.432 660.034 230.718 660.034 229.889C660.034 229.067 659.9 228.36 659.631 227.766C659.363 227.17 658.962 226.712 658.428 226.394C657.895 226.073 657.23 225.912 656.435 225.912H654.466V233.906ZM666.338 235.159C665.602 235.159 664.968 234.997 664.434 234.672C663.904 234.344 663.494 233.886 663.206 233.3C662.921 232.71 662.778 232.024 662.778 231.241C662.778 230.459 662.921 229.77 663.206 229.173C663.494 228.573 663.895 228.106 664.409 227.771C664.926 227.433 665.529 227.264 666.219 227.264C666.616 227.264 667.009 227.33 667.397 227.463C667.785 227.596 668.138 227.811 668.456 228.109C668.774 228.404 669.028 228.795 669.217 229.283C669.406 229.77 669.5 230.37 669.5 231.082V231.58H663.614V230.565H668.307C668.307 230.134 668.221 229.75 668.048 229.412C667.879 229.074 667.637 228.807 667.322 228.612C667.011 228.416 666.643 228.318 666.219 228.318C665.751 228.318 665.347 228.434 665.006 228.666C664.668 228.895 664.407 229.193 664.225 229.561C664.043 229.929 663.952 230.323 663.952 230.744V231.42C663.952 231.997 664.051 232.486 664.25 232.887C664.452 233.285 664.732 233.588 665.09 233.797C665.448 234.002 665.864 234.105 666.338 234.105C666.646 234.105 666.925 234.062 667.173 233.976C667.425 233.886 667.642 233.754 667.825 233.578C668.007 233.399 668.148 233.177 668.247 232.912L669.381 233.23C669.261 233.615 669.061 233.953 668.779 234.244C668.497 234.533 668.149 234.758 667.735 234.92C667.321 235.08 666.855 235.159 666.338 235.159ZM676.694 229.074L675.64 229.372C675.574 229.196 675.476 229.026 675.347 228.86C675.221 228.691 675.048 228.552 674.83 228.442C674.611 228.333 674.331 228.278 673.989 228.278C673.522 228.278 673.133 228.386 672.821 228.602C672.513 228.814 672.359 229.084 672.359 229.412C672.359 229.704 672.465 229.934 672.677 230.103C672.889 230.272 673.22 230.413 673.671 230.526L674.805 230.804C675.487 230.97 675.996 231.223 676.331 231.565C676.666 231.903 676.833 232.339 676.833 232.872C676.833 233.31 676.707 233.701 676.455 234.045C676.207 234.39 675.859 234.662 675.411 234.861C674.964 235.06 674.443 235.159 673.85 235.159C673.071 235.159 672.427 234.99 671.916 234.652C671.406 234.314 671.083 233.82 670.947 233.17L672.06 232.892C672.166 233.303 672.367 233.611 672.662 233.817C672.96 234.022 673.35 234.125 673.83 234.125C674.377 234.125 674.811 234.009 675.133 233.777C675.458 233.542 675.62 233.26 675.62 232.932C675.62 232.667 675.527 232.445 675.342 232.266C675.156 232.083 674.871 231.947 674.487 231.858L673.214 231.56C672.514 231.394 672.001 231.137 671.673 230.789C671.348 230.438 671.185 229.999 671.185 229.472C671.185 229.041 671.306 228.66 671.548 228.328C671.794 227.997 672.127 227.737 672.548 227.548C672.972 227.359 673.452 227.264 673.989 227.264C674.745 227.264 675.338 227.43 675.769 227.761C676.203 228.093 676.512 228.53 676.694 229.074ZM680.846 235.179C680.363 235.179 679.923 235.088 679.529 234.906C679.135 234.72 678.821 234.453 678.589 234.105C678.357 233.754 678.241 233.33 678.241 232.832C678.241 232.395 678.327 232.04 678.5 231.768C678.672 231.493 678.903 231.278 679.191 231.122C679.479 230.966 679.797 230.85 680.145 230.774C680.497 230.695 680.85 230.632 681.204 230.585C681.668 230.526 682.045 230.481 682.333 230.451C682.625 230.418 682.837 230.363 682.969 230.287C683.105 230.211 683.173 230.078 683.173 229.889V229.849C683.173 229.359 683.039 228.978 682.77 228.706C682.505 228.434 682.103 228.298 681.562 228.298C681.002 228.298 680.563 228.421 680.245 228.666C679.927 228.911 679.703 229.173 679.574 229.452L678.46 229.054C678.659 228.59 678.924 228.229 679.256 227.97C679.59 227.708 679.955 227.526 680.349 227.423C680.747 227.317 681.138 227.264 681.523 227.264C681.768 227.264 682.05 227.294 682.368 227.354C682.689 227.41 682.999 227.528 683.297 227.707C683.599 227.886 683.849 228.156 684.048 228.517C684.247 228.878 684.346 229.362 684.346 229.969V235H683.173V233.966H683.113C683.034 234.132 682.901 234.309 682.716 234.498C682.53 234.687 682.283 234.848 681.975 234.98C681.667 235.113 681.291 235.179 680.846 235.179ZM681.025 234.125C681.489 234.125 681.881 234.034 682.199 233.852C682.52 233.669 682.762 233.434 682.925 233.146C683.09 232.857 683.173 232.554 683.173 232.236V231.162C683.123 231.222 683.014 231.276 682.845 231.326C682.679 231.372 682.487 231.414 682.268 231.45C682.053 231.483 681.842 231.513 681.637 231.54C681.435 231.563 681.271 231.583 681.145 231.599C680.84 231.639 680.555 231.704 680.29 231.793C680.028 231.879 679.816 232.01 679.653 232.186C679.494 232.358 679.415 232.594 679.415 232.892C679.415 233.3 679.565 233.608 679.867 233.817C680.172 234.022 680.558 234.125 681.025 234.125ZM689.59 235.159C688.874 235.159 688.258 234.99 687.741 234.652C687.224 234.314 686.826 233.848 686.548 233.255C686.269 232.662 686.13 231.984 686.13 231.222C686.13 230.446 686.272 229.762 686.558 229.168C686.846 228.572 687.247 228.106 687.761 227.771C688.278 227.433 688.881 227.264 689.57 227.264C690.107 227.264 690.591 227.364 691.022 227.562C691.453 227.761 691.806 228.04 692.081 228.398C692.356 228.756 692.527 229.173 692.593 229.651H691.42C691.33 229.303 691.131 228.994 690.823 228.726C690.518 228.454 690.107 228.318 689.59 228.318C689.133 228.318 688.732 228.437 688.387 228.676C688.046 228.911 687.779 229.245 687.587 229.675C687.398 230.103 687.303 230.605 687.303 231.182C687.303 231.772 687.396 232.286 687.582 232.723C687.771 233.161 688.036 233.5 688.377 233.742C688.722 233.984 689.126 234.105 689.59 234.105C689.895 234.105 690.172 234.052 690.42 233.946C690.669 233.84 690.879 233.688 691.052 233.489C691.224 233.29 691.347 233.051 691.42 232.773H692.593C692.527 233.223 692.363 233.629 692.101 233.991C691.842 234.349 691.499 234.634 691.072 234.846C690.647 235.055 690.154 235.159 689.59 235.159ZM697.629 227.364V228.358H693.672V227.364H697.629ZM694.825 225.534H695.999V232.812C695.999 233.144 696.047 233.393 696.143 233.558C696.242 233.721 696.368 233.83 696.521 233.886C696.676 233.939 696.84 233.966 697.013 233.966C697.142 233.966 697.248 233.959 697.331 233.946C697.414 233.929 697.48 233.916 697.53 233.906L697.768 234.96C697.689 234.99 697.578 235.02 697.435 235.05C697.293 235.083 697.112 235.099 696.893 235.099C696.562 235.099 696.237 235.028 695.919 234.886C695.604 234.743 695.342 234.526 695.134 234.234C694.928 233.943 694.825 233.575 694.825 233.131V225.534ZM699.394 235V227.364H700.567V235H699.394ZM699.991 226.091C699.762 226.091 699.565 226.013 699.399 225.857C699.237 225.701 699.156 225.514 699.156 225.295C699.156 225.077 699.237 224.889 699.399 224.734C699.565 224.578 699.762 224.5 699.991 224.5C700.219 224.5 700.415 224.578 700.577 224.734C700.743 224.889 700.826 225.077 700.826 225.295C700.826 225.514 700.743 225.701 700.577 225.857C700.415 226.013 700.219 226.091 699.991 226.091ZM708.961 227.364L706.137 235H704.944L702.12 227.364H703.393L705.501 233.449H705.58L707.688 227.364H708.961ZM712.524 235.179C712.04 235.179 711.601 235.088 711.207 234.906C710.812 234.72 710.499 234.453 710.267 234.105C710.035 233.754 709.919 233.33 709.919 232.832C709.919 232.395 710.005 232.04 710.178 231.768C710.35 231.493 710.58 231.278 710.869 231.122C711.157 230.966 711.475 230.85 711.823 230.774C712.174 230.695 712.527 230.632 712.882 230.585C713.346 230.526 713.722 230.481 714.011 230.451C714.302 230.418 714.514 230.363 714.647 230.287C714.783 230.211 714.851 230.078 714.851 229.889V229.849C714.851 229.359 714.717 228.978 714.448 228.706C714.183 228.434 713.78 228.298 713.24 228.298C712.68 228.298 712.241 228.421 711.923 228.666C711.604 228.911 711.381 229.173 711.251 229.452L710.138 229.054C710.337 228.59 710.602 228.229 710.933 227.97C711.268 227.708 711.633 227.526 712.027 227.423C712.425 227.317 712.816 227.264 713.2 227.264C713.446 227.264 713.727 227.294 714.045 227.354C714.367 227.41 714.677 227.528 714.975 227.707C715.277 227.886 715.527 228.156 715.726 228.517C715.925 228.878 716.024 229.362 716.024 229.969V235H714.851V233.966H714.791C714.712 234.132 714.579 234.309 714.393 234.498C714.208 234.687 713.961 234.848 713.653 234.98C713.344 235.113 712.968 235.179 712.524 235.179ZM712.703 234.125C713.167 234.125 713.558 234.034 713.876 233.852C714.198 233.669 714.44 233.434 714.602 233.146C714.768 232.857 714.851 232.554 714.851 232.236V231.162C714.801 231.222 714.692 231.276 714.523 231.326C714.357 231.372 714.165 231.414 713.946 231.45C713.731 231.483 713.52 231.513 713.315 231.54C713.112 231.563 712.948 231.583 712.822 231.599C712.518 231.639 712.232 231.704 711.967 231.793C711.705 231.879 711.493 232.01 711.331 232.186C711.172 232.358 711.092 232.594 711.092 232.892C711.092 233.3 711.243 233.608 711.545 233.817C711.85 234.022 712.236 234.125 712.703 234.125ZM721.049 235.159C720.413 235.159 719.851 234.998 719.364 234.677C718.877 234.352 718.495 233.895 718.22 233.305C717.945 232.711 717.808 232.01 717.808 231.202C717.808 230.4 717.945 229.704 718.22 229.114C718.495 228.524 718.878 228.068 719.369 227.746C719.859 227.425 720.426 227.264 721.069 227.264C721.566 227.264 721.959 227.347 722.247 227.513C722.539 227.675 722.761 227.861 722.914 228.07C723.069 228.275 723.19 228.444 723.276 228.577H723.376V224.818H724.549V235H723.416V233.827H723.276C723.19 233.966 723.068 234.142 722.909 234.354C722.749 234.562 722.522 234.75 722.227 234.915C721.932 235.078 721.54 235.159 721.049 235.159ZM721.208 234.105C721.679 234.105 722.077 233.982 722.401 233.737C722.726 233.489 722.973 233.146 723.142 232.708C723.311 232.267 723.396 231.759 723.396 231.182C723.396 230.612 723.313 230.113 723.147 229.685C722.981 229.254 722.736 228.92 722.411 228.681C722.087 228.439 721.686 228.318 721.208 228.318C720.711 228.318 720.297 228.446 719.965 228.701C719.637 228.953 719.39 229.296 719.225 229.73C719.062 230.161 718.981 230.645 718.981 231.182C718.981 231.725 719.064 232.219 719.23 232.663C719.399 233.104 719.647 233.455 719.975 233.717C720.307 233.976 720.718 234.105 721.208 234.105ZM729.963 235.159C729.274 235.159 728.669 234.995 728.149 234.667C727.632 234.339 727.227 233.88 726.936 233.29C726.647 232.7 726.503 232.01 726.503 231.222C726.503 230.426 726.647 229.732 726.936 229.138C727.227 228.545 727.632 228.085 728.149 227.756C728.669 227.428 729.274 227.264 729.963 227.264C730.653 227.264 731.256 227.428 731.773 227.756C732.293 228.085 732.698 228.545 732.986 229.138C733.278 229.732 733.423 230.426 733.423 231.222C733.423 232.01 733.278 232.7 732.986 233.29C732.698 233.88 732.293 234.339 731.773 234.667C731.256 234.995 730.653 235.159 729.963 235.159ZM729.963 234.105C730.487 234.105 730.918 233.971 731.256 233.702C731.594 233.434 731.844 233.081 732.007 232.643C732.169 232.206 732.25 231.732 732.25 231.222C732.25 230.711 732.169 230.236 732.007 229.795C731.844 229.354 731.594 228.998 731.256 228.726C730.918 228.454 730.487 228.318 729.963 228.318C729.44 228.318 729.009 228.454 728.671 228.726C728.333 228.998 728.082 229.354 727.92 229.795C727.758 230.236 727.676 230.711 727.676 231.222C727.676 231.732 727.758 232.206 727.92 232.643C728.082 233.081 728.333 233.434 728.671 233.702C729.009 233.971 729.44 234.105 729.963 234.105Z" fill="#FEFEFF"/>
<rect x="119.5" y="103.5" width="103" height="99" rx="15.5" fill="#0D0D0D" stroke="#B0AFBD"/>
<path d="M171.167 144.333V138H165.5M175.417 152.25V155.417M157 153.833H159.833M182.5 153.833H185.333M166.917 152.25V155.417M182.5 160.167C182.5 161.007 182.201 161.812 181.67 162.406C181.139 163 180.418 163.333 179.667 163.333H166.673C165.922 163.334 165.201 163.667 164.67 164.261L161.55 167.748C161.41 167.905 161.23 168.012 161.035 168.055C160.84 168.099 160.638 168.076 160.454 167.991C160.27 167.906 160.113 167.762 160.003 167.577C159.892 167.392 159.833 167.175 159.833 166.953V147.5C159.833 146.66 160.132 145.855 160.663 145.261C161.195 144.667 161.915 144.333 162.667 144.333H179.667C180.418 144.333 181.139 144.667 181.67 145.261C182.201 145.855 182.5 146.66 182.5 147.5V160.167Z" stroke="#FF9500" stroke-width="2.5" stroke-linecap="round" stroke-linejoin="round"/>
<path d="M740.869 17.3828H738.691C738.651 17.1011 738.57 16.8509 738.447 16.6321C738.325 16.41 738.167 16.2211 737.975 16.0653C737.783 15.9096 737.561 15.7902 737.309 15.7074C737.06 15.6245 736.79 15.5831 736.499 15.5831C735.972 15.5831 735.513 15.714 735.121 15.9759C734.73 16.2344 734.427 16.6122 734.212 17.1094C733.996 17.6032 733.888 18.2031 733.888 18.9091C733.888 19.6349 733.996 20.2448 734.212 20.7386C734.43 21.2325 734.735 21.6054 735.126 21.8572C735.518 22.1091 735.97 22.2351 736.484 22.2351C736.772 22.2351 737.039 22.197 737.284 22.1207C737.533 22.0445 737.753 21.9335 737.945 21.7876C738.138 21.6385 738.297 21.4579 738.423 21.2457C738.552 21.0336 738.641 20.7917 738.691 20.5199L740.869 20.5298C740.812 20.9972 740.671 21.4479 740.446 21.8821C740.224 22.313 739.924 22.6991 739.546 23.0405C739.172 23.3786 738.724 23.647 738.204 23.8459C737.687 24.0414 737.102 24.1392 736.449 24.1392C735.541 24.1392 734.729 23.9337 734.013 23.5227C733.3 23.1117 732.737 22.5168 732.322 21.7379C731.911 20.959 731.706 20.0161 731.706 18.9091C731.706 17.7988 731.915 16.8542 732.332 16.0753C732.75 15.2964 733.317 14.7031 734.033 14.2955C734.749 13.8845 735.554 13.679 736.449 13.679C737.039 13.679 737.586 13.7618 738.089 13.9276C738.597 14.0933 739.046 14.3352 739.437 14.6534C739.828 14.9683 740.146 15.3544 740.391 15.8118C740.64 16.2692 740.799 16.7929 740.869 17.3828ZM742.373 24V16.3636H744.426V17.696H744.505C744.645 17.2221 744.878 16.8641 745.206 16.6222C745.534 16.3769 745.912 16.2543 746.34 16.2543C746.446 16.2543 746.56 16.2609 746.683 16.2741C746.806 16.2874 746.913 16.3056 747.006 16.3288V18.2081C746.907 18.1783 746.769 18.1518 746.593 18.1286C746.418 18.1054 746.257 18.0938 746.111 18.0938C745.8 18.0938 745.521 18.1617 745.276 18.2976C745.034 18.4302 744.842 18.6158 744.699 18.8544C744.56 19.093 744.49 19.3681 744.49 19.6797V24H742.373ZM751.226 24.1491C750.44 24.1491 749.764 23.9901 749.197 23.6719C748.634 23.3504 748.2 22.8963 747.895 22.3097C747.59 21.7197 747.437 21.022 747.437 20.2166C747.437 19.4311 747.59 18.7417 747.895 18.1484C748.2 17.5552 748.629 17.0928 749.182 16.7614C749.739 16.4299 750.392 16.2642 751.141 16.2642C751.645 16.2642 752.114 16.3454 752.548 16.5078C752.986 16.6669 753.367 16.9072 753.692 17.2287C754.02 17.5502 754.275 17.9545 754.457 18.4418C754.64 18.9257 754.731 19.4924 754.731 20.142V20.7237H748.282V19.4112H752.737C752.737 19.1063 752.671 18.8362 752.538 18.6009C752.406 18.3655 752.222 18.1816 751.986 18.049C751.754 17.9131 751.484 17.8452 751.176 17.8452C750.854 17.8452 750.569 17.9197 750.321 18.0689C750.076 18.2147 749.883 18.4119 749.744 18.6605C749.605 18.9058 749.534 19.1792 749.53 19.4808V20.7287C749.53 21.1065 749.6 21.433 749.739 21.7081C749.882 21.9832 750.082 22.1953 750.341 22.3445C750.599 22.4936 750.906 22.5682 751.26 22.5682C751.496 22.5682 751.711 22.535 751.907 22.4688C752.102 22.4025 752.27 22.303 752.409 22.1705C752.548 22.0379 752.654 21.8755 752.727 21.6832L754.686 21.8125C754.586 22.2831 754.383 22.6941 754.074 23.0455C753.769 23.3935 753.375 23.6652 752.891 23.8608C752.411 24.053 751.855 24.1491 751.226 24.1491ZM750.331 15.3793L751.385 13.1172H753.344L751.827 15.3793H750.331ZM758.927 24.1243C758.347 24.1243 757.821 23.9751 757.351 23.6768C756.883 23.3752 756.512 22.9328 756.237 22.3494C755.965 21.7628 755.829 21.0436 755.829 20.1918C755.829 19.3168 755.97 18.5893 756.252 18.0092C756.534 17.4259 756.908 16.9901 757.376 16.7017C757.846 16.41 758.362 16.2642 758.922 16.2642C759.349 16.2642 759.706 16.3371 759.991 16.483C760.279 16.6255 760.511 16.8045 760.687 17.0199C760.866 17.232 761.001 17.4408 761.094 17.6463H761.159V13.8182H763.272V24H761.184V22.777H761.094C760.995 22.9891 760.854 23.1996 760.672 23.4084C760.493 23.6139 760.259 23.7846 759.971 23.9205C759.686 24.0563 759.338 24.1243 758.927 24.1243ZM759.598 22.4389C759.939 22.4389 760.228 22.3461 760.463 22.1605C760.702 21.9716 760.884 21.7081 761.01 21.37C761.139 21.032 761.204 20.6359 761.204 20.1818C761.204 19.7277 761.141 19.3333 761.015 18.9986C760.889 18.6638 760.706 18.4053 760.468 18.223C760.229 18.0407 759.939 17.9496 759.598 17.9496C759.25 17.9496 758.956 18.044 758.718 18.233C758.479 18.4219 758.299 18.6837 758.176 19.0185C758.053 19.3532 757.992 19.741 757.992 20.1818C757.992 20.6259 758.053 21.0187 758.176 21.3601C758.302 21.6982 758.483 21.9633 758.718 22.1555C758.956 22.3445 759.25 22.4389 759.598 22.4389ZM765.013 24V16.3636H767.131V24H765.013ZM766.077 15.3793C765.762 15.3793 765.492 15.2749 765.267 15.0661C765.045 14.8539 764.934 14.6004 764.934 14.3054C764.934 14.0137 765.045 13.7635 765.267 13.5547C765.492 13.3426 765.762 13.2365 766.077 13.2365C766.392 13.2365 766.66 13.3426 766.882 13.5547C767.108 13.7635 767.221 14.0137 767.221 14.3054C767.221 14.6004 767.108 14.8539 766.882 15.0661C766.66 15.2749 766.392 15.3793 766.077 15.3793ZM772.889 16.3636V17.9545H768.291V16.3636H772.889ZM769.335 14.5341H771.453V21.6534C771.453 21.849 771.482 22.0014 771.542 22.1108C771.602 22.2169 771.685 22.2914 771.791 22.3345C771.9 22.3776 772.026 22.3991 772.169 22.3991C772.268 22.3991 772.367 22.3909 772.467 22.3743C772.566 22.3544 772.642 22.3395 772.695 22.3295L773.029 23.9055C772.923 23.9387 772.773 23.9768 772.581 24.0199C772.389 24.0663 772.155 24.0945 771.88 24.1044C771.37 24.1243 770.922 24.0563 770.538 23.9006C770.157 23.7448 769.86 23.5028 769.648 23.1747C769.436 22.8466 769.331 22.4323 769.335 21.9318V14.5341ZM777.637 24.1491C776.865 24.1491 776.197 23.9851 775.634 23.657C775.074 23.3255 774.641 22.8648 774.336 22.2749C774.031 21.6816 773.879 20.9938 773.879 20.2116C773.879 19.4228 774.031 18.7334 774.336 18.1435C774.641 17.5502 775.074 17.0895 775.634 16.7614C776.197 16.4299 776.865 16.2642 777.637 16.2642C778.41 16.2642 779.076 16.4299 779.636 16.7614C780.199 17.0895 780.633 17.5502 780.938 18.1435C781.243 18.7334 781.396 19.4228 781.396 20.2116C781.396 20.9938 781.243 21.6816 780.938 22.2749C780.633 22.8648 780.199 23.3255 779.636 23.657C779.076 23.9851 778.41 24.1491 777.637 24.1491ZM777.647 22.5085C777.999 22.5085 778.292 22.4091 778.527 22.2102C778.762 22.008 778.94 21.733 779.059 21.3849C779.182 21.0369 779.243 20.6409 779.243 20.1967C779.243 19.7526 779.182 19.3565 779.059 19.0085C778.94 18.6605 778.762 18.3854 778.527 18.1832C778.292 17.9811 777.999 17.88 777.647 17.88C777.293 17.88 776.994 17.9811 776.752 18.1832C776.514 18.3854 776.333 18.6605 776.21 19.0085C776.091 19.3565 776.031 19.7526 776.031 20.1967C776.031 20.6409 776.091 21.0369 776.21 21.3849C776.333 21.733 776.514 22.008 776.752 22.2102C776.994 22.4091 777.293 22.5085 777.647 22.5085ZM789.127 18.5412L787.188 18.6605C787.155 18.4948 787.083 18.3456 786.974 18.2131C786.865 18.0772 786.72 17.9695 786.541 17.8899C786.366 17.8071 786.155 17.7656 785.91 17.7656C785.582 17.7656 785.305 17.8352 785.08 17.9744C784.854 18.1103 784.742 18.2926 784.742 18.5213C784.742 18.7036 784.815 18.8577 784.96 18.9837C785.106 19.1096 785.356 19.2107 785.711 19.2869L787.093 19.5653C787.836 19.7178 788.389 19.9631 788.754 20.3011C789.118 20.6392 789.301 21.0833 789.301 21.6335C789.301 22.134 789.153 22.5732 788.858 22.951C788.566 23.3288 788.165 23.6238 787.655 23.8359C787.148 24.0447 786.563 24.1491 785.9 24.1491C784.889 24.1491 784.084 23.9387 783.484 23.5178C782.887 23.0935 782.538 22.5168 782.435 21.7876L784.518 21.6783C784.581 21.9865 784.733 22.2218 784.975 22.3842C785.217 22.5433 785.527 22.6229 785.905 22.6229C786.276 22.6229 786.575 22.5516 786.8 22.4091C787.029 22.2633 787.145 22.076 787.148 21.8473C787.145 21.6551 787.063 21.4976 786.904 21.375C786.745 21.2491 786.5 21.1529 786.169 21.0866L784.846 20.8232C784.1 20.674 783.545 20.4155 783.181 20.0476C782.819 19.6797 782.639 19.2107 782.639 18.6406C782.639 18.1501 782.771 17.7275 783.036 17.3729C783.305 17.0182 783.681 16.7448 784.165 16.5526C784.652 16.3603 785.222 16.2642 785.875 16.2642C786.84 16.2642 787.599 16.468 788.152 16.8757C788.709 17.2834 789.034 17.8385 789.127 18.5412ZM794.781 24V23.1051L798.141 19.4261C798.536 18.9953 798.861 18.6207 799.116 18.3026C799.371 17.9811 799.56 17.6795 799.683 17.3977C799.808 17.1127 799.871 16.8144 799.871 16.5028C799.871 16.1449 799.785 15.835 799.613 15.5732C799.444 15.3113 799.212 15.1091 798.917 14.9666C798.622 14.8241 798.29 14.7528 797.923 14.7528C797.531 14.7528 797.19 14.834 796.898 14.9964C796.61 15.1555 796.386 15.3793 796.227 15.6676C796.071 15.956 795.994 16.294 795.994 16.6818H794.82C794.82 16.0852 794.958 15.5616 795.233 15.1108C795.508 14.66 795.883 14.3087 796.357 14.0568C796.834 13.8049 797.369 13.679 797.962 13.679C798.559 13.679 799.088 13.8049 799.548 14.0568C800.009 14.3087 800.37 14.6484 800.632 15.076C800.894 15.5036 801.025 15.9792 801.025 16.5028C801.025 16.8774 800.957 17.2436 800.821 17.6016C800.688 17.9562 800.456 18.3523 800.125 18.7898C799.797 19.224 799.341 19.7543 798.758 20.3807L796.471 22.8267V22.9062H801.204V24H794.781ZM806.439 24.1392C805.856 24.1392 805.33 24.0232 804.863 23.7912C804.396 23.5592 804.021 23.241 803.739 22.8366C803.458 22.4323 803.304 21.9716 803.277 21.4545H804.47C804.517 21.9152 804.725 22.2964 805.097 22.598C805.471 22.8963 805.919 23.0455 806.439 23.0455C806.857 23.0455 807.228 22.9477 807.553 22.7521C807.881 22.5566 808.138 22.2881 808.323 21.9467C808.512 21.602 808.607 21.2126 808.607 20.7784C808.607 20.3343 808.509 19.9382 808.313 19.5902C808.121 19.2389 807.856 18.9621 807.518 18.7599C807.18 18.5578 806.794 18.455 806.359 18.4517C806.048 18.4484 805.728 18.4964 805.4 18.5959C805.072 18.692 804.802 18.8163 804.589 18.9688L803.436 18.8295L804.053 13.8182H809.342V14.9119H805.087L804.729 17.9148H804.788C804.997 17.7491 805.259 17.6115 805.574 17.5021C805.889 17.3928 806.217 17.3381 806.558 17.3381C807.181 17.3381 807.737 17.4872 808.224 17.7855C808.714 18.0805 809.099 18.4848 809.377 18.9986C809.659 19.5123 809.8 20.099 809.8 20.7585C809.8 21.4081 809.654 21.9882 809.362 22.4986C809.074 23.0057 808.676 23.4067 808.169 23.7017C807.662 23.9934 807.085 24.1392 806.439 24.1392ZM815.096 24.1392C814.347 24.1392 813.709 23.9354 813.182 23.5277C812.655 23.1167 812.252 22.5218 811.974 21.7429C811.695 20.9607 811.556 20.0161 811.556 18.9091C811.556 17.8087 811.695 16.8691 811.974 16.0902C812.255 15.308 812.66 14.7114 813.187 14.3004C813.717 13.8861 814.353 13.679 815.096 13.679C815.838 13.679 816.473 13.8861 817 14.3004C817.53 14.7114 817.934 15.308 818.213 16.0902C818.495 16.8691 818.635 17.8087 818.635 18.9091C818.635 20.0161 818.496 20.9607 818.218 21.7429C817.939 22.5218 817.537 23.1167 817.01 23.5277C816.483 23.9354 815.845 24.1392 815.096 24.1392ZM815.096 23.0455C815.838 23.0455 816.415 22.6875 816.826 21.9716C817.237 21.2557 817.442 20.2348 817.442 18.9091C817.442 18.0275 817.348 17.2768 817.159 16.657C816.973 16.0372 816.705 15.5649 816.354 15.2401C816.006 14.9152 815.586 14.7528 815.096 14.7528C814.36 14.7528 813.785 15.1158 813.371 15.8416C812.956 16.5642 812.749 17.5866 812.749 18.9091C812.749 19.7907 812.842 20.5398 813.028 21.1562C813.213 21.7727 813.48 22.2417 813.828 22.5632C814.179 22.8847 814.602 23.0455 815.096 23.0455Z" fill="#B0AEBD"/>
<path d="M338.233 68V57.8182H344.338V58.9119H339.466V62.3523H343.881V63.446H339.466V68H338.233ZM347.464 57.8182V68H346.291V57.8182H347.464ZM354.425 64.8778V60.3636H355.599V68H354.425V66.7074H354.346C354.167 67.0952 353.888 67.425 353.511 67.6967C353.133 67.9652 352.656 68.0994 352.079 68.0994C351.602 68.0994 351.177 67.995 350.806 67.7862C350.435 67.5741 350.143 67.2559 349.931 66.8317C349.719 66.4041 349.613 65.8655 349.613 65.2159V60.3636H350.786V65.1364C350.786 65.6932 350.942 66.1373 351.254 66.4688C351.568 66.8002 351.969 66.9659 352.457 66.9659C352.748 66.9659 353.045 66.8913 353.347 66.7422C353.652 66.593 353.907 66.3643 354.112 66.0561C354.321 65.7479 354.425 65.3551 354.425 64.8778ZM358.623 60.3636L360.452 63.4858L362.282 60.3636H363.634L361.168 64.1818L363.634 68H362.282L360.452 65.0369L358.623 68H357.27L359.697 64.1818L357.27 60.3636H358.623ZM368.096 68.1591C367.38 68.1591 366.764 67.9901 366.247 67.652C365.73 67.3139 365.332 66.8482 365.053 66.255C364.775 65.6617 364.636 64.9839 364.636 64.2216C364.636 63.446 364.778 62.7616 365.063 62.1683C365.352 61.5717 365.753 61.1061 366.267 60.7713C366.784 60.4332 367.387 60.2642 368.076 60.2642C368.613 60.2642 369.097 60.3636 369.528 60.5625C369.959 60.7614 370.312 61.0398 370.587 61.3977C370.862 61.7557 371.033 62.1733 371.099 62.6506H369.926C369.836 62.3026 369.637 61.9943 369.329 61.7259C369.024 61.4541 368.613 61.3182 368.096 61.3182C367.639 61.3182 367.238 61.4375 366.893 61.6761C366.552 61.9115 366.285 62.2446 366.093 62.6754C365.904 63.103 365.809 63.6051 365.809 64.1818C365.809 64.7718 365.902 65.2855 366.088 65.723C366.276 66.1605 366.542 66.5002 366.883 66.7422C367.228 66.9841 367.632 67.1051 368.096 67.1051C368.401 67.1051 368.678 67.0521 368.926 66.946C369.175 66.84 369.385 66.6875 369.558 66.4886C369.73 66.2898 369.853 66.0511 369.926 65.7727H371.099C371.033 66.2235 370.869 66.6295 370.607 66.9908C370.348 67.3487 370.005 67.6338 369.578 67.8459C369.153 68.0547 368.66 68.1591 368.096 68.1591ZM375.916 68.1591C375.227 68.1591 374.622 67.995 374.102 67.6669C373.585 67.3388 373.18 66.8797 372.889 66.2898C372.6 65.6998 372.456 65.0104 372.456 64.2216C372.456 63.4261 372.6 62.7318 372.889 62.1385C373.18 61.5452 373.585 61.0845 374.102 60.7564C374.622 60.4283 375.227 60.2642 375.916 60.2642C376.606 60.2642 377.209 60.4283 377.726 60.7564C378.246 61.0845 378.651 61.5452 378.939 62.1385C379.231 62.7318 379.377 63.4261 379.377 64.2216C379.377 65.0104 379.231 65.6998 378.939 66.2898C378.651 66.8797 378.246 67.3388 377.726 67.6669C377.209 67.995 376.606 68.1591 375.916 68.1591ZM375.916 67.1051C376.44 67.1051 376.871 66.9709 377.209 66.7024C377.547 66.4339 377.797 66.081 377.96 65.6435C378.122 65.206 378.203 64.732 378.203 64.2216C378.203 63.7112 378.122 63.2356 377.96 62.7947C377.797 62.3539 377.547 61.9976 377.209 61.7259C376.871 61.4541 376.44 61.3182 375.916 61.3182C375.393 61.3182 374.962 61.4541 374.624 61.7259C374.286 61.9976 374.035 62.3539 373.873 62.7947C373.711 63.2356 373.629 63.7112 373.629 64.2216C373.629 64.732 373.711 65.206 373.873 65.6435C374.035 66.081 374.286 66.4339 374.624 66.7024C374.962 66.9709 375.393 67.1051 375.916 67.1051ZM381.168 68V60.3636H382.301V61.517H382.381C382.52 61.1392 382.772 60.8326 383.136 60.5973C383.501 60.362 383.912 60.2443 384.369 60.2443C384.455 60.2443 384.563 60.246 384.692 60.2493C384.822 60.2526 384.92 60.2576 384.986 60.2642V61.4574C384.946 61.4474 384.855 61.4325 384.712 61.4126C384.573 61.3894 384.426 61.3778 384.27 61.3778C383.899 61.3778 383.567 61.4557 383.276 61.6115C382.987 61.764 382.759 61.9761 382.589 62.2479C382.424 62.5163 382.341 62.8229 382.341 63.1676V68H381.168ZM389.346 68.1591C388.61 68.1591 387.975 67.9967 387.442 67.6719C386.911 67.3438 386.502 66.8864 386.214 66.2997C385.929 65.7098 385.786 65.0237 385.786 64.2415C385.786 63.4593 385.929 62.7699 386.214 62.1733C386.502 61.5734 386.903 61.1061 387.417 60.7713C387.934 60.4332 388.537 60.2642 389.227 60.2642C389.624 60.2642 390.017 60.3305 390.405 60.4631C390.793 60.5956 391.146 60.8111 391.464 61.1094C391.782 61.4044 392.036 61.7955 392.224 62.2827C392.413 62.7699 392.508 63.3698 392.508 64.0824V64.5795H386.621V63.5653H391.315C391.315 63.1345 391.228 62.75 391.056 62.4119C390.887 62.0739 390.645 61.8071 390.33 61.6115C390.019 61.416 389.651 61.3182 389.227 61.3182C388.759 61.3182 388.355 61.4342 388.013 61.6662C387.675 61.8949 387.415 62.1932 387.233 62.5611C387.051 62.929 386.96 63.3234 386.96 63.7443V64.4205C386.96 64.9972 387.059 65.486 387.258 65.8871C387.46 66.2848 387.74 66.5881 388.098 66.7969C388.456 67.0024 388.872 67.1051 389.346 67.1051C389.654 67.1051 389.933 67.062 390.181 66.9759C390.433 66.8864 390.65 66.7538 390.832 66.5781C391.015 66.3991 391.156 66.1771 391.255 65.9119L392.388 66.2301C392.269 66.6146 392.069 66.9527 391.787 67.2443C391.505 67.5327 391.157 67.758 390.743 67.9205C390.329 68.0795 389.863 68.1591 389.346 68.1591ZM398.389 68V57.8182H399.562V61.5767H399.662C399.748 61.4441 399.867 61.2751 400.02 61.0696C400.176 60.8608 400.398 60.6752 400.686 60.5128C400.978 60.3471 401.372 60.2642 401.869 60.2642C402.512 60.2642 403.079 60.425 403.57 60.7464C404.06 61.0679 404.443 61.5237 404.718 62.1136C404.993 62.7036 405.131 63.3996 405.131 64.2017C405.131 65.0104 404.993 65.7114 404.718 66.3047C404.443 66.8946 404.062 67.352 403.575 67.6768C403.087 67.9983 402.526 68.1591 401.889 68.1591C401.399 68.1591 401.006 68.0779 400.711 67.9155C400.416 67.7498 400.189 67.5625 400.03 67.3537C399.871 67.1416 399.748 66.9659 399.662 66.8267H399.523V68H398.389ZM399.543 64.1818C399.543 64.7585 399.627 65.2673 399.796 65.7081C399.965 66.1456 400.212 66.4886 400.537 66.7372C400.862 66.9825 401.259 67.1051 401.73 67.1051C402.221 67.1051 402.63 66.9759 402.958 66.7173C403.29 66.4555 403.538 66.1042 403.704 65.6634C403.873 65.2192 403.957 64.7254 403.957 64.1818C403.957 63.6449 403.875 63.161 403.709 62.7301C403.546 62.2959 403.299 61.9529 402.968 61.701C402.64 61.4458 402.227 61.3182 401.73 61.3182C401.253 61.3182 400.852 61.4392 400.527 61.6811C400.202 61.9197 399.957 62.2545 399.791 62.6854C399.625 63.1129 399.543 63.6117 399.543 64.1818ZM407.408 70.8636C407.209 70.8636 407.031 70.8471 406.876 70.8139C406.72 70.7841 406.612 70.7543 406.553 70.7244L406.851 69.6903C407.136 69.7633 407.388 69.7898 407.607 69.7699C407.825 69.75 408.019 69.6522 408.188 69.4766C408.361 69.3042 408.518 69.0241 408.661 68.6364L408.879 68.0398L406.055 60.3636H407.328L409.436 66.4489H409.516L411.624 60.3636H412.896L409.655 69.1136C409.509 69.508 409.328 69.8345 409.113 70.093C408.897 70.3549 408.647 70.5488 408.362 70.6747C408.08 70.8007 407.762 70.8636 407.408 70.8636ZM426.735 61H425.502C425.429 60.6454 425.301 60.3338 425.119 60.0653C424.94 59.7969 424.721 59.5715 424.463 59.3892C424.208 59.2036 423.924 59.0644 423.613 58.9716C423.301 58.8788 422.976 58.8324 422.638 58.8324C422.022 58.8324 421.463 58.9882 420.963 59.2997C420.466 59.6113 420.069 60.0703 419.775 60.6768C419.483 61.2834 419.337 62.0275 419.337 62.9091C419.337 63.7907 419.483 64.5348 419.775 65.1413C420.069 65.7479 420.466 66.2069 420.963 66.5185C421.463 66.83 422.022 66.9858 422.638 66.9858C422.976 66.9858 423.301 66.9394 423.613 66.8466C423.924 66.7538 424.208 66.6162 424.463 66.4339C424.721 66.2483 424.94 66.0213 425.119 65.7528C425.301 65.4811 425.429 65.1695 425.502 64.8182H426.735C426.642 65.3385 426.473 65.8042 426.228 66.2152C425.982 66.6262 425.677 66.9759 425.313 67.2642C424.948 67.5492 424.539 67.7663 424.085 67.9155C423.634 68.0646 423.152 68.1392 422.638 68.1392C421.77 68.1392 420.998 67.9271 420.321 67.5028C419.645 67.0786 419.113 66.4754 418.725 65.6932C418.338 64.911 418.144 63.983 418.144 62.9091C418.144 61.8352 418.338 60.9072 418.725 60.125C419.113 59.3428 419.645 58.7396 420.321 58.3153C420.998 57.8911 421.77 57.679 422.638 57.679C423.152 57.679 423.634 57.7536 424.085 57.9027C424.539 58.0518 424.948 58.2706 425.313 58.5589C425.677 58.844 425.982 59.192 426.228 59.603C426.473 60.0107 426.642 60.4763 426.735 61ZM429.741 57.8182V68H428.568V57.8182H429.741ZM434.137 68.179C433.654 68.179 433.214 68.0878 432.82 67.9055C432.426 67.7199 432.112 67.4531 431.88 67.1051C431.648 66.7538 431.532 66.3295 431.532 65.8324C431.532 65.3949 431.618 65.0402 431.791 64.7685C431.963 64.4934 432.194 64.2779 432.482 64.1222C432.77 63.9664 433.088 63.8504 433.436 63.7741C433.788 63.6946 434.141 63.6316 434.495 63.5852C434.959 63.5256 435.336 63.4808 435.624 63.451C435.916 63.4179 436.128 63.3632 436.26 63.2869C436.396 63.2107 436.464 63.0781 436.464 62.8892V62.8494C436.464 62.3589 436.33 61.9777 436.061 61.706C435.796 61.4342 435.394 61.2983 434.853 61.2983C434.293 61.2983 433.854 61.4209 433.536 61.6662C433.218 61.9115 432.994 62.1733 432.865 62.4517L431.751 62.054C431.95 61.59 432.215 61.2287 432.547 60.9702C432.881 60.7083 433.246 60.526 433.64 60.4233C434.038 60.3172 434.429 60.2642 434.814 60.2642C435.059 60.2642 435.341 60.294 435.659 60.3537C435.98 60.41 436.29 60.5277 436.588 60.7067C436.89 60.8857 437.14 61.1558 437.339 61.517C437.538 61.8783 437.637 62.3622 437.637 62.9688V68H436.464V66.9659H436.404C436.325 67.1316 436.192 67.3089 436.007 67.4979C435.821 67.6868 435.574 67.8475 435.266 67.9801C434.958 68.1127 434.582 68.179 434.137 68.179ZM434.316 67.125C434.78 67.125 435.172 67.0339 435.49 66.8516C435.811 66.6693 436.053 66.4339 436.216 66.1456C436.381 65.8572 436.464 65.554 436.464 65.2358V64.1619C436.414 64.2216 436.305 64.2763 436.136 64.326C435.97 64.3724 435.778 64.4138 435.559 64.4503C435.344 64.4834 435.133 64.5133 434.928 64.5398C434.726 64.563 434.562 64.5829 434.436 64.5994C434.131 64.6392 433.846 64.7038 433.581 64.7933C433.319 64.8795 433.107 65.0104 432.944 65.1861C432.785 65.3584 432.706 65.5937 432.706 65.892C432.706 66.2997 432.856 66.608 433.158 66.8168C433.463 67.0223 433.849 67.125 434.316 67.125ZM444.591 64.8778V60.3636H445.765V68H444.591V66.7074H444.512C444.333 67.0952 444.055 67.425 443.677 67.6967C443.299 67.9652 442.822 68.0994 442.245 68.0994C441.768 68.0994 441.343 67.995 440.972 67.7862C440.601 67.5741 440.309 67.2559 440.097 66.8317C439.885 66.4041 439.779 65.8655 439.779 65.2159V60.3636H440.952V65.1364C440.952 65.6932 441.108 66.1373 441.42 66.4688C441.734 66.8002 442.135 66.9659 442.623 66.9659C442.914 66.9659 443.211 66.8913 443.513 66.7422C443.818 66.593 444.073 66.3643 444.278 66.0561C444.487 65.7479 444.591 65.3551 444.591 64.8778ZM450.797 68.1591C450.161 68.1591 449.599 67.9983 449.112 67.6768C448.625 67.352 448.243 66.8946 447.968 66.3047C447.693 65.7114 447.556 65.0104 447.556 64.2017C447.556 63.3996 447.693 62.7036 447.968 62.1136C448.243 61.5237 448.626 61.0679 449.117 60.7464C449.607 60.425 450.174 60.2642 450.817 60.2642C451.314 60.2642 451.707 60.3471 451.995 60.5128C452.287 60.6752 452.509 60.8608 452.662 61.0696C452.817 61.2751 452.938 61.4441 453.025 61.5767H453.124V57.8182H454.297V68H453.164V66.8267H453.025C452.938 66.9659 452.816 67.1416 452.657 67.3537C452.498 67.5625 452.27 67.7498 451.975 67.9155C451.681 68.0779 451.288 68.1591 450.797 68.1591ZM450.956 67.1051C451.427 67.1051 451.825 66.9825 452.15 66.7372C452.474 66.4886 452.721 66.1456 452.89 65.7081C453.059 65.2673 453.144 64.7585 453.144 64.1818C453.144 63.6117 453.061 63.1129 452.895 62.6854C452.73 62.2545 452.484 61.9197 452.159 61.6811C451.835 61.4392 451.434 61.3182 450.956 61.3182C450.459 61.3182 450.045 61.4458 449.713 61.701C449.385 61.9529 449.138 62.2959 448.973 62.7301C448.81 63.161 448.729 63.6449 448.729 64.1818C448.729 64.7254 448.812 65.2192 448.978 65.6634C449.147 66.1042 449.395 66.4555 449.723 66.7173C450.055 66.9759 450.466 67.1051 450.956 67.1051ZM459.811 68.1591C459.075 68.1591 458.44 67.9967 457.907 67.6719C457.376 67.3438 456.967 66.8864 456.679 66.2997C456.394 65.7098 456.251 65.0237 456.251 64.2415C456.251 63.4593 456.394 62.7699 456.679 62.1733C456.967 61.5734 457.368 61.1061 457.882 60.7713C458.399 60.4332 459.002 60.2642 459.691 60.2642C460.089 60.2642 460.482 60.3305 460.87 60.4631C461.257 60.5956 461.61 60.8111 461.929 61.1094C462.247 61.4044 462.5 61.7955 462.689 62.2827C462.878 62.7699 462.973 63.3698 462.973 64.0824V64.5795H457.086V63.5653H461.779C461.779 63.1345 461.693 62.75 461.521 62.4119C461.352 62.0739 461.11 61.8071 460.795 61.6115C460.484 61.416 460.116 61.3182 459.691 61.3182C459.224 61.3182 458.82 61.4342 458.478 61.6662C458.14 61.8949 457.88 62.1932 457.698 62.5611C457.516 62.929 457.424 63.3234 457.424 63.7443V64.4205C457.424 64.9972 457.524 65.486 457.723 65.8871C457.925 66.2848 458.205 66.5881 458.563 66.7969C458.921 67.0024 459.337 67.1051 459.811 67.1051C460.119 67.1051 460.397 67.062 460.646 66.9759C460.898 66.8864 461.115 66.7538 461.297 66.5781C461.48 66.3991 461.62 66.1771 461.72 65.9119L462.853 66.2301C462.734 66.6146 462.533 66.9527 462.252 67.2443C461.97 67.5327 461.622 67.758 461.208 67.9205C460.793 68.0795 460.328 68.1591 459.811 68.1591ZM474.422 60.3636C474.363 59.8598 474.121 59.4688 473.696 59.1903C473.272 58.9119 472.752 58.7727 472.135 58.7727C471.685 58.7727 471.29 58.8456 470.952 58.9915C470.617 59.1373 470.355 59.3378 470.167 59.593C469.981 59.8482 469.888 60.1383 469.888 60.4631C469.888 60.7348 469.953 60.9685 470.082 61.1641C470.215 61.3563 470.384 61.517 470.589 61.6463C470.795 61.7723 471.01 61.8767 471.235 61.9595C471.461 62.0391 471.668 62.1037 471.857 62.1534L472.891 62.4318C473.156 62.5014 473.451 62.5975 473.776 62.7202C474.104 62.8428 474.417 63.0102 474.716 63.2223C475.017 63.4311 475.266 63.6996 475.461 64.0277C475.657 64.3558 475.755 64.7585 475.755 65.2358C475.755 65.786 475.61 66.2831 475.322 66.7273C475.037 67.1714 474.619 67.5244 474.069 67.7862C473.522 68.0481 472.858 68.179 472.076 68.179C471.346 68.179 470.715 68.0613 470.181 67.826C469.651 67.5907 469.234 67.2625 468.929 66.8416C468.627 66.4207 468.456 65.9318 468.417 65.375H469.689C469.722 65.7595 469.852 66.0777 470.077 66.3295C470.306 66.5781 470.594 66.7637 470.942 66.8864C471.293 67.0057 471.671 67.0653 472.076 67.0653C472.546 67.0653 472.969 66.9891 473.343 66.8366C473.718 66.6809 474.015 66.4654 474.233 66.1903C474.452 65.9119 474.561 65.5871 474.561 65.2159C474.561 64.8778 474.467 64.6027 474.278 64.3906C474.089 64.1785 473.841 64.0062 473.532 63.8736C473.224 63.741 472.891 63.625 472.533 63.5256L471.28 63.1676C470.485 62.9389 469.855 62.6125 469.391 62.1882C468.927 61.764 468.695 61.2088 468.695 60.5227C468.695 59.9527 468.849 59.4555 469.157 59.0312C469.469 58.6037 469.886 58.2723 470.41 58.0369C470.937 57.7983 471.525 57.679 472.175 57.679C472.831 57.679 473.415 57.7966 473.925 58.032C474.435 58.264 474.84 58.5821 475.138 58.9865C475.44 59.3909 475.599 59.8499 475.615 60.3636H474.422ZM480.725 68.1591C480.036 68.1591 479.431 67.995 478.91 67.6669C478.393 67.3388 477.989 66.8797 477.697 66.2898C477.409 65.6998 477.265 65.0104 477.265 64.2216C477.265 63.4261 477.409 62.7318 477.697 62.1385C477.989 61.5452 478.393 61.0845 478.91 60.7564C479.431 60.4283 480.036 60.2642 480.725 60.2642C481.414 60.2642 482.018 60.4283 482.535 60.7564C483.055 61.0845 483.459 61.5452 483.748 62.1385C484.039 62.7318 484.185 63.4261 484.185 64.2216C484.185 65.0104 484.039 65.6998 483.748 66.2898C483.459 66.8797 483.055 67.3388 482.535 67.6669C482.018 67.995 481.414 68.1591 480.725 68.1591ZM480.725 67.1051C481.249 67.1051 481.68 66.9709 482.018 66.7024C482.356 66.4339 482.606 66.081 482.768 65.6435C482.931 65.206 483.012 64.732 483.012 64.2216C483.012 63.7112 482.931 63.2356 482.768 62.7947C482.606 62.3539 482.356 61.9976 482.018 61.7259C481.68 61.4541 481.249 61.3182 480.725 61.3182C480.201 61.3182 479.77 61.4541 479.432 61.7259C479.094 61.9976 478.844 62.3539 478.682 62.7947C478.519 63.2356 478.438 63.7112 478.438 64.2216C478.438 64.732 478.519 65.206 478.682 65.6435C478.844 66.081 479.094 66.4339 479.432 66.7024C479.77 66.9709 480.201 67.1051 480.725 67.1051ZM487.15 63.4062V68H485.976V60.3636H487.11V61.5568H487.209C487.388 61.169 487.66 60.8575 488.025 60.6222C488.389 60.3835 488.86 60.2642 489.436 60.2642C489.953 60.2642 490.406 60.3703 490.794 60.5824C491.181 60.7912 491.483 61.1094 491.699 61.5369C491.914 61.9612 492.022 62.4981 492.022 63.1477V68H490.848V63.2273C490.848 62.6274 490.693 62.16 490.381 61.8253C490.069 61.4872 489.642 61.3182 489.098 61.3182C488.724 61.3182 488.389 61.3994 488.094 61.5618C487.802 61.7242 487.572 61.9612 487.403 62.2727C487.234 62.5843 487.15 62.9621 487.15 63.4062ZM497.367 68.1591C496.632 68.1591 495.997 67.9967 495.463 67.6719C494.933 67.3438 494.524 66.8864 494.235 66.2997C493.95 65.7098 493.808 65.0237 493.808 64.2415C493.808 63.4593 493.95 62.7699 494.235 62.1733C494.524 61.5734 494.925 61.1061 495.438 60.7713C495.955 60.4332 496.559 60.2642 497.248 60.2642C497.646 60.2642 498.039 60.3305 498.426 60.4631C498.814 60.5956 499.167 60.8111 499.485 61.1094C499.803 61.4044 500.057 61.7955 500.246 62.2827C500.435 62.7699 500.529 63.3698 500.529 64.0824V64.5795H494.643V63.5653H499.336C499.336 63.1345 499.25 62.75 499.078 62.4119C498.909 62.0739 498.667 61.8071 498.352 61.6115C498.04 61.416 497.672 61.3182 497.248 61.3182C496.781 61.3182 496.376 61.4342 496.035 61.6662C495.697 61.8949 495.437 62.1932 495.254 62.5611C495.072 62.929 494.981 63.3234 494.981 63.7443V64.4205C494.981 64.9972 495.08 65.486 495.279 65.8871C495.481 66.2848 495.762 66.5881 496.119 66.7969C496.477 67.0024 496.893 67.1051 497.367 67.1051C497.676 67.1051 497.954 67.062 498.203 66.9759C498.454 66.8864 498.672 66.7538 498.854 66.5781C499.036 66.3991 499.177 66.1771 499.276 65.9119L500.41 66.2301C500.291 66.6146 500.09 66.9527 499.808 67.2443C499.527 67.5327 499.179 67.758 498.764 67.9205C498.35 68.0795 497.884 68.1591 497.367 68.1591ZM505.635 60.3636V61.358H501.678V60.3636H505.635ZM502.831 58.5341H504.004V65.8125C504.004 66.1439 504.052 66.3925 504.149 66.5582C504.248 66.7206 504.374 66.83 504.526 66.8864C504.682 66.9394 504.846 66.9659 505.019 66.9659C505.148 66.9659 505.254 66.9593 505.337 66.946C505.42 66.9295 505.486 66.9162 505.536 66.9062L505.774 67.9602C505.695 67.9901 505.584 68.0199 505.441 68.0497C505.299 68.0829 505.118 68.0994 504.899 68.0994C504.568 68.0994 504.243 68.0282 503.925 67.8857C503.61 67.7431 503.348 67.526 503.139 67.2344C502.934 66.9427 502.831 66.5748 502.831 66.1307V58.5341ZM506.936 65.9119V64.8977L511.411 57.8182H512.147V59.3892H511.65L508.269 64.7386V64.8182H514.294V65.9119H506.936ZM511.729 68V65.6037V65.1314V57.8182H512.902V68H511.729ZM516.554 68.0795C516.309 68.0795 516.098 67.9917 515.923 67.8161C515.747 67.6404 515.659 67.4299 515.659 67.1847C515.659 66.9394 515.747 66.7289 515.923 66.5533C516.098 66.3776 516.309 66.2898 516.554 66.2898C516.799 66.2898 517.01 66.3776 517.185 66.5533C517.361 66.7289 517.449 66.9394 517.449 67.1847C517.449 67.3471 517.407 67.4962 517.325 67.6321C517.245 67.768 517.137 67.8774 517.001 67.9602C516.869 68.0398 516.72 68.0795 516.554 68.0795ZM522.511 68.1392C521.928 68.1392 521.403 68.0232 520.935 67.7912C520.468 67.5592 520.093 67.241 519.812 66.8366C519.53 66.4323 519.376 65.9716 519.349 65.4545H520.542C520.589 65.9152 520.798 66.2964 521.169 66.598C521.543 66.8963 521.991 67.0455 522.511 67.0455C522.929 67.0455 523.3 66.9477 523.625 66.7521C523.953 66.5566 524.21 66.2881 524.395 65.9467C524.584 65.602 524.679 65.2126 524.679 64.7784C524.679 64.3343 524.581 63.9382 524.385 63.5902C524.193 63.2389 523.928 62.9621 523.59 62.7599C523.252 62.5578 522.866 62.455 522.432 62.4517C522.12 62.4484 521.8 62.4964 521.472 62.5959C521.144 62.692 520.874 62.8163 520.662 62.9688L519.508 62.8295L520.125 57.8182H525.415V58.9119H521.159L520.801 61.9148H520.861C521.069 61.7491 521.331 61.6115 521.646 61.5021C521.961 61.3928 522.289 61.3381 522.631 61.3381C523.254 61.3381 523.809 61.4872 524.296 61.7855C524.787 62.0805 525.171 62.4848 525.449 62.9986C525.731 63.5123 525.872 64.099 525.872 64.7585C525.872 65.4081 525.726 65.9882 525.434 66.4986C525.146 67.0057 524.748 67.4067 524.241 67.7017C523.734 67.9934 523.157 68.1392 522.511 68.1392Z" fill="#FEFEFF"/>
<path d="M313.264 34.4545H317.057L321.062 44.2273H321.233L325.239 34.4545H329.031V49H326.048V39.5327H325.928L322.163 48.929H320.132L316.368 39.4972H316.247V49H313.264V34.4545ZM336.437 49.2131C335.334 49.2131 334.38 48.9787 333.575 48.5099C332.775 48.0365 332.157 47.3783 331.721 46.5355C331.286 45.688 331.068 44.7055 331.068 43.5881C331.068 42.4612 331.286 41.4763 331.721 40.6335C332.157 39.786 332.775 39.1278 333.575 38.6591C334.38 38.1856 335.334 37.9489 336.437 37.9489C337.54 37.9489 338.492 38.1856 339.292 38.6591C340.097 39.1278 340.717 39.786 341.153 40.6335C341.589 41.4763 341.806 42.4612 341.806 43.5881C341.806 44.7055 341.589 45.688 341.153 46.5355C340.717 47.3783 340.097 48.0365 339.292 48.5099C338.492 48.9787 337.54 49.2131 336.437 49.2131ZM336.451 46.8693C336.953 46.8693 337.372 46.7273 337.708 46.4432C338.045 46.1544 338.298 45.7614 338.468 45.2642C338.644 44.767 338.731 44.2012 338.731 43.5668C338.731 42.9323 338.644 42.3665 338.468 41.8693C338.298 41.3722 338.045 40.9792 337.708 40.6903C337.372 40.4015 336.953 40.2571 336.451 40.2571C335.945 40.2571 335.519 40.4015 335.173 40.6903C334.832 40.9792 334.574 41.3722 334.399 41.8693C334.228 42.3665 334.143 42.9323 334.143 43.5668C334.143 44.2012 334.228 44.767 334.399 45.2642C334.574 45.7614 334.832 46.1544 335.173 46.4432C335.519 46.7273 335.945 46.8693 336.451 46.8693ZM347.794 49.1776C346.965 49.1776 346.215 48.9645 345.542 48.5384C344.875 48.1075 344.344 47.4754 343.951 46.642C343.563 45.804 343.369 44.7765 343.369 43.5597C343.369 42.3097 343.57 41.2704 343.973 40.4418C344.375 39.6084 344.91 38.9858 345.578 38.5739C346.25 38.1572 346.986 37.9489 347.787 37.9489C348.397 37.9489 348.906 38.053 349.314 38.2614C349.725 38.465 350.057 38.7206 350.308 39.0284C350.564 39.3314 350.758 39.6297 350.89 39.9233H350.983V34.4545H354.001V49H351.018V47.2528H350.89C350.748 47.5559 350.547 47.8565 350.287 48.1548C350.031 48.4484 349.697 48.6922 349.285 48.8864C348.878 49.0805 348.381 49.1776 347.794 49.1776ZM348.752 46.7699C349.24 46.7699 349.652 46.6373 349.988 46.3722C350.329 46.1023 350.59 45.7259 350.77 45.2429C350.954 44.7599 351.047 44.1941 351.047 43.5455C351.047 42.8968 350.957 42.3333 350.777 41.8551C350.597 41.3769 350.336 41.0076 349.995 40.7472C349.654 40.4867 349.24 40.3565 348.752 40.3565C348.255 40.3565 347.836 40.4915 347.495 40.7614C347.154 41.0312 346.896 41.4053 346.721 41.8835C346.546 42.3617 346.458 42.9157 346.458 43.5455C346.458 44.1799 346.546 44.741 346.721 45.2287C346.901 45.7116 347.159 46.0904 347.495 46.3651C347.836 46.6349 348.255 46.7699 348.752 46.7699ZM361.418 49.2131C360.314 49.2131 359.36 48.9787 358.555 48.5099C357.755 48.0365 357.137 47.3783 356.702 46.5355C356.266 45.688 356.048 44.7055 356.048 43.5881C356.048 42.4612 356.266 41.4763 356.702 40.6335C357.137 39.786 357.755 39.1278 358.555 38.6591C359.36 38.1856 360.314 37.9489 361.418 37.9489C362.521 37.9489 363.473 38.1856 364.273 38.6591C365.078 39.1278 365.698 39.786 366.134 40.6335C366.569 41.4763 366.787 42.4612 366.787 43.5881C366.787 44.7055 366.569 45.688 366.134 46.5355C365.698 47.3783 365.078 48.0365 364.273 48.5099C363.473 48.9787 362.521 49.2131 361.418 49.2131ZM361.432 46.8693C361.934 46.8693 362.353 46.7273 362.689 46.4432C363.025 46.1544 363.278 45.7614 363.449 45.2642C363.624 44.767 363.712 44.2012 363.712 43.5668C363.712 42.9323 363.624 42.3665 363.449 41.8693C363.278 41.3722 363.025 40.9792 362.689 40.6903C362.353 40.4015 361.934 40.2571 361.432 40.2571C360.925 40.2571 360.499 40.4015 360.153 40.6903C359.813 40.9792 359.554 41.3722 359.379 41.8693C359.209 42.3665 359.124 42.9323 359.124 43.5668C359.124 44.2012 359.209 44.767 359.379 45.2642C359.554 45.7614 359.813 46.1544 360.153 46.4432C360.499 46.7273 360.925 46.8693 361.432 46.8693ZM377.831 41.2017L375.061 41.3722C375.014 41.1354 374.912 40.9223 374.756 40.733C374.599 40.5388 374.393 40.3849 374.138 40.2713C373.887 40.1529 373.586 40.0938 373.236 40.0938C372.767 40.0938 372.372 40.1932 372.05 40.392C371.728 40.5862 371.567 40.8466 371.567 41.1733C371.567 41.4337 371.671 41.6539 371.879 41.8338C372.088 42.0137 372.445 42.1581 372.952 42.267L374.926 42.6648C375.987 42.8826 376.777 43.233 377.298 43.7159C377.819 44.1989 378.08 44.8333 378.08 45.6193C378.08 46.3343 377.869 46.9616 377.447 47.5014C377.031 48.0412 376.458 48.4626 375.729 48.7656C375.004 49.0639 374.169 49.2131 373.222 49.2131C371.777 49.2131 370.627 48.9124 369.77 48.3111C368.918 47.705 368.418 46.8812 368.271 45.8395L371.247 45.6832C371.337 46.1236 371.555 46.4598 371.901 46.6918C372.246 46.919 372.689 47.0327 373.229 47.0327C373.759 47.0327 374.185 46.9309 374.507 46.7273C374.834 46.5189 375 46.2514 375.004 45.9247C375 45.6501 374.884 45.4252 374.656 45.25C374.429 45.0701 374.079 44.9328 373.605 44.8381L371.716 44.4616C370.651 44.2486 369.857 43.8793 369.337 43.3537C368.821 42.8281 368.562 42.1581 368.562 41.3438C368.562 40.643 368.752 40.0393 369.131 39.5327C369.514 39.026 370.052 38.6354 370.743 38.3608C371.439 38.0862 372.253 37.9489 373.186 37.9489C374.564 37.9489 375.648 38.2401 376.439 38.8224C377.234 39.4048 377.698 40.1979 377.831 41.2017ZM388.634 49.1776C387.805 49.1776 387.054 48.9645 386.382 48.5384C385.714 48.1075 385.184 47.4754 384.791 46.642C384.403 45.804 384.209 44.7765 384.209 43.5597C384.209 42.3097 384.41 41.2704 384.812 40.4418C385.215 39.6084 385.75 38.9858 386.418 38.5739C387.09 38.1572 387.826 37.9489 388.626 37.9489C389.237 37.9489 389.746 38.053 390.153 38.2614C390.565 38.465 390.897 38.7206 391.148 39.0284C391.403 39.3314 391.598 39.6297 391.73 39.9233H391.822V34.4545H394.841V49H391.858V47.2528H391.73C391.588 47.5559 391.387 47.8565 391.126 48.1548C390.871 48.4484 390.537 48.6922 390.125 48.8864C389.718 49.0805 389.221 49.1776 388.634 49.1776ZM389.592 46.7699C390.08 46.7699 390.492 46.6373 390.828 46.3722C391.169 46.1023 391.429 45.7259 391.609 45.2429C391.794 44.7599 391.886 44.1941 391.886 43.5455C391.886 42.8968 391.796 42.3333 391.616 41.8551C391.437 41.3769 391.176 41.0076 390.835 40.7472C390.494 40.4867 390.08 40.3565 389.592 40.3565C389.095 40.3565 388.676 40.4915 388.335 40.7614C387.994 41.0312 387.736 41.4053 387.561 41.8835C387.386 42.3617 387.298 42.9157 387.298 43.5455C387.298 44.1799 387.386 44.741 387.561 45.2287C387.741 45.7116 387.999 46.0904 388.335 46.3651C388.676 46.6349 389.095 46.7699 389.592 46.7699ZM402.3 49.2131C401.178 49.2131 400.212 48.9858 399.402 48.5312C398.597 48.072 397.977 47.4233 397.542 46.5852C397.106 45.7424 396.888 44.7457 396.888 43.5952C396.888 42.473 397.106 41.4882 397.542 40.6406C397.977 39.7931 398.59 39.1326 399.381 38.6591C400.176 38.1856 401.109 37.9489 402.179 37.9489C402.899 37.9489 403.569 38.0649 404.189 38.2969C404.814 38.5241 405.359 38.8674 405.823 39.3267C406.292 39.786 406.656 40.3636 406.917 41.0597C407.177 41.7509 407.307 42.5606 407.307 43.4886V44.3196H398.096V42.4446H404.459C404.459 42.009 404.364 41.6231 404.175 41.2869C403.986 40.9508 403.723 40.688 403.387 40.4986C403.055 40.3045 402.669 40.2074 402.229 40.2074C401.77 40.2074 401.363 40.3139 401.007 40.527C400.657 40.7353 400.382 41.017 400.184 41.3722C399.985 41.7225 399.883 42.1132 399.878 42.544V44.3267C399.878 44.8665 399.978 45.3329 400.176 45.7259C400.38 46.1188 400.667 46.4219 401.036 46.6349C401.405 46.848 401.843 46.9545 402.35 46.9545C402.686 46.9545 402.994 46.9072 403.273 46.8125C403.552 46.7178 403.792 46.5758 403.99 46.3864C404.189 46.197 404.341 45.965 404.445 45.6903L407.243 45.875C407.101 46.5473 406.81 47.1345 406.37 47.6364C405.934 48.1335 405.371 48.5218 404.679 48.8011C403.993 49.0758 403.2 49.2131 402.3 49.2131ZM413.911 49V38.0909H416.844V39.9943H416.957C417.156 39.3172 417.49 38.8059 417.959 38.4602C418.428 38.1098 418.967 37.9347 419.578 37.9347C419.73 37.9347 419.893 37.9441 420.068 37.9631C420.243 37.982 420.397 38.008 420.53 38.0412V40.7259C420.388 40.6832 420.191 40.6454 419.94 40.6122C419.689 40.5791 419.46 40.5625 419.251 40.5625C418.806 40.5625 418.409 40.6596 418.058 40.8537C417.713 41.0431 417.438 41.3082 417.234 41.6491C417.036 41.9901 416.936 42.383 416.936 42.8281V49H413.911ZM426.558 49.2131C425.436 49.2131 424.47 48.9858 423.66 48.5312C422.855 48.072 422.235 47.4233 421.799 46.5852C421.364 45.7424 421.146 44.7457 421.146 43.5952C421.146 42.473 421.364 41.4882 421.799 40.6406C422.235 39.7931 422.848 39.1326 423.639 38.6591C424.434 38.1856 425.367 37.9489 426.437 37.9489C427.157 37.9489 427.827 38.0649 428.447 38.2969C429.072 38.5241 429.617 38.8674 430.081 39.3267C430.549 39.786 430.914 40.3636 431.174 41.0597C431.435 41.7509 431.565 42.5606 431.565 43.4886V44.3196H422.353V42.4446H428.717C428.717 42.009 428.622 41.6231 428.433 41.2869C428.243 40.9508 427.981 40.688 427.645 40.4986C427.313 40.3045 426.927 40.2074 426.487 40.2074C426.028 40.2074 425.62 40.3139 425.265 40.527C424.915 40.7353 424.64 41.017 424.441 41.3722C424.243 41.7225 424.141 42.1132 424.136 42.544V44.3267C424.136 44.8665 424.235 45.3329 424.434 45.7259C424.638 46.1188 424.924 46.4219 425.294 46.6349C425.663 46.848 426.101 46.9545 426.608 46.9545C426.944 46.9545 427.252 46.9072 427.531 46.8125C427.81 46.7178 428.049 46.5758 428.248 46.3864C428.447 46.197 428.599 45.965 428.703 45.6903L431.501 45.875C431.359 46.5473 431.068 47.1345 430.627 47.6364C430.192 48.1335 429.628 48.5218 428.937 48.8011C428.251 49.0758 427.458 49.2131 426.558 49.2131ZM442.616 41.2017L439.846 41.3722C439.799 41.1354 439.697 40.9223 439.541 40.733C439.385 40.5388 439.179 40.3849 438.923 40.2713C438.672 40.1529 438.371 40.0938 438.021 40.0938C437.552 40.0938 437.157 40.1932 436.835 40.392C436.513 40.5862 436.352 40.8466 436.352 41.1733C436.352 41.4337 436.456 41.6539 436.664 41.8338C436.873 42.0137 437.23 42.1581 437.737 42.267L439.711 42.6648C440.772 42.8826 441.563 43.233 442.083 43.7159C442.604 44.1989 442.865 44.8333 442.865 45.6193C442.865 46.3343 442.654 46.9616 442.233 47.5014C441.816 48.0412 441.243 48.4626 440.514 48.7656C439.789 49.0639 438.954 49.2131 438.007 49.2131C436.563 49.2131 435.412 48.9124 434.555 48.3111C433.703 47.705 433.203 46.8812 433.056 45.8395L436.032 45.6832C436.122 46.1236 436.34 46.4598 436.686 46.6918C437.031 46.919 437.474 47.0327 438.014 47.0327C438.544 47.0327 438.97 46.9309 439.292 46.7273C439.619 46.5189 439.785 46.2514 439.789 45.9247C439.785 45.6501 439.669 45.4252 439.441 45.25C439.214 45.0701 438.864 44.9328 438.39 44.8381L436.501 44.4616C435.436 44.2486 434.643 43.8793 434.122 43.3537C433.606 42.8281 433.348 42.1581 433.348 41.3438C433.348 40.643 433.537 40.0393 433.916 39.5327C434.299 39.026 434.837 38.6354 435.528 38.3608C436.224 38.0862 437.038 37.9489 437.971 37.9489C439.349 37.9489 440.433 38.2401 441.224 38.8224C442.02 39.4048 442.484 40.1979 442.616 41.2017ZM444.77 53.0909V38.0909H447.753V39.9233H447.888C448.02 39.6297 448.212 39.3314 448.463 39.0284C448.719 38.7206 449.05 38.465 449.457 38.2614C449.869 38.053 450.381 37.9489 450.991 37.9489C451.787 37.9489 452.521 38.1572 453.193 38.5739C453.866 38.9858 454.403 39.6084 454.805 40.4418C455.208 41.2704 455.409 42.3097 455.409 43.5597C455.409 44.7765 455.213 45.804 454.82 46.642C454.431 47.4754 453.901 48.1075 453.229 48.5384C452.561 48.9645 451.813 49.1776 450.984 49.1776C450.397 49.1776 449.898 49.0805 449.486 48.8864C449.079 48.6922 448.745 48.4484 448.484 48.1548C448.224 47.8565 448.025 47.5559 447.888 47.2528H447.795V53.0909H444.77ZM447.732 43.5455C447.732 44.1941 447.821 44.7599 448.001 45.2429C448.181 45.7259 448.442 46.1023 448.783 46.3722C449.124 46.6373 449.538 46.7699 450.026 46.7699C450.518 46.7699 450.935 46.6349 451.276 46.3651C451.616 46.0904 451.875 45.7116 452.05 45.2287C452.23 44.741 452.32 44.1799 452.32 43.5455C452.32 42.9157 452.232 42.3617 452.057 41.8835C451.882 41.4053 451.624 41.0312 451.283 40.7614C450.942 40.4915 450.523 40.3565 450.026 40.3565C449.533 40.3565 449.116 40.4867 448.776 40.7472C448.439 41.0076 448.181 41.3769 448.001 41.8551C447.821 42.3333 447.732 42.8968 447.732 43.5455ZM464.422 44.3551V38.0909H467.447V49H464.543V47.0185H464.429C464.183 47.6577 463.773 48.1714 463.2 48.5597C462.632 48.9479 461.938 49.142 461.119 49.142C460.39 49.142 459.749 48.9763 459.195 48.6449C458.641 48.3134 458.207 47.8423 457.895 47.2315C457.587 46.6207 457.431 45.8892 457.426 45.0369V38.0909H460.452V44.4972C460.456 45.1411 460.629 45.6501 460.97 46.0241C461.311 46.3982 461.768 46.5852 462.341 46.5852C462.705 46.5852 463.046 46.5024 463.364 46.3366C463.681 46.1662 463.937 45.9152 464.131 45.5838C464.33 45.2524 464.427 44.8428 464.422 44.3551ZM474.839 49.2131C473.717 49.2131 472.751 48.9858 471.941 48.5312C471.136 48.072 470.516 47.4233 470.081 46.5852C469.645 45.7424 469.427 44.7457 469.427 43.5952C469.427 42.473 469.645 41.4882 470.081 40.6406C470.516 39.7931 471.129 39.1326 471.92 38.6591C472.716 38.1856 473.648 37.9489 474.718 37.9489C475.438 37.9489 476.108 38.0649 476.728 38.2969C477.353 38.5241 477.898 38.8674 478.362 39.3267C478.831 39.786 479.195 40.3636 479.456 41.0597C479.716 41.7509 479.846 42.5606 479.846 43.4886V44.3196H470.635V42.4446H476.998C476.998 42.009 476.904 41.6231 476.714 41.2869C476.525 40.9508 476.262 40.688 475.926 40.4986C475.594 40.3045 475.208 40.2074 474.768 40.2074C474.309 40.2074 473.902 40.3139 473.547 40.527C473.196 40.7353 472.922 41.017 472.723 41.3722C472.524 41.7225 472.422 42.1132 472.417 42.544V44.3267C472.417 44.8665 472.517 45.3329 472.716 45.7259C472.919 46.1188 473.206 46.4219 473.575 46.6349C473.944 46.848 474.382 46.9545 474.889 46.9545C475.225 46.9545 475.533 46.9072 475.812 46.8125C476.092 46.7178 476.331 46.5758 476.529 46.3864C476.728 46.197 476.88 45.965 476.984 45.6903L479.782 45.875C479.64 46.5473 479.349 47.1345 478.909 47.6364C478.473 48.1335 477.91 48.5218 477.218 48.8011C476.532 49.0758 475.739 49.2131 474.839 49.2131ZM490.897 41.2017L488.127 41.3722C488.08 41.1354 487.978 40.9223 487.822 40.733C487.666 40.5388 487.46 40.3849 487.204 40.2713C486.953 40.1529 486.653 40.0938 486.302 40.0938C485.833 40.0938 485.438 40.1932 485.116 40.392C484.794 40.5862 484.633 40.8466 484.633 41.1733C484.633 41.4337 484.737 41.6539 484.946 41.8338C485.154 42.0137 485.511 42.1581 486.018 42.267L487.993 42.6648C489.053 42.8826 489.844 43.233 490.365 43.7159C490.886 44.1989 491.146 44.8333 491.146 45.6193C491.146 46.3343 490.935 46.9616 490.514 47.5014C490.097 48.0412 489.524 48.4626 488.795 48.7656C488.071 49.0639 487.235 49.2131 486.288 49.2131C484.844 49.2131 483.693 48.9124 482.836 48.3111C481.984 47.705 481.484 46.8812 481.338 45.8395L484.314 45.6832C484.404 46.1236 484.621 46.4598 484.967 46.6918C485.313 46.919 485.755 47.0327 486.295 47.0327C486.825 47.0327 487.252 46.9309 487.574 46.7273C487.9 46.5189 488.066 46.2514 488.071 45.9247C488.066 45.6501 487.95 45.4252 487.723 45.25C487.495 45.0701 487.145 44.9328 486.672 44.8381L484.782 44.4616C483.717 44.2486 482.924 43.8793 482.403 43.3537C481.887 42.8281 481.629 42.1581 481.629 41.3438C481.629 40.643 481.818 40.0393 482.197 39.5327C482.581 39.026 483.118 38.6354 483.809 38.3608C484.505 38.0862 485.32 37.9489 486.252 37.9489C487.63 37.9489 488.715 38.2401 489.505 38.8224C490.301 39.4048 490.765 40.1979 490.897 41.2017ZM498.854 38.0909V40.3636H492.284V38.0909H498.854ZM493.776 35.4773H496.801V45.6477C496.801 45.9271 496.844 46.1449 496.929 46.3011C497.014 46.4527 497.133 46.5592 497.284 46.6207C497.44 46.6823 497.62 46.7131 497.824 46.7131C497.966 46.7131 498.108 46.7012 498.25 46.6776C498.392 46.6491 498.501 46.6278 498.577 46.6136L499.053 48.8651C498.901 48.9124 498.688 48.9669 498.413 49.0284C498.139 49.0947 497.805 49.1349 497.412 49.1491C496.683 49.1776 496.044 49.0805 495.494 48.858C494.95 48.6354 494.526 48.2898 494.223 47.821C493.92 47.3523 493.771 46.7604 493.776 46.0455V35.4773ZM503.935 49.206C503.239 49.206 502.619 49.0852 502.075 48.8438C501.53 48.5975 501.099 48.2353 500.782 47.7571C500.469 47.2741 500.313 46.6728 500.313 45.9531C500.313 45.3471 500.424 44.8381 500.647 44.4261C500.87 44.0142 501.173 43.6828 501.556 43.4318C501.94 43.1809 502.375 42.9915 502.863 42.8636C503.355 42.7358 503.871 42.6458 504.411 42.5938C505.046 42.5275 505.557 42.4659 505.945 42.4091C506.334 42.3475 506.615 42.2576 506.79 42.1392C506.966 42.0208 507.053 41.8456 507.053 41.6136V41.571C507.053 41.1212 506.911 40.7732 506.627 40.527C506.348 40.2808 505.95 40.1577 505.434 40.1577C504.889 40.1577 504.456 40.2784 504.134 40.5199C503.812 40.7566 503.599 41.0549 503.495 41.4148L500.697 41.1875C500.839 40.5246 501.118 39.9517 501.535 39.4688C501.951 38.9811 502.489 38.607 503.147 38.3466C503.81 38.0814 504.577 37.9489 505.448 37.9489C506.054 37.9489 506.634 38.0199 507.188 38.1619C507.747 38.304 508.242 38.5241 508.673 38.8224C509.108 39.1207 509.451 39.5043 509.702 39.973C509.953 40.437 510.079 40.9934 510.079 41.642V49H507.21V47.4872H507.124C506.949 47.8281 506.715 48.1288 506.421 48.3892C506.128 48.6449 505.775 48.8461 505.363 48.9929C504.951 49.1349 504.475 49.206 503.935 49.206ZM504.802 47.1179C505.247 47.1179 505.64 47.0303 505.981 46.8551C506.322 46.6752 506.589 46.4337 506.783 46.1307C506.978 45.8277 507.075 45.4844 507.075 45.1009V43.9432C506.98 44.0047 506.85 44.0616 506.684 44.1136C506.523 44.161 506.341 44.206 506.137 44.2486C505.933 44.2865 505.73 44.322 505.526 44.3551C505.323 44.3835 505.138 44.4096 504.972 44.4332C504.617 44.4853 504.307 44.5682 504.042 44.6818C503.777 44.7955 503.571 44.9493 503.424 45.1435C503.277 45.3329 503.204 45.5696 503.204 45.8537C503.204 46.2656 503.353 46.5805 503.651 46.7983C503.954 47.0114 504.338 47.1179 504.802 47.1179ZM520.187 34.4545V49H517.112V34.4545H520.187ZM525.224 49H521.929L526.95 34.4545H530.913L535.928 49H532.632L528.989 37.7784H528.875L525.224 49ZM525.018 43.2827H532.803V45.6832H525.018V43.2827Z" fill="#FEFEFF"/>
<rect x="316" y="14" width="217" height="5" rx="2.5" fill="#3B82F6"/>
<defs>
<filter id="filter0_d_62_673" x="0" y="0" width="849" height="275" filterUnits="userSpaceOnUse" color-interpolation-filters="sRGB">
<feFlood flood-opacity="0" result="BackgroundImageFix"/>
<feColorMatrix in="SourceAlpha" type="matrix" values="0 0 0 0 0 0 0 0 0 0 0 0 0 0 0 0 0 0 127 0" result="hardAlpha"/>
<feOffset dy="4"/>
<feGaussianBlur stdDeviation="2"/>
<feComposite in2="hardAlpha" operator="out"/>
<feColorMatrix type="matrix" values="0 0 0 0 0 0 0 0 0 0 0 0 0 0 0 0 0 0 0.25 0"/>
<feBlend mode="normal" in2="BackgroundImageFix" result="effect1_dropShadow_62_673"/>
<feBlend mode="normal" in="SourceGraphic" in2="effect1_dropShadow_62_673" result="shape"/>
</filter>
</defs>
</svg>
